<mxfile host="app.diagrams.net" modified="2023-11-14T02:05:26.314Z" agent="Mozilla/5.0 (Windows NT 10.0; Win64; x64) AppleWebKit/537.36 (KHTML, like Gecko) Chrome/118.0.0.0 Safari/537.36" etag="uxEyoUs4Gxn6BXpcuRmh" version="22.1.0" type="github" pages="2">
  <diagram name="Page-1" id="HiGCrW5jWgtQCYCvVuER">
    <mxGraphModel dx="3374" dy="1858" grid="1" gridSize="10" guides="1" tooltips="1" connect="1" arrows="1" fold="1" page="1" pageScale="1" pageWidth="850" pageHeight="1100" math="0" shadow="0">
      <root>
        <mxCell id="0" />
        <mxCell id="1" parent="0" />
        <UserObject label="" plantUmlData="{&quot;data&quot;:&quot;&#39;###########################################################################################\n&#39; Author - Murthy pothapragada\n&#39;Plant UML script to generate flow diagram\n&#39;###########################################################################################\n@startuml\ntitle Event Based PDE CYCLE Automated Processing\n&#39;skinparam Style strictuml\nskinparam backgroundColor #EEEBDC\n&#39;skinparam handwritten true\n\nskinparam interface {\n  backgroundColor RosyBrown\n  borderColor orange\n}\n\nskinparam component {\n  FontSize 15\n  BackgroundColor&lt;&lt;Apache&gt;&gt; LightCoral\n  BorderColor  #FFFFF0\n  FontName Courier\n  BorderColor black\n  BackgroundColor gold\n  ArrowFontName Impact\n  ArrowColor #0000FF\n  ArrowFontColor #Purple\n}\n\n&#39; Uncomment the line below for \&quot;dark mode\&quot; styling\n&#39;!$AWS_DARK = true\n!define AWSPuml https://raw.githubusercontent.com/awslabs/aws-icons-for-plantuml/v16.0/dist\n!include AWSPuml/AWSCommon.puml\n!include AWSPuml/Analytics/KinesisDataStreams.puml\n!include AWSPuml/ApplicationIntegration/SimpleQueueService.puml\n!include AWSPuml/ApplicationIntegration/SimpleNotificationService.puml\n!include AWSPuml/ApplicationIntegration/EventBridge.puml\n!include AWSPuml/Analytics/EMRCluster.puml\n!include AWSPuml/Analytics/Redshift.puml\n!include AWSPuml/ManagementGovernance/CloudWatch.puml\n&#39;!includeurl AWSPuml/Compute/Lambda.puml\n!include AWSPuml/Compute/Lambda.puml\n!include AWSPuml/Compute/EC2.puml\n!includeurl AWSPuml/ApplicationIntegration/APIGateway.puml\n!include AWSPuml/BusinessApplications/all.puml\n!include AWSPuml/Storage/SimpleStorageService.puml\n!define sqspng https://github.com/gitbhas/awsicons.git\\sqs.PNG\nSimpleStorageServiceParticipant(S3Bucket, ,)\nLambdaParticipant(ALambda,\&quot;Add to Queue\&quot;,\&quot;Function\&quot;)\nSimpleQueueServiceParticipant(SQS, ,)\nCloudWatchParticipant(Alarm,,\&quot;Alarm\&quot;)\nEventBridgeParticipant(EventBridge, ,)\nSimpleNotificationServiceParticipant(SNS, ,) \nLambdaParticipant(Lambda,\&quot;Poll Queue\&quot;,\&quot;Function\&quot;) \n \nEC2Participant(EC2,,\&quot;App Server\&quot;)\nRedshiftParticipant(Redshift,,\&quot;Serverless\&quot;)\nEC2Participant(EFT,,\&quot;EFT Server\&quot;)\nEMRClusterParticipant(DBX,,\&quot;Databricks\&quot;)\ngroup#Gold PDE Cycle Process\ngroup#Yellow #LightBlue 1-PDE Files from Palmetto --&gt;\n\nS3Bucket -&gt; ALambda: Trigger Lambda to add Message \nALambda -&gt; SQS: Add message (Cycle1 &amp; Cycle3)(PDECOPY.*)Files(/prd:/landing/pdecopy/CNTL.*)\nS3Bucket -&gt; Lambda: Trigger Lambda to bring up EC2\n\n    Lambda --&gt; EC2:Start App Server\nEventBridge --&gt; Alarm: Activate Alarm when EC2 app server is online\ngroup#Brown  SNS notification\n\tAlarm --&gt; SNS : Generate SNS notification by CloudWatch Alarm  \n       \n     end\nend  \ngroup#Yellow #LightGreen 2-TriggerLambda-poll SQS-Invoke PDE Cycle Scripts\ngroup#Gold  Trigger Lambda\n     group#Brown  SNS event\n       SNS --&gt; Lambda : Trigger Poll Lambda by SNS event\n     end\n      group#LightBlue  S3 event\n       S3Bucket -&gt; Lambda: Trigger Poll Lambda by S3 event  \n      end\nend\n \ngroup#Gold Poll SQS  \n Lambda -&gt; SQS  : Poll SQS Queue (SNS/S3 eventS) \n Lambda -&gt; EC2  : Shut Down EC2 App server(No Messages in Queue)\nLambda -&gt; Redshift  : Take Snapshot of PRD Database (No Messages in Queue)\nend \ngroup#Yellow 3-Invoke Scripts(By SQS message Type)\nLambda -&gt; EC2 -- #Yellow : Trigger R&amp;C or BOL scripts    \nend\nend\ngroup#Yellow 4-Application run  \ngroup#Gold (1.1)Receipt&amp;Control\n    \n    EC2 --&gt; EC2: Start R&amp;C script (PDECOPY)\n    EC2 --&gt; EFT: PDE Response files EFT\n group#Gold #Pink (1.2)Databricks (PDE EDITS)\n    EC2 -&gt; DBX --:R&amp;C process Trigger PDE EDITS Workflow\nend\nend\n&#39;group#Gold #LightPink  (1.3)After DBX S3 event\ngroup#LightBlue  (s3 event-(1.3) DBX.done file)\n DBX -&gt;  S3Bucket: Put DBX.done/CNTL/PDEPLS files \nS3Bucket --&gt; ALambda: Trigger Lambda to add Message\nALambda --&gt; SQS: Add message (Cycle1 &amp; Cycle3)(PDEPLS.*)Files(/prd:/landing/CNTL.*)  \nend \n&#39;end\n    \n\ngroup#Gold #LightYellow (1.4) PDEPLS files from Databricks  \n   group#Gold #LightYellow (1.5) B O L \n  EC2 --&gt; EC2 : Start BOL script (PDEPLS)\n  EC2 --&gt; EC2 : Bene Link key file processing)(Cycle3)\n  EC2 --&gt; EFT : Out bound files EFT\n     end\n  &#39;S3Bucket -&gt; SQS: Add message (PDEPLS.*)Files(/prd:/landing/CNTL.*)\nend\nend\n&#39;group#Gold #LightYellow  (1.6) After BOL S3 event\ngroup#LightBlue  (s3 event -(1.6) EFT.done file)    \n   EC2 -&gt; S3Bucket --: Put EFT done file to s3    \nend\n&#39;end\nend\n\n@enduml&quot;,&quot;format&quot;:&quot;svg&quot;}" id="U6NYjKyzwwUGawbsVeQF-1">
          <mxCell style="shape=image;noLabel=1;verticalAlign=top;aspect=fixed;imageAspect=0;image=data:image/svg+xml,PD94bWwgdmVyc2lvbj0iMS4wIiBlbmNvZGluZz0idXMtYXNjaWkiIHN0YW5kYWxvbmU9Im5vIj8+PHN2ZyB4bWxucz0iaHR0cDovL3d3dy53My5vcmcvMjAwMC9zdmciIHhtbG5zOnhsaW5rPSJodHRwOi8vd3d3LnczLm9yZy8xOTk5L3hsaW5rIiBjb250ZW50U3R5bGVUeXBlPSJ0ZXh0L2NzcyIgaGVpZ2h0PSIxNjk5cHgiIHByZXNlcnZlQXNwZWN0UmF0aW89Im5vbmUiIHN0eWxlPSJ3aWR0aDoxOTUwcHg7aGVpZ2h0OjE2OTlweDtiYWNrZ3JvdW5kOiNGRkZGRkY7IiB2ZXJzaW9uPSIxLjEiIHZpZXdCb3g9IjAgMCAxOTUwIDE2OTkiIHdpZHRoPSIxOTUwcHgiIHpvb21BbmRQYW49Im1hZ25pZnkiPjxkZWZzLz48Zz48dGV4dCBmaWxsPSIjMDAwMDAwIiBmb250LWZhbWlseT0ic2Fucy1zZXJpZiIgZm9udC1zaXplPSIxNCIgZm9udC13ZWlnaHQ9ImJvbGQiIGxlbmd0aEFkanVzdD0ic3BhY2luZyIgdGV4dExlbmd0aD0iMjk1IiB4PSI4MjkiIHk9IjI4LjIzNDQiPkV2ZW50IEJhc2VkIFBERSBDWUNMRSBBdXRvbWF0ZWQgUHJvY2Vzc2luZzwvdGV4dD48cmVjdCBmaWxsPSJub25lIiBoZWlnaHQ9IjEzNzYuNzUiIHN0eWxlPSJzdHJva2U6IzdEODk5ODtzdHJva2Utd2lkdGg6MS41OyIgd2lkdGg9IjE5MzQiIHg9IjEwIiB5PSIxNzkuNzk2OSIvPjxyZWN0IGZpbGw9IiNBREQ4RTYiIGhlaWdodD0iMjgzLjk1MzEiIHN0eWxlPSJzdHJva2U6IzdEODk5ODtzdHJva2Utd2lkdGg6MS41OyIgd2lkdGg9IjE1MTUiIHg9IjQwIiB5PSIyMDIuNzEwOSIvPjxyZWN0IGZpbGw9Im5vbmUiIGhlaWdodD0iNjguNDQ1MyIgc3R5bGU9InN0cm9rZTojN0Q4OTk4O3N0cm9rZS13aWR0aDoxLjU7IiB3aWR0aD0iNTIwLjUiIHg9Ijc1NCIgeT0iNDExLjIxODgiLz48cmVjdCBmaWxsPSIjOTBFRTkwIiBoZWlnaHQ9IjQyOS4yOTY5IiBzdHlsZT0ic3Ryb2tlOiM3RDg5OTg7c3Ryb2tlLXdpZHRoOjEuNTsiIHdpZHRoPSIxNjg0IiB4PSIyMCIgeT0iNTAwLjY2NDEiLz48cmVjdCBmaWxsPSJub25lIiBoZWlnaHQ9IjE1NS4xMTcyIiBzdHlsZT0ic3Ryb2tlOiM3RDg5OTg7c3Ryb2tlLXdpZHRoOjEuNTsiIHdpZHRoPSIxMzYyLjUiIHg9IjMwIiB5PSI1MjMuNTc4MSIvPjxyZWN0IGZpbGw9Im5vbmUiIGhlaWdodD0iNTUuNjAxNiIgc3R5bGU9InN0cm9rZTojN0Q4OTk4O3N0cm9rZS13aWR0aDoxLjU7IiB3aWR0aD0iMzM4IiB4PSIxMDQ0LjUiIHk9IjU0Ni40OTIyIi8+PHJlY3QgZmlsbD0ibm9uZSIgaGVpZ2h0PSI1NS42MDE2IiBzdHlsZT0ic3Ryb2tlOiM3RDg5OTg7c3Ryb2tlLXdpZHRoOjEuNTsiIHdpZHRoPSIxMzQyLjUiIHg9IjQwIiB5PSI2MTYuMDkzOCIvPjxyZWN0IGZpbGw9Im5vbmUiIGhlaWdodD0iMTYwLjY2NDEiIHN0eWxlPSJzdHJva2U6IzdEODk5ODtzdHJva2Utd2lkdGg6MS41OyIgd2lkdGg9IjExMTEiIHg9IjU4MyIgeT0iNjkyLjY5NTMiLz48cmVjdCBmaWxsPSJub25lIiBoZWlnaHQ9IjU1LjYwMTYiIHN0eWxlPSJzdHJva2U6IzdEODk5ODtzdHJva2Utd2lkdGg6MS41OyIgd2lkdGg9IjMwMiIgeD0iMTI3NC41IiB5PSI4NjcuMzU5NCIvPjxyZWN0IGZpbGw9Im5vbmUiIGhlaWdodD0iNTQ4LjgyODEiIHN0eWxlPSJzdHJva2U6IzdEODk5ODtzdHJva2Utd2lkdGg6MS41OyIgd2lkdGg9IjE5MDQiIHg9IjMwIiB5PSI5NDMuOTYwOSIvPjxyZWN0IGZpbGw9Im5vbmUiIGhlaWdodD0iMTY1LjA0NjkiIHN0eWxlPSJzdHJva2U6IzdEODk5ODtzdHJva2Utd2lkdGg6MS41OyIgd2lkdGg9IjQ5OCIgeD0iMTQyNiIgeT0iOTY2Ljg3NSIvPjxyZWN0IGZpbGw9IiNGRkMwQ0IiIGhlaWdodD0iNTUuNjAxNiIgc3R5bGU9InN0cm9rZTojN0Q4OTk4O3N0cm9rZS13aWR0aDoxLjU7IiB3aWR0aD0iNDc4IiB4PSIxNDM2IiB5PSIxMDY5LjMyMDMiLz48cmVjdCBmaWxsPSJub25lIiBoZWlnaHQ9IjE0Ny44MjAzIiBzdHlsZT0ic3Ryb2tlOiM3RDg5OTg7c3Ryb2tlLXdpZHRoOjEuNTsiIHdpZHRoPSIxODc0IiB4PSI0MCIgeT0iMTE0NS45MjE5Ii8+PHJlY3QgZmlsbD0iI0ZGRkZFMCIgaGVpZ2h0PSIxNzguMDQ2OSIgc3R5bGU9InN0cm9rZTojN0Q4OTk4O3N0cm9rZS13aWR0aDoxLjU7IiB3aWR0aD0iMzg0IiB4PSIxNDI2IiB5PSIxMzA3Ljc0MjIiLz48cmVjdCBmaWxsPSIjRkZGRkUwIiBoZWlnaHQ9IjE0OC4xMzI4IiBzdHlsZT0ic3Ryb2tlOiM3RDg5OTg7c3Ryb2tlLXdpZHRoOjEuNTsiIHdpZHRoPSIzNjQiIHg9IjE0MzYiIHk9IjEzMzAuNjU2MyIvPjxyZWN0IGZpbGw9Im5vbmUiIGhlaWdodD0iNDIuNzU3OCIgc3R5bGU9InN0cm9rZTojN0Q4OTk4O3N0cm9rZS13aWR0aDoxLjU7IiB3aWR0aD0iMTUxNSIgeD0iNDAiIHk9IjE1MDYuNzg5MSIvPjxsaW5lIHN0eWxlPSJzdHJva2U6IzAwMDAwMDtzdHJva2Utd2lkdGg6MC41O3N0cm9rZS1kYXNoYXJyYXk6NS4wLDUuMDsiIHgxPSIxMzciIHgyPSIxMzciIHkxPSIxNjIuNzk2OSIgeTI9IjE1NzMuNTQ2OSIvPjxsaW5lIHN0eWxlPSJzdHJva2U6IzAwMDAwMDtzdHJva2Utd2lkdGg6MC41O3N0cm9rZS1kYXNoYXJyYXk6NS4wLDUuMDsiIHgxPSIzMDAuNSIgeDI9IjMwMC41IiB5MT0iMTYyLjc5NjkiIHkyPSIxNTczLjU0NjkiLz48bGluZSBzdHlsZT0ic3Ryb2tlOiMwMDAwMDA7c3Ryb2tlLXdpZHRoOjAuNTtzdHJva2UtZGFzaGFycmF5OjUuMCw1LjA7IiB4MT0iNjczIiB4Mj0iNjczIiB5MT0iMTYyLjc5NjkiIHkyPSIxNTczLjU0NjkiLz48bGluZSBzdHlsZT0ic3Ryb2tlOiMwMDAwMDA7c3Ryb2tlLXdpZHRoOjAuNTtzdHJva2UtZGFzaGFycmF5OjUuMCw1LjA7IiB4MT0iODE2IiB4Mj0iODE2IiB5MT0iMTYyLjc5NjkiIHkyPSIxNTczLjU0NjkiLz48bGluZSBzdHlsZT0ic3Ryb2tlOiMwMDAwMDA7c3Ryb2tlLXdpZHRoOjAuNTtzdHJva2UtZGFzaGFycmF5OjUuMCw1LjA7IiB4MT0iOTg4LjUiIHgyPSI5ODguNSIgeTE9IjE2Mi43OTY5IiB5Mj0iMTU3My41NDY5Ii8+PGxpbmUgc3R5bGU9InN0cm9rZTojMDAwMDAwO3N0cm9rZS13aWR0aDowLjU7c3Ryb2tlLWRhc2hhcnJheTo1LjAsNS4wOyIgeDE9IjExNTkuNSIgeDI9IjExNTkuNSIgeTE9IjE2Mi43OTY5IiB5Mj0iMTU3My41NDY5Ii8+PGxpbmUgc3R5bGU9InN0cm9rZTojMDAwMDAwO3N0cm9rZS13aWR0aDowLjU7c3Ryb2tlLWRhc2hhcnJheTo1LjAsNS4wOyIgeDE9IjEzMjguNSIgeDI9IjEzMjguNSIgeTE9IjE2Mi43OTY5IiB5Mj0iMTU3My41NDY5Ii8+PGxpbmUgc3R5bGU9InN0cm9rZTojMDAwMDAwO3N0cm9rZS13aWR0aDowLjU7c3Ryb2tlLWRhc2hhcnJheTo1LjAsNS4wOyIgeDE9IjE0OTUiIHgyPSIxNDk1IiB5MT0iMTYyLjc5NjkiIHkyPSIxNTczLjU0NjkiLz48bGluZSBzdHlsZT0ic3Ryb2tlOiMwMDAwMDA7c3Ryb2tlLXdpZHRoOjAuNTtzdHJva2UtZGFzaGFycmF5OjUuMCw1LjA7IiB4MT0iMTYzNCIgeDI9IjE2MzQiIHkxPSIxNjIuNzk2OSIgeTI9IjE1NzMuNTQ2OSIvPjxsaW5lIHN0eWxlPSJzdHJva2U6IzAwMDAwMDtzdHJva2Utd2lkdGg6MC41O3N0cm9rZS1kYXNoYXJyYXk6NS4wLDUuMDsiIHgxPSIxNzQyIiB4Mj0iMTc0MiIgeTE9IjE2Mi43OTY5IiB5Mj0iMTU3My41NDY5Ii8+PGxpbmUgc3R5bGU9InN0cm9rZTojMDAwMDAwO3N0cm9rZS13aWR0aDowLjU7c3Ryb2tlLWRhc2hhcnJheTo1LjAsNS4wOyIgeDE9IjE4NTIiIHgyPSIxODUyIiB5MT0iMTYyLjc5NjkiIHkyPSIxNTczLjU0NjkiLz48cmVjdCBmaWxsPSIjRkZGRkZGIiBoZWlnaHQ9IjEyMC44MTI1IiBzdHlsZT0ic3Ryb2tlOiM3RDg5OTg7c3Ryb2tlLXdpZHRoOjEuMjU7IiB3aWR0aD0iMTcxIiB4PSI1MiIgeT0iNDAuOTg0NCIvPjx0ZXh0IGZpbGw9IiMwMDAwMDAiIGZvbnQtZmFtaWx5PSJzYW5zLXNlcmlmIiBmb250LXNpemU9IjE0IiBmb250LXN0eWxlPSJpdGFsaWMiIGxlbmd0aEFkanVzdD0ic3BhY2luZyIgdGV4dExlbmd0aD0iMTU3IiB4PSI1OSIgeT0iNjEuMjE4OCI+JiMxNzE7U2ltcGxlU3RvcmFnZVNlcnZpY2UmIzE4Nzs8L3RleHQ+PHRleHQgZmlsbD0iIzAwMDAwMCIgZm9udC1mYW1pbHk9InNhbnMtc2VyaWYiIGZvbnQtc2l6ZT0iMTQiIGxlbmd0aEFkanVzdD0ic3BhY2luZyIgdGV4dExlbmd0aD0iNyIgeD0iMTM0IiB5PSI3Ni4yMDMxIj4mIzE2MDs8L3RleHQ+PGltYWdlIGhlaWdodD0iNjQiIHdpZHRoPSI2NCIgeD0iMTA1LjUiIHhsaW5rOmhyZWY9ImRhdGE6aW1hZ2UvcG5nO2Jhc2U2NCxpVkJPUncwS0dnb0FBQUFOU1VoRVVnQUFBRUFBQUFCQUNBSUFBQUFsQythSkFBQUdjRWxFUVZSNFh1Mlo2VzlVVlJqRytTdmM5N2pIR0tLQ0NoaWowUzh1TWNZbEtsOWN3QkJRWTR6cmdKU3RDZ0tsQmxGUVdWcTY3N1RRMHRKQ04yaExGenJRUXVtK0YyaW5NS1hMZEp2cnJ6MmhhZnJPekwxM1pwS1JaRzZlVE82YzU3M1BlNTk3ejV6em5qUHpMQkczM05TWUo1dHVMZ1FOQkJwQkE0RkcwRUNnRVRRUWFQaGtZSFhrYmVGcFN4S0xWdVZWYjYxb2lHbnNMcnh5cmY3YVlOZVFvMzlzWXNUcG5PU1RjMXBvaHlXR1NPSzVpbXVsb0Jmd3hzRHY2UzltVjRXMlhDNFpIUi9TdkQyNEZnVjBVSk1wak1PRWdRMnhEeDBwWDJzYmFKbTVDYWZtN0xVM1dwdFRjczlzU1NyK2FtL09PenZTRm05Sm5MOHA3cEdRcUh0NHhueHlUZ3Z0c01RUVNUeFhjZTJNVHQ5QU04cm95NlM2TUdSZ1RlVHRtZVVobytPREtoOWRvclJ1WDBUZTB2VXhEOGhnZytCYUZOQkJUY21pVHhaeXlXQVAwRGV3THZxKzFzdWxLc2VGanB6OXg5NzNWL2RWUUExTmxGVUsraFVaWlpnNzZCczQwNVNvVGIvbFBWbHZTTmFQUUo4czVLcHFTcENzTytnYkdCc2ZSblJyOHRPUzhqdTJwU3drRnhrbDVRNzZCa1pHN1lpV04wVC9mUEJPeWZvUmE2UHVVbTk3WlBTYVpOMUIzMENYN2F6cW5iMzJCb2FSdFZGM3l4Z2Z3V0NWZlBKcjFYODR1bXhXR2VNTytnWnEyZzRqT2o0eHF0UWRZOWVybTVNVGlsYjYzcW0ySmorVFdQd0ZvK3JNK0theW5HdE5sOEh1b0crZ3FQWlBSQXRxZHNZWHJtaS9VcUV5cVdOZytGSkRkLzZwQy8ra2wvNFlmZUtUM1ptdjA0bEQ0eC9mRVBzZy9XRjF4SzE4Y2s0TDdiREVwSmY5Ukh4amR3SFh6cFpDR1gyeWFOTzU1RzI0Zzc2QlE2VS9JR3B0U1ZWZnQ2YzhtMWJ5SFkvTlB0UTkrdzY4T0ZCQUJ6VTBsVGhaYUU4citWYmVoanZvR3ppUSt5R2k3YjJWa3FJUFJPUit4T012ck5sVjA1clIwVnRGelhOMXNIUElZV01rbWFxRnhvYzVwNFYyV0dLSUpKNnJ1RllLa29WYyszTGVrNVE3NkJzSVMxMkU2T0JJcjZUOERyS1FhMXZLQWttNWc3NEJoaDFWdDRSRTN5dFpQd0o5c2t3Nko5WkUzaUZaZDlBM0FPeERQVWlISDNwQlVoNWdxaUlBNkpPbC8zcWJwRHpBa0FGVkMwWG1MWldVUzFCWHRsMHA1eEw2L2NhNGgyV0FTNkRQSlN3YkpPVUJoZ3hRbkNETkNDZ3BsNkRLbnhwbHBvODg2ellaNEJJWlpSYmlUOWNmbEpRSEdETEFNZ3JwNHRxL0pPVVNzdzN3K3puZm5zVWtJTVBtb0xoMk4vRkhLemRLeWdNTUdVZ3EvaExwMnJZamtuSUoxWVc0OWM2K2FsYVZ5Z2xEWkd6QmNnOC8wTnIyVE1KaThwZEp5Z01NR2ZqNzZGdElkOXZPU2NvRHFIRDRaQm8rYnQzT3lsalpZUG5DTXc2TmYwekdkL2ZYRU5CbmJ6cVErNEZrM2NHUUFkYUUybFNSYUplVVFUQkVIaXI5bm5KUTJhRG1xVzVLbXJQQWNJd05LSmFER2RyZ2NzK1FBUlpORTVOajZHNk1OVHFrdUFUVkVVLzNRa2MyZzcyNlVXYm9uS3JRMzVLZVlyRFNwaXJGQVJiSHFyYkQ3YThKVDBpUk9UQmtBUEJtRWYwajR4VkplWUV0U2ZPUFc4Tm02amwrTFQzOXRaeGM2ajl2bVZyV0xLQzc4clg1MGtsNTdSd1lOVkRmZFJ6RjZQeFBKZVUxK0VGVGFGR2N6OTZldVRyWVFUbGQyUmlydnVwdVZSZzFVSGJ4QUhLWjVTR1M4aDNNMmVxT1orKzFhUDU5QTFrVjYxRXNxZHNyS2IrZ3RHNC8rb2RQcnc1UFd4Slg4RG1UV3RTSmo0MHNZbzBhaU1uL2pBUjFuY2NrNVJkYzdNelR6RlFyTXpCcVlOZmhWN1hwUVVOU2ZvRWFZYzNXaXhiakJoaEFTY0MwS2luZndmQTZQdUZBMzJ3QmF6RnV3SEpqZjhYSTJHd1dteE9mMUx4ZE01a3dvUFpYZG1lK0ppa2Z3WlNzdVZtMTZzS0VBYlcvRWwrNFFsSStJcUZvcFRacjM4QVVUQmhRK3l2TS9KTHlFY2ZPYkVZNS8yeTRwSFJod29EYVh5bXZqNUtVajZob2lFRTU5ZFEza3RLRkNRTnFmOFhza3M4SW1udE9vcnczNTExSjZjS0VnUjFwaTBsakcyaVZsSStnL3RHbWRsTVdTa29YSmd5by9aVko1N2paUDFFOGc1S082dHJwbkRSU09FaVlNR0M1c2I5aWF1TkpGMkdwejJ2VEt6VkpHWUU1QXhVTjBXcTg4KzVwU2ZCV2Exb3owQ3k3R0NGWkl6Qm5nS2MxN0xpcVRWZnRMSjFZbDhnWWcyQVZsbFd4VHYzRE4rU3dlZmNEc0pnMUFMYW5QdGRsczJvM2pyNkJabGEzT1ZXL3hCWXNaMElOUzEyMEtlN1JkZEgzODRxb2NQamtuQmJhOTJTOVNReVJyR0FZQ1dZVU9ucXJYRzcwR29ScEF3b01lV2RiMHRUYjhPN2dxYk55L3pmN2JTbHVDbDRhVUdDeHZ6UGpaWjVyZHVVbUpyaW1uaUplQ0RVWlJhdGF0dlBKT1MyME00R2NyajlJWkV6K3NwM3BML25ydjFxZkRQd2ZFRFFRYUFRTkJCcEJBNEZHMEVDZ2NkTWIrQTl6TXV1dnBqbFRVd0FBQUFCSlJVNUVya0pnZ2c9PSIgeT0iNzcuOTUzMSIvPjx0ZXh0IGZpbGw9IiMwMDAwMDAiIGZvbnQtZmFtaWx5PSJzYW5zLXNlcmlmIiBmb250LXNpemU9IjEyIiBsZW5ndGhBZGp1c3Q9InNwYWNpbmciIHRleHRMZW5ndGg9IjEyIiB4PSIxMzEuNSIgeT0iMTUzLjI5NjkiPltdPC90ZXh0PjxyZWN0IGZpbGw9IiNGRkZGRkYiIGhlaWdodD0iMTIwLjgxMjUiIHN0eWxlPSJzdHJva2U6IzdEODk5ODtzdHJva2Utd2lkdGg6MS4yNTsiIHdpZHRoPSIxNzEiIHg9IjUyIiB5PSIxNTcyLjU0NjkiLz48dGV4dCBmaWxsPSIjMDAwMDAwIiBmb250LWZhbWlseT0ic2Fucy1zZXJpZiIgZm9udC1zaXplPSIxNCIgZm9udC1zdHlsZT0iaXRhbGljIiBsZW5ndGhBZGp1c3Q9InNwYWNpbmciIHRleHRMZW5ndGg9IjE1NyIgeD0iNTkiIHk9IjE1OTIuNzgxMyI+JiMxNzE7U2ltcGxlU3RvcmFnZVNlcnZpY2UmIzE4Nzs8L3RleHQ+PHRleHQgZmlsbD0iIzAwMDAwMCIgZm9udC1mYW1pbHk9InNhbnMtc2VyaWYiIGZvbnQtc2l6ZT0iMTQiIGxlbmd0aEFkanVzdD0ic3BhY2luZyIgdGV4dExlbmd0aD0iNyIgeD0iMTM0IiB5PSIxNjA3Ljc2NTYiPiYjMTYwOzwvdGV4dD48aW1hZ2UgaGVpZ2h0PSI2NCIgd2lkdGg9IjY0IiB4PSIxMDUuNSIgeGxpbms6aHJlZj0iZGF0YTppbWFnZS9wbmc7YmFzZTY0LGlWQk9SdzBLR2dvQUFBQU5TVWhFVWdBQUFFQUFBQUJBQ0FJQUFBQWxDK2FKQUFBR2NFbEVRVlI0WHUyWjZXOVVWUmpHK1N2Yzk3akhHS0tDQ2hpajBTOHVNY1lsS2w5Y3dCQlFZNHpyZ0pTdENnS2xCbEZRV1ZxNjc3VFEwdEpDTjJoTEZ6clFRdW0rRjJpbk1LWExkSnZycnoyaGFmck96TDEzWnBLUlpHNmVUTzZjNTczUGU1OTd6NXp6bmpQekxCRzMzTlNZSjV0dUxnUU5CQnBCQTRGRzBFQ2dFVFFRYVBoa1lIWGtiZUZwU3hLTFZ1VlZiNjFvaUduc0xyeHlyZjdhWU5lUW8zOXNZc1Rwbk9TVGMxcG9oeVdHU09LNWltdWxvQmZ3eHNEdjZTOW1WNFcyWEM0WkhSL1N2RDI0RmdWMFVKTXBqTU9FZ1EyeER4MHBYMnNiYUptNUNhZm03TFUzV3B0VGNzOXNTU3IrYW0vT096dlNGbTlKbkw4cDdwR1FxSHQ0eG54eVRndnRzTVFRU1R4WGNlMk1UdDlBTThyb3k2UzZNR1JnVGVUdG1lVWhvK09ES2g5ZG9yUnVYMFRlMHZVeEQ4aGdnK0JhRk5CQlRjbWlUeFp5eVdBUDBEZXdMdnErMXN1bEtzZUZqcHo5eDk3M1YvZFZRQTFObEZVSytoVVpaWmc3NkJzNDA1U29UYi9sUFZsdlNOYVBRSjhzNUtwcVNwQ3NPK2diR0JzZlJuUnI4dE9TOGp1MnBTd2tGeGtsNVE3NkJrWkc3WWlXTjBUL2ZQQk95Zm9SYTZQdVVtOTdaUFNhWk4xQjMwQ1g3YXpxbmIzMkJvYVJ0VkYzeXhnZndXQ1ZmUEpyMVg4NHVteFdHZU1PK2dacTJnNGpPajR4cXRRZFk5ZXJtNU1UaWxiNjNxbTJKaitUV1B3Rm8rck0rS2F5bkd0Tmw4SHVvRytncVBaUFJBdHFkc1lYcm1pL1VxRXlxV05nK0ZKRGQvNnBDLytrbC80WWZlS1QzWm12MDRsRDR4L2ZFUHNnL1dGMXhLMThjazRMN2JERXBKZjlSSHhqZHdIWHpwWkNHWDJ5YU5PNTVHMjRnNzZCUTZVL0lHcHRTVlZmdDZjOG0xYnlIWS9OUHRROSt3NjhPRkJBQnpVMGxUaFphRThyK1ZiZWhqdm9HemlRK3lHaTdiMlZrcUlQUk9SK3hPTXZyTmxWMDVyUjBWdEZ6WE4xc0hQSVlXTWttYXFGeG9jNXA0VjJXR0tJSko2cnVGWUtrb1ZjKzNMZWs1UTc2QnNJUzEyRTZPQklyNlQ4RHJLUWExdktBa201Zzc0QmhoMVZ0NFJFM3l0WlB3Sjlza3c2SjlaRTNpRlpkOUEzQU94RFBVaUhIM3BCVWg1Z3FpSUE2Sk9sLzNxYnBEekFrQUZWQzBYbUxaV1VTMUJYdGwwcDV4TDYvY2E0aDJXQVM2RFBKU3diSk9VQmhneFFuQ0ROQ0NncGw2REtueHBscG84ODZ6WVo0QklaWlJiaVQ5Y2ZsSlFIR0RMQU1ncnA0dHEvSk9VU3N3M3crem5mbnNVa0lNUG1vTGgyTi9GSEt6ZEt5Z01NR1VncS9oTHAycllqa25JSjFZVzQ5YzYrYWxhVnlnbERaR3pCY2c4LzBOcjJUTUppOHBkSnlnTU1HZmo3NkZ0SWQ5dk9TY29EcUhENFpCbytidDNPeWxqWllQbkNNdzZOZjB6R2QvZlhFTkJuYnpxUSs0RmszY0dRQWRhRTJsU1JhSmVVUVRCRUhpcjlubkpRMmFEbXFXNUttclBBY0l3TktKYURHZHJnY3MrUUFSWk5FNU5qNkc2TU5UcWt1QVRWRVUvM1FrYzJnNzI2VVdib25LclEzNUtlWXJEU3BpckZBUmJIcXJiRDdhOEpUMGlST1RCa0FQQm1FZjBqNHhWSmVZRXRTZk9QVzhObTZqbCtMVDM5dFp4YzZqOXZtVnJXTEtDNzhyWDUwa2w1N1J3WU5WRGZkUnpGNlB4UEplVTErRUZUYUZHY3o5NmV1VHJZUVRsZDJSaXJ2dXB1VlJnMVVIYnhBSEtaNVNHUzhoM00yZXFPWisrMWFQNTlBMWtWNjFFc3Fkc3JLYitndEc0LytvZFBydzVQV3hKWDhEbVRXdFNKajQwc1lvMGFpTW4vakFSMW5jY2s1UmRjN016VHpGUXJNekJxWU5maFY3WHBRVU5TZm9FYVljM1dpeGJqQmhoQVNjQzBLaW5md2ZBNlB1RkEzMndCYXpGdXdISmpmOFhJMkd3V214T2YxTHhkTTVrd29QWlhkbWUrSmlrZndaU3N1Vm0xNnNLRUFiVy9FbCs0UWxJK0lxRm9wVFpyMzhBVVRCaFEreXZNL0pMeUVjZk9iRVk1LzJ5NHBIUmh3b0RhWHltdmo1S1VqNmhvaUVFNTlkUTNrdEtGQ1FOcWY4WHNrczhJbW50T29ydzM1MTFKNmNLRWdSMXBpMGxqRzJpVmxJK2cvdEdtZGxNV1Nrb1hKZ3lvL1pWSjU3alpQMUU4ZzVLTzZ0cnBuRFJTT0VpWU1HQzVzYjlpYXVOSkYyR3B6MnZUS3pWSkdZRTVBeFVOMFdxODgrNXBTZkJXYTFvejBDeTdHQ0ZaSXpCbmdLYzE3TGlxVFZmdExKMVlsOGdZZzJBVmxsV3hUdjNETitTd2VmY0RzSmcxQUxhblB0ZGxzMm8zanI2QlpsYTNPVlcveEJZc1owSU5TMTIwS2U3UmRkSDM4NHFvY1Bqa25CYmE5MlM5U1F5UnJHQVlDV1lVT25xclhHNzBHb1JwQXdvTWVXZGIwdFRiOE83Z3FiTnkvemY3YlNsdUNsNGFVR0N4dnpQalpaNXJkdVVtSnJpbW5pSmVDRFVaUmF0YXR2UEpPUzIwTTRHY3JqOUlaRXorc3AzcEwvbnJ2MXFmRFB3ZkVEUVFhQVFOQkJwQkE0RkcwRUNnY2RNYitBOXpNdXV2cGpsVFV3QUFBQUJKUlU1RXJrSmdnZz09IiB5PSIxNjA5LjUxNTYiLz48dGV4dCBmaWxsPSIjMDAwMDAwIiBmb250LWZhbWlseT0ic2Fucy1zZXJpZiIgZm9udC1zaXplPSIxMiIgbGVuZ3RoQWRqdXN0PSJzcGFjaW5nIiB0ZXh0TGVuZ3RoPSIxMiIgeD0iMTMxLjUiIHk9IjE2ODQuODU5NCI+W108L3RleHQ+PHJlY3QgZmlsbD0iI0ZGRkZGRiIgaGVpZ2h0PSIxMjAuODEyNSIgc3R5bGU9InN0cm9rZTojN0Q4OTk4O3N0cm9rZS13aWR0aDoxLjI1OyIgd2lkdGg9Ijk4IiB4PSIyNTEuNSIgeT0iNDAuOTg0NCIvPjx0ZXh0IGZpbGw9IiMwMDAwMDAiIGZvbnQtZmFtaWx5PSJzYW5zLXNlcmlmIiBmb250LXNpemU9IjE0IiBmb250LXN0eWxlPSJpdGFsaWMiIGxlbmd0aEFkanVzdD0ic3BhY2luZyIgdGV4dExlbmd0aD0iNTkiIHg9IjI3MSIgeT0iNjEuMjE4OCI+JiMxNzE7TGFtYmRhJiMxODc7PC90ZXh0Pjx0ZXh0IGZpbGw9IiMwMDAwMDAiIGZvbnQtZmFtaWx5PSJzYW5zLXNlcmlmIiBmb250LXNpemU9IjE0IiBsZW5ndGhBZGp1c3Q9InNwYWNpbmciIHRleHRMZW5ndGg9Ijg0IiB4PSIyNTguNSIgeT0iNzYuMjAzMSI+QWRkIHRvIFF1ZXVlPC90ZXh0PjxpbWFnZSBoZWlnaHQ9IjY0IiB3aWR0aD0iNjQiIHg9IjI2OC41IiB4bGluazpocmVmPSJkYXRhOmltYWdlL3BuZztiYXNlNjQsaVZCT1J3MEtHZ29BQUFBTlNVaEVVZ0FBQUVBQUFBQkFDQUlBQUFBbEMrYUpBQUFGbVVsRVFWUjRYdFdaVzJ3VVZSakhBUlc4RUkyM2VGYzB4bmlKQ2NZSFkrSWxYaDY4dklndm1IaDcwQmZ3d1ZCYTJtcWgwcUpXckxGQUtWRWpXR3dKcEJCSVdrRXdZRXBGa2JiQmdGYlFBaTBTS2FVemU3L016dTZNMzdkbmRwaCszM2IzN000OE9KUGZ5Ly84ejV3OTM4eVpPZjlwcHltTHB2a2FxbjBIMWI2RGF0OUJ0ZStnMm5kUTdUdW85aDFVK3c2cWZRZlZraVQycnpJTnc1UTREQzBhYm51R2orQVZWRXVTUHY4M25lblVoejd5Q3gvQks2aVdSQlFRV0hFWHQ1eW9TeTR6SXVQUU03VG1jZTU2QXRXU1NCWUF4SGN0ZzU2cFA3cTU1UWxVUzVLWkdNWUNHdS9rRmtHdHU5YlFZdkRBQkQ5NWdMdnVvVm9TK1FJVThjU2JadkxRTjl4eUQ5V1NsRlJBb0hHT21kSE5kQ3J3d1MzY2RRblZrcFJVQUtBTmRrTC94SS9OM0hJSjFaTGtDcGpEcmJ3RW0rZENmeU1aVm11djRxNGJxSllrTTNGQ3ZPUEpvWi91Vnlwbjh2NUE2dGh1NkJEcnFlR1dHNmlXSk5HM2hzNDlkMFEzdjhYN0E3QWZnNXNKbjFXcVpuRzNiS2gyUTJUakt6REY5TGsvbFlycDNBWDBmd2F3d2kxdmM2dHNxSGJGNG9zeXlrbVlZbVQ5UzlUS0VtbWZuNjN3bUZJeGc3dmxRYlZMb2xzWHdoVDFVejl6QzRFS3N3OVBaUDA4YXBVTDFTN0I4Qk05RDFNTXRUN0JYY1d1MEx0NFI3Vjc0cnVXbWhoK2VyaWxPQ3YwS041UjdSNzEvV3ZnRzZCQStQRTIzbEZkQm1yTmJIMjRONzZuMFc1SjlMYkFGSlA5N2J3ejlyZmpYZFA5M0MwVnFzc2cxcjBFMy8rWmRQRER1MFZMb09FT0svd3N2NDMzVnpEZXJjWUtEMjNnVnFsUVhTcHExYVd3TjJFQk1LR0RYOXZ0MnNDMzBKTG8vWnlmb25nYTc2Z3VsV2pYQXBob2V2dzQzQUdjVU1QdG9qMjQ4a0VUdzA5RWZlOXFmcGFDOFc0VFZyanZVMjZWQk5XbHNmamkzTTQxTDltL0VTZlUxMnE3cWFIdm9DVytzNDZlbGNXcmVFZDFTVVE2WHNQTFB6WUUyU0hZZEo5cFpBdzlFVmgybzNCRHJVL2lveEU1Qjh1TW42dDRGTytvTG9HSzZlbXp2OE1Nb3AxdmlCYnR0eTZ5S3ZUUlg3RkQxd0o2YmhaUDRoM1Y4a0Rnd1o5WFIyQWhpWmJjcW9qQVZtRDEyZkF5OXBrWWhoREJSMUF3M2cxaWhTN2lIZFh5V0ZkMzYwSm5JMnpBdU81M04xZ3RGVFB3K1lhSHBIMCtIMEdaRk8veUI5aWlVQzFKN3U2UGtmVWRXdlVvM29SNFFLMjlVclRBMVlVV0NOSjhFT1JDdk1zZllJdEN0U1Nwdi9iQ3I4YTZxNmV5NGoyMVZrdlZMTEZSaE5jOXl6c0RzVzN2WUlWVEJkaGlVQzFEcU9VUmNwbWRoTmMraFc1a1hLMitYTFJBbmRDU09yNkhkMWFjOFc3MVk5d3RDdFV5YUVkMzREWCtZUVczQlBySVFWd1ZIYThLQ1c5Nkl4R0NsbUR6UTd3ekVQKytIaXNzSzk1UlhSVEltSkRESUkycGRkZHhGNm04SktPTzRwcjU0am03TWJGdkpiUm9oemZUemxuY3hEdXFpNklOZEpnWWNscTRKWWh1ZWhNNnBQODk2bnl4Qk9wdk50TWF4STJwL3BSVWRyeWp1akR3ODFibVdYNHJkeEhZM2NhR25PdkhCcUllVHZHbnRmU1VMTmw0bHgyNXhIaEhkV0dTQjliaEpCeXBrMkR0YnNvcGUzZXpDWDU4TDY2OVZGeGRlajAvVWNuRk8rY0JhWXAzSTFCZGdFRDlUYWFlaE1BVC9PZ2U3Z3J5N200MjJwSHRwbk9ibXd3OEFFWjBndFRBdXhHb0xrRHVRZHpDTFVHNDdXbXpZSHF6dHJtWW9sWmZ3VjBDWENrdkM0QllEOUhYeEZmaFhPNEs0RTF2T3Jld2ZPZ245a09mMlBaM3VVWHd1QURyUzN4b0o3Y0VvYzhleHF1YkNCWE85K0d2WHNTN3BJN3loNFRnWlFGd3g4WHFMTEJaV2xsNmJ4TzNKbkVoaEw5T3JjbDRXVUJzeHlJWVN6L1p4eTBCUE5hNXI1a2J1RXVBN3djVE40b2ozSExpWFFHVk16UEJNekJXK012bnFaWERlc2NmYU9OV0htQ3JEcHpPRHZnQ3RSeDRWb0RJdytremg3a2xnSzNIMm1VbC9ta3BzRzdwY0MrM2JEd3JBTDQyVElsREcrems1MDZGV2pQYmlLdDBpSHdIUDVkQU5RZXVFeDJWSFpDSFlhUGw1eFlBM3FUNHA2R0NoOGM3OGY4VHFuMEgxYjZEYXQ5QnRlK2cybmRRN1R1bzloMVUrdzZxZmNkL3NUVktHdzgvWVBVQUFBQUFTVVZPUks1Q1lJST0iIHk9Ijc3Ljk1MzEiLz48dGV4dCBmaWxsPSIjMDAwMDAwIiBmb250LWZhbWlseT0ic2Fucy1zZXJpZiIgZm9udC1zaXplPSIxMiIgbGVuZ3RoQWRqdXN0PSJzcGFjaW5nIiB0ZXh0TGVuZ3RoPSI2NCIgeD0iMjY4LjUiIHk9IjE1My4yOTY5Ij5bRnVuY3Rpb25dPC90ZXh0PjxyZWN0IGZpbGw9IiNGRkZGRkYiIGhlaWdodD0iMTIwLjgxMjUiIHN0eWxlPSJzdHJva2U6IzdEODk5ODtzdHJva2Utd2lkdGg6MS4yNTsiIHdpZHRoPSI5OCIgeD0iMjUxLjUiIHk9IjE1NzIuNTQ2OSIvPjx0ZXh0IGZpbGw9IiMwMDAwMDAiIGZvbnQtZmFtaWx5PSJzYW5zLXNlcmlmIiBmb250LXNpemU9IjE0IiBmb250LXN0eWxlPSJpdGFsaWMiIGxlbmd0aEFkanVzdD0ic3BhY2luZyIgdGV4dExlbmd0aD0iNTkiIHg9IjI3MSIgeT0iMTU5Mi43ODEzIj4mIzE3MTtMYW1iZGEmIzE4Nzs8L3RleHQ+PHRleHQgZmlsbD0iIzAwMDAwMCIgZm9udC1mYW1pbHk9InNhbnMtc2VyaWYiIGZvbnQtc2l6ZT0iMTQiIGxlbmd0aEFkanVzdD0ic3BhY2luZyIgdGV4dExlbmd0aD0iODQiIHg9IjI1OC41IiB5PSIxNjA3Ljc2NTYiPkFkZCB0byBRdWV1ZTwvdGV4dD48aW1hZ2UgaGVpZ2h0PSI2NCIgd2lkdGg9IjY0IiB4PSIyNjguNSIgeGxpbms6aHJlZj0iZGF0YTppbWFnZS9wbmc7YmFzZTY0LGlWQk9SdzBLR2dvQUFBQU5TVWhFVWdBQUFFQUFBQUJBQ0FJQUFBQWxDK2FKQUFBRm1VbEVRVlI0WHRXWlcyd1VWUmpIQVJXOEVJMjNlRmMweG5pSkNjWUhZK0lsWGg2OHZJZ3ZtSGg3MEJmd3dWQmEybXFoMHFKV3JMRkFLVkVqV0d3SnBCQklXa0V3WUVwRmtiYkJnRmJRQWkwU0thVXplNy9NenU2TTM3ZG5kcGgrMzNiMzdNNDhPSlBmeS8vOHo1dzkzOHlaT2Y5cHB5bUxwdmthcW4wSDFiNkRhdDlCdGUrZzJuZFE3VHVvOWgxVSt3NnFmUWZWa2lUMnJ6SU53NVE0REMwYWJudUdqK0FWVkV1U1B2ODNuZW5VaHo3eUN4L0JLNmlXUkJRUVdIRVh0NXlvU3k0ekl1UFFNN1RtY2U1NkF0V1NTQllBeEhjdGc1NnBQN3E1NVFsVVM1S1pHTVlDR3Uva0ZrR3R1OWJRWXZEQUJEOTVnTHZ1b1ZvUytRSVU4Y1NiWnZMUU45eHlEOVdTbEZSQW9IR09tZEhOZENyd3dTM2NkUW5Wa3BSVUFLQU5ka0wveEkvTjNISUoxWkxrQ3BqRHJid0VtK2RDZnlNWlZtdXY0cTRicUpZa00zRkN2T1BKb1ovdVZ5cG44djVBNnRodTZCRHJxZUdXRzZpV0pORzNoczQ5ZDBRM3Y4WDdBN0FmZzVzSm4xV3FabkczYktoMlEyVGpLekRGOUxrL2xZcnAzQVgwZndhd3dpMXZjNnRzcUhiRjRvc3l5a21ZWW1UOVM5VEtFbW1mbjYzd21GSXhnN3ZsUWJWTG9sc1h3aFQxVXo5ekM0RUtzdzlQWlAwOGFwVUwxUzdCOEJNOUQxTU10VDdCWGNXdTBMdDRSN1Y3NHJ1V21oaCtlcmlsT0N2MEtONVI3UjcxL1d2Z0c2QkErUEUyM2xGZEJtck5iSDI0Tjc2bjBXNUo5TGJBRkpQOTdid3o5cmZqWGRQOTNDMFZxc3NnMXIwRTMvK1pkUEREdTBWTG9PRU9LL3dzdjQzM1Z6RGVyY1lLRDIzZ1ZxbFFYU3BxMWFXd04yRUJNS0dEWDl2dDJzQzMwSkxvL1p5Zm9uZ2E3Nmd1bFdqWEFwaG9ldnc0M0FHY1VNUHRvajI0OGtFVHcwOUVmZTlxZnBhQzhXNFRWcmp2VTI2VkJOV2xzZmppM000MUw5bS9FU2ZVMTJxN3FhSHZvQ1crczQ2ZWxjV3JlRWQxU1VRNlhzUExQellFMlNIWWRKOXBaQXc5RVZoMm8zQkRyVS9pb3hFNUI4dU1uNnQ0Rk8rb0xvR0s2ZW16djhNTW9wMXZpQmJ0dHk2eUt2VFJYN0ZEMXdKNmJoWlA0aDNWOGtEZ3daOVhSMkFoaVpiY3FvakFWbUQxMmZBeTlwa1loaERCUjFBdzNnMWloUzdpSGRYeVdGZDM2MEpuSTJ6QXVPNTNOMWd0RlRQdytZYUhwSDArSDBHWkZPL3lCOWlpVUMxSjd1NlBrZlVkV3ZVbzNvUjRRSzI5VXJUQTFZVVdDTko4RU9SQ3ZNc2ZZSXRDdFNTcHYvYkNyOGE2cTZleTRqMjFWa3ZWTExGUmhOYzl5enNEc1czdllJVlRCZGhpVUMxRHFPVVJjcG1kaE5jK2hXNWtYSzIrWExSQW5kQ1NPcjZIZDFhYzhXNzFZOXd0Q3RVeWFFZDM0RFgrWVFXM0JQcklRVndWSGE4S0NXOTZJeEdDbG1EelE3d3pFUCsrSGlzc0s5NVJYUlRJbUpERElJMnBkZGR4RjZtOEpLT080cHI1NGptN01iRnZKYlJvaHpmVHpsbmN4RHVxaTZJTmRKZ1ljbHE0SllodWVoTTZwUDg5Nm55eEJPcHZOdE1heEkycC9wUlVkcnlqdWpEdzgxYm1XWDRyZHhIWTNjYUduT3ZIQnFJZVR2R250ZlNVTE5sNGx4MjV4SGhIZFdHU0I5YmhKQnlwazJEdGJzb3BlM2V6Q1g1OEw2NjlWRnhkZWowL1VjbkZPK2NCYVlwM0kxQmRnRUQ5VGFhZWhNQVQvT2dlN2dyeTdtNDIycEh0cG5PYm13dzhBRVowZ3RUQXV4R29Ma0R1UWR6Q0xVRzQ3V216WUhxenRybVlvbFpmd1YwQ1hDa3ZDNEJZRDlIWHhGZmhYTzRLNEUxdk9yZXdmT2duOWtPZjJQWjN1VVh3dUFEclMzeG9KN2NFb2M4ZXhxdWJDQlhPOStHdlhzUzdwSTd5aDRUZ1pRRnd4OFhxTExCWldsbDZieE8zSm5FaGhMOU9yY2w0V1VCc3h5SVlTei9aeHkwQlBOYTVyNWtidUV1QTd3Y1RONG9qM0hMaVhRR1ZNelBCTXpCVytNdm5xWlhEZXNjZmFPTldIbUNyRHB6T0R2Z0N0Ung0Vm9ESXcra3poN2tsZ0szSDJtVWwvbWtwc0c3cGNDKzNiRHdyQUw0MlRJbERHK3prNTA2RldqUGJpS3QwaUh3SFA1ZEFOUWV1RXgyVkhaQ0hZYVBsNXhZQTNxVDRwNkdDaDhjNzhmOFRxbjBIMWI2RGF0OUJ0ZStnMm5kUTdUdW85aDFVK3c2cWZjZC9zVFZLR3c4L1lQVUFBQUFBU1VWT1JLNUNZSUk9IiB5PSIxNjA5LjUxNTYiLz48dGV4dCBmaWxsPSIjMDAwMDAwIiBmb250LWZhbWlseT0ic2Fucy1zZXJpZiIgZm9udC1zaXplPSIxMiIgbGVuZ3RoQWRqdXN0PSJzcGFjaW5nIiB0ZXh0TGVuZ3RoPSI2NCIgeD0iMjY4LjUiIHk9IjE2ODQuODU5NCI+W0Z1bmN0aW9uXTwvdGV4dD48cmVjdCBmaWxsPSIjRkZGRkZGIiBoZWlnaHQ9IjEyMC44MTI1IiBzdHlsZT0ic3Ryb2tlOiM3RDg5OTg7c3Ryb2tlLXdpZHRoOjEuMjU7IiB3aWR0aD0iMTU3IiB4PSI1OTUiIHk9IjQwLjk4NDQiLz48dGV4dCBmaWxsPSIjMDAwMDAwIiBmb250LWZhbWlseT0ic2Fucy1zZXJpZiIgZm9udC1zaXplPSIxNCIgZm9udC1zdHlsZT0iaXRhbGljIiBsZW5ndGhBZGp1c3Q9InNwYWNpbmciIHRleHRMZW5ndGg9IjE0MyIgeD0iNjAyIiB5PSI2MS4yMTg4Ij4mIzE3MTtTaW1wbGVRdWV1ZVNlcnZpY2UmIzE4Nzs8L3RleHQ+PHRleHQgZmlsbD0iIzAwMDAwMCIgZm9udC1mYW1pbHk9InNhbnMtc2VyaWYiIGZvbnQtc2l6ZT0iMTQiIGxlbmd0aEFkanVzdD0ic3BhY2luZyIgdGV4dExlbmd0aD0iNyIgeD0iNjcwIiB5PSI3Ni4yMDMxIj4mIzE2MDs8L3RleHQ+PGltYWdlIGhlaWdodD0iNjQiIHdpZHRoPSI2NCIgeD0iNjQxLjUiIHhsaW5rOmhyZWY9ImRhdGE6aW1hZ2UvcG5nO2Jhc2U2NCxpVkJPUncwS0dnb0FBQUFOU1VoRVVnQUFBRUFBQUFCQUNBSUFBQUFsQythSkFBQUYzMGxFUVZSNFh1MVo2WE1VUlJUbm56QmdJaXBxZVVieEt0R3l5aStlV0JKakxFdjlwRkFXNVlIbFZTcWFPeGdJaDBoUnhSRnpBQ3JoQ3JrMW1Db1ZNQmdoaEpqTFlDV1FnNFE5WjYvc2ZZMi9ucG5zems2VDNabmRUUTJwbXFuZmg5bDlyMS8zci92MWU2OTdGdWx1eUYvUVdFVC90YkNnRVZBYkdnRzFvUkZRR3hvQnRhRVJVQnNhQWJXUlpnS0c3QXJieHcyZTQzMitzK1BCTVNiczhvVm52TUZMWmwvWG1QdG9yKzI5WTRZN3krbFdxU0JOQkpZVTJqNDg3dStiWnNOaFZ2eElmdUlKaGYzbkpxeXI2M1FaQlZJalNTRmxBaGtGMW5jT0IwWk0vUERDZG8rbnFkKzJydDc4M0c3ajhzMjZ6Q0o5VnJIeG9hM201L2ZZUDJ2eXRnOWpUWGhOc0xXOGNVQnFUVGxTSXFCZlZ1WnQvNWNmVU9DaXdicW1UbmRqSWEwVzB5U3JHR3NWbkxUd3JkeDFQZmlIVnBPUDVBa1lWMndQL0dmRUlFSm1wKzM5WTdyRlNsd2lzOGorUlF1MkIxbUtuaXVHK3l1a0NyS1JKQUh6MDd0Q05nL3ZDZkFRV2tFT1RFL3V3UDRtVTZCM0dCL2JUaXZJUVRJRWpJOXNDNW1jNk5qVE1xaGZXa0lyeUlmaGpnMitVNk13Rlp5d0dPN2RSQ3NraEhJQ1N3cjkzUk5rN3M5UDZyT0twRkxsd0JRZzVzS2c3K1JJRXFGSk1RRjdmaHUvNktrNHJnU0dlemFHakRNd2l4eENTK05ER1FHRW5SRGpRazlwaVlCaUlETVFSeHBqc01LME5BNlVFYkN2YnlWci9kY1lMWEwvZEI1aDN2akFabG9raHVHK1RaNjJJZmV4WHFrb293Q0JHTWF0N3g2Vml1SkNHUUh2SHlPa2o3Y1AwaUtTaHVGYWpNditkWnYrMWxKYVFYOUxxZjNMRnQ1Vk1GWmFBWVdHc0JNb1VSd29JNEI1WWxaVlhUTmJtWjdhR1hiN1dlNEplL3krenN2T1BXY2M1UjJPYnpxY3V6dDlweTlGcGI0QW9qQnRBV2FabkNwbCtVUW1BU1JMODhwSzJ3ZjE1aGYyeG9rOHpoMG55UUQ5d2JBdnlJODE1dkVIQ1ZnV3hPaTJRa2MzRlRNdmZXLzdxQUhUaEhkYWdVWmlBckNGdlJVWkJsS1ArY1ZLcWM0ck5TQ0dVaFRWRzZaZmYvc0c1dVZxaEJSSDZRbEgyYTk0SVFyTHl2alVhM3g0bTlBcWo3U0tHc21wQ282TE9wcTBNTG5WOUhna1NFQUFDWkpmZXYvQVZmZVAzWUVoSGQ3RFRoOXlXVVJuWnN0ditCUFRqM2RlQWJOSW0wSjVCMUZnMUNTMDJ2cDdwRlZNUjMzVHJ2MW4vZitRSFlXNU1EMytIVzFLakFRRVBLMkRNT1Q2b1Z0SU1Zc0wzSWQ2OEkrbm9TK2lnMHFURFlZQXZMZ1BYNEFVNVJwdHlycjJDR25ZMkUrM0loMDE5VU9LT1JJNnlpZ0FEYUxmTmtTYkVpTUJBU1FzV0JIbkxGUStaSDJ2V1BHTzdjZ1BndVVlVEw5ejE1OTRjUlMzMDZiNEVPeXE3aUk3SkxZVnBNRXBHOTZORDI2SjZCT0g1REltYlVxTVJBUzRxQ2V1VXRBSElUQnQxeEVDUVJ4UUNQaWhYRFRFSS9DVlFJQnNaWEVybnNDMGZWNEk4T1crcTZwTCtBY3J1NDliMlpiQmlFN1VHVlpXdW84azYwTE5BNlNqQStlaUxsVDdOOUgvT1RVWFFzVWI5Z1pZcm1xSFJmK0ZLWmJhVzhJbTNubEtsOG9tWGpHN2lYdW5YRFdpanA1SWJSTURsdGYyOGV2TFAvQitKcTlXb3NNRnhPS1lNSnBUaFhCT3dtanBDUkxYYzZ1allYVDIvQ0FObzduVjBqQ2FWME9QUjRMRUJIUmNGY0M4V212L3ZCbEQxOTljUWl2d1NFTWlXMXBDRXNnbmpZU3d2Sk9HTEFKUm9KU0FlOGdzSmZaeXBVUjVCMFljVTBwNDV5NGxWczFQS1JHQnJHSXV2dzNlUWl1UVltNTlhK0ppcnZNeUxZb0RaUVQ0VU9nN2M0MCtoSEo2ZWFKeU9ydGl6bko2V0EvampxSmZwS0s0VUVaQWYxdFp5TUlkYUY3ZlQwdFRnZld0Zy93Q0lnRFEwamhRUmdEQURKR2VjS1RNVHQrUjh1Nk5JUU54TGZnWUxZMFB4UVN3MVpBVDJQazQxSjhlVmJxRGRja1FRTko1OUZ2aFdxVjVRR2F3bXd0d0dCekJXQzdxNDdSSkt5UkVNZ1FBOHpPaWl5MVJBYU1JU1BOSXpMeERJaFBUQ25LUUpBRUExWVJ3dFdoeUlnSXFXLzNNSXFURnlOVml3cXVBT0VpZWdFNjQzQjFtdVlkYzdxNldkN203cmo0NE1YdTVlMGk5eTEwQnNkZnI4Q3ZoZXYxWjZucjkwMGJVdHRIcjlmNnJsamZUY0xtVU1nRWVTajl3ckxsK1BuREVRdmpFMU1COVlocG5VUDlJUHpIZGRYMStZbElQR2dHMW9SRlFHeG9CdGFFUlVCc2FBYldoRVZBYkM1N0EvODNvelNHbW5MaXZBQUFBQUVsRlRrU3VRbUNDIiB5PSI3Ny45NTMxIi8+PHRleHQgZmlsbD0iIzAwMDAwMCIgZm9udC1mYW1pbHk9InNhbnMtc2VyaWYiIGZvbnQtc2l6ZT0iMTIiIGxlbmd0aEFkanVzdD0ic3BhY2luZyIgdGV4dExlbmd0aD0iMTIiIHg9IjY2Ny41IiB5PSIxNTMuMjk2OSI+W108L3RleHQ+PHJlY3QgZmlsbD0iI0ZGRkZGRiIgaGVpZ2h0PSIxMjAuODEyNSIgc3R5bGU9InN0cm9rZTojN0Q4OTk4O3N0cm9rZS13aWR0aDoxLjI1OyIgd2lkdGg9IjE1NyIgeD0iNTk1IiB5PSIxNTcyLjU0NjkiLz48dGV4dCBmaWxsPSIjMDAwMDAwIiBmb250LWZhbWlseT0ic2Fucy1zZXJpZiIgZm9udC1zaXplPSIxNCIgZm9udC1zdHlsZT0iaXRhbGljIiBsZW5ndGhBZGp1c3Q9InNwYWNpbmciIHRleHRMZW5ndGg9IjE0MyIgeD0iNjAyIiB5PSIxNTkyLjc4MTMiPiYjMTcxO1NpbXBsZVF1ZXVlU2VydmljZSYjMTg3OzwvdGV4dD48dGV4dCBmaWxsPSIjMDAwMDAwIiBmb250LWZhbWlseT0ic2Fucy1zZXJpZiIgZm9udC1zaXplPSIxNCIgbGVuZ3RoQWRqdXN0PSJzcGFjaW5nIiB0ZXh0TGVuZ3RoPSI3IiB4PSI2NzAiIHk9IjE2MDcuNzY1NiI+JiMxNjA7PC90ZXh0PjxpbWFnZSBoZWlnaHQ9IjY0IiB3aWR0aD0iNjQiIHg9IjY0MS41IiB4bGluazpocmVmPSJkYXRhOmltYWdlL3BuZztiYXNlNjQsaVZCT1J3MEtHZ29BQUFBTlNVaEVVZ0FBQUVBQUFBQkFDQUlBQUFBbEMrYUpBQUFGMzBsRVFWUjRYdTFaNlhNVVJSVG5uekJnSWlwcWVVYnhLdEd5eWkrZVdCSmpMRXY5cEZBVzVZSGxWU3FhT3hnSWgwaFJ4UkZ6QUNyaENyazFtQ29WTUJnaGhKakxZQ1dRZzRROVo2L3NmWTIvbnBuc3prNlQzWm5kVFEycG1xbmZoOWw5cjEvM3IvdjFlNjk3RnVsdXlGL1FXRVQvdGJDZ0VWQWJHZ0cxb1JGUUd4b0J0YUVSVUJzYUFiV1JaZ0tHN0FyYnh3MmU0MzIrcytQQk1TYnM4b1Zudk1GTFpsL1htUHRvcisyOVk0WTd5K2xXcVNCTkJKWVUyajQ4N3UrYlpzTmhWdnhJZnVJSmhmM25KcXlyNjNRWkJWSWpTU0ZsQWhrRjFuY09CMFpNL1BEQ2RvK25xZCsycnQ3ODNHN2o4czI2ekNKOVZySHhvYTNtNS9mWVAydnl0ZzlqVFhoTnNMVzhjVUJxVFRsU0lxQmZWdVp0LzVjZlVPQ2l3YnFtVG5kaklhMFcweVNyR0dzVm5MVHdyZHgxUGZpSFZwT1A1QWtZVjJ3UC9HZkVJRUptcCszOVk3ckZTbHdpczhqK1JRdTJCMW1Lbml1Ryt5dWtDcktSSkFIejA3dENOZy92Q2ZBUVdrRU9URS91d1A0bVU2QjNHQi9iVGl2SVFUSUVqSTlzQzVtYzZOalRNcWhmV2tJcnlJZmhqZzIrVTZNd0ZaeXdHTzdkUkNza2hISUNTd3I5M1JOazdzOVA2ck9LcEZMbHdCUWc1c0tnNytSSUVxRkpNUUY3Zmh1LzZLazRyZ1NHZXphR2pETXdpeHhDUytOREdRR0VuUkRqUWs5cGlZQmlJRE1RUnhwanNNSzBOQTZVRWJDdmJ5VnIvZGNZTFhML2RCNWgzdmpBWmxva2h1RytUWjYySWZleFhxa29vd0NCR01hdDd4NlZpdUpDR1FIdkh5T2tqN2NQMGlLU2h1RmFqTXYrZFp2KzFsSmFRWDlMcWYzTEZ0NVZNRlphQVlXR3NCTW9VUndvSTRCNVlsWlZYVE5ibVo3YUdYYjdXZTRKZS95K3pzdk9QV2NjNVIyT2J6cWN1enQ5cHk5RnBiNEFvakJ0QVdhWm5DcGwrVVFtQVNSTDg4cEsyd2YxNWhmMnhvazh6aDBueVFEOXdiQXZ5STgxNXZFSENWZ1d4T2kyUWtjM0ZUTXZmVy83cUFIVGhIZGFnVVppQXJDRnZSVVpCbEtQK2NWS3FjNHJOU0NHVWhUVkc2WmZmL3NHNXVWcWhCUkg2UWxIMmE5NElRckx5dmpVYTN4NG05QXFqN1NLR3NtcENvNkxPcHEwTUxuVjlIZ2tTRUFBQ1pKZmV2L0FWZmVQM1lFaEhkN0RUaDl5V1VSblpzdHYrQlBUajNkZUFiTkltMEo1QjFGZzFDUzAydnA3cEZWTVIzM1RydjFuL2YrUUhZVzVNRDMrSFcxS2pBUUVQSzJETU9UNm9WdElNWXNMM0lkNjhJK25vUytpZzBxVERZWUF2TGdQWDRBVTVScHR5cnIyQ0duWTJFKzNJaDAxOVVPS09SSTZ5aWdBRGFMZk5rU2JFaU1CQVNRc1dCSG5MRlErWkgydldQR083Y2dQZ3VVZVRMOXoxNTk0Y1JTMzA2YjRFT3lxN2lJN0pMWVZwTUVwRzk2TkQyNko2Qk9INURJbWJVcU1SQVM0cUNldVV0QUhJVEJ0MXhFQ1FSeFFDUGloWERURUkvQ1ZRSUJzWlhFcm5zQzBmVjRJOE9XK3E2cEwrQWNydTQ5YjJaYkJpRTdVR1ZaV3VvOGs2MExOQTZTakErZWlMbFQ3TjlIL09UVVhRc1ViOWdaWXJtcUhSZitGS1piYVc4SW0zbmxLbDhvbVhqRzdpWHVuWERXaWpwNUliUk1EbHRmMjhldkxQL0IrSnE5V29zTUZ4T0tZTUpwVGhYQk93bWpwQ1JMWGM2dWpZWFQyL0NBTm83blYwakNhVjBPUFI0TEVCSFJjRmNDOFdtdi92QmxEMTk5Y1FpdndTRU1pVzFwQ0VzZ25qWVN3dkpPR0xBSlJvSlNBZThnc0pmWnlwVVI1QjBZY1UwcDQ1eTRsVnMxUEtSR0JyR0l1dnczZVFpdVFZbTU5YStKaXJ2TXlMWW9EWlFUNFVPZzdjNDAraEhKNmVhSnlPcnRpem5KNldBL2pqcUpmcEtLNFVFWkFmMXRaeU1JZGFGN2ZUMHRUZ2ZXdGcvd0NJZ0RRMGpoUVJnREFESkdlY0tUTVR0K1I4dTZOSVFOeExmZ1lMWTBQeFFTdzFaQVQyUGs0MUo4ZVZicURkY2tRUU5KNTlGdmhXcVY1UUdhd213dHdHQnpCV0M3cTQ3UkpLeVJFTWdRQTh6T2lpeTFSQWFNSVNQTkl6THhESWhQVENuS1FKQUVBMVlSd3RXaHlJZ0lxVy8zTUlxVEZ5TlZpd3F1QU9FaWVnRTY0M0IxbXVZZGM3cTZXZDdtN3JqNDRNWHU1ZTBpOXkxMEJzZGZyOEN2aGV2MVo2bnI5MDBiVXR0SHI5ZjZybGpmVGNMbVVNZ0VlU2o5d3JMbCtQbkRFUXZqRTFNQjlZaHBuVVA5SVB6SGRkWDErWWxJUEdnRzFvUkZRR3hvQnRhRVJVQnNhQWJXaEVWQWJDNTdBLzgzb3pTR21uTGl2QUFBQUFFbEZUa1N1UW1DQyIgeT0iMTYwOS41MTU2Ii8+PHRleHQgZmlsbD0iIzAwMDAwMCIgZm9udC1mYW1pbHk9InNhbnMtc2VyaWYiIGZvbnQtc2l6ZT0iMTIiIGxlbmd0aEFkanVzdD0ic3BhY2luZyIgdGV4dExlbmd0aD0iMTIiIHg9IjY2Ny41IiB5PSIxNjg0Ljg1OTQiPltdPC90ZXh0PjxyZWN0IGZpbGw9IiNGRkZGRkYiIGhlaWdodD0iMTIwLjgxMjUiIHN0eWxlPSJzdHJva2U6IzdEODk5ODtzdHJva2Utd2lkdGg6MS4yNTsiIHdpZHRoPSIxMDAiIHg9Ijc2NiIgeT0iNDAuOTg0NCIvPjx0ZXh0IGZpbGw9IiMwMDAwMDAiIGZvbnQtZmFtaWx5PSJzYW5zLXNlcmlmIiBmb250LXNpemU9IjE0IiBmb250LXN0eWxlPSJpdGFsaWMiIGxlbmd0aEFkanVzdD0ic3BhY2luZyIgdGV4dExlbmd0aD0iODYiIHg9Ijc3MyIgeT0iNjEuMjE4OCI+JiMxNzE7Q2xvdWRXYXRjaCYjMTg3OzwvdGV4dD48dGV4dCBmaWxsPSIjMDAwMDAwIiBmb250LWZhbWlseT0ic2Fucy1zZXJpZiIgZm9udC1zaXplPSIxNCIgbGVuZ3RoQWRqdXN0PSJzcGFjaW5nIiB0ZXh0TGVuZ3RoPSI3IiB4PSI4MTIuNSIgeT0iNzYuMjAzMSI+JiMxNjA7PC90ZXh0PjxpbWFnZSBoZWlnaHQ9IjY0IiB3aWR0aD0iNjQiIHg9Ijc4NCIgeGxpbms6aHJlZj0iZGF0YTppbWFnZS9wbmc7YmFzZTY0LGlWQk9SdzBLR2dvQUFBQU5TVWhFVWdBQUFFQUFBQUJBQ0FJQUFBQWxDK2FKQUFBR3NFbEVRVlI0WHUxWjk0OFVkUlRubjVCRHNBYkZYcUt4eEJLeHhCNS9RQk94S3pHMjJLSkVJK3dkNWVoU1RnOUVRSUVEN3FTREZEa0k1VHhGUWp0S2dBTXBVZzUyWjh0c245MmR0bjdlZnJsbG1YZnM3Tjdlc3BEczVKUEw3TDQzMzMyZjcvZlZ1VzdPS3daZjF1akd2N3E4VUNaUWFwUUpsQnBsQXFWR21VQ3BVU1pRYW5RQkFkZFZRL3p2MUN2elc3VDlUak1VVDZxNjRZbW9PMDVHYXBxOFQwN2grbDJMd2dqMHFBd09XZ1Z6azVtWGFXWitTdng5elB2NFpPdURYWWZPRTVCdUdnbmpoSlhxM2pPaDZyWGVKeWE3ZWxjN0t4eFNuNUcrZmpPajAvOHhZeXFKTlNNMGNoMWZvVXZRU1FLdXE0ZkNTV0NiNFZjQ1h5emxDZ0xTYmFPanYyd1JaNkxNM2M0VkNrZW5DRlE0WXF2Mnd5YjltQmNtV3FVTS9yZm5tZEVFOU1Qak5uQnBnZWdNZ1pCak5lMjlISFUvTUpGTE80VDhXbDNTb0hQd3ZUS0xTd3RCM2dSY3ZZWVlyaEJNa1YrZnc2VlpFQjY3bnNMaGtCdnVGL3hxV1d6RlBqaWhzcURGLy81OHJwdzc4aVlRSFBnN1JXMUxHeGZaNE1wSy9ZUXN3a2FFZnZwS05CK1Yrb3l3NnVlR3ZBbG9CMXo0U2JnMUY5a2lPSEM1c0ZnLzZzVzk5L2xwK0d0SVlYd1RYM2ZRMmQzQkg3RkZmZ1NRSHltbG1LYnJtcUZjYWd1NEg0NHU4ZWNSckpQK1VycGxsT0FRK0hReGY4UVcrUkh3UGpPVjl1K0V6RVdGSVBESklqcUV0UWU1eUJiNUVaRDcxNUhMTmgzbW9rSWczVGdDcDRxcTU3cCtPSmRtUjg0RUtoeitBUTNxbnRNaTVxelNncUVkbExDeUVZaEZaMjNOcTRQS2lRQjJLTDdwc0lnL001SUlmTDZFNnhRSS8zc05XaXVsaDlSdm1PRUptOUJvY1RVT2V3TFM3V1AwLzN5MFBYSTA4T1ZTMTdYRHVFNVhRYnBqVEhUR0ZqT2hpM05HeGVBNkZ0Z1R3RUpZVHQxOUdreTR0Qmp3UERoSlZBeWxmZ2VYV21CRHdQZnlURHJTbUlwRnViUjR3TTlSSjJ1YW5yNjFYSm9KR3dMWUF4QUlmNytSaS9KR2owclB3elZvcytWWFozc2VxOFVZWkZVNEg1R3BtL0hUNk1tNUtCTTJCTFFqSHF5Q1JwK0xjb2Y3L29uS3ZCMkdMM28yUmxNWCt0UFl5bjNlNTZaeGZRSHZzejlERFpITlJabXdJVUFqWWpKSll3b1Q1WVFLUjJSU0U0Wk1ZVFNTQVdwSWZQMGhTamp0ZzF0czhlNE9Fd01HcG1RcXNYSlJKdXdJSkRRaWtIOTlJZlNzaWplMmtvMmFFWjI5elJKRlNBa1lENUNVU2I3UENYTXRqOFBISURMam1uWFo4MkZEUUQ4VHhDcWRHMnBoTkcyaE4rSjdjVG8rdXU4YUd4cldxQ3phRlZ1Mk56eCtvK2VSSCtqTCt5YUlFcGJZZkF5RU14OTMzenVlRHMydWJiRWhJTFlRNlorTHNnT0RDKzJmb29xeUd2eDZ1UmttYnp4MzZRYTh5OVdyU3JwMXRONFd3QmVoSVdzeVY4Q2ttaFJkS2xzOEV6WUVBaDlUbTBXUmxHZXZpN3FSdGdtdUlteEcxQWEvV1lGQ0hwMnpYUVFHUmxObk8xdERWbHpYdFFkRGowcXhnbTJMYWtNQUMySHc1ZHVUSFhCM01zZ1hSZitNRTBBTUFQSmJjek4xNEpZaUwvay9Xb2lQNnJZVGREK2dRVWdqTlUzSmxQL1k5dTEyQk5DQnZqbVh4bG5EeFBEQnBSMGkrTjFLL0x6eTIwN2NpL0VmQm5FMS93Y0x5TXFqWHR5SHF2NmdSMUp2TG53dnphRHowZ3hmdjEvNVV4YllFd0NDZzFmUml2RElOUWNRa2ZEYUN3RjVFL3FSS1grbEQwMjg5dkk4K2lOZkZsRXJzaHdlRkY2VWJ0U1ZocDN5R3puTjNEa1JBUHdmTHJCR1lVZVgrNTd4VUViWlNyYUh2dkQxYzg1OVBrVFA0M21veHZ2MFQ3aFJkNTdpT3RtUkt3Rm5hdmFESjZpNzJqQUJYZ2p1dThjNTJ6MDROSUxleHVtbi9MaEhXZVVMb3J5UWMySkE3VjJOL1U2bVRwaXJaVWNlQkhKSDRMTWxaRTFqcTVPcXdkWmtLdjl3TlpHZEVsdVAwLzNFVGJpSDczRzE3Q2dLQVp3VnRoWkZGRGZ3Ynd3U1pOemtabVQ5dEE2OW5vRjM2UWFjSjUzcmZDOVF5Y3NMUlNFQXhGWlQ4a0V4eHIzLzNYb1JDU2hZc1NWN0VLRGFJWGN5ZFltWHZpZ085RUhWM1hlTzVVdGxSN0VJSUM2RjBTaUY5TEZ2TFJvZVliUzQwS1RJL2V1Y3FUY2RPS3V6WDU3eTQwRytXaFlVaTRBejFUNlFVWVlaR3RwSTZiWENnZVlaeFNUNDdRb2tUZUZPR0lWRlA0ZkJBOEZBNm5JMFM0L05VVVFDUUdqNFd0RTJhd2RjeUtycG9WUzZvUnBGTjlGOFJHdzhaZ09JTUFFakM5SEhtSXJxeVZmckVNVWw0RXk5bHhidkJNN2FHdGZFbG9zTFpVNC9TYVVBT3VoTUVjM1JPdXBoRWR3NWRwQkZKMERvV1lXZUxMNm1WYVFqbkFtaUdkdVBmaFBOa25UektMV2xUWkR4UGtXdGE3cjVRL1cwTHNWd1VRaGtBQmJ6YVJnVFdYekR2MFF0a2hEL1FBZ09vdVlGeDhKWHNPQmlFN2dnZWxZcEMzZlJ0cXM2K20zMHFzUW5hRE5QT2k4aEFrQjNSNlMyV1RpUHVKVDVMVllkaGt1SlFBcUlGdjI0ei9BclNLeTV6T0tYSElGOFVTWlFhcFFKbEJwbEFxVkdtVUNwVVNaUWF2d1A3UGpIdk9WRnNtZ0FBQUFBU1VWT1JLNUNZSUk9IiB5PSI3Ny45NTMxIi8+PHRleHQgZmlsbD0iIzAwMDAwMCIgZm9udC1mYW1pbHk9InNhbnMtc2VyaWYiIGZvbnQtc2l6ZT0iMTIiIGxlbmd0aEFkanVzdD0ic3BhY2luZyIgdGV4dExlbmd0aD0iNDUiIHg9Ijc5My41IiB5PSIxNTMuMjk2OSI+W0FsYXJtXTwvdGV4dD48cmVjdCBmaWxsPSIjRkZGRkZGIiBoZWlnaHQ9IjEyMC44MTI1IiBzdHlsZT0ic3Ryb2tlOiM3RDg5OTg7c3Ryb2tlLXdpZHRoOjEuMjU7IiB3aWR0aD0iMTAwIiB4PSI3NjYiIHk9IjE1NzIuNTQ2OSIvPjx0ZXh0IGZpbGw9IiMwMDAwMDAiIGZvbnQtZmFtaWx5PSJzYW5zLXNlcmlmIiBmb250LXNpemU9IjE0IiBmb250LXN0eWxlPSJpdGFsaWMiIGxlbmd0aEFkanVzdD0ic3BhY2luZyIgdGV4dExlbmd0aD0iODYiIHg9Ijc3MyIgeT0iMTU5Mi43ODEzIj4mIzE3MTtDbG91ZFdhdGNoJiMxODc7PC90ZXh0Pjx0ZXh0IGZpbGw9IiMwMDAwMDAiIGZvbnQtZmFtaWx5PSJzYW5zLXNlcmlmIiBmb250LXNpemU9IjE0IiBsZW5ndGhBZGp1c3Q9InNwYWNpbmciIHRleHRMZW5ndGg9IjciIHg9IjgxMi41IiB5PSIxNjA3Ljc2NTYiPiYjMTYwOzwvdGV4dD48aW1hZ2UgaGVpZ2h0PSI2NCIgd2lkdGg9IjY0IiB4PSI3ODQiIHhsaW5rOmhyZWY9ImRhdGE6aW1hZ2UvcG5nO2Jhc2U2NCxpVkJPUncwS0dnb0FBQUFOU1VoRVVnQUFBRUFBQUFCQUNBSUFBQUFsQythSkFBQUdzRWxFUVZSNFh1MVo5NDhVZFJUbm41QkRzQWJGWHFLeHhCS3h4QjUvUUJPeEt6RzIyS0pFSSt3ZDVlaFNUZzlFUUlFRDdxU0RGRGtJNVR4RlFqdEtnQU1wVWc1Mlo4dHNuOTJkdG43ZWZybGxtWGZzN043ZXNwRHM1SlBMN0w0MzMzMmY3L2ZWdVc3T0t3WmYxdWpHdjdxOFVDWlFhcFFKbEJwbEFxVkdtVUNwVVNaUWFuUUJBZGRWUS96djFDdnpXN1Q5VGpNVVQ2cTY0WW1vTzA1R2FwcThUMDdoK2wyTHdnajBxQXdPV2dWems1bVhhV1orU3Z4OXpQdjRaT3VEWFlmT0U1QnVHZ25qaEpYcTNqT2g2clhlSnlhN2VsYzdLeHhTbjVHK2ZqT2owLzh4WXlxSk5TTTBjaDFmb1V2UVNRS3VxNGZDU1dDYjRWY0NYeXpsQ2dMU2JhT2p2MndSWjZMTTNjNFZDa2VuQ0ZRNFlxdjJ3eWI5bUJjbVdxVU0vcmZubWRFRTlNUGpObkJwZ2VnTWdaQmpOZTI5SEhVL01KRkxPNFQ4V2wzU29IUHd2VEtMU3d0QjNnUmN2WVlZcmhCTWtWK2Z3NlZaRUI2N25zTGhrQnZ1Ri94cVdXekZQamloc3FERi8vNThycHc3OGlZUUhQZzdSVzFMR3hmWjRNcEsvWVFzd2thRWZ2cEtOQitWK295dzZ1ZUd2QWxvQjF6NFNiZzFGOWtpT0hDNXNGZy82c1c5OS9scCtHdElZWHdUWDNmUTJkM0JIN0ZGZmdTUUh5bWxtS2JybXFGY2FndTRINDR1OGVjUnJKUCtVcnBsbE9BUStIUXhmOFFXK1JId1BqT1Y5dStFekVXRklQREpJanFFdFFlNXlCYjVFWkQ3MTVITE5oM21va0lnM1RnQ3A0cXE1N3ArT0pkbVI4NEVLaHorQVEzcW50TWk1cXpTZ3FFZGxMQ3lFWWhGWjIzTnE0UEtpUUIyS0w3cHNJZy9NNUlJZkw2RTZ4UUkvM3NOV2l1bGg5UnZtT0VKbTlCb2NUVU9ld0xTN1dQMC8zeTBQWEkwOE9WUzE3WER1RTVYUWJwalRIVEdGak9oaTNOR3hlQTZGdGdUd0VKWVR0MTlHa3k0dEJqd1BEaEpWQXlsZmdlWFdtQkR3UGZ5VERyU21JcEZ1YlI0d005UkoydWFucjYxWEpvSkd3TFlBeEFJZjcrUmkvSkdqMHJQd3pWb3MrVlhaM3NlcThVWVpGVTRINUdwbS9IVDZNbTVLQk0yQkxRakhxeUNScCtMY29mNy9vbkt2QjJHTDNvMlJsTVgrdFBZeW4zZTU2WnhmUUh2c3o5RERaSE5SWm13SVVBallqSkpZd29UNVlRS1IyUlNFNFpNWVRTU0FXcElmUDBoU2pqdGcxdHM4ZTRPRXdNR3BtUXFzWEpSSnV3SUpEUWlrSDk5SWZTc2lqZTJrbzJhRVoyOXpSSkZTQWtZRDVDVVNiN1BDWE10ajhQSElETGptblhaODJGRFFEOFR4Q3FkRzJwaE5HMmhOK0o3Y1RvK3V1OGFHeHJXcUN6YUZWdTJOengrbytlUkgrakwreWFJRXBiWWZBeUVNeDkzM3p1ZURzMnViYkVoSUxZUTZaK0xzZ09EQysyZm9vcXlHdng2dVJrbWJ6eDM2UWE4eTlXclNycDF0TjRXd0JlaElXc3lWOENrbWhSZEtsczhFellFQWg5VG0wV1JsR2V2aTdxUnRnbXVJbXhHMUFhL1dZRkNIcDJ6WFFRR1JsTm5PMXREVmx6WHRRZERqMHF4Z20yTGFrTUFDMkh3NWR1VEhYQjNNc2dYUmYrTUUwQU1BUEpiY3pOMTRKWWlML2svV29pUDZyWVRkRCtnUVVnak5VM0psUC9ZOXUxMkJOQ0J2am1YeGxuRHhQREJwUjBpK04xSy9MenkyMDdjaS9FZkJuRTEvd2NMeU1xalh0eUhxdjZnUjFKdkxud3Z6YUR6MGd4ZnYxLzVVeGJZRXdDQ2cxZlJpdkRJTlFjUWtmRGFDd0Y1RS9xUktYK2xEMDI4OXZJOCtpTmZGbEVyc2h3ZUZGNlVidFNWaHAzeUd6bk4zRGtSQVB3ZkxyQkdZVWVYKzU3eFVFYlpTcmFIdnZEMWM4NTlQa1RQNDNtb3h2djBUN2hSZDU3aU90bVJLd0ZuYXZhREo2aTcyakFCWGdqdXU4YzUyejA0TklMZXh1bW4vTGhIV2VVTG9yeVFjMkpBN1YyTi9VNm1UcGlyWlVjZUJISkg0TE1sWkUxanE1T3F3ZFprS3Y5d05aR2RFbHVQMC8zRVRiaUg3M0cxN0NnS0Fad1Z0aFpGRkRmd2J3d1NaTnprWm1UOXRBNjlub0YzNlFhY0o1M3JmQzlReWNzTFJTRUF4RlpUOGtFeHhyMy8zWG9SQ1NoWXNTVjdFS0RhSVhjeWRZbVh2aWdPOUVIVjNYZU81VXRsUjdFSUlDNkYwU2lGOUxGdkxSb2VZYlM0MEtUSS9ldWNxVGNkT0t1elg1N3k0MEcrV2hZVWk0QXoxVDZRVVlZWkd0cEk2YlhDZ2VZWnhTVDQ3UW9rVGVGT0dJVkZQNGZCQThGQTZuSTBTNC9OVVVRQ1FHajRXdEUyYXdkY3lLcnBvVlM2b1JwRk45RjhSR3c4WmdPSU1BRWpDOUhIbUlycXlWZnJFTVVsNEV5OWx4YnZCTTdhR3RmRWxvc0xaVTQvU2FVQU91aE1FYzNST3VwaEVkdzVkcEJGSjBEb1dZV2VMTDZtVmFRam5BbWlHZHVQZmhQTmtuVHpLTFdsVFpEeFBrV3RhN3I1US9XMExzVndVUWhrQUJiemFSZ1RXWHpEdjBRdGtoRC9RQWdPb3VZRng4SlhzT0JpRTdnZ2VsWXBDM2ZSdHFzNittMzBxc1FuYUROUE9pOGhBa0IzUjZTMldUaVB1SlQ1TFZZZGhrdUpRQXFJRnYyNHovQXJTS3k1ek9LWEhJRjhVU1pRYXBRSmxCcGxBcVZHbVVDcFVTWlFhdndQN1BqSHZPVkZzbWdBQUFBQVNVVk9SSzVDWUlJPSIgeT0iMTYwOS41MTU2Ii8+PHRleHQgZmlsbD0iIzAwMDAwMCIgZm9udC1mYW1pbHk9InNhbnMtc2VyaWYiIGZvbnQtc2l6ZT0iMTIiIGxlbmd0aEFkanVzdD0ic3BhY2luZyIgdGV4dExlbmd0aD0iNDUiIHg9Ijc5My41IiB5PSIxNjg0Ljg1OTQiPltBbGFybV08L3RleHQ+PHJlY3QgZmlsbD0iI0ZGRkZGRiIgaGVpZ2h0PSIxMjAuODEyNSIgc3R5bGU9InN0cm9rZTojN0Q4OTk4O3N0cm9rZS13aWR0aDoxLjI1OyIgd2lkdGg9IjEwNyIgeD0iOTM1LjUiIHk9IjQwLjk4NDQiLz48dGV4dCBmaWxsPSIjMDAwMDAwIiBmb250LWZhbWlseT0ic2Fucy1zZXJpZiIgZm9udC1zaXplPSIxNCIgZm9udC1zdHlsZT0iaXRhbGljIiBsZW5ndGhBZGp1c3Q9InNwYWNpbmciIHRleHRMZW5ndGg9IjkzIiB4PSI5NDIuNSIgeT0iNjEuMjE4OCI+JiMxNzE7RXZlbnRCcmlkZ2UmIzE4Nzs8L3RleHQ+PHRleHQgZmlsbD0iIzAwMDAwMCIgZm9udC1mYW1pbHk9InNhbnMtc2VyaWYiIGZvbnQtc2l6ZT0iMTQiIGxlbmd0aEFkanVzdD0ic3BhY2luZyIgdGV4dExlbmd0aD0iNyIgeD0iOTg1LjUiIHk9Ijc2LjIwMzEiPiYjMTYwOzwvdGV4dD48aW1hZ2UgaGVpZ2h0PSI2NCIgd2lkdGg9IjY0IiB4PSI5NTciIHhsaW5rOmhyZWY9ImRhdGE6aW1hZ2UvcG5nO2Jhc2U2NCxpVkJPUncwS0dnb0FBQUFOU1VoRVVnQUFBRUFBQUFCQUNBSUFBQUFsQythSkFBQUdSMGxFUVZSNFh1MlorVzlVVlJUSCtTZEF0Q3J1eG9Vb2lhSWh4aVZ1dUNYcUw4WXRjUWxxM0kwaGd0QkNXYVNVV1BaTndTRDdKbGhhUlNsVlZrRnBBWlVLcmJRZ2kvTm1uK2xzblhtYjMvdGVaM3A3ejd5Wk42OHRFOHk4Zkg2WmU4NTc5Mzd2ZHM2OU04ZzFlTUpGelNCYWRIRlJFbEJzU2dLS1RVbEFzU2tKS0RaOUVoQjY3NXZrdmc0MWxKQlBldU5ybXR6RHE2alBRT05Vd0pDSmlXM0g5TjRQbFBpZitFTDBIR0FjQ2dpUHEyTXQ5c2VDYjJ4d1h6ZlZPMnFPcVVmNUp5QmRWVW45Qnc2SEF1UTJENW9iZUhGbFQrSFE4dFNSY3lnTXZyYVcrZzhjVGdSSXd5cDFWZE1TS1RTYUw0L01hSUNBNk56ZGduOWs1czVlVTQxL1VrcDRiQzJ0d2o1T0JLRGRXandGRGRMVlUvank2T0w5YUZMbnBPMkNmeTRCdXE0bFplKzk4OFFxYk9OSXdPQUp5YjN0cUR1NllFK214RE5pbGhxTW85QTNlZ24xdHlLKzZoQmVrVnRjVWxrRnRkckJvUURmZ3d0MVdVWGRYUTJ0NGZGMTBkbTcxQUJyZldMelVlcWNBNng0NVpSZjZJdUNjQ2dBWUxHcWdSZy9HZkJBR1BYTWplL3hwYnFpWWtJbWQ1OVVmVkhsWENoUjMrSzlmejcxeklwekFjQjkwMmVoRDdiRWxoMklWRGQyN1RqQkJtUm5LM1hMQzk0U09nS0xHMUdTZWxMNkpJREhmZk1NTFp4QTFZR1hWMU5yRHZ4UGZhbHJtcFpVT2l1K1I0OTRicStPenR1TjcyQ2Y4SXlzb2Y0Qy9TWUFoQ2ZVNjJZc3Uzd1N0VnFSMlBvSDNzSVd6QmZHMXphendwcWZxYjlBZndwd1hWb3UveVd4aXFzYlJaTTF5S1B3aXZlZXVYd2hRaVFLdXhyYnFMOUFZUUo4RHk5QzdrRExNMkQrOU16amJBK2E2NzVoR3Y5S3F2a3N5djFQOWtxaVF1OXNSaUhXRmExQ29CQUJReWFhbFlVLzJTYWEwc1EzSFJGYVRKL1k4b1A4SzJiNFk1MmRqdXZTbFpQTmtld3MvNDVXSVZDQUFHd0wrS2dxZFZxbGE3N0hsaHJMVWZiYzhUbTFBa1JjdG1NcUtoOTYzVGRPVnowUmZEbDE5RHlpZU9mMEhVcUhqLzFzUGl1VjVWOUxkZ1VnYTFEZHJCb01MclV5TUQ2SFdUSVhuYk5MTkhIRXZqb0lId1J5dnREMzZHS2xuVFdhZjVEaDB0Y3BkZ1VnVXVwR3I2Q2gxQXBDN3h2ajQ3SWNIeE1zQURObUIxL3RsYlJLVjB3T3Zya2h1bkJ2ZE5FKytaZ0xEdEg1dG1LekxRR2V1MnF3VDJONm9LdW9GVWpYVERHblFlanRUZFFxZ0NVRVQrV001VzZMV3N6SWdIcXBWY0NXZ0s0ZldaU05yMnVtSmhQMEhCdWZwak5XNDlPTG9lbmR0bXFuYUVxRHV1Q0FlcWxKSUwrQXdITXI4QzB0MHVXK1pRYTFBdS9kczd2SDU1RkYxSm9WL3pQTDJUY1JhMitiU2EwQWRhRkcrS0IyYXVYSkwwQStidXhvbFQ5UWs0bDVtRVRzcEtZY0pPcU10MVkzVVpNSmFvUURhcWNtbnY0UVVQdW5Fd0gxTFJkSXdJQk1vV2N2NEJSeVpSYngrc1BVWkZMd0lqWkdWVWpnZUZDWDNsK0wyUFUvMkVaZDZVQW0vKzFON21sSDNpKzNlV0lyRCtFTWtISG9ZeURySVoxeDlXY2dBKzdycDVtSFlQN0JrUkw1YWJkUEpwVWcxeW84V1ZNSkhqTVBSZG9pWEhsWVlWY0Fqa3ZzdTU0SWVrNjZkaXJTOTY3dHgxR0NvY2pNQk4vb0pkM0ozSjBXeWR4OTgya3lKNENGaE0rRzNyWEl1QWgyQlNqL2h2RmQ3QjQ5aFpkVm1Hc3g4RUxQL1Z4OFkvNTBPdm5yYWZyOURPaU84TWZmMnRvTURHd0pRTWFyRzNlM1Fqa1NUNVJIWnZaa0JPNWJxNVN6UWJISjVQRS92WXpXNGd4YkFwQ1g2eWtGQ0FsNmJNVnZhQTB5ZVBxS0ZlWXRuWHpDamZNbnRUckFsZ0JYK3VBWG1mVlRwc1F6c3NhTU5WWjdhMVl3UTVUVDdDYkx6bW5MRG5ZRnNPc25WVVBGV0x2aGNYWFlhc3hMRkF3Q2RjNU40S1ZWZUZIcnRBenRCV0ZYQUFpK3RSSExJRE9QMlV4QW91Sm9KblRmZ2pXMFJxb2JZOHNPaEQ3Y3dvZVVnaWhBZ010WW82R1B0dUpVenJaekRJaWlZbVNvVzE1OER5emdPMEpuSVNVZWZIMGQ5Y3hMWVFKNEVDbFJzWExLbnp2MFpzVzh2RUNqbzdOM2hjZlhtUU9DUU9sN3FPQ3JWZWNDcExJS3VZVWRYdU9yRGxGckRsaXFZMnpLbmhHek1vVm1keVQzZDFELzNEZ1g0REt1U1JCM3VZa2dQbnlJeUlEOUI2YlkwbC80UWd4ajFuOTk4dEluQVNBOHRwYUZDSXNucXdCTW15eW1TeWF5ZjMwMHJkQUoyVmNCRGdpK3NnWUNVcitmNXpzNzhQelh1cEh0VXYvY0ZFR0FOS3o3WHhrY2k3Mmo1aUExREk1WnIvclpmeVhoVCt1cGYyNktJTUJsWEVLYWY2anhEMDdKOW5PNERNVVJBTnpEcStKcm1qQm5FTkd4K2VBOFJIM3NVRFFCL1VWSlFMRXBDU2cySlFIRnBpU2cyRnowQXY0RHJWRUgwRXpMQ3UwQUFBQUFTVVZPUks1Q1lJST0iIHk9Ijc3Ljk1MzEiLz48dGV4dCBmaWxsPSIjMDAwMDAwIiBmb250LWZhbWlseT0ic2Fucy1zZXJpZiIgZm9udC1zaXplPSIxMiIgbGVuZ3RoQWRqdXN0PSJzcGFjaW5nIiB0ZXh0TGVuZ3RoPSIxMiIgeD0iOTgzIiB5PSIxNTMuMjk2OSI+W108L3RleHQ+PHJlY3QgZmlsbD0iI0ZGRkZGRiIgaGVpZ2h0PSIxMjAuODEyNSIgc3R5bGU9InN0cm9rZTojN0Q4OTk4O3N0cm9rZS13aWR0aDoxLjI1OyIgd2lkdGg9IjEwNyIgeD0iOTM1LjUiIHk9IjE1NzIuNTQ2OSIvPjx0ZXh0IGZpbGw9IiMwMDAwMDAiIGZvbnQtZmFtaWx5PSJzYW5zLXNlcmlmIiBmb250LXNpemU9IjE0IiBmb250LXN0eWxlPSJpdGFsaWMiIGxlbmd0aEFkanVzdD0ic3BhY2luZyIgdGV4dExlbmd0aD0iOTMiIHg9Ijk0Mi41IiB5PSIxNTkyLjc4MTMiPiYjMTcxO0V2ZW50QnJpZGdlJiMxODc7PC90ZXh0Pjx0ZXh0IGZpbGw9IiMwMDAwMDAiIGZvbnQtZmFtaWx5PSJzYW5zLXNlcmlmIiBmb250LXNpemU9IjE0IiBsZW5ndGhBZGp1c3Q9InNwYWNpbmciIHRleHRMZW5ndGg9IjciIHg9Ijk4NS41IiB5PSIxNjA3Ljc2NTYiPiYjMTYwOzwvdGV4dD48aW1hZ2UgaGVpZ2h0PSI2NCIgd2lkdGg9IjY0IiB4PSI5NTciIHhsaW5rOmhyZWY9ImRhdGE6aW1hZ2UvcG5nO2Jhc2U2NCxpVkJPUncwS0dnb0FBQUFOU1VoRVVnQUFBRUFBQUFCQUNBSUFBQUFsQythSkFBQUdSMGxFUVZSNFh1MlorVzlVVlJUSCtTZEF0Q3J1eG9Vb2lhSWh4aVZ1dUNYcUw4WXRjUWxxM0kwaGd0QkNXYVNVV1BaTndTRDdKbGhhUlNsVlZrRnBBWlVLcmJRZ2kvTm1uK2xzblhtYjMvdGVaM3A3ejd5Wk42OHRFOHk4Zkg2WmU4NTc5Mzd2ZHM2OU04ZzFlTUpGelNCYWRIRlJFbEJzU2dLS1RVbEFzU2tKS0RaOUVoQjY3NXZrdmc0MWxKQlBldU5ybXR6RHE2alBRT05Vd0pDSmlXM0g5TjRQbFBpZitFTDBIR0FjQ2dpUHEyTXQ5c2VDYjJ4d1h6ZlZPMnFPcVVmNUp5QmRWVW45Qnc2SEF1UTJENW9iZUhGbFQrSFE4dFNSY3lnTXZyYVcrZzhjVGdSSXd5cDFWZE1TS1RTYUw0L01hSUNBNk56ZGduOWs1czVlVTQxL1VrcDRiQzJ0d2o1T0JLRGRXandGRGRMVlUvank2T0w5YUZMbnBPMkNmeTRCdXE0bFplKzk4OFFxYk9OSXdPQUp5YjN0cUR1NllFK214RE5pbGhxTW85QTNlZ24xdHlLKzZoQmVrVnRjVWxrRnRkckJvUURmZ3d0MVdVWGRYUTJ0NGZGMTBkbTcxQUJyZldMelVlcWNBNng0NVpSZjZJdUNjQ2dBWUxHcWdSZy9HZkJBR1BYTWplL3hwYnFpWWtJbWQ1OVVmVkhsWENoUjMrSzlmejcxeklwekFjQjkwMmVoRDdiRWxoMklWRGQyN1RqQkJtUm5LM1hMQzk0U09nS0xHMUdTZWxMNkpJREhmZk1NTFp4QTFZR1hWMU5yRHZ4UGZhbHJtcFpVT2l1K1I0OTRicStPenR1TjcyQ2Y4SXlzb2Y0Qy9TWUFoQ2ZVNjJZc3Uzd1N0VnFSMlBvSDNzSVd6QmZHMXphendwcWZxYjlBZndwd1hWb3UveVd4aXFzYlJaTTF5S1B3aXZlZXVYd2hRaVFLdXhyYnFMOUFZUUo4RHk5QzdrRExNMkQrOU16amJBK2E2NzVoR3Y5S3F2a3N5djFQOWtxaVF1OXNSaUhXRmExQ29CQUJReWFhbFlVLzJTYWEwc1EzSFJGYVRKL1k4b1A4SzJiNFk1MmRqdXZTbFpQTmtld3MvNDVXSVZDQUFHd0wrS2dxZFZxbGE3N0hsaHJMVWZiYzhUbTFBa1JjdG1NcUtoOTYzVGRPVnowUmZEbDE5RHlpZU9mMEhVcUhqLzFzUGl1VjVWOUxkZ1VnYTFEZHJCb01MclV5TUQ2SFdUSVhuYk5MTkhIRXZqb0lId1J5dnREMzZHS2xuVFdhZjVEaDB0Y3BkZ1VnVXVwR3I2Q2gxQXBDN3h2ajQ3SWNIeE1zQURObUIxL3RsYlJLVjB3T3Zya2h1bkJ2ZE5FKytaZ0xEdEg1dG1LekxRR2V1MnF3VDJONm9LdW9GVWpYVERHblFlanRUZFFxZ0NVRVQrV001VzZMV3N6SWdIcXBWY0NXZ0s0ZldaU05yMnVtSmhQMEhCdWZwak5XNDlPTG9lbmR0bXFuYUVxRHV1Q0FlcWxKSUwrQXdITXI4QzB0MHVXK1pRYTFBdS9kczd2SDU1RkYxSm9WL3pQTDJUY1JhMitiU2EwQWRhRkcrS0IyYXVYSkwwQStidXhvbFQ5UWs0bDVtRVRzcEtZY0pPcU10MVkzVVpNSmFvUURhcWNtbnY0UVVQdW5Fd0gxTFJkSXdJQk1vV2N2NEJSeVpSYngrc1BVWkZMd0lqWkdWVWpnZUZDWDNsK0wyUFUvMkVaZDZVQW0vKzFON21sSDNpKzNlV0lyRCtFTWtISG9ZeURySVoxeDlXY2dBKzdycDVtSFlQN0JrUkw1YWJkUEpwVWcxeW84V1ZNSkhqTVBSZG9pWEhsWVlWY0Fqa3ZzdTU0SWVrNjZkaXJTOTY3dHgxR0NvY2pNQk4vb0pkM0ozSjBXeWR4OTgya3lKNENGaE0rRzNyWEl1QWgyQlNqL2h2RmQ3QjQ5aFpkVm1Hc3g4RUxQL1Z4OFkvNTBPdm5yYWZyOURPaU84TWZmMnRvTURHd0pRTWFyRzNlM1Fqa1NUNVJIWnZaa0JPNWJxNVN6UWJISjVQRS92WXpXNGd4YkFwQ1g2eWtGQ0FsNmJNVnZhQTB5ZVBxS0ZlWXRuWHpDamZNbnRUckFsZ0JYK3VBWG1mVlRwc1F6c3NhTU5WWjdhMVl3UTVUVDdDYkx6bW5MRG5ZRnNPc25WVVBGV0x2aGNYWFlhc3hMRkF3Q2RjNU40S1ZWZUZIcnRBenRCV0ZYQUFpK3RSSExJRE9QMlV4QW91Sm9KblRmZ2pXMFJxb2JZOHNPaEQ3Y3dvZVVnaWhBZ010WW82R1B0dUpVenJaekRJaWlZbVNvVzE1OER5emdPMEpuSVNVZWZIMGQ5Y3hMWVFKNEVDbFJzWExLbnp2MFpzVzh2RUNqbzdOM2hjZlhtUU9DUU9sN3FPQ3JWZWNDcExJS3VZVWRYdU9yRGxGckRsaXFZMnpLbmhHek1vVm1keVQzZDFELzNEZ1g0REt1U1JCM3VZa2dQbnlJeUlEOUI2YlkwbC80UWd4ajFuOTk4dEluQVNBOHRwYUZDSXNucXdCTW15eW1TeWF5ZjMwMHJkQUoyVmNCRGdpK3NnWUNVcitmNXpzNzhQelh1cEh0VXYvY0ZFR0FOS3o3WHhrY2k3Mmo1aUExREk1WnIvclpmeVhoVCt1cGYyNktJTUJsWEVLYWY2anhEMDdKOW5PNERNVVJBTnpEcStKcm1qQm5FTkd4K2VBOFJIM3NVRFFCL1VWSlFMRXBDU2cySlFIRnBpU2cyRnowQXY0RHJWRUgwRXpMQ3UwQUFBQUFTVVZPUks1Q1lJST0iIHk9IjE2MDkuNTE1NiIvPjx0ZXh0IGZpbGw9IiMwMDAwMDAiIGZvbnQtZmFtaWx5PSJzYW5zLXNlcmlmIiBmb250LXNpemU9IjEyIiBsZW5ndGhBZGp1c3Q9InNwYWNpbmciIHRleHRMZW5ndGg9IjEyIiB4PSI5ODMiIHk9IjE2ODQuODU5NCI+W108L3RleHQ+PHJlY3QgZmlsbD0iI0ZGRkZGRiIgaGVpZ2h0PSIxMjAuODEyNSIgc3R5bGU9InN0cm9rZTojN0Q4OTk4O3N0cm9rZS13aWR0aDoxLjI1OyIgd2lkdGg9IjIwNiIgeD0iMTA1Ni41IiB5PSI0MC45ODQ0Ii8+PHRleHQgZmlsbD0iIzAwMDAwMCIgZm9udC1mYW1pbHk9InNhbnMtc2VyaWYiIGZvbnQtc2l6ZT0iMTQiIGZvbnQtc3R5bGU9Iml0YWxpYyIgbGVuZ3RoQWRqdXN0PSJzcGFjaW5nIiB0ZXh0TGVuZ3RoPSIxOTIiIHg9IjEwNjMuNSIgeT0iNjEuMjE4OCI+JiMxNzE7U2ltcGxlTm90aWZpY2F0aW9uU2VydmljZSYjMTg3OzwvdGV4dD48dGV4dCBmaWxsPSIjMDAwMDAwIiBmb250LWZhbWlseT0ic2Fucy1zZXJpZiIgZm9udC1zaXplPSIxNCIgbGVuZ3RoQWRqdXN0PSJzcGFjaW5nIiB0ZXh0TGVuZ3RoPSI3IiB4PSIxMTU2IiB5PSI3Ni4yMDMxIj4mIzE2MDs8L3RleHQ+PGltYWdlIGhlaWdodD0iNjQiIHdpZHRoPSI2NCIgeD0iMTEyNy41IiB4bGluazpocmVmPSJkYXRhOmltYWdlL3BuZztiYXNlNjQsaVZCT1J3MEtHZ29BQUFBTlNVaEVVZ0FBQUVBQUFBQkFDQUlBQUFBbEMrYUpBQUFGWFVsRVFWUjRYdTJaKzI4VVZSVEgrU2ZLby9pS0dKOC9xTVIzaUJxak1USEdId2o2ZzRrYUV5VXh4a1FOSmlaOUlwWUc2TU8yb0FMUkVnSU5vQUlxMkVxaDBCSnJBSnNpV2dxbGxkWldkblptM3pPN083UHo4a3pQdXQzTzJXN3ZUSmNkU2ZibWsyWjZ6NzF6ei9mT1BmZWVtVjNrSzZ1NG9WbEVxMjRzU2dLOHBpVEFhMG9DdktZa3dHdEtBcnltOEFMOGQyd0l2OWtSMzNWVzZSdFZoems5R0RkVlhZOGt0Y2x3Nm85cmlXOEdveFZIQXM5L1FUdTZvM0FDbGxTRzErNVh6b3libW00eUZPMnZnRmpmN2I5bm8vMCtEaW1FZ0tWVmtmY1BhbU1COU14UVZLVnZMTGErSzdqNmEyRlZpLyt1T3QreUttN0ZCdjZCellIblBvOThjQ2plZmdhZVJycHhUSTVWLytRcnI3YmZrNW1GQ3VCWE5xVE9UcUEzNnFnQVNyaGJhbWt6TzBzcVFaN2NOWXdkUTYvdHNUZGdaa0VDSXU4Y2dDa0VEN1NwU1BpdGZlQVdiWk9mME12dFVtc3ZyV2ZIdllCWWJSZk9YL0xnN3hDNHRJRmpsbFZKMjA1RDBPdGNERlJ4eTVuV2xVc0JzWnBPeTNmZGlINTRpRnJkSWJYMTRZeGdZWHd5YmdSQUlLTDNrWGUvcFZaSHlOMlhzNTJHRW5wMU4yRGRub3ZSOWhUSEFvVEhtNDFrQ2dhSXZQY2R0VHJGNXIxNTNRV1VWNmNHcCtEdWlZNEJ1OGtWNkRSZUYyTUp3ZTV1VHA5QjNHM3JxZFVGMlFLdWV4QnpOOVhvdkFqakJkZTBVNnM3Wmdsd2hRTUIwWFhmdzJDcGdVbHFzZzZtTmUxaTAwbWxkMVQ3TzJSRWsxYitFMDVvNDBINStHVnhTMDl3OVZlK3hUbE9pYUlLZ0pWajVqbzFBODlzVmE4STZFcWVvbDd5QzArMzJmcWlpWTdGRHFzQTRZblBZQ1Jka09oRVloYWtYUTJLalNkRHIremlIOXhpUmNqU0t1NzJUL2lIRzJGTGtWcDY0YkZZR2tZRlc5L2lDWWgrL0NPTUJNa3dOZUgwc3doSVhiaG02MXM4QVhMblJSZ0praDlxaW4xNkRQMll0OUNERCt2cFBkbGhFQUM3VzJ1dm9XZ3dVbng3UDAxOS9mZlZROGlDTlhGZ1VEbDFCVkpsSzhQVGRQZ0xFeStmR0VtZC93ZXNzTkxnc2RqNjVoRGdjRE9kWDRDMGRkYjVJamIwMERiSkkwTmdpdFVkb3lad0dxT2ZUcjh2bHdDbng5bjhBdlNBWkdhZDhMVDRwck5pdU5BbVFqVEV3Vy9MOU4vMDIvck9WZGdUaXNJSUFML0JlN2lHSUo3Vm5VeS92Zk1jcFpBQ1dKWVFBT3NIckxDV3NpdHQwMC9CZTJiWEZINEpXVkhWa2c1aTZjdGZhQkFqNlZCV2RiaElWOEwwVHg4Uk9WYy9RZ1VVUG9nUmZIOE5yOTFQVFJsc29UenY5UHR5Q25BSXE0Qlk1VkVZS2JIM04ycktrQTdsOFNEK3E0N3crYWZmVjB3QmtNWll6azJHcVdtR3haWFpEcVd2NTU3K21UYWtuaDFXQWVBYzV0TDVQNnJsRUVEYXpOWGVIY3dDeWlvZ0s0YkJrai84U1UwWi90Y0MvUGZXRzRvS09RTC9VQ08xSWhtSGhNZWFXWnhqYVpNZkJ3SUFDR0xUeWtuUFV4T0NEb1hmM21lOTAwRDZlVzZDdHFIdDAvODYzRUFSWndMNGxRMkdwSmk1WG1zUWRBaEw4dkFGN3RaNVhwMnpCVGc5d2hCbkFvRG9SOWFMcGU0WC9YZldVU3QrNTRITktycnVNTFZTc2ozR3dwNUVJSTRGd0hha25CNkRBWlQrcTl6TnRYYXJReno0c0FYdzkyL0M3K1B3d3M2NFVsa28waEpDK0VlYjhGaVFmNzdFclNqRWw5MnlvZ1J4TnNKVGJYb29ZVTduRG9GbnQ5RUdqQVJmMmlrMW42TDFqTGdYNE1OZk53WW1UZXRYR1EzU2JLY2YyZjEzYjB4MERPQ0NDYit4bHpaZ1lVRUNBSGpROEtLTVR1aVJwTGpwK0V3NlBUZkNxcGI0N25QNGtkaVFWYkcrbTNIQlVCWXFBSUVFU2U0WlFSbW1ZYVFHcDhUTkorRHRESmFaOVROZWVUV2M0c0tUcmVIWDk4UjM5S3NYdVV4THVYT1lmNlNKM3BDZHdnaEFBaTlzVHg0ZE11TFdTWmUvR0tJYzMva3I3QVQwSms0cHBBQ0VXMTREY3c4ekRjOUVIZkxwZ21TbUlIOFNZZUtoQnRaWThNVWRyaGNNcGZBQ2lreEpnTmVVQkhoTlNZRFhsQVI0VFVtQTEvd0xza3cxT21YRTZ3WUFBQUFBU1VWT1JLNUNZSUk9IiB5PSI3Ny45NTMxIi8+PHRleHQgZmlsbD0iIzAwMDAwMCIgZm9udC1mYW1pbHk9InNhbnMtc2VyaWYiIGZvbnQtc2l6ZT0iMTIiIGxlbmd0aEFkanVzdD0ic3BhY2luZyIgdGV4dExlbmd0aD0iMTIiIHg9IjExNTMuNSIgeT0iMTUzLjI5NjkiPltdPC90ZXh0PjxyZWN0IGZpbGw9IiNGRkZGRkYiIGhlaWdodD0iMTIwLjgxMjUiIHN0eWxlPSJzdHJva2U6IzdEODk5ODtzdHJva2Utd2lkdGg6MS4yNTsiIHdpZHRoPSIyMDYiIHg9IjEwNTYuNSIgeT0iMTU3Mi41NDY5Ii8+PHRleHQgZmlsbD0iIzAwMDAwMCIgZm9udC1mYW1pbHk9InNhbnMtc2VyaWYiIGZvbnQtc2l6ZT0iMTQiIGZvbnQtc3R5bGU9Iml0YWxpYyIgbGVuZ3RoQWRqdXN0PSJzcGFjaW5nIiB0ZXh0TGVuZ3RoPSIxOTIiIHg9IjEwNjMuNSIgeT0iMTU5Mi43ODEzIj4mIzE3MTtTaW1wbGVOb3RpZmljYXRpb25TZXJ2aWNlJiMxODc7PC90ZXh0Pjx0ZXh0IGZpbGw9IiMwMDAwMDAiIGZvbnQtZmFtaWx5PSJzYW5zLXNlcmlmIiBmb250LXNpemU9IjE0IiBsZW5ndGhBZGp1c3Q9InNwYWNpbmciIHRleHRMZW5ndGg9IjciIHg9IjExNTYiIHk9IjE2MDcuNzY1NiI+JiMxNjA7PC90ZXh0PjxpbWFnZSBoZWlnaHQ9IjY0IiB3aWR0aD0iNjQiIHg9IjExMjcuNSIgeGxpbms6aHJlZj0iZGF0YTppbWFnZS9wbmc7YmFzZTY0LGlWQk9SdzBLR2dvQUFBQU5TVWhFVWdBQUFFQUFBQUJBQ0FJQUFBQWxDK2FKQUFBRlhVbEVRVlI0WHUyWisyOFVWUlRIK1NmS28vaUtHSjgvcU1SM2lCcWpNVEhHSHdqNmc0a2FFeVV4eGtRTkppWjlJcFlHNk1PMm9BTFJFZ0lOb0FJcTJFcWgwQkpyQUpzaVdncWxsZFpXZG5abTN6TzdPN1B6OGt6UHV0M08yVzd2VEpjZFNmYm1rMlo2ejcxenovZk9QZmVlbVYza0s2dTRvVmxFcTI0c1NnSzhwaVRBYTBvQ3ZLWWt3R3RLQXJ5bThBTDhkMndJdjlrUjMzVlc2UnRWaHprOUdEZFZYWThrdGNsdzZvOXJpVzhHb3hWSEFzOS9RVHU2bzNBQ2xsU0cxKzVYem95Ym1tNHlGTzJ2Z0ZqZjdiOW5vLzArRGltRWdLVlZrZmNQYW1NQjlNeFFWS1Z2TExhK0s3ajZhMkZWaS8rdU90K3lLbTdGQnY2QnpZSG5Qbzk4Y0NqZWZnYWVScnB4VEk1Vi8rUXJyN2JmazVtRkN1QlhOcVRPVHFBMzZxZ0FTcmhiYW1rek8wc3FRWjdjTll3ZFE2L3RzVGRnWmtFQ0l1OGNnQ2tFRDdTcFNQaXRmZUFXYlpPZjBNdnRVbXN2cldmSHZZQlliUmZPWC9MZzd4QzR0SUZqbGxWSjIwNUQwT3RjREZSeHk1bldsVXNCc1pwT3kzZmRpSDU0aUZyZEliWDE0WXhnWVh3eWJnUkFJS0wza1hlL3BWWkh5TjJYczUyR0VucDFOMkRkbm92UjloVEhBb1RIbTQxa0NnYUl2UGNkdFRyRjVyMTUzUVdVVjZjR3ArRHVpWTRCdThrVjZEUmVGMk1Kd2U1dVRwOUIzRzNycWRVRjJRS3VleEJ6TjlYb3ZBampCZGUwVTZzN1pnbHdoUU1CMFhYZncyQ3BnVWxxc2c2bU5lMWkwMG1sZDFUN08yUkVrMWIrRTA1bzQwSDUrR1Z4UzA5dzlWZSt4VGxPaWFJS2dKVmo1am8xQTg5c1ZhOEk2RXFlb2w3eUMwKzMyZnFpaVk3RkRxc0E0WW5QWUNSZGtPaEVZaGFrWFEyS2pTZERyK3ppSDl4aVJjalNLdTcyVC9pSEcyRkxrVnA2NGJGWUdrWUZXOS9pQ1loKy9DT01CTWt3TmVIMHN3aElYYmhtNjFzOEFYTG5SUmdKa2g5cWluMTZEUDJZdDlDREQrdnBQZGxoRUFDN1cydXZvV2d3VW54N1AwMTkvZmZWUThpQ05YRmdVRGwxQlZKbEs4UFRkUGdMRXkrZkdFbWQvd2Vzc05MZ3NkajY1aERnY0RPZFg0QzBkZGI1SWpiMDBEYkpJME5naXRVZG95WndHcU9mVHI4dmx3Q254OW44QXZTQVpHYWQ4TFQ0cHJOaXVOQW1RalRFd1cvTDlOLzAyL3JPVmRnVGlzSUlBTC9CZTdpR0lKN1ZuVXkvdmZNY3BaQUNXSllRQU9zSHJMQ1dzaXR0MDAvQmUyYlhGSDRKV1ZIVmtnNWk2Y3RmYUJBajZWQldkYmhJVjhMMFR4OFJPVmMvUWdVVVBvZ1JmSDhOcjkxUFRSbHNvVHp2OVB0eUNuQUlxNEJZNVZFWUtiSDNOMnJLa0E3bDhTRCtxNDd3K2FmZlYwd0JrTVpZemsyR3FXbUd4WlhaRHFXdjU1NyttVGFrbmgxV0FlQWM1dEw1UDZybEVFRGF6TlhlSGN3Q3lpb2dLNGJCa2ovOFNVMFovdGNDL1BmV0c0b0tPUUwvVUNPMUlobUhoTWVhV1p4amFaTWZCd0lBQ0dMVHlrblBVeE9DRG9YZjNtZTkwMEQ2ZVc2Q3RxSHQwLzg2M0VBUlp3TDRsUTJHcEppNVhtc1FkQWhMOHZBRjd0WjVYcDJ6QlRnOXdoQm5Bb0RvUjlhTHBlNFgvWGZXVVN0KzU0SE5LcnJ1TUxWU3NqM0d3cDVFSUk0RndIYWtuQjZEQVpUK3E5ek50WGFyUXp6NHNBWHc5Mi9DNytQd3dzNjRVbGtvMGhKQytFZWI4RmlRZjc3RXJTakVsOTJ5b2dSeE5zSlRiWG9vWVU3bkRvRm50OUVHakFSZjJpazFuNkwxakxnWDRNTmZOd1ltVGV0WEdRM1NiS2NmMmYxM2IweDBET0NDQ2IreGx6WmdZVUVDQUhqUThLS01UdWlScExqcCtFdzZQVGZDcXBiNDduUDRrZGlRVmJHK20zSEJVQllxQUlFRVNlNFpRUm1tWWFRR3A4VE5KK0R0REphWjlUTmVlVFdjNHNLVHJlSFg5OFIzOUtzWHVVeEx1WE9ZZjZTSjNwQ2R3Z2hBQWk5c1R4NGRNdUxXU1plL0dLSWMzL2tyN0FUMEprNHBwQUNFVzE0RGN3OHpEYzlFSGZMcGdtU21JSDhTWWVLaEJ0Wlk4TVVkcmhjTXBmQUNpa3hKZ05lVUJIaE5TWURYbEFSNFRVbUExL3dMc2t3MU9tWEU2d1lBQUFBQVNVVk9SSzVDWUlJPSIgeT0iMTYwOS41MTU2Ii8+PHRleHQgZmlsbD0iIzAwMDAwMCIgZm9udC1mYW1pbHk9InNhbnMtc2VyaWYiIGZvbnQtc2l6ZT0iMTIiIGxlbmd0aEFkanVzdD0ic3BhY2luZyIgdGV4dExlbmd0aD0iMTIiIHg9IjExNTMuNSIgeT0iMTY4NC44NTk0Ij5bXTwvdGV4dD48cmVjdCBmaWxsPSIjRkZGRkZGIiBoZWlnaHQ9IjEyMC44MTI1IiBzdHlsZT0ic3Ryb2tlOiM3RDg5OTg7c3Ryb2tlLXdpZHRoOjEuMjU7IiB3aWR0aD0iODQiIHg9IjEyODYuNSIgeT0iNDAuOTg0NCIvPjx0ZXh0IGZpbGw9IiMwMDAwMDAiIGZvbnQtZmFtaWx5PSJzYW5zLXNlcmlmIiBmb250LXNpemU9IjE0IiBmb250LXN0eWxlPSJpdGFsaWMiIGxlbmd0aEFkanVzdD0ic3BhY2luZyIgdGV4dExlbmd0aD0iNTkiIHg9IjEyOTkiIHk9IjYxLjIxODgiPiYjMTcxO0xhbWJkYSYjMTg3OzwvdGV4dD48dGV4dCBmaWxsPSIjMDAwMDAwIiBmb250LWZhbWlseT0ic2Fucy1zZXJpZiIgZm9udC1zaXplPSIxNCIgbGVuZ3RoQWRqdXN0PSJzcGFjaW5nIiB0ZXh0TGVuZ3RoPSI3MCIgeD0iMTI5My41IiB5PSI3Ni4yMDMxIj5Qb2xsIFF1ZXVlPC90ZXh0PjxpbWFnZSBoZWlnaHQ9IjY0IiB3aWR0aD0iNjQiIHg9IjEyOTYuNSIgeGxpbms6aHJlZj0iZGF0YTppbWFnZS9wbmc7YmFzZTY0LGlWQk9SdzBLR2dvQUFBQU5TVWhFVWdBQUFFQUFBQUJBQ0FJQUFBQWxDK2FKQUFBRm1VbEVRVlI0WHRXWlcyd1VWUmpIQVJXOEVJMjNlRmMweG5pSkNjWUhZK0lsWGg2OHZJZ3ZtSGg3MEJmd3dWQmEybXFoMHFKV3JMRkFLVkVqV0d3SnBCQklXa0V3WUVwRmtiYkJnRmJRQWkwU0thVXplNy9NenU2TTM3ZG5kcGgrMzNiMzdNNDhPSlBmeS8vOHo1dzkzOHlaT2Y5cHB5bUxwdmthcW4wSDFiNkRhdDlCdGUrZzJuZFE3VHVvOWgxVSt3NnFmUWZWa2lUMnJ6SU53NVE0REMwYWJudUdqK0FWVkV1U1B2ODNuZW5VaHo3eUN4L0JLNmlXUkJRUVdIRVh0NXlvU3k0ekl1UFFNN1RtY2U1NkF0V1NTQllBeEhjdGc1NnBQN3E1NVFsVVM1S1pHTVlDR3Uva0ZrR3R1OWJRWXZEQUJEOTVnTHZ1b1ZvUytRSVU4Y1NiWnZMUU45eHlEOVdTbEZSQW9IR09tZEhOZENyd3dTM2NkUW5Wa3BSVUFLQU5ka0wveEkvTjNISUoxWkxrQ3BqRHJid0VtK2RDZnlNWlZtdXY0cTRicUpZa00zRkN2T1BKb1ovdVZ5cG44djVBNnRodTZCRHJxZUdXRzZpV0pORzNoczQ5ZDBRM3Y4WDdBN0FmZzVzSm4xV3FabkczYktoMlEyVGpLekRGOUxrL2xZcnAzQVgwZndhd3dpMXZjNnRzcUhiRjRvc3l5a21ZWW1UOVM5VEtFbW1mbjYzd21GSXhnN3ZsUWJWTG9sc1h3aFQxVXo5ekM0RUtzdzlQWlAwOGFwVUwxUzdCOEJNOUQxTU10VDdCWGNXdTBMdDRSN1Y3NHJ1V21oaCtlcmlsT0N2MEtONVI3UjcxL1d2Z0c2QkErUEUyM2xGZEJtck5iSDI0Tjc2bjBXNUo5TGJBRkpQOTdid3o5cmZqWGRQOTNDMFZxc3NnMXIwRTMvK1pkUEREdTBWTG9PRU9LL3dzdjQzM1Z6RGVyY1lLRDIzZ1ZxbFFYU3BxMWFXd04yRUJNS0dEWDl2dDJzQzMwSkxvL1p5Zm9uZ2E3Nmd1bFdqWEFwaG9ldnc0M0FHY1VNUHRvajI0OGtFVHcwOUVmZTlxZnBhQzhXNFRWcmp2VTI2VkJOV2xzZmppM000MUw5bS9FU2ZVMTJxN3FhSHZvQ1crczQ2ZWxjV3JlRWQxU1VRNlhzUExQellFMlNIWWRKOXBaQXc5RVZoMm8zQkRyVS9pb3hFNUI4dU1uNnQ0Rk8rb0xvR0s2ZW16djhNTW9wMXZpQmJ0dHk2eUt2VFJYN0ZEMXdKNmJoWlA0aDNWOGtEZ3daOVhSMkFoaVpiY3FvakFWbUQxMmZBeTlwa1loaERCUjFBdzNnMWloUzdpSGRYeVdGZDM2MEpuSTJ6QXVPNTNOMWd0RlRQdytZYUhwSDArSDBHWkZPL3lCOWlpVUMxSjd1NlBrZlVkV3ZVbzNvUjRRSzI5VXJUQTFZVVdDTko4RU9SQ3ZNc2ZZSXRDdFNTcHYvYkNyOGE2cTZleTRqMjFWa3ZWTExGUmhOYzl5enNEc1czdllJVlRCZGhpVUMxRHFPVVJjcG1kaE5jK2hXNWtYSzIrWExSQW5kQ1NPcjZIZDFhYzhXNzFZOXd0Q3RVeWFFZDM0RFgrWVFXM0JQcklRVndWSGE4S0NXOTZJeEdDbG1EelE3d3pFUCsrSGlzc0s5NVJYUlRJbUpERElJMnBkZGR4RjZtOEpLT080cHI1NGptN01iRnZKYlJvaHpmVHpsbmN4RHVxaTZJTmRKZ1ljbHE0SllodWVoTTZwUDg5Nm55eEJPcHZOdE1heEkycC9wUlVkcnlqdWpEdzgxYm1XWDRyZHhIWTNjYUduT3ZIQnFJZVR2R250ZlNVTE5sNGx4MjV4SGhIZFdHU0I5YmhKQnlwazJEdGJzb3BlM2V6Q1g1OEw2NjlWRnhkZWowL1VjbkZPK2NCYVlwM0kxQmRnRUQ5VGFhZWhNQVQvT2dlN2dyeTdtNDIycEh0cG5PYm13dzhBRVowZ3RUQXV4R29Ma0R1UWR6Q0xVRzQ3V216WUhxenRybVlvbFpmd1YwQ1hDa3ZDNEJZRDlIWHhGZmhYTzRLNEUxdk9yZXdmT2duOWtPZjJQWjN1VVh3dUFEclMzeG9KN2NFb2M4ZXhxdWJDQlhPOStHdlhzUzdwSTd5aDRUZ1pRRnd4OFhxTExCWldsbDZieE8zSm5FaGhMOU9yY2w0V1VCc3h5SVlTei9aeHkwQlBOYTVyNWtidUV1QTd3Y1RONG9qM0hMaVhRR1ZNelBCTXpCVytNdm5xWlhEZXNjZmFPTldIbUNyRHB6T0R2Z0N0Ung0Vm9ESXcra3poN2tsZ0szSDJtVWwvbWtwc0c3cGNDKzNiRHdyQUw0MlRJbERHK3prNTA2RldqUGJpS3QwaUh3SFA1ZEFOUWV1RXgyVkhaQ0hZYVBsNXhZQTNxVDRwNkdDaDhjNzhmOFRxbjBIMWI2RGF0OUJ0ZStnMm5kUTdUdW85aDFVK3c2cWZjZC9zVFZLR3c4L1lQVUFBQUFBU1VWT1JLNUNZSUk9IiB5PSI3Ny45NTMxIi8+PHRleHQgZmlsbD0iIzAwMDAwMCIgZm9udC1mYW1pbHk9InNhbnMtc2VyaWYiIGZvbnQtc2l6ZT0iMTIiIGxlbmd0aEFkanVzdD0ic3BhY2luZyIgdGV4dExlbmd0aD0iNjQiIHg9IjEyOTYuNSIgeT0iMTUzLjI5NjkiPltGdW5jdGlvbl08L3RleHQ+PHJlY3QgZmlsbD0iI0ZGRkZGRiIgaGVpZ2h0PSIxMjAuODEyNSIgc3R5bGU9InN0cm9rZTojN0Q4OTk4O3N0cm9rZS13aWR0aDoxLjI1OyIgd2lkdGg9Ijg0IiB4PSIxMjg2LjUiIHk9IjE1NzIuNTQ2OSIvPjx0ZXh0IGZpbGw9IiMwMDAwMDAiIGZvbnQtZmFtaWx5PSJzYW5zLXNlcmlmIiBmb250LXNpemU9IjE0IiBmb250LXN0eWxlPSJpdGFsaWMiIGxlbmd0aEFkanVzdD0ic3BhY2luZyIgdGV4dExlbmd0aD0iNTkiIHg9IjEyOTkiIHk9IjE1OTIuNzgxMyI+JiMxNzE7TGFtYmRhJiMxODc7PC90ZXh0Pjx0ZXh0IGZpbGw9IiMwMDAwMDAiIGZvbnQtZmFtaWx5PSJzYW5zLXNlcmlmIiBmb250LXNpemU9IjE0IiBsZW5ndGhBZGp1c3Q9InNwYWNpbmciIHRleHRMZW5ndGg9IjcwIiB4PSIxMjkzLjUiIHk9IjE2MDcuNzY1NiI+UG9sbCBRdWV1ZTwvdGV4dD48aW1hZ2UgaGVpZ2h0PSI2NCIgd2lkdGg9IjY0IiB4PSIxMjk2LjUiIHhsaW5rOmhyZWY9ImRhdGE6aW1hZ2UvcG5nO2Jhc2U2NCxpVkJPUncwS0dnb0FBQUFOU1VoRVVnQUFBRUFBQUFCQUNBSUFBQUFsQythSkFBQUZtVWxFUVZSNFh0V1pXMndVVlJqSEFSVzhFSTIzZUZjMHhuaUpDY1lIWStJbFhoNjh2SWd2bUhoNzBCZnd3VkJhMm1xaDBxSldyTEZBS1ZFaldHd0pwQkJJV2tFd1lFcEZrYmJCZ0ZiUUFpMFNLYVV6ZTcvTXp1Nk0zN2RuZHBoKzMzYjM3TTQ4T0pQZnkvLzh6NXc5Mzh5Wk9mOXBweW1McHZrYXFuMEgxYjZEYXQ5QnRlK2cybmRRN1R1bzloMVUrdzZxZlFmVmtpVDJyeklOdzVRNERDMGFibnVHaitBVlZFdVNQdjgzbmVuVWh6N3lDeC9CSzZpV1JCUVFXSEVYdDV5b1N5NHpJdVBRTTdUbWNlNTZBdFdTU0JZQXhIY3RnNTZwUDdxNTVRbFVTNUtaR01ZQ0d1L2tGa0d0dTliUVl2REFCRDk1Z0x2dW9Wb1MrUUlVOGNTYlp2TFFOOXh5RDlXU2xGUkFvSEdPbWRITmRDcnd3UzNjZFFuVmtwUlVBS0FOZGtML3hJL04zSElKMVpMa0NwakRyYndFbStkQ2Z5TVpWbXV2NHE0YnFKWWtNM0ZDdk9QSm9aL3VWeXBuOHY1QTZ0aHU2QkRycWVHV0c2aVdKTkczaHM0OWQwUTN2OFg3QTdBZmc1c0puMVdxWm5HM2JLaDJRMlRqS3pERjlMay9sWXJwM0FYMGZ3YXd3aTF2YzZ0c3FIYkY0b3N5eWttWVltVDlTOVRLRW1tZm42M3dtRkl4Zzd2bFFiVkxvbHNYd2hUMVV6OXpDNEVLc3c5UFpQMDhhcFVMMVM3QjhCTTlEMU1NdFQ3QlhjV3UwTHQ0UjdWNzRydVdtaGgrZXJpbE9DdjBLTjVSN1I3MS9XdmdHNkJBK1BFMjNsRmRCbXJOYkgyNE43Nm4wVzVKOUxiQUZKUDk3Ynd6OXJmalhkUDkzQzBWcXNzZzFyMEUzLytaZFBERHUwVkxvT0VPSy93c3Y0MzNWekRlcmNZS0QyM2dWcWxRWFNwcTFhV3dOMkVCTUtHRFg5dnQyc0MzMEpMby9aeWZvbmdhNzZndWxXalhBcGhvZXZ3NDNBR2NVTVB0b2oyNDhrRVR3MDlFZmU5cWZwYUM4VzRUVnJqdlUyNlZCTldsc2ZqaTNNNDFMOW0vRVNmVTEycTdxYUh2b0NXK3M0NmVsY1dyZUVkMVNVUTZYc1BMUHpZRTJTSFlkSjlwWkF3OUVWaDJvM0JEclUvaW94RTVCOHVNbjZ0NEZPK29Mb0dLNmVtenY4TU1vcDF2aUJidHR5NnlLdlRSWDdGRDF3SjZiaFpQNGgzVjhrRGd3WjlYUjJBaGlaYmNxb2pBVm1EMTJmQXk5cGtZaGhEQlIxQXczZzFpaFM3aUhkWHlXRmQzNjBKbkkyekF1TzUzTjFndEZUUHcrWWFIcEgwK0gwR1pGTy95QjlpaVVDMUo3dTZQa2ZVZFd2VW8zb1I0UUsyOVVyVEExWVVXQ05KOEVPUkN2TXNmWUl0Q3RTU3B2L2JDcjhhNnE2ZXk0ajIxVmt2VkxMRlJoTmM5eXpzRHNXM3ZZSVZUQmRoaVVDMURxT1VSY3BtZGhOYytoVzVrWEsyK1hMUkFuZENTT3I2SGQxYWM4VzcxWTl3dEN0VXlhRWQzNERYK1lRVzNCUHJJUVZ3VkhhOEtDVzk2SXhHQ2xtRHpRN3d6RVArK0hpc3NLOTVSWFJUSW1KRERJSTJwZGRkeEY2bThKS09PNHByNTRqbTdNYkZ2SmJSb2h6ZlR6bG5jeER1cWk2SU5kSmdZY2xxNEpZaHVlaE02cFA4OTZueXhCT3B2TnRNYXhJMnAvcFJVZHJ5anVqRHc4MWJtV1g0cmR4SFkzY2FHbk92SEJxSWVUdkdudGZTVUxObDRseDI1eEhoSGRXR1NCOWJoSkJ5cGsyRHRic29wZTNlekNYNThMNjY5VkZ4ZGVqMC9VY25GTytjQmFZcDNJMUJkZ0VEOVRhYWVoTUFUL09nZTdncnk3bTQyMnBIdHBuT2Jtd3c4QUVaMGd0VEF1eEdvTGtEdVFkekNMVUc0N1dtellIcXp0cm1Zb2xaZndWMENYQ2t2QzRCWUQ5SFh4RmZoWE80SzRFMXZPcmV3Zk9nbjlrT2YyUFozdVVYd3VBRHJTM3hvSjdjRW9jOGV4cXViQ0JYTzkrR3ZYc1M3cEk3eWg0VGdaUUZ3eDhYcUxMQlpXbGw2YnhPM0puRWhoTDlPcmNsNFdVQnN4eUlZU3ovWnh5MEJQTmE1cjVrYnVFdUE3d2NUTjRvajNITGlYUUdWTXpQQk16QlcrTXZucVpYRGVzY2ZhT05XSG1DckRwek9EdmdDdFJ4NFZvREl3K2t6aDdrbGdLM0gybVVsL21rcHNHN3BjQyszYkR3ckFMNDJUSWxERyt6azUwNkZXalBiaUt0MGlId0hQNWRBTlFldUV4MlZIWkNIWWFQbDV4WUEzcVQ0cDZHQ2g4Yzc4ZjhUcW4wSDFiNkRhdDlCdGUrZzJuZFE3VHVvOWgxVSt3NnFmY2Qvc1RWS0d3OC9ZUFVBQUFBQVNVVk9SSzVDWUlJPSIgeT0iMTYwOS41MTU2Ii8+PHRleHQgZmlsbD0iIzAwMDAwMCIgZm9udC1mYW1pbHk9InNhbnMtc2VyaWYiIGZvbnQtc2l6ZT0iMTIiIGxlbmd0aEFkanVzdD0ic3BhY2luZyIgdGV4dExlbmd0aD0iNjQiIHg9IjEyOTYuNSIgeT0iMTY4NC44NTk0Ij5bRnVuY3Rpb25dPC90ZXh0PjxyZWN0IGZpbGw9IiNGRkZGRkYiIGhlaWdodD0iMTIwLjgxMjUiIHN0eWxlPSJzdHJva2U6IzdEODk5ODtzdHJva2Utd2lkdGg6MS4yNTsiIHdpZHRoPSI5NSIgeD0iMTQ0OCIgeT0iNDAuOTg0NCIvPjx0ZXh0IGZpbGw9IiMwMDAwMDAiIGZvbnQtZmFtaWx5PSJzYW5zLXNlcmlmIiBmb250LXNpemU9IjE0IiBmb250LXN0eWxlPSJpdGFsaWMiIGxlbmd0aEFkanVzdD0ic3BhY2luZyIgdGV4dExlbmd0aD0iMzciIHg9IjE0NzciIHk9IjYxLjIxODgiPiYjMTcxO0VDMiYjMTg3OzwvdGV4dD48dGV4dCBmaWxsPSIjMDAwMDAwIiBmb250LWZhbWlseT0ic2Fucy1zZXJpZiIgZm9udC1zaXplPSIxNCIgbGVuZ3RoQWRqdXN0PSJzcGFjaW5nIiB0ZXh0TGVuZ3RoPSI3IiB4PSIxNDkyIiB5PSI3Ni4yMDMxIj4mIzE2MDs8L3RleHQ+PGltYWdlIGhlaWdodD0iNjQiIHdpZHRoPSI2NCIgeD0iMTQ2My41IiB4bGluazpocmVmPSJkYXRhOmltYWdlL3BuZztiYXNlNjQsaVZCT1J3MEtHZ29BQUFBTlNVaEVVZ0FBQUVBQUFBQkFDQUlBQUFBbEMrYUpBQUFDRUVsRVFWUjRYdTJZTVU0Rk1Rd0ZPU2RIb09OTXRCUWNqQlVGSHlTYUR5dForcGp4MnZHdWc4Q0NhSW9kSjNsT3l1elZjbnZWR25vNzZPMmd0NFBlRG5vNzZPMmd0NFBlRG5vNzZCTjV2cnMrbng3ZkMyUGR2b2JZWkExOUlzWFR5MWhEYkxLR1BoRTVnYTNueVNUUUo1SnBINU5Kb0U4azB6NG1rMENmU0taOVRDYUIvcXY0djBBT3ROR2ErUTdJTEtNZkFHMjhnM3JmQVpsbDlBT2dqWGRRN3pzZ3M0eStpNWVIMi9QYlNkb2NHT3ZlTmNIR1hwQmx0cTZoNzZKeWVobHJnbzI5SUd0c1hVTlBvZzloWjVQb2tNMGNyNjZoSjRrYko5RWhtemxlWFVQZlJhWkJ3SEQ3Y01IeWR5OGcwWmtHQVRwa004ZXJhK2hKNHNaSmRNaG1qbGZYMEhlUmFSQXczRDVjc0F3dllOKzFldFpXZGpIY1BseXdEQzlnMzdWU3Q1VUQ2SkROSEsrdW9RTXY0clB0MW13U0hYTEpRYkg2cUpjVVc4L01EdG5jTGtVWkUzNnJiUFpJemc0cGJoZm9JTzRSenc0cGJoZm93T3NoZFc4MmlRNDVuRU1IWG5TOThmS3pGOGpNRGlsdUYrZ2c3aEhQRGlsdUYrakE2eUYxYnphSkRqbWNRd2RlOU5mV2M0YnRrb0VPNHVqVC9jMzU5ZW5yTVhhTWRlK2FZR04zUVFmU3lkYUROVm96MzBYb0lOTUphN3lEZXQ5RjZDRFRDV3U4ZzNyZlJlaGdZcWR2Z2c3K0x6QWhJWVlPNnUzckNURjBVRzlmVDRpaGczcjdla0lNSGRoSC9ZRXhmTmRXb0FQN1cyWHZ5THhySzlEYlFXOEh2UjMwZHREYlFXOEh2UjMwZHREYlFXL0hCd3BJNzgxYXNPOEdBQUFBQUVsRlRrU3VRbUNDIiB5PSI3Ny45NTMxIi8+PHRleHQgZmlsbD0iIzAwMDAwMCIgZm9udC1mYW1pbHk9InNhbnMtc2VyaWYiIGZvbnQtc2l6ZT0iMTIiIGxlbmd0aEFkanVzdD0ic3BhY2luZyIgdGV4dExlbmd0aD0iODEiIHg9IjE0NTUiIHk9IjE1My4yOTY5Ij5bQXBwIFNlcnZlcl08L3RleHQ+PHJlY3QgZmlsbD0iI0ZGRkZGRiIgaGVpZ2h0PSIxMjAuODEyNSIgc3R5bGU9InN0cm9rZTojN0Q4OTk4O3N0cm9rZS13aWR0aDoxLjI1OyIgd2lkdGg9Ijk1IiB4PSIxNDQ4IiB5PSIxNTcyLjU0NjkiLz48dGV4dCBmaWxsPSIjMDAwMDAwIiBmb250LWZhbWlseT0ic2Fucy1zZXJpZiIgZm9udC1zaXplPSIxNCIgZm9udC1zdHlsZT0iaXRhbGljIiBsZW5ndGhBZGp1c3Q9InNwYWNpbmciIHRleHRMZW5ndGg9IjM3IiB4PSIxNDc3IiB5PSIxNTkyLjc4MTMiPiYjMTcxO0VDMiYjMTg3OzwvdGV4dD48dGV4dCBmaWxsPSIjMDAwMDAwIiBmb250LWZhbWlseT0ic2Fucy1zZXJpZiIgZm9udC1zaXplPSIxNCIgbGVuZ3RoQWRqdXN0PSJzcGFjaW5nIiB0ZXh0TGVuZ3RoPSI3IiB4PSIxNDkyIiB5PSIxNjA3Ljc2NTYiPiYjMTYwOzwvdGV4dD48aW1hZ2UgaGVpZ2h0PSI2NCIgd2lkdGg9IjY0IiB4PSIxNDYzLjUiIHhsaW5rOmhyZWY9ImRhdGE6aW1hZ2UvcG5nO2Jhc2U2NCxpVkJPUncwS0dnb0FBQUFOU1VoRVVnQUFBRUFBQUFCQUNBSUFBQUFsQythSkFBQUNFRWxFUVZSNFh1MllNVTRGTVF3Rk9TZEhvT05NdEJRY2pCVUZIeVNhRHl0Witwangydkd1ZzhDQ2FJb2RKM2xPeXV6VmNudlZHbm83Nk8yZ3Q0UGVEbm83Nk8yZ3Q0UGVEbm83NkJONXZycytueDdmQzJQZHZvYllaQTE5SXNYVHkxaERiTEtHUGhFNWdhM255U1RRSjVKcEg1TkpvRThrMHo0bWswQ2ZTS1o5VENhQi9xdjR2MEFPdE5HYStRN0lMS01mQUcyOGczcmZBWmxsOUFPZ2pYZFE3enNnczR5K2k1ZUgyL1BiU2RvY0dPdmVOY0hHWHBCbHRxNmg3Nkp5ZWhscmdvMjlJR3RzWFVOUG9nOWhaNVBva00wY3I2NmhKNGtiSjlFaG16bGVYVVBmUmFaQndIRDdjTUh5ZHk4ZzBaa0dBVHBrTThlcmEraEo0c1pKZE1obWpsZlgwSGVSYVJBdzNENWNzQXd2WU4rMWV0WldkakhjUGx5d0RDOWczN1ZTdDVVRDZKRE5ISyt1b1FNdjRyUHQxbXdTSFhMSlFiSDZxSmNVVzgvTUR0bmNMa1VaRTM2cmJQWkl6ZzRwYmhmb0lPNFJ6dzRwYmhmb3dPc2hkVzgyaVE0NW5FTUhYblM5OGZLekY4ak1EaWx1RitnZzdoSFBEaWx1RitqQTZ5RjFiemFKRGptY1F3ZGU5TmZXYzRidGtvRU80dWpUL2MzNTllbnJNWGFNZGUrYVlHTjNRUWZTeWRhRE5Wb3ozMFhvSU5NSmE3eURldDlGNkNEVENXdThnM3JmUmVoZ1lxZHZnZzcrTHpBaElZWU82dTNyQ1RGMFVHOWZUNGloZzNyN2VrSU1IZGhIL1lFeGZOZFdvQVA3VzJYdnlMeHJLOURiUVc4SHZSMzBkdERiUVc4SHZSMzBkdERiUVcvSEJ3cEk3ODFhc084R0FBQUFBRWxGVGtTdVFtQ0MiIHk9IjE2MDkuNTE1NiIvPjx0ZXh0IGZpbGw9IiMwMDAwMDAiIGZvbnQtZmFtaWx5PSJzYW5zLXNlcmlmIiBmb250LXNpemU9IjEyIiBsZW5ndGhBZGp1c3Q9InNwYWNpbmciIHRleHRMZW5ndGg9IjgxIiB4PSIxNDU1IiB5PSIxNjg0Ljg1OTQiPltBcHAgU2VydmVyXTwvdGV4dD48cmVjdCBmaWxsPSIjRkZGRkZGIiBoZWlnaHQ9IjEyMC44MTI1IiBzdHlsZT0ic3Ryb2tlOiM3RDg5OTg7c3Ryb2tlLXdpZHRoOjEuMjU7IiB3aWR0aD0iOTUiIHg9IjE1ODciIHk9IjQwLjk4NDQiLz48dGV4dCBmaWxsPSIjMDAwMDAwIiBmb250LWZhbWlseT0ic2Fucy1zZXJpZiIgZm9udC1zaXplPSIxNCIgZm9udC1zdHlsZT0iaXRhbGljIiBsZW5ndGhBZGp1c3Q9InNwYWNpbmciIHRleHRMZW5ndGg9IjcyIiB4PSIxNTk4LjUiIHk9IjYxLjIxODgiPiYjMTcxO1JlZHNoaWZ0JiMxODc7PC90ZXh0Pjx0ZXh0IGZpbGw9IiMwMDAwMDAiIGZvbnQtZmFtaWx5PSJzYW5zLXNlcmlmIiBmb250LXNpemU9IjE0IiBsZW5ndGhBZGp1c3Q9InNwYWNpbmciIHRleHRMZW5ndGg9IjciIHg9IjE2MzEiIHk9Ijc2LjIwMzEiPiYjMTYwOzwvdGV4dD48aW1hZ2UgaGVpZ2h0PSI2NCIgd2lkdGg9IjY0IiB4PSIxNjAyLjUiIHhsaW5rOmhyZWY9ImRhdGE6aW1hZ2UvcG5nO2Jhc2U2NCxpVkJPUncwS0dnb0FBQUFOU1VoRVVnQUFBRUFBQUFCQUNBSUFBQUFsQythSkFBQUVsMGxFUVZSNFh1MmE2VzlVVlJqRytROEZvK0lTVWFKeCtlQVNFMk9DUzFBTXhqZ0l0YVVpRktuaVF0bXRVQ3lGRnRPS29FaWhMR2xaTExVS0xTbFVHS0MwbEw3KzNudHVwNTF6cHN5Wk16ZHowemh2bmcvbnZzc3o5N2x6N3RsbUZtUWVrbm1OQmE1cmZxRXFJRzFVQmFTTnFvQzBVUldRTnBJUnNHcVJmUDI2dE5iSzhUM1MxeVVESitWcXY5d2NrWHZqQ2hwYzRpUkVBbWtrVStMeUJLQThBUXRseHdkeTlwRGN1U21sR2lVVVVnNkpUVnNLd2dYc1hpblhCbWR1YUdSQVRoMlFnK3RsNXdwcGZGWHFuNUhQSHRmSERHaHdpWk1RQ2FTUm5ETklvSEw1UFJFb29Mc2wvdmpyLzBoN2c2eC8zazRvQ2tvb3BOd1loRzZPRDBJRWREVG9SMDZNU1d0ZHVSMkFja2lnd3FDMW94NElFV0I2RHYzQkRZVUJLb242a2hzcWloQUJ4amE4WVB1REFaVXhOMVFVNFFLR0xzZ1h6OW1oQUVBQ1ZRb0NKSG9Oam00UGwwRWg1ZVlGU0VGQVQ1dmNuNHhhVTNMbG5CeitYcnZ5NTgvYXlSWklJSTFrU2lqRUlJRXFCUUUwTnI0c3A5cnNXWXlwbDhIeDc3UFMzeTNuanlob2NJbVQwR3lqa1BLR2wvSTRTMFZaQWd5WXFyNTdTNDVzbFl1L3krZ1ZtWXFlYTBFalJBSnBKRk15ZXpWaHpQMnNva2hBZ0lYVmorZzNzL2tOYVhwYmRuMm9vTUVsVGtKdXZnL25BNUM4Z0tMNDlHRmRPeHphSk52ZW0zRUdjMVphQU91aW9mTXhBM2J1c0t5SzV2Smd6a29MK0cybjF0NjRLaWQva3JHc3R2ZlZxRCtZczlJQ2RQUVUyYjVjMngwYnRYMzZvTGFET1NzdGdENkRIZHN0YTUvV0VSYmpPOG1Vd1ZscEFWdmZsYW43TVlORWt3YWpVNllNemtvTEFKZTZ0WndKK0hLdnpnYkdHY3haYVFIMEhHNmRMMkhkMGp4L01HZVNBdGlxOXgrWFc5ZGw4SXcwdldOSERYNXUxTm9MUjIzL1hKeEZrWmlBaGhmejFwVTg1bS9mekV0Z010NWZMLzhPYWRUZERCWGs5RUZpQWhoWU1OWTV2SlNNakZodjUwejB4TDY0U2lKdHRVL2E1Y1lzcHc4U0U5RGJwVTZlY1daNmk0aGxyMG5mTC9FSkFBTk9YNWQyTU94WXMxMWVrTk1IaVFsbzN4RGZNWHVVMGN2YW5yd1haeHI3dFVuVHRpelQ5c2lBWFc3TWN2b2dNUUVNTDJhRFlvd05RTTFpN1U2c0ZBWlBxNGRwcStZeFhjT1pxQStuRHhJVDBCNmR0UXovcVROcmE1M2VheTdFbG1YaXJrYmpIWnhJeXhxN3ZDQ25EeElTc0REdU5uT2RzYkVsTUtkeHQwZjFjTTVOS01EcGh3UUVOSCtzcDV6WWplRjRiVHdYMWp4cWUzSklUY0NaOXZnU0c3OGpYNzFtSjN0aU5tZEpLRXVBR1ZMR2Iwdm5Oem9EWU16QmJyNFAwaEhROGFVMmV0cTBYZmVVdGljbkFrOUwweEh3dzBmYVlIdkZWOEV3ai9FcXUvaytTRWNBMi9QaGkvR2xzWmJWZHJJbmNweWxvaXdCb1BZSithTlpmMEc2ZEdMT01kUUhxUWxJQ3NHYy8wc0JadEpsY25WRFlZQktRZ2VBRUFHTSt0aFlWbjc4eEE0RkFCSnpRTlM1MlE3NUlFUUFJMzF1QXViMVpROVE5RlRkQlNVVVVtNE13ckFKSkVoQWhEMlplSCtvTnFXMzByTmZEcXlUSGU5TDR5dFN2eVQvWjlZbDZpUkVBbWw2MzlOcmIwaWdjdms5RVM0QXNIUmpMbVByZVBmV3RCSnZvNFJDeWgrOC9pdUtzZ1Rrd0l5bWUvYTEwcjFYejk3KzZ0Rm5uSjMrcTBFMitxc0JUa0lra0VZeUpTNVBBSklSa0NLcUF0SkdWVURhcUFwSUcxVUJhV1BlQy9nUEt2R1FrMWNkTUlnQUFBQUFTVVZPUks1Q1lJST0iIHk9Ijc3Ljk1MzEiLz48dGV4dCBmaWxsPSIjMDAwMDAwIiBmb250LWZhbWlseT0ic2Fucy1zZXJpZiIgZm9udC1zaXplPSIxMiIgbGVuZ3RoQWRqdXN0PSJzcGFjaW5nIiB0ZXh0TGVuZ3RoPSI4MSIgeD0iMTU5NCIgeT0iMTUzLjI5NjkiPltTZXJ2ZXJsZXNzXTwvdGV4dD48cmVjdCBmaWxsPSIjRkZGRkZGIiBoZWlnaHQ9IjEyMC44MTI1IiBzdHlsZT0ic3Ryb2tlOiM3RDg5OTg7c3Ryb2tlLXdpZHRoOjEuMjU7IiB3aWR0aD0iOTUiIHg9IjE1ODciIHk9IjE1NzIuNTQ2OSIvPjx0ZXh0IGZpbGw9IiMwMDAwMDAiIGZvbnQtZmFtaWx5PSJzYW5zLXNlcmlmIiBmb250LXNpemU9IjE0IiBmb250LXN0eWxlPSJpdGFsaWMiIGxlbmd0aEFkanVzdD0ic3BhY2luZyIgdGV4dExlbmd0aD0iNzIiIHg9IjE1OTguNSIgeT0iMTU5Mi43ODEzIj4mIzE3MTtSZWRzaGlmdCYjMTg3OzwvdGV4dD48dGV4dCBmaWxsPSIjMDAwMDAwIiBmb250LWZhbWlseT0ic2Fucy1zZXJpZiIgZm9udC1zaXplPSIxNCIgbGVuZ3RoQWRqdXN0PSJzcGFjaW5nIiB0ZXh0TGVuZ3RoPSI3IiB4PSIxNjMxIiB5PSIxNjA3Ljc2NTYiPiYjMTYwOzwvdGV4dD48aW1hZ2UgaGVpZ2h0PSI2NCIgd2lkdGg9IjY0IiB4PSIxNjAyLjUiIHhsaW5rOmhyZWY9ImRhdGE6aW1hZ2UvcG5nO2Jhc2U2NCxpVkJPUncwS0dnb0FBQUFOU1VoRVVnQUFBRUFBQUFCQUNBSUFBQUFsQythSkFBQUVsMGxFUVZSNFh1MmE2VzlVVlJqRytROEZvK0lTVWFKeCtlQVNFMk9DUzFBTXhqZ0l0YVVpRktuaVF0bXRVQ3lGRnRPS29FaWhMR2xaTExVS0xTbFVHS0MwbEw3KzNudHVwNTF6cHN5Wk16ZHowemh2bmcvbnZzc3o5N2x6N3RsbUZtUWVrbm1OQmE1cmZxRXFJRzFVQmFTTnFvQzBVUldRTnBJUnNHcVJmUDI2dE5iSzhUM1MxeVVESitWcXY5d2NrWHZqQ2hwYzRpUkVBbWtrVStMeUJLQThBUXRseHdkeTlwRGN1U21sR2lVVVVnNkpUVnNLd2dYc1hpblhCbWR1YUdSQVRoMlFnK3RsNXdwcGZGWHFuNUhQSHRmSERHaHdpWk1RQ2FTUm5ETklvSEw1UFJFb29Mc2wvdmpyLzBoN2c2eC8zazRvQ2tvb3BOd1loRzZPRDBJRWREVG9SMDZNU1d0ZHVSMkFja2lnd3FDMW94NElFV0I2RHYzQkRZVUJLb242a2hzcWloQUJ4amE4WVB1REFaVXhOMVFVNFFLR0xzZ1h6OW1oQUVBQ1ZRb0NKSG9Oam00UGwwRWg1ZVlGU0VGQVQ1dmNuNHhhVTNMbG5CeitYcnZ5NTgvYXlSWklJSTFrU2lqRUlJRXFCUUUwTnI0c3A5cnNXWXlwbDhIeDc3UFMzeTNuanlob2NJbVQwR3lqa1BLR2wvSTRTMFZaQWd5WXFyNTdTNDVzbFl1L3krZ1ZtWXFlYTBFalJBSnBKRk15ZXpWaHpQMnNva2hBZ0lYVmorZzNzL2tOYVhwYmRuMm9vTUVsVGtKdXZnL25BNUM4Z0tMNDlHRmRPeHphSk52ZW0zRUdjMVphQU91aW9mTXhBM2J1c0t5SzV2Smd6a29MK0cybjF0NjRLaWQva3JHc3R2ZlZxRCtZczlJQ2RQUVUyYjVjMngwYnRYMzZvTGFET1NzdGdENkRIZHN0YTUvV0VSYmpPOG1Vd1ZscEFWdmZsYW43TVlORWt3YWpVNllNemtvTEFKZTZ0WndKK0hLdnpnYkdHY3haYVFIMEhHNmRMMkhkMGp4L01HZVNBdGlxOXgrWFc5ZGw4SXcwdldOSERYNXUxTm9MUjIzL1hKeEZrWmlBaGhmejFwVTg1bS9mekV0Z010NWZMLzhPYWRUZERCWGs5RUZpQWhoWU1OWTV2SlNNakZodjUwejB4TDY0U2lKdHRVL2E1Y1lzcHc4U0U5RGJwVTZlY1daNmk0aGxyMG5mTC9FSkFBTk9YNWQyTU94WXMxMWVrTk1IaVFsbzN4RGZNWHVVMGN2YW5yd1haeHI3dFVuVHRpelQ5c2lBWFc3TWN2b2dNUUVNTDJhRFlvd05RTTFpN1U2c0ZBWlBxNGRwcStZeFhjT1pxQStuRHhJVDBCNmR0UXovcVROcmE1M2VheTdFbG1YaXJrYmpIWnhJeXhxN3ZDQ25EeElTc0REdU5uT2RzYkVsTUtkeHQwZjFjTTVOS01EcGh3UUVOSCtzcDV6WWplRjRiVHdYMWp4cWUzSklUY0NaOXZnU0c3OGpYNzFtSjN0aU5tZEpLRXVBR1ZMR2Iwdm5Oem9EWU16QmJyNFAwaEhROGFVMmV0cTBYZmVVdGljbkFrOUwweEh3dzBmYVlIdkZWOEV3ai9FcXUvaytTRWNBMi9QaGkvR2xzWmJWZHJJbmNweWxvaXdCb1BZSithTlpmMEc2ZEdMT01kUUhxUWxJQ3NHYy8wc0JadEpsY25WRFlZQktRZ2VBRUFHTSt0aFlWbjc4eEE0RkFCSnpRTlM1MlE3NUlFUUFJMzF1QXViMVpROVE5RlRkQlNVVVVtNE13ckFKSkVoQWhEMlplSCtvTnFXMzByTmZEcXlUSGU5TDR5dFN2eVQvWjlZbDZpUkVBbWw2MzlOcmIwaWdjdms5RVM0QXNIUmpMbVByZVBmV3RCSnZvNFJDeWgrOC9pdUtzZ1Rrd0l5bWUvYTEwcjFYejk3KzZ0Rm5uSjMrcTBFMitxc0JUa0lra0VZeUpTNVBBSklSa0NLcUF0SkdWVURhcUFwSUcxVUJhV1BlQy9nUEt2R1FrMWNkTUlnQUFBQUFTVVZPUks1Q1lJST0iIHk9IjE2MDkuNTE1NiIvPjx0ZXh0IGZpbGw9IiMwMDAwMDAiIGZvbnQtZmFtaWx5PSJzYW5zLXNlcmlmIiBmb250LXNpemU9IjEyIiBsZW5ndGhBZGp1c3Q9InNwYWNpbmciIHRleHRMZW5ndGg9IjgxIiB4PSIxNTk0IiB5PSIxNjg0Ljg1OTQiPltTZXJ2ZXJsZXNzXTwvdGV4dD48cmVjdCBmaWxsPSIjRkZGRkZGIiBoZWlnaHQ9IjEyMC44MTI1IiBzdHlsZT0ic3Ryb2tlOiM3RDg5OTg7c3Ryb2tlLXdpZHRoOjEuMjU7IiB3aWR0aD0iOTIiIHg9IjE2OTYiIHk9IjQwLjk4NDQiLz48dGV4dCBmaWxsPSIjMDAwMDAwIiBmb250LWZhbWlseT0ic2Fucy1zZXJpZiIgZm9udC1zaXplPSIxNCIgZm9udC1zdHlsZT0iaXRhbGljIiBsZW5ndGhBZGp1c3Q9InNwYWNpbmciIHRleHRMZW5ndGg9IjM3IiB4PSIxNzIzLjUiIHk9IjYxLjIxODgiPiYjMTcxO0VDMiYjMTg3OzwvdGV4dD48dGV4dCBmaWxsPSIjMDAwMDAwIiBmb250LWZhbWlseT0ic2Fucy1zZXJpZiIgZm9udC1zaXplPSIxNCIgbGVuZ3RoQWRqdXN0PSJzcGFjaW5nIiB0ZXh0TGVuZ3RoPSI3IiB4PSIxNzM4LjUiIHk9Ijc2LjIwMzEiPiYjMTYwOzwvdGV4dD48aW1hZ2UgaGVpZ2h0PSI2NCIgd2lkdGg9IjY0IiB4PSIxNzEwIiB4bGluazpocmVmPSJkYXRhOmltYWdlL3BuZztiYXNlNjQsaVZCT1J3MEtHZ29BQUFBTlNVaEVVZ0FBQUVBQUFBQkFDQUlBQUFBbEMrYUpBQUFDRUVsRVFWUjRYdTJZTVU0Rk1Rd0ZPU2RIb09OTXRCUWNqQlVGSHlTYUR5dForcGp4MnZHdWc4Q0NhSW9kSjNsT3l1elZjbnZWR25vNzZPMmd0NFBlRG5vNzZPMmd0NFBlRG5vNzZCTjV2cnMrbng3ZkMyUGR2b2JZWkExOUlzWFR5MWhEYkxLR1BoRTVnYTNueVNUUUo1SnBINU5Kb0U4azB6NG1rMENmU0taOVRDYUIvcXY0djBBT3ROR2ErUTdJTEtNZkFHMjhnM3JmQVpsbDlBT2dqWGRRN3pzZ3M0eStpNWVIMi9QYlNkb2NHT3ZlTmNIR1hwQmx0cTZoNzZKeWVobHJnbzI5SUd0c1hVTlBvZzloWjVQb2tNMGNyNjZoSjRrYko5RWhtemxlWFVQZlJhWkJ3SEQ3Y01IeWR5OGcwWmtHQVRwa004ZXJhK2hKNHNaSmRNaG1qbGZYMEhlUmFSQXczRDVjc0F3dllOKzFldFpXZGpIY1BseXdEQzlnMzdWU3Q1VUQ2SkROSEsrdW9RTXY0clB0MW13U0hYTEpRYkg2cUpjVVc4L01EdG5jTGtVWkUzNnJiUFpJemc0cGJoZm9JTzRSenc0cGJoZm93T3NoZFc4MmlRNDVuRU1IWG5TOThmS3pGOGpNRGlsdUYrZ2c3aEhQRGlsdUYrakE2eUYxYnphSkRqbWNRd2RlOU5mV2M0YnRrb0VPNHVqVC9jMzU5ZW5yTVhhTWRlK2FZR04zUVFmU3lkYUROVm96MzBYb0lOTUphN3lEZXQ5RjZDRFRDV3U4ZzNyZlJlaGdZcWR2Z2c3K0x6QWhJWVlPNnUzckNURjBVRzlmVDRpaGczcjdla0lNSGRoSC9ZRXhmTmRXb0FQN1cyWHZ5THhySzlEYlFXOEh2UjMwZHREYlFXOEh2UjMwZHREYlFXL0hCd3BJNzgxYXNPOEdBQUFBQUVsRlRrU3VRbUNDIiB5PSI3Ny45NTMxIi8+PHRleHQgZmlsbD0iIzAwMDAwMCIgZm9udC1mYW1pbHk9InNhbnMtc2VyaWYiIGZvbnQtc2l6ZT0iMTIiIGxlbmd0aEFkanVzdD0ic3BhY2luZyIgdGV4dExlbmd0aD0iNzgiIHg9IjE3MDMiIHk9IjE1My4yOTY5Ij5bRUZUIFNlcnZlcl08L3RleHQ+PHJlY3QgZmlsbD0iI0ZGRkZGRiIgaGVpZ2h0PSIxMjAuODEyNSIgc3R5bGU9InN0cm9rZTojN0Q4OTk4O3N0cm9rZS13aWR0aDoxLjI1OyIgd2lkdGg9IjkyIiB4PSIxNjk2IiB5PSIxNTcyLjU0NjkiLz48dGV4dCBmaWxsPSIjMDAwMDAwIiBmb250LWZhbWlseT0ic2Fucy1zZXJpZiIgZm9udC1zaXplPSIxNCIgZm9udC1zdHlsZT0iaXRhbGljIiBsZW5ndGhBZGp1c3Q9InNwYWNpbmciIHRleHRMZW5ndGg9IjM3IiB4PSIxNzIzLjUiIHk9IjE1OTIuNzgxMyI+JiMxNzE7RUMyJiMxODc7PC90ZXh0Pjx0ZXh0IGZpbGw9IiMwMDAwMDAiIGZvbnQtZmFtaWx5PSJzYW5zLXNlcmlmIiBmb250LXNpemU9IjE0IiBsZW5ndGhBZGp1c3Q9InNwYWNpbmciIHRleHRMZW5ndGg9IjciIHg9IjE3MzguNSIgeT0iMTYwNy43NjU2Ij4mIzE2MDs8L3RleHQ+PGltYWdlIGhlaWdodD0iNjQiIHdpZHRoPSI2NCIgeD0iMTcxMCIgeGxpbms6aHJlZj0iZGF0YTppbWFnZS9wbmc7YmFzZTY0LGlWQk9SdzBLR2dvQUFBQU5TVWhFVWdBQUFFQUFBQUJBQ0FJQUFBQWxDK2FKQUFBQ0VFbEVRVlI0WHUyWU1VNEZNUXdGT1NkSG9PTk10QlFjakJVRkh5U2FEeXRaK3BqeDJ2R3VnOENDYUlvZEozbE95dXpWY252Vkdubzc2TzJndDRQZURubzc2TzJndDRQZURubzc2Qk41dnJzK254N2ZDMlBkdm9iWVpBMTlJc1hUeTFoRGJMS0dQaEU1Z2EzbnlTVFFKNUpwSDVOSm9FOGswejRtazBDZlNLWjlUQ2FCL3F2NHYwQU90TkdhK1E3SUxLTWZBRzI4ZzNyZkFabGw5QU9nalhkUTd6c2dzNHkraTVlSDIvUGJTZG9jR092ZU5jSEdYcEJsdHE2aDc2SnllaGxyZ28yOUlHdHNYVU5Qb2c5aFo1UG9rTTBjcjY2aEo0a2JKOUVobXpsZVhVUGZSYVpCd0hEN2NNSHlkeThnMFprR0FUcGtNOGVyYStoSjRzWkpkTWhtamxmWDBIZVJhUkF3M0Q1Y3NBd3ZZTisxZXRaV2RqSGNQbHl3REM5ZzM3VlN0NVVENkpETkhLK3VvUU12NHJQdDFtd1NIWExKUWJINnFKY1VXOC9NRHRuY0xrVVpFMzZyYlBaSXpnNHBiaGZvSU80Unp3NHBiaGZvd09zaGRXODJpUTQ1bkVNSFhuUzk4Zkt6RjhqTURpbHVGK2dnN2hIUERpbHVGK2pBNnlGMWJ6YUpEam1jUXdkZTlOZldjNGJ0a29FTzR1alQvYzM1OWVuck1YYU1kZSthWUdOM1FRZlN5ZGFETlZvejMwWG9JTk1KYTd5RGV0OUY2Q0RUQ1d1OGczcmZSZWhnWXFkdmdnNytMekFoSVlZTzZ1M3JDVEYwVUc5ZlQ0aWhnM3I3ZWtJTUhkaEgvWUV4Zk5kV29BUDdXMlh2eUx4cks5RGJRVzhIdlIzMGR0RGJRVzhIdlIzMGR0RGJRVy9IQndwSTc4MWFzTzhHQUFBQUFFbEZUa1N1UW1DQyIgeT0iMTYwOS41MTU2Ii8+PHRleHQgZmlsbD0iIzAwMDAwMCIgZm9udC1mYW1pbHk9InNhbnMtc2VyaWYiIGZvbnQtc2l6ZT0iMTIiIGxlbmd0aEFkanVzdD0ic3BhY2luZyIgdGV4dExlbmd0aD0iNzgiIHg9IjE3MDMiIHk9IjE2ODQuODU5NCI+W0VGVCBTZXJ2ZXJdPC90ZXh0PjxyZWN0IGZpbGw9IiNGRkZGRkYiIGhlaWdodD0iMTIwLjgxMjUiIHN0eWxlPSJzdHJva2U6IzdEODk5ODtzdHJva2Utd2lkdGg6MS4yNTsiIHdpZHRoPSIxMDAiIHg9IjE4MDIiIHk9IjQwLjk4NDQiLz48dGV4dCBmaWxsPSIjMDAwMDAwIiBmb250LWZhbWlseT0ic2Fucy1zZXJpZiIgZm9udC1zaXplPSIxNCIgZm9udC1zdHlsZT0iaXRhbGljIiBsZW5ndGhBZGp1c3Q9InNwYWNpbmciIHRleHRMZW5ndGg9Ijg2IiB4PSIxODA5IiB5PSI2MS4yMTg4Ij4mIzE3MTtFTVJDbHVzdGVyJiMxODc7PC90ZXh0Pjx0ZXh0IGZpbGw9IiMwMDAwMDAiIGZvbnQtZmFtaWx5PSJzYW5zLXNlcmlmIiBmb250LXNpemU9IjE0IiBsZW5ndGhBZGp1c3Q9InNwYWNpbmciIHRleHRMZW5ndGg9IjciIHg9IjE4NDguNSIgeT0iNzYuMjAzMSI+JiMxNjA7PC90ZXh0PjxpbWFnZSBoZWlnaHQ9IjY0IiB3aWR0aD0iNjQiIHg9IjE4MjAiIHhsaW5rOmhyZWY9ImRhdGE6aW1hZ2UvcG5nO2Jhc2U2NCxpVkJPUncwS0dnb0FBQUFOU1VoRVVnQUFBRUFBQUFCQUNBWUFBQUNxYVhIZUFBQUhLRWxFUVZSNFh1MWJlWWhWVlJpM2ZhR05Wb2hzcGNVV29wVWdLcFAyZkp2T0pCV1ZFZGdDclZSR0ZvMkJ6bmJteldENVI1Z0dJaVFUVVdDTEZHUlpaSnYxeDBnVFVVMVJLZVdNMXBTVHBlUFg3N3YzbkR2ZisrYmQ5KzVicnI0M3pnOSt6UE9lNzN6M2ZMK3puM09kTUdFYzQ5aWxhRXZUS1NaSmQwUmhlNXB1eWpiUzRkcEgzYUk5UTBlYkZBMkJWQUkvMVg3cUZ0azBYWndud0dMOFUvdXBXeWdCbHVzbW44TVU5WXhwQVRwUzlLaE9sNEROeW5FQnhnVUl1c3VpcGdRZHFHM3FEaFVJd0Z5WFRkQloycTZ1VUtFQW5HY0wxZ1ozYWR1NlFUa0NjTkNZRlZZb01aWXRiS1NEZEo2YUI0S1pVYW9BeGc2QytQc3crSjhRb1RlYm9uTjB2cG9GQ255ZkNtQUE3Q3RBdDJJTVpnR1RvSXRzbXZNeDFKNmlPK1Y3YWc1TmpiUXZDcnBJRkxva3RpZnBkK212TTAySGRhVHA5Unk3TkMxdW1rejdTN3VhUUZlU2prRlQvMGdVOWwvd1pmQTdNMUxUTXVEMTRqbXpCOEhOa2o0N01uUmFSNUtlUWRxUEt1OVgvSHdVMHpSZDV0OXBRTUV2UUtGK0ZnWGMwSmFrUy9QWUxYWTJLUENMT2wyREExV0JSK0daMms5QmNBYU12RmZ6bWh3SzNodW9pWUhMMjZZbWFFcHJrbzdWK1J4Z2M2c1J1ejcwMDg5YnA5RngybzZ4NEhvNnhJamFSQTFQMVRZU3NQazFUNEFGaWFsenN2YVRBNjhRU2JvSHhpdTlhU2VQa3hCdUFKZHlNMnRxb2oyN0cya3YvTHROMlN6RG52NEEvVTRKaUhzbDdJYWR6L2taT2tMYk9CZ3JBSXVLOGVERU1DS2VwMXdaUWdXZ0NiUUhYdjRJakFaVm9VdG5tcjdGM3cvRXMrMFl3QjdUN3d3RDhuY0pYOTA2M2NGWUFYaHMwV2tTM0hLZHYxQUJrUGk4Q29ScllRMHlQOGN0d3FzWlREMnNLSnJtdWV5SW15alVmd0IyUzhCMUtyL2padkJhL2I1QzRGYUNQTDJCanpUZExOTmZtRVg3c0U5aks2dGlBUXozOHhUdHNFWi93ZUdjUXYwNkRKMFptb1Q4QzhIdDdvVXNscmFMQXJ0UzNHYjlESmhwZElJTm1zWG1kVU1nY3NVQ2NMOFZEZ2VnK1AwOHgycTdZa0JCSnFLMXRCcC9pdk5mbUtDVHRGMVVvTnM4SzhybEttZ1VLeFlBQ1EzYUtiZ1ZRcnhqL0lHc2dUUHljdE1OTEJ5WTF3M1NOTlAyMlRWNWZCQWZmT3IzRlFJM2IrUzV4azZKT1RVdHlHdUhlY2J2WHJFSlVCVkdFU0JpMEk0TkxwK3AxaURJVHAwQkc4UG9JYnRxMjVxbkFHRWN4SUQ0Tm9LNFRZN2lZUUpFRE5xcmFmaHRkODlRcnRVOHpiSVBFNGNBL05zOXg1cGdQeDZNK0V3ZWhaaHRGMEF0c0puTHYxa29CSkRtZ1k2blVaY1BMNXp2L0VrQnNFYmZPMnJROEg5ZWtBOEJZMno1ME5tNDNhT3Axa0xJaEFoUUxxUUFtRTFPRjBIMzZ3SlpqZ3Bhdzd0RXdReGw3Zi9oRXlGVXl0ZDVmQlZrVzRMTzE3NWpGUUQ4V3hmQ1k1Syt4OTk1ZVFzVUF0VDgzUzQvM3JHMkxVV1hHVHNRTWpGcnZJKy9MNFV5U1E5cW54NU12QUxrQk0xcHBRU3Q0WTB6dVFIN3Y5RWF5dDRHeHlwQUZZS1c0QVVhL0c1UzRtN2pWYXEyall3NEJRaWJCU29CYXZzV0pjQmNiVk1TNmswQXUxc05CTURnMmFsdFNrS2NBb0Q5ZkxqQlp3bzhEV3JiVXFGbUE4Zmh2Tk5iVk1Rc2dHUkZZdWoxQVBpYStOM0haeGs2VHlURUxBQ2Y3V2toeWhLRHp4UmNmbDRSWnBOMG5aSFRvTDh1V0JWRzNsekpCVnNBRTZNQVhwUDF6d1NiN2R5dmhZZ2tSbnVHempZalMvUEJ6dWwwc2oxNDBiNEtrbGUyMm5mc0FzaTBxR0tnTnE5eVl0Z0RrQzhERzNzNmJPcGhLYXdGa0lnZ3hrYXZaWWpUWXRpK0ZlU1Blek5VTHFJS0lCR0lrYUlmUkZsR0VjSGU3bHFHR1VzQ1NHQnd1OUFVRm1PajhXK1lZamtRMmVVQ09NaHpCUk8ycWFxR0FKZ2ViaFFPbjlEcHBZQ25HUlM4TzNoaGdxWm9teWhROXdQcitYNkFXNFk5ajhocEdSVUxzS0NSampMeW03MGtyVURCVTZWOGlzSUZ4SXRtZ210VjRiWVlkYXhkREZGdWlHdzNxVTRYWVBEZ1luS3ZySms4NzM0QkxqVjhDbVN2dzVqNFBjZld4bkl6OGhtYnBQYlY3STZ5aXNINFI5OSs4QVh1Q0UyMUJrR0hqZ1JkWXZ4Vmt3Nm1GQTV6Ri9CT2psTTAyNGc3QXA3Q1docnBVUDFlQ2VSSkNGOTkyUDRlckcwY3pNZzZvSWNEQ3lOdmxwelBnZ0k0R1AraTVFa1U1azNqajdnNlNFaytyKzlGMEsveUJ3cjhDYXowcFplcjREZll1NThoYlJ6dy9FamozekY2UW1ZemRJVzJrVERWV2dnVkF3OXMzbjFBaGlZNVZYbmU1bWY4MFlPMjErQjdmQ092dWxMMEI1cnREZG9PejE4Uk5sbWRyZ0diVDNTQVJUamNOcFZPMVg1MkN1ekE5b1lzRFBpdXNSOUFRSkNmVkdGL2NXa0IwL1M0OUlrOEUzbUR4RitPeUx4NHZ0bzd3Yzc5T09McFlpMHFkbmpiV2Y5R1I5ZE1WUFpMZi9aNFRONUM3K0NCbWEvbXBWM05BWVdjNFUyUEl3WG5ZL0ZWQmVqdUVJS1BwTHlqOWhUOUpueHNSazBuNVh0cUduSzA1K2xWcDBzWThaa2M3d1BzU3RNdGtuaDMrQm1QUnpwZlRhT2NEeVhCSVo3elJhMXo4RjI4WGRaNWFoNWxDaUM1aVZlcjJyWnVVS0VBSDdjazZIaHRWMWNvVXdEdTk4MWh4MloxaFRJRjJPMy93OFRZRk1Ec2p2OXB5bjd0TFFlMktCdzdBdkFCaXNuZEpVYmhlOXBQWFlPL0lOZDc5ekNpSzF4ZTl2My9PTWFSRi84RDlXdGJUOHJUVmlzQUFBQUFTVVZPUks1Q1lJST0iIHk9Ijc3Ljk1MzEiLz48dGV4dCBmaWxsPSIjMDAwMDAwIiBmb250LWZhbWlseT0ic2Fucy1zZXJpZiIgZm9udC1zaXplPSIxMiIgbGVuZ3RoQWRqdXN0PSJzcGFjaW5nIiB0ZXh0TGVuZ3RoPSI3OCIgeD0iMTgxMyIgeT0iMTUzLjI5NjkiPltEYXRhYnJpY2tzXTwvdGV4dD48cmVjdCBmaWxsPSIjRkZGRkZGIiBoZWlnaHQ9IjEyMC44MTI1IiBzdHlsZT0ic3Ryb2tlOiM3RDg5OTg7c3Ryb2tlLXdpZHRoOjEuMjU7IiB3aWR0aD0iMTAwIiB4PSIxODAyIiB5PSIxNTcyLjU0NjkiLz48dGV4dCBmaWxsPSIjMDAwMDAwIiBmb250LWZhbWlseT0ic2Fucy1zZXJpZiIgZm9udC1zaXplPSIxNCIgZm9udC1zdHlsZT0iaXRhbGljIiBsZW5ndGhBZGp1c3Q9InNwYWNpbmciIHRleHRMZW5ndGg9Ijg2IiB4PSIxODA5IiB5PSIxNTkyLjc4MTMiPiYjMTcxO0VNUkNsdXN0ZXImIzE4Nzs8L3RleHQ+PHRleHQgZmlsbD0iIzAwMDAwMCIgZm9udC1mYW1pbHk9InNhbnMtc2VyaWYiIGZvbnQtc2l6ZT0iMTQiIGxlbmd0aEFkanVzdD0ic3BhY2luZyIgdGV4dExlbmd0aD0iNyIgeD0iMTg0OC41IiB5PSIxNjA3Ljc2NTYiPiYjMTYwOzwvdGV4dD48aW1hZ2UgaGVpZ2h0PSI2NCIgd2lkdGg9IjY0IiB4PSIxODIwIiB4bGluazpocmVmPSJkYXRhOmltYWdlL3BuZztiYXNlNjQsaVZCT1J3MEtHZ29BQUFBTlNVaEVVZ0FBQUVBQUFBQkFDQVlBQUFDcWFYSGVBQUFIS0VsRVFWUjRYdTFiZVloVlZSaTNmYUdOVm9oc3BjVVdvcFVnS3BQMmZKdk9KQldWRWRnQ3JWUkdGbzJCem5ibXpXRDVSNWdHSWlRVFVXQ0xGR1JaWkp2MXgwZ1RVVTFSS2VXTTFwU1RwZVBYNzd2M25EdmYrK2JkOSs1YnJyNDN6ZzkrelBPZTczejNmTCt6bjNPZE1HRWM0OWlsYUV2VEtTWkpkMFJoZTVwdXlqYlM0ZHBIM2FJOVEwZWJGQTJCVkFJLzFYN3FGdGswWFp3bndHTDhVL3VwV3lnQmx1c21uOE1VOVl4cEFUcFM5S2hPbDRETnluRUJ4Z1VJdXN1aXBnUWRxRzNxRGhVSXdGeVhUZEJaMnE2dVVLRUFuR2NMMWdaM2FkdTZRVGtDY05DWUZWWW9NWll0YktTRGRKNmFCNEtaVWFvQXhnNkMrUHN3K0o4UW9UZWJvbk4wdnBvRkNueWZDbUFBN0N0QXQySU1aZ0dUb0l0c212TXgxSjZpTytWN2FnNU5qYlF2Q3JwSUZMb2t0aWZwZCttdk0wMkhkYVRwOVJ5N05DMXVta3o3Uzd1YVFGZVNqa0ZULzBnVTlsL3daZkE3TTFMVE11RDE0am16QjhITmtqNDdNblJhUjVLZVFkcVBLdTlYL0h3VTB6UmQ1dDlwUU1FdlFLRitGZ1hjMEpha1MvUFlMWFkyS1BDTE9sMkRBMVdCUitHWjJrOUJjQWFNdkZmem1od0szaHVvaVlITDI2WW1hRXBya283VitSeGdjNnNSdXo3MDA4OWJwOUZ4Mm82eDRIbzZ4SWphUkExUDFUWVNzUGsxVDRBRmlhbHpzdmFUQTY4UVNib0h4aXU5YVNlUGt4QnVBSmR5TTJ0cW9qMjdHMmt2L0x0TjJTekRudjRBL1U0SmlIc2w3SWFkei9rWk9rTGJPQmdyQUl1SzhlREVNQ0tlcDF3WlFnV2dDYlFIWHY0SWpBWlZvVXRubXI3RjN3L0VzKzBZd0I3VDd3d0Q4bmNKWDkwNjNjRllBWGhzMFdrUzNIS2R2MUFCa1BpOENvUnJZUTB5UDhjdHdxc1pURDJzS0pybXVleUlteWpVZndCMlM4QjFLci9qWnZCYS9iNUM0RmFDUEwyQmp6VGRMTk5mbUVYN3NFOWpLNnRpQVF6Mzh4VHRzRVovd2VHY1F2MDZESjBabW9UOEM4SHQ3b1VzbHJhTEFydFMzR2I5REpocGRJSU5tc1htZFVNZ2NzVUNjTDhWRGdlZytQMDh4MnE3WWtCQkpxSzF0QnAvaXZOZm1LQ1R0RjFVb05zOEs4cmxLbWdVS3hZQUNRM2FLYmdWUXJ4ai9JR3NnVFB5Y3RNTkxCeVkxdzNTTk5QMjJUVjVmQkFmZk9yM0ZRSTNiK1M1eGs2Sk9UVXR5R3VIZWNidlhyRUpVQlZHRVNCaTBJNE5McCtwMWlESVRwMEJHOFBvSWJ0cTI1cW5BR0VjeElENE5vSzRUWTdpWVFKRUROcXJhZmh0ZDg5UXJ0VTh6YklQRTRjQS9Oczl4NXBnUHg2TStFd2VoWmh0RjBBdHNKbkx2MWtvQkpEbWdZNm5VWmNQTDV6di9Fa0JzRWJmTzJyUThIOWVrQThCWTJ6NTBObTQzYU9wMWtMSWhBaFFMcVFBbUUxT0YwSDM2d0paamdwYXc3dEV3UXhsN2YvaEV5RlV5dGQ1ZkJWa1c0TE8xNzVqRlFEOFd4ZkNZNUsreDk5NWVRc1VBdFQ4M1M0LzNyRzJMVVdYR1RzUU1qRnJ2SSsvTDRVeVNROXFueDVNdkFMa0JNMXBwUVN0NFkwenVRSDd2OUVheXQ0R3h5cEFGWUtXNEFVYS9HNVM0bTdqVmFxMmpZdzRCUWliQlNvQmF2c1dKY0JjYlZNUzZrMEF1MXNOQk1EZzJhbHRTa0tjQW9EOWZMakJad284RFdyYlVxRm1BOGZodk5OYlZNUXNnR1JGWXVqMUFQaWErTjNIWnhrNlR5VEVMQUNmN1draHloS0R6eFJjZmw0UlpwTjBuWkhUb0w4dVdCVkczbHpKQlZzQUU2TUFYcFAxendTYjdkeXZoWWdrUm51R3pqWWpTL1BCenVsMHNqMTQwYjRLa2xlMjJuZnNBc2kwcUdLZ05xOXlZdGdEa0M4REczczZiT3BoS2F3RmtJZ2d4a2F2WllqVFl0aStGZVNQZXpOVUxxSUtJQkdJa2FJZlJGbEdFY0hlN2xxR0dVc0NTR0J3dTlBVUZtT2o4VytZWWprUTJlVUNPTWh6QlJPMnFhcUdBSmdlYmhRT245RHBwWUNuR1JTOE8zaGhncVpvbXloUTl3UHIrWDZBVzRZOWo4aHBHUlVMc0tDUmpqTHltNzBrclVEQlU2Vjhpc0lGeEl0bWdtdFY0YllZZGF4ZERGRnVpR3czcVU0WFlQRGdZbkt2ckprODczNEJMalY4Q21Tdnc1ajRQY2ZXeG5JejhobWJwUGJWN0k2eWlzSDRSOTkrOEFYdUNFMjFCa0dIamdSZFl2eFZrdzZtRkE1ekYvQk9qbE0wMjRnN0FwN0NXaHJwVVAxZUNlUkpDRjk5MlA0ZXJHMGN6TWc2b0ljREN5TnZscHpQZ2dJNEdQK2k1RWtVNWszamo3ZzZTRWsrcis5RjBLL3lCd3I4Q2F6MHBaZXI0RGZZdTU4aGJSencvRWpqM3pGNlFtWXpkSVcya1REVldnZ1ZBdzlzM24xQWhpWTVWWG5lNW1mODBZTzIxK0I3ZkNPdnVsTDBCNXJ0RGRvT3oxOFJObG1kcmdHYlQzU0FSVGpjTnBWTzFYNTJDdXpBOW9Zc0RQaXVzUjlBUUpDZlZHRi9jV2tCMC9TNDlJazhFM21EeEYrT3lMeDR2dG83d2M3OU9PTHBZaTBxZG5qYldmOUdSOWRNVlBaTGYvWjRUTjVDNytDQm1hL21wVjNOQVlXYzRVMlBJd1huWS9GVkJlanVFSUtQcEx5ajloVDlKbnhzUmswbjVYdHFHbkswNStsVnAwc1k4WmtjN3dQc1N0TXRrbmgzK0JtUFJ6cGZUYU9jRHlYQklaN3pSYTF6OEYyOFhkWjVhaDVsQ2lDNWlWZXIyclp1VUtFQUg3Y2s2SGh0VjFjb1V3RHU5ODFoeDJaMWhUSUYyTzMvdzhUWUZNRHNqdjlweW43dExRZTJLQnc3QXZBQmlzbmRKVWJoZTlwUFhZTy9JTmQ3OXpDaUsxeGU5djMvT01hUkYvOEQ5V3RiVDhyVFZpc0FBQUFBU1VWT1JLNUNZSUk9IiB5PSIxNjA5LjUxNTYiLz48dGV4dCBmaWxsPSIjMDAwMDAwIiBmb250LWZhbWlseT0ic2Fucy1zZXJpZiIgZm9udC1zaXplPSIxMiIgbGVuZ3RoQWRqdXN0PSJzcGFjaW5nIiB0ZXh0TGVuZ3RoPSI3OCIgeD0iMTgxMyIgeT0iMTY4NC44NTk0Ij5bRGF0YWJyaWNrc108L3RleHQ+PHBhdGggZD0iTTEwLDE3OS43OTY5IEwxNzMsMTc5Ljc5NjkgTDE3MywxODUuNzEwOSBMMTYzLDE5NS43MTA5IEwxMCwxOTUuNzEwOSBMMTAsMTc5Ljc5NjkgIiBmaWxsPSIjRkZENzAwIiBzdHlsZT0ic3Ryb2tlOiMwMDAwMDA7c3Ryb2tlLXdpZHRoOjEuNTsiLz48cmVjdCBmaWxsPSJub25lIiBoZWlnaHQ9IjEzNzYuNzUiIHN0eWxlPSJzdHJva2U6IzdEODk5ODtzdHJva2Utd2lkdGg6MS41OyIgd2lkdGg9IjE5MzQiIHg9IjEwIiB5PSIxNzkuNzk2OSIvPjx0ZXh0IGZpbGw9IiMwMDAwMDAiIGZvbnQtZmFtaWx5PSJzYW5zLXNlcmlmIiBmb250LXNpemU9IjEzIiBmb250LXdlaWdodD0iYm9sZCIgbGVuZ3RoQWRqdXN0PSJzcGFjaW5nIiB0ZXh0TGVuZ3RoPSIxMTgiIHg9IjI1IiB5PSIxOTMuMDg1OSI+UERFIEN5Y2xlIFByb2Nlc3M8L3RleHQ+PHBhdGggZD0iTTQwLDIwMi43MTA5IEwyODAsMjAyLjcxMDkgTDI4MCwyMDguNjI1IEwyNzAsMjE4LjYyNSBMNDAsMjE4LjYyNSBMNDAsMjAyLjcxMDkgIiBmaWxsPSIjRkZGRjAwIiBzdHlsZT0ic3Ryb2tlOiMwMDAwMDA7c3Ryb2tlLXdpZHRoOjEuNTsiLz48cmVjdCBmaWxsPSJub25lIiBoZWlnaHQ9IjI4My45NTMxIiBzdHlsZT0ic3Ryb2tlOiM3RDg5OTg7c3Ryb2tlLXdpZHRoOjEuNTsiIHdpZHRoPSIxNTE1IiB4PSI0MCIgeT0iMjAyLjcxMDkiLz48dGV4dCBmaWxsPSIjMDAwMDAwIiBmb250LWZhbWlseT0ic2Fucy1zZXJpZiIgZm9udC1zaXplPSIxMyIgZm9udC13ZWlnaHQ9ImJvbGQiIGxlbmd0aEFkanVzdD0ic3BhY2luZyIgdGV4dExlbmd0aD0iMTk1IiB4PSI1NSIgeT0iMjE2Ij4xLVBERSBGaWxlcyBmcm9tIFBhbG1ldHRvIC0tJmd0OzwvdGV4dD48cG9seWdvbiBmaWxsPSIjMDAwMDAwIiBwb2ludHM9IjI4OC41LDI0Ni4zMTI1LDI5OC41LDI1MC4zMTI1LDI4OC41LDI1NC4zMTI1LDI5Mi41LDI1MC4zMTI1IiBzdHlsZT0ic3Ryb2tlOiMwMDAwMDA7c3Ryb2tlLXdpZHRoOjEuMDsiLz48bGluZSBzdHlsZT0ic3Ryb2tlOiMwMDAwMDA7c3Ryb2tlLXdpZHRoOjIuMDsiIHgxPSIxMzcuNSIgeDI9IjI5NC41IiB5MT0iMjUwLjMxMjUiIHkyPSIyNTAuMzEyNSIvPjx0ZXh0IGZpbGw9IiMwMDAwMDAiIGZvbnQtZmFtaWx5PSJJbXBhY3QiIGZvbnQtc2l6ZT0iMTIiIGxlbmd0aEFkanVzdD0ic3BhY2luZyIgdGV4dExlbmd0aD0iNDciIHg9IjE0OS41IiB5PSIyMzMuOTY4OCI+VHJpZ2dlcjwvdGV4dD48dGV4dCBmaWxsPSIjMDAwMDAwIiBmb250LWZhbWlseT0iSW1wYWN0IiBmb250LXNpemU9IjEyIiBsZW5ndGhBZGp1c3Q9InNwYWNpbmciIHRleHRMZW5ndGg9IjYiIHg9IjE5Ni41IiB5PSIyMzMuOTY4OCI+JiMxNjA7PC90ZXh0Pjx0ZXh0IGZpbGw9IiMwMDAwMDAiIGZvbnQtZmFtaWx5PSJJbXBhY3QiIGZvbnQtc2l6ZT0iMTIiIGxlbmd0aEFkanVzdD0ic3BhY2luZyIgdGV4dExlbmd0aD0iNDAiIHg9IjIwMi41IiB5PSIyMzMuOTY4OCI+TGFtYmRhPC90ZXh0Pjx0ZXh0IGZpbGw9IiMwMDAwMDAiIGZvbnQtZmFtaWx5PSJJbXBhY3QiIGZvbnQtc2l6ZT0iMTIiIGxlbmd0aEFkanVzdD0ic3BhY2luZyIgdGV4dExlbmd0aD0iNiIgeD0iMjQyLjUiIHk9IjIzMy45Njg4Ij4mIzE2MDs8L3RleHQ+PHRleHQgZmlsbD0iIzAwMDAwMCIgZm9udC1mYW1pbHk9IkltcGFjdCIgZm9udC1zaXplPSIxMiIgbGVuZ3RoQWRqdXN0PSJzcGFjaW5nIiB0ZXh0TGVuZ3RoPSIxMyIgeD0iMjQ4LjUiIHk9IjIzMy45Njg4Ij50bzwvdGV4dD48dGV4dCBmaWxsPSIjMDAwMDAwIiBmb250LWZhbWlseT0iSW1wYWN0IiBmb250LXNpemU9IjEyIiBsZW5ndGhBZGp1c3Q9InNwYWNpbmciIHRleHRMZW5ndGg9IjYiIHg9IjI2MS41IiB5PSIyMzMuOTY4OCI+JiMxNjA7PC90ZXh0Pjx0ZXh0IGZpbGw9IiMwMDAwMDAiIGZvbnQtZmFtaWx5PSJJbXBhY3QiIGZvbnQtc2l6ZT0iMTIiIGxlbmd0aEFkanVzdD0ic3BhY2luZyIgdGV4dExlbmd0aD0iMjEiIHg9IjI2Ny41IiB5PSIyMzMuOTY4OCI+YWRkPC90ZXh0Pjx0ZXh0IGZpbGw9IiMwMDAwMDAiIGZvbnQtZmFtaWx5PSJJbXBhY3QiIGZvbnQtc2l6ZT0iMTIiIGxlbmd0aEFkanVzdD0ic3BhY2luZyIgdGV4dExlbmd0aD0iNDkiIHg9IjE5NC41IiB5PSIyNDYuODEyNSI+TWVzc2FnZTwvdGV4dD48cG9seWdvbiBmaWxsPSIjMDAwMDAwIiBwb2ludHM9IjY2MS41LDI4Niw2NzEuNSwyOTAsNjYxLjUsMjk0LDY2NS41LDI5MCIgc3R5bGU9InN0cm9rZTojMDAwMDAwO3N0cm9rZS13aWR0aDoxLjA7Ii8+PGxpbmUgc3R5bGU9InN0cm9rZTojMDAwMDAwO3N0cm9rZS13aWR0aDoyLjA7IiB4MT0iMzAwLjUiIHgyPSI2NjcuNSIgeTE9IjI5MCIgeTI9IjI5MCIvPjx0ZXh0IGZpbGw9IiMwMDAwMDAiIGZvbnQtZmFtaWx5PSJJbXBhY3QiIGZvbnQtc2l6ZT0iMTIiIGxlbmd0aEFkanVzdD0ic3BhY2luZyIgdGV4dExlbmd0aD0iMjEiIHg9IjQxNy41IiB5PSIyNzMuNjU2MyI+QWRkPC90ZXh0Pjx0ZXh0IGZpbGw9IiMwMDAwMDAiIGZvbnQtZmFtaWx5PSJJbXBhY3QiIGZvbnQtc2l6ZT0iMTIiIGxlbmd0aEFkanVzdD0ic3BhY2luZyIgdGV4dExlbmd0aD0iNiIgeD0iNDM4LjUiIHk9IjI3My42NTYzIj4mIzE2MDs8L3RleHQ+PHRleHQgZmlsbD0iIzAwMDAwMCIgZm9udC1mYW1pbHk9IkltcGFjdCIgZm9udC1zaXplPSIxMiIgbGVuZ3RoQWRqdXN0PSJzcGFjaW5nIiB0ZXh0TGVuZ3RoPSI0OCIgeD0iNDQ0LjUiIHk9IjI3My42NTYzIj5tZXNzYWdlPC90ZXh0Pjx0ZXh0IGZpbGw9IiMwMDAwMDAiIGZvbnQtZmFtaWx5PSJJbXBhY3QiIGZvbnQtc2l6ZT0iMTIiIGxlbmd0aEFkanVzdD0ic3BhY2luZyIgdGV4dExlbmd0aD0iNiIgeD0iNDkyLjUiIHk9IjI3My42NTYzIj4mIzE2MDs8L3RleHQ+PHRleHQgZmlsbD0iIzAwMDAwMCIgZm9udC1mYW1pbHk9IkltcGFjdCIgZm9udC1zaXplPSIxMiIgbGVuZ3RoQWRqdXN0PSJzcGFjaW5nIiB0ZXh0TGVuZ3RoPSI0NSIgeD0iNDk4LjUiIHk9IjI3My42NTYzIj4oQ3ljbGUxPC90ZXh0Pjx0ZXh0IGZpbGw9IiMwMDAwMDAiIGZvbnQtZmFtaWx5PSJJbXBhY3QiIGZvbnQtc2l6ZT0iMTIiIGxlbmd0aEFkanVzdD0ic3BhY2luZyIgdGV4dExlbmd0aD0iNiIgeD0iNTQzLjUiIHk9IjI3My42NTYzIj4mIzE2MDs8L3RleHQ+PHRleHQgZmlsbD0iIzAwMDAwMCIgZm9udC1mYW1pbHk9IkltcGFjdCIgZm9udC1zaXplPSIxMiIgbGVuZ3RoQWRqdXN0PSJzcGFjaW5nIiB0ZXh0TGVuZ3RoPSI3IiB4PSI1NDkuNSIgeT0iMjczLjY1NjMiPiZhbXA7PC90ZXh0Pjx0ZXh0IGZpbGw9IiMwMDAwMDAiIGZvbnQtZmFtaWx5PSJJbXBhY3QiIGZvbnQtc2l6ZT0iMTIiIGxlbmd0aEFkanVzdD0ic3BhY2luZyIgdGV4dExlbmd0aD0iMzQ5IiB4PSIzMTIuNSIgeT0iMjg2LjUiPkN5Y2xlMykoUERFQ09QWS4qKUZpbGVzKC9wcmQ6L2xhbmRpbmcvcGRlY29weS9DTlRMLiopPC90ZXh0Pjxwb2x5Z29uIGZpbGw9IiMwMDAwMDAiIHBvaW50cz0iMTMxNi41LDMyNS42ODc1LDEzMjYuNSwzMjkuNjg3NSwxMzE2LjUsMzMzLjY4NzUsMTMyMC41LDMyOS42ODc1IiBzdHlsZT0ic3Ryb2tlOiMwMDAwMDA7c3Ryb2tlLXdpZHRoOjEuMDsiLz48bGluZSBzdHlsZT0ic3Ryb2tlOiMwMDAwMDA7c3Ryb2tlLXdpZHRoOjIuMDsiIHgxPSIxMzcuNSIgeDI9IjEzMjIuNSIgeTE9IjMyOS42ODc1IiB5Mj0iMzI5LjY4NzUiLz48dGV4dCBmaWxsPSIjMDAwMDAwIiBmb250LWZhbWlseT0iSW1wYWN0IiBmb250LXNpemU9IjEyIiBsZW5ndGhBZGp1c3Q9InNwYWNpbmciIHRleHRMZW5ndGg9IjQ3IiB4PSI2NzciIHk9IjMxMy4zNDM4Ij5UcmlnZ2VyPC90ZXh0Pjx0ZXh0IGZpbGw9IiMwMDAwMDAiIGZvbnQtZmFtaWx5PSJJbXBhY3QiIGZvbnQtc2l6ZT0iMTIiIGxlbmd0aEFkanVzdD0ic3BhY2luZyIgdGV4dExlbmd0aD0iNiIgeD0iNzI0IiB5PSIzMTMuMzQzOCI+JiMxNjA7PC90ZXh0Pjx0ZXh0IGZpbGw9IiMwMDAwMDAiIGZvbnQtZmFtaWx5PSJJbXBhY3QiIGZvbnQtc2l6ZT0iMTIiIGxlbmd0aEFkanVzdD0ic3BhY2luZyIgdGV4dExlbmd0aD0iNDAiIHg9IjczMCIgeT0iMzEzLjM0MzgiPkxhbWJkYTwvdGV4dD48dGV4dCBmaWxsPSIjMDAwMDAwIiBmb250LWZhbWlseT0iSW1wYWN0IiBmb250LXNpemU9IjEyIiBsZW5ndGhBZGp1c3Q9InNwYWNpbmciIHRleHRMZW5ndGg9IjYiIHg9Ijc3MCIgeT0iMzEzLjM0MzgiPiYjMTYwOzwvdGV4dD48dGV4dCBmaWxsPSIjMDAwMDAwIiBmb250LWZhbWlseT0iSW1wYWN0IiBmb250LXNpemU9IjEyIiBsZW5ndGhBZGp1c3Q9InNwYWNpbmciIHRleHRMZW5ndGg9IjEzIiB4PSI3NzYiIHk9IjMxMy4zNDM4Ij50bzwvdGV4dD48dGV4dCBmaWxsPSIjMDAwMDAwIiBmb250LWZhbWlseT0iSW1wYWN0IiBmb250LXNpemU9IjEyIiBsZW5ndGhBZGp1c3Q9InNwYWNpbmciIHRleHRMZW5ndGg9IjM0IiB4PSI2OTMuNSIgeT0iMzI2LjE4NzUiPmJyaW5nPC90ZXh0Pjx0ZXh0IGZpbGw9IiMwMDAwMDAiIGZvbnQtZmFtaWx5PSJJbXBhY3QiIGZvbnQtc2l6ZT0iMTIiIGxlbmd0aEFkanVzdD0ic3BhY2luZyIgdGV4dExlbmd0aD0iNiIgeD0iNzI3LjUiIHk9IjMyNi4xODc1Ij4mIzE2MDs8L3RleHQ+PHRleHQgZmlsbD0iIzAwMDAwMCIgZm9udC1mYW1pbHk9IkltcGFjdCIgZm9udC1zaXplPSIxMiIgbGVuZ3RoQWRqdXN0PSJzcGFjaW5nIiB0ZXh0TGVuZ3RoPSIxNCIgeD0iNzMzLjUiIHk9IjMyNi4xODc1Ij51cDwvdGV4dD48dGV4dCBmaWxsPSIjMDAwMDAwIiBmb250LWZhbWlseT0iSW1wYWN0IiBmb250LXNpemU9IjEyIiBsZW5ndGhBZGp1c3Q9InNwYWNpbmciIHRleHRMZW5ndGg9IjYiIHg9Ijc0Ny41IiB5PSIzMjYuMTg3NSI+JiMxNjA7PC90ZXh0Pjx0ZXh0IGZpbGw9IiMwMDAwMDAiIGZvbnQtZmFtaWx5PSJJbXBhY3QiIGZvbnQtc2l6ZT0iMTIiIGxlbmd0aEFkanVzdD0ic3BhY2luZyIgdGV4dExlbmd0aD0iMTkiIHg9Ijc1My41IiB5PSIzMjYuMTg3NSI+RUMyPC90ZXh0Pjxwb2x5Z29uIGZpbGw9IiMwMDAwMDAiIHBvaW50cz0iMTQ4My41LDM1Mi41MzEzLDE0OTMuNSwzNTYuNTMxMywxNDgzLjUsMzYwLjUzMTMsMTQ4Ny41LDM1Ni41MzEzIiBzdHlsZT0ic3Ryb2tlOiMwMDAwMDA7c3Ryb2tlLXdpZHRoOjEuMDsiLz48bGluZSBzdHlsZT0ic3Ryb2tlOiMwMDAwMDA7c3Ryb2tlLXdpZHRoOjIuMDtzdHJva2UtZGFzaGFycmF5OjIuMCwyLjA7IiB4MT0iMTMyOC41IiB4Mj0iMTQ4OS41IiB5MT0iMzU2LjUzMTMiIHkyPSIzNTYuNTMxMyIvPjx0ZXh0IGZpbGw9IiMwMDAwMDAiIGZvbnQtZmFtaWx5PSJJbXBhY3QiIGZvbnQtc2l6ZT0iMTIiIGxlbmd0aEFkanVzdD0ic3BhY2luZyIgdGV4dExlbmd0aD0iMzMiIHg9IjEzNTgiIHk9IjM1My4wMzEzIj5TdGFydDwvdGV4dD48dGV4dCBmaWxsPSIjMDAwMDAwIiBmb250LWZhbWlseT0iSW1wYWN0IiBmb250LXNpemU9IjEyIiBsZW5ndGhBZGp1c3Q9InNwYWNpbmciIHRleHRMZW5ndGg9IjYiIHg9IjEzOTEiIHk9IjM1My4wMzEzIj4mIzE2MDs8L3RleHQ+PHRleHQgZmlsbD0iIzAwMDAwMCIgZm9udC1mYW1pbHk9IkltcGFjdCIgZm9udC1zaXplPSIxMiIgbGVuZ3RoQWRqdXN0PSJzcGFjaW5nIiB0ZXh0TGVuZ3RoPSIyMSIgeD0iMTM5NyIgeT0iMzUzLjAzMTMiPkFwcDwvdGV4dD48dGV4dCBmaWxsPSIjMDAwMDAwIiBmb250LWZhbWlseT0iSW1wYWN0IiBmb250LXNpemU9IjEyIiBsZW5ndGhBZGp1c3Q9InNwYWNpbmciIHRleHRMZW5ndGg9IjYiIHg9IjE0MTgiIHk9IjM1My4wMzEzIj4mIzE2MDs8L3RleHQ+PHRleHQgZmlsbD0iIzAwMDAwMCIgZm9udC1mYW1pbHk9IkltcGFjdCIgZm9udC1zaXplPSIxMiIgbGVuZ3RoQWRqdXN0PSJzcGFjaW5nIiB0ZXh0TGVuZ3RoPSI0MiIgeD0iMTQyNCIgeT0iMzUzLjAzMTMiPlNlcnZlcjwvdGV4dD48cG9seWdvbiBmaWxsPSIjMDAwMDAwIiBwb2ludHM9IjgyNywzOTIuMjE4OCw4MTcsMzk2LjIxODgsODI3LDQwMC4yMTg4LDgyMywzOTYuMjE4OCIgc3R5bGU9InN0cm9rZTojMDAwMDAwO3N0cm9rZS13aWR0aDoxLjA7Ii8+PGxpbmUgc3R5bGU9InN0cm9rZTojMDAwMDAwO3N0cm9rZS13aWR0aDoyLjA7c3Ryb2tlLWRhc2hhcnJheToyLjAsMi4wOyIgeDE9IjgyMSIgeDI9Ijk4OCIgeTE9IjM5Ni4yMTg4IiB5Mj0iMzk2LjIxODgiLz48dGV4dCBmaWxsPSIjMDAwMDAwIiBmb250LWZhbWlseT0iSW1wYWN0IiBmb250LXNpemU9IjEyIiBsZW5ndGhBZGp1c3Q9InNwYWNpbmciIHRleHRMZW5ndGg9IjUyIiB4PSI4MjgiIHk9IjM3OS44NzUiPkFjdGl2YXRlPC90ZXh0Pjx0ZXh0IGZpbGw9IiMwMDAwMDAiIGZvbnQtZmFtaWx5PSJJbXBhY3QiIGZvbnQtc2l6ZT0iMTIiIGxlbmd0aEFkanVzdD0ic3BhY2luZyIgdGV4dExlbmd0aD0iNiIgeD0iODgwIiB5PSIzNzkuODc1Ij4mIzE2MDs8L3RleHQ+PHRleHQgZmlsbD0iIzAwMDAwMCIgZm9udC1mYW1pbHk9IkltcGFjdCIgZm9udC1zaXplPSIxMiIgbGVuZ3RoQWRqdXN0PSJzcGFjaW5nIiB0ZXh0TGVuZ3RoPSIzMyIgeD0iODg2IiB5PSIzNzkuODc1Ij5BbGFybTwvdGV4dD48dGV4dCBmaWxsPSIjMDAwMDAwIiBmb250LWZhbWlseT0iSW1wYWN0IiBmb250LXNpemU9IjEyIiBsZW5ndGhBZGp1c3Q9InNwYWNpbmciIHRleHRMZW5ndGg9IjYiIHg9IjkxOSIgeT0iMzc5Ljg3NSI+JiMxNjA7PC90ZXh0Pjx0ZXh0IGZpbGw9IiMwMDAwMDAiIGZvbnQtZmFtaWx5PSJJbXBhY3QiIGZvbnQtc2l6ZT0iMTIiIGxlbmd0aEFkanVzdD0ic3BhY2luZyIgdGV4dExlbmd0aD0iMjciIHg9IjkyNSIgeT0iMzc5Ljg3NSI+d2hlbjwvdGV4dD48dGV4dCBmaWxsPSIjMDAwMDAwIiBmb250LWZhbWlseT0iSW1wYWN0IiBmb250LXNpemU9IjEyIiBsZW5ndGhBZGp1c3Q9InNwYWNpbmciIHRleHRMZW5ndGg9IjYiIHg9Ijk1MiIgeT0iMzc5Ljg3NSI+JiMxNjA7PC90ZXh0Pjx0ZXh0IGZpbGw9IiMwMDAwMDAiIGZvbnQtZmFtaWx5PSJJbXBhY3QiIGZvbnQtc2l6ZT0iMTIiIGxlbmd0aEFkanVzdD0ic3BhY2luZyIgdGV4dExlbmd0aD0iMTkiIHg9Ijk1OCIgeT0iMzc5Ljg3NSI+RUMyPC90ZXh0Pjx0ZXh0IGZpbGw9IiMwMDAwMDAiIGZvbnQtZmFtaWx5PSJJbXBhY3QiIGZvbnQtc2l6ZT0iMTIiIGxlbmd0aEFkanVzdD0ic3BhY2luZyIgdGV4dExlbmd0aD0iMjEiIHg9IjgzNS41IiB5PSIzOTIuNzE4OCI+YXBwPC90ZXh0Pjx0ZXh0IGZpbGw9IiMwMDAwMDAiIGZvbnQtZmFtaWx5PSJJbXBhY3QiIGZvbnQtc2l6ZT0iMTIiIGxlbmd0aEFkanVzdD0ic3BhY2luZyIgdGV4dExlbmd0aD0iNiIgeD0iODU2LjUiIHk9IjM5Mi43MTg4Ij4mIzE2MDs8L3RleHQ+PHRleHQgZmlsbD0iIzAwMDAwMCIgZm9udC1mYW1pbHk9IkltcGFjdCIgZm9udC1zaXplPSIxMiIgbGVuZ3RoQWRqdXN0PSJzcGFjaW5nIiB0ZXh0TGVuZ3RoPSI0MiIgeD0iODYyLjUiIHk9IjM5Mi43MTg4Ij5zZXJ2ZXI8L3RleHQ+PHRleHQgZmlsbD0iIzAwMDAwMCIgZm9udC1mYW1pbHk9IkltcGFjdCIgZm9udC1zaXplPSIxMiIgbGVuZ3RoQWRqdXN0PSJzcGFjaW5nIiB0ZXh0TGVuZ3RoPSI2IiB4PSI5MDQuNSIgeT0iMzkyLjcxODgiPiYjMTYwOzwvdGV4dD48dGV4dCBmaWxsPSIjMDAwMDAwIiBmb250LWZhbWlseT0iSW1wYWN0IiBmb250LXNpemU9IjEyIiBsZW5ndGhBZGp1c3Q9InNwYWNpbmciIHRleHRMZW5ndGg9IjEzIiB4PSI5MTAuNSIgeT0iMzkyLjcxODgiPmlzPC90ZXh0Pjx0ZXh0IGZpbGw9IiMwMDAwMDAiIGZvbnQtZmFtaWx5PSJJbXBhY3QiIGZvbnQtc2l6ZT0iMTIiIGxlbmd0aEFkanVzdD0ic3BhY2luZyIgdGV4dExlbmd0aD0iNiIgeD0iOTIzLjUiIHk9IjM5Mi43MTg4Ij4mIzE2MDs8L3RleHQ+PHRleHQgZmlsbD0iIzAwMDAwMCIgZm9udC1mYW1pbHk9IkltcGFjdCIgZm9udC1zaXplPSIxMiIgbGVuZ3RoQWRqdXN0PSJzcGFjaW5nIiB0ZXh0TGVuZ3RoPSI0MCIgeD0iOTI5LjUiIHk9IjM5Mi43MTg4Ij5vbmxpbmU8L3RleHQ+PHBhdGggZD0iTTc1NCw0MTEuMjE4OCBMOTA1LDQxMS4yMTg4IEw5MDUsNDE3LjEzMjggTDg5NSw0MjcuMTMyOCBMNzU0LDQyNy4xMzI4IEw3NTQsNDExLjIxODggIiBmaWxsPSIjQTUyQTJBIiBzdHlsZT0ic3Ryb2tlOiMwMDAwMDA7c3Ryb2tlLXdpZHRoOjEuNTsiLz48cmVjdCBmaWxsPSJub25lIiBoZWlnaHQ9IjY4LjQ0NTMiIHN0eWxlPSJzdHJva2U6IzdEODk5ODtzdHJva2Utd2lkdGg6MS41OyIgd2lkdGg9IjUyMC41IiB4PSI3NTQiIHk9IjQxMS4yMTg4Ii8+PHRleHQgZmlsbD0iIzAwMDAwMCIgZm9udC1mYW1pbHk9InNhbnMtc2VyaWYiIGZvbnQtc2l6ZT0iMTMiIGZvbnQtd2VpZ2h0PSJib2xkIiBsZW5ndGhBZGp1c3Q9InNwYWNpbmciIHRleHRMZW5ndGg9IjEwNiIgeD0iNzY5IiB5PSI0MjQuNTA3OCI+U05TIG5vdGlmaWNhdGlvbjwvdGV4dD48cG9seWdvbiBmaWxsPSIjMDAwMDAwIiBwb2ludHM9IjExNDcuNSw0NjcuNjY0MSwxMTU3LjUsNDcxLjY2NDEsMTE0Ny41LDQ3NS42NjQxLDExNTEuNSw0NzEuNjY0MSIgc3R5bGU9InN0cm9rZTojMDAwMDAwO3N0cm9rZS13aWR0aDoxLjA7Ii8+PGxpbmUgc3R5bGU9InN0cm9rZTojMDAwMDAwO3N0cm9rZS13aWR0aDoyLjA7c3Ryb2tlLWRhc2hhcnJheToyLjAsMi4wOyIgeDE9IjgxNiIgeDI9IjExNTMuNSIgeTE9IjQ3MS42NjQxIiB5Mj0iNDcxLjY2NDEiLz48dGV4dCBmaWxsPSIjMDAwMDAwIiBmb250LWZhbWlseT0iSW1wYWN0IiBmb250LXNpemU9IjEyIiBsZW5ndGhBZGp1c3Q9InNwYWNpbmciIHRleHRMZW5ndGg9IjU1IiB4PSI5NDYuNzUiIHk9IjQ0Mi40NzY2Ij5HZW5lcmF0ZTwvdGV4dD48dGV4dCBmaWxsPSIjMDAwMDAwIiBmb250LWZhbWlseT0iSW1wYWN0IiBmb250LXNpemU9IjEyIiBsZW5ndGhBZGp1c3Q9InNwYWNpbmciIHRleHRMZW5ndGg9IjYiIHg9IjEwMDEuNzUiIHk9IjQ0Mi40NzY2Ij4mIzE2MDs8L3RleHQ+PHRleHQgZmlsbD0iIzAwMDAwMCIgZm9udC1mYW1pbHk9IkltcGFjdCIgZm9udC1zaXplPSIxMiIgbGVuZ3RoQWRqdXN0PSJzcGFjaW5nIiB0ZXh0TGVuZ3RoPSIyMSIgeD0iMTAwNy43NSIgeT0iNDQyLjQ3NjYiPlNOUzwvdGV4dD48dGV4dCBmaWxsPSIjMDAwMDAwIiBmb250LWZhbWlseT0iSW1wYWN0IiBmb250LXNpemU9IjEyIiBsZW5ndGhBZGp1c3Q9InNwYWNpbmciIHRleHRMZW5ndGg9Ijc3IiB4PSI5MzkuMjUiIHk9IjQ1NS4zMjAzIj5ub3RpZmljYXRpb248L3RleHQ+PHRleHQgZmlsbD0iIzAwMDAwMCIgZm9udC1mYW1pbHk9IkltcGFjdCIgZm9udC1zaXplPSIxMiIgbGVuZ3RoQWRqdXN0PSJzcGFjaW5nIiB0ZXh0TGVuZ3RoPSI2IiB4PSIxMDE2LjI1IiB5PSI0NTUuMzIwMyI+JiMxNjA7PC90ZXh0Pjx0ZXh0IGZpbGw9IiMwMDAwMDAiIGZvbnQtZmFtaWx5PSJJbXBhY3QiIGZvbnQtc2l6ZT0iMTIiIGxlbmd0aEFkanVzdD0ic3BhY2luZyIgdGV4dExlbmd0aD0iMTQiIHg9IjEwMjIuMjUiIHk9IjQ1NS4zMjAzIj5ieTwvdGV4dD48dGV4dCBmaWxsPSIjMDAwMDAwIiBmb250LWZhbWlseT0iSW1wYWN0IiBmb250LXNpemU9IjEyIiBsZW5ndGhBZGp1c3Q9InNwYWNpbmciIHRleHRMZW5ndGg9IjY3IiB4PSI5MzQuNzUiIHk9IjQ2OC4xNjQxIj5DbG91ZFdhdGNoPC90ZXh0Pjx0ZXh0IGZpbGw9IiMwMDAwMDAiIGZvbnQtZmFtaWx5PSJJbXBhY3QiIGZvbnQtc2l6ZT0iMTIiIGxlbmd0aEFkanVzdD0ic3BhY2luZyIgdGV4dExlbmd0aD0iNiIgeD0iMTAwMS43NSIgeT0iNDY4LjE2NDEiPiYjMTYwOzwvdGV4dD48dGV4dCBmaWxsPSIjMDAwMDAwIiBmb250LWZhbWlseT0iSW1wYWN0IiBmb250LXNpemU9IjEyIiBsZW5ndGhBZGp1c3Q9InNwYWNpbmciIHRleHRMZW5ndGg9IjMzIiB4PSIxMDA3Ljc1IiB5PSI0NjguMTY0MSI+QWxhcm08L3RleHQ+PHBhdGggZD0iTTIwLDUwMC42NjQxIEwzOTksNTAwLjY2NDEgTDM5OSw1MDYuNTc4MSBMMzg5LDUxNi41NzgxIEwyMCw1MTYuNTc4MSBMMjAsNTAwLjY2NDEgIiBmaWxsPSIjRkZGRjAwIiBzdHlsZT0ic3Ryb2tlOiMwMDAwMDA7c3Ryb2tlLXdpZHRoOjEuNTsiLz48cmVjdCBmaWxsPSJub25lIiBoZWlnaHQ9IjQyOS4yOTY5IiBzdHlsZT0ic3Ryb2tlOiM3RDg5OTg7c3Ryb2tlLXdpZHRoOjEuNTsiIHdpZHRoPSIxNjg0IiB4PSIyMCIgeT0iNTAwLjY2NDEiLz48dGV4dCBmaWxsPSIjMDAwMDAwIiBmb250LWZhbWlseT0ic2Fucy1zZXJpZiIgZm9udC1zaXplPSIxMyIgZm9udC13ZWlnaHQ9ImJvbGQiIGxlbmd0aEFkanVzdD0ic3BhY2luZyIgdGV4dExlbmd0aD0iMzM0IiB4PSIzNSIgeT0iNTEzLjk1MzEiPjItVHJpZ2dlckxhbWJkYS1wb2xsIFNRUy1JbnZva2UgUERFIEN5Y2xlIFNjcmlwdHM8L3RleHQ+PHBhdGggZD0iTTMwLDUyMy41NzgxIEwxNzAsNTIzLjU3ODEgTDE3MCw1MjkuNDkyMiBMMTYwLDUzOS40OTIyIEwzMCw1MzkuNDkyMiBMMzAsNTIzLjU3ODEgIiBmaWxsPSIjRkZENzAwIiBzdHlsZT0ic3Ryb2tlOiMwMDAwMDA7c3Ryb2tlLXdpZHRoOjEuNTsiLz48cmVjdCBmaWxsPSJub25lIiBoZWlnaHQ9IjE1NS4xMTcyIiBzdHlsZT0ic3Ryb2tlOiM3RDg5OTg7c3Ryb2tlLXdpZHRoOjEuNTsiIHdpZHRoPSIxMzYyLjUiIHg9IjMwIiB5PSI1MjMuNTc4MSIvPjx0ZXh0IGZpbGw9IiMwMDAwMDAiIGZvbnQtZmFtaWx5PSJzYW5zLXNlcmlmIiBmb250LXNpemU9IjEzIiBmb250LXdlaWdodD0iYm9sZCIgbGVuZ3RoQWRqdXN0PSJzcGFjaW5nIiB0ZXh0TGVuZ3RoPSI5NSIgeD0iNDUiIHk9IjUzNi44NjcyIj5UcmlnZ2VyIExhbWJkYTwvdGV4dD48cGF0aCBkPSJNMTA0NC41LDU0Ni40OTIyIEwxMTUxLjUsNTQ2LjQ5MjIgTDExNTEuNSw1NTIuNDA2MyBMMTE0MS41LDU2Mi40MDYzIEwxMDQ0LjUsNTYyLjQwNjMgTDEwNDQuNSw1NDYuNDkyMiAiIGZpbGw9IiNBNTJBMkEiIHN0eWxlPSJzdHJva2U6IzAwMDAwMDtzdHJva2Utd2lkdGg6MS41OyIvPjxyZWN0IGZpbGw9Im5vbmUiIGhlaWdodD0iNTUuNjAxNiIgc3R5bGU9InN0cm9rZTojN0Q4OTk4O3N0cm9rZS13aWR0aDoxLjU7IiB3aWR0aD0iMzM4IiB4PSIxMDQ0LjUiIHk9IjU0Ni40OTIyIi8+PHRleHQgZmlsbD0iIzAwMDAwMCIgZm9udC1mYW1pbHk9InNhbnMtc2VyaWYiIGZvbnQtc2l6ZT0iMTMiIGZvbnQtd2VpZ2h0PSJib2xkIiBsZW5ndGhBZGp1c3Q9InNwYWNpbmciIHRleHRMZW5ndGg9IjYyIiB4PSIxMDU5LjUiIHk9IjU1OS43ODEzIj5TTlMgZXZlbnQ8L3RleHQ+PHBvbHlnb24gZmlsbD0iIzAwMDAwMCIgcG9pbnRzPSIxMzE2LjUsNTkwLjA5MzgsMTMyNi41LDU5NC4wOTM4LDEzMTYuNSw1OTguMDkzOCwxMzIwLjUsNTk0LjA5MzgiIHN0eWxlPSJzdHJva2U6IzAwMDAwMDtzdHJva2Utd2lkdGg6MS4wOyIvPjxsaW5lIHN0eWxlPSJzdHJva2U6IzAwMDAwMDtzdHJva2Utd2lkdGg6Mi4wO3N0cm9rZS1kYXNoYXJyYXk6Mi4wLDIuMDsiIHgxPSIxMTU5LjUiIHgyPSIxMzIyLjUiIHkxPSI1OTQuMDkzOCIgeTI9IjU5NC4wOTM4Ii8+PHRleHQgZmlsbD0iIzAwMDAwMCIgZm9udC1mYW1pbHk9IkltcGFjdCIgZm9udC1zaXplPSIxMiIgbGVuZ3RoQWRqdXN0PSJzcGFjaW5nIiB0ZXh0TGVuZ3RoPSI0NyIgeD0iMTE3MS41IiB5PSI1NzcuNzUiPlRyaWdnZXI8L3RleHQ+PHRleHQgZmlsbD0iIzAwMDAwMCIgZm9udC1mYW1pbHk9IkltcGFjdCIgZm9udC1zaXplPSIxMiIgbGVuZ3RoQWRqdXN0PSJzcGFjaW5nIiB0ZXh0TGVuZ3RoPSI2IiB4PSIxMjE4LjUiIHk9IjU3Ny43NSI+JiMxNjA7PC90ZXh0Pjx0ZXh0IGZpbGw9IiMwMDAwMDAiIGZvbnQtZmFtaWx5PSJJbXBhY3QiIGZvbnQtc2l6ZT0iMTIiIGxlbmd0aEFkanVzdD0ic3BhY2luZyIgdGV4dExlbmd0aD0iMjYiIHg9IjEyMjQuNSIgeT0iNTc3Ljc1Ij5Qb2xsPC90ZXh0Pjx0ZXh0IGZpbGw9IiMwMDAwMDAiIGZvbnQtZmFtaWx5PSJJbXBhY3QiIGZvbnQtc2l6ZT0iMTIiIGxlbmd0aEFkanVzdD0ic3BhY2luZyIgdGV4dExlbmd0aD0iNiIgeD0iMTI1MC41IiB5PSI1NzcuNzUiPiYjMTYwOzwvdGV4dD48dGV4dCBmaWxsPSIjMDAwMDAwIiBmb250LWZhbWlseT0iSW1wYWN0IiBmb250LXNpemU9IjEyIiBsZW5ndGhBZGp1c3Q9InNwYWNpbmciIHRleHRMZW5ndGg9IjQwIiB4PSIxMjU2LjUiIHk9IjU3Ny43NSI+TGFtYmRhPC90ZXh0Pjx0ZXh0IGZpbGw9IiMwMDAwMDAiIGZvbnQtZmFtaWx5PSJJbXBhY3QiIGZvbnQtc2l6ZT0iMTIiIGxlbmd0aEFkanVzdD0ic3BhY2luZyIgdGV4dExlbmd0aD0iNiIgeD0iMTI5Ni41IiB5PSI1NzcuNzUiPiYjMTYwOzwvdGV4dD48dGV4dCBmaWxsPSIjMDAwMDAwIiBmb250LWZhbWlseT0iSW1wYWN0IiBmb250LXNpemU9IjEyIiBsZW5ndGhBZGp1c3Q9InNwYWNpbmciIHRleHRMZW5ndGg9IjE0IiB4PSIxMzAyLjUiIHk9IjU3Ny43NSI+Ynk8L3RleHQ+PHRleHQgZmlsbD0iIzAwMDAwMCIgZm9udC1mYW1pbHk9IkltcGFjdCIgZm9udC1zaXplPSIxMiIgbGVuZ3RoQWRqdXN0PSJzcGFjaW5nIiB0ZXh0TGVuZ3RoPSIyMSIgeD0iMTIxMy41IiB5PSI1OTAuNTkzOCI+U05TPC90ZXh0Pjx0ZXh0IGZpbGw9IiMwMDAwMDAiIGZvbnQtZmFtaWx5PSJJbXBhY3QiIGZvbnQtc2l6ZT0iMTIiIGxlbmd0aEFkanVzdD0ic3BhY2luZyIgdGV4dExlbmd0aD0iNiIgeD0iMTIzNC41IiB5PSI1OTAuNTkzOCI+JiMxNjA7PC90ZXh0Pjx0ZXh0IGZpbGw9IiMwMDAwMDAiIGZvbnQtZmFtaWx5PSJJbXBhY3QiIGZvbnQtc2l6ZT0iMTIiIGxlbmd0aEFkanVzdD0ic3BhY2luZyIgdGV4dExlbmd0aD0iMzQiIHg9IjEyNDAuNSIgeT0iNTkwLjU5MzgiPmV2ZW50PC90ZXh0PjxwYXRoIGQ9Ik00MCw2MTYuMDkzOCBMMTQwLDYxNi4wOTM4IEwxNDAsNjIyLjAwNzggTDEzMCw2MzIuMDA3OCBMNDAsNjMyLjAwNzggTDQwLDYxNi4wOTM4ICIgZmlsbD0iI0FERDhFNiIgc3R5bGU9InN0cm9rZTojMDAwMDAwO3N0cm9rZS13aWR0aDoxLjU7Ii8+PHJlY3QgZmlsbD0ibm9uZSIgaGVpZ2h0PSI1NS42MDE2IiBzdHlsZT0ic3Ryb2tlOiM3RDg5OTg7c3Ryb2tlLXdpZHRoOjEuNTsiIHdpZHRoPSIxMzQyLjUiIHg9IjQwIiB5PSI2MTYuMDkzOCIvPjx0ZXh0IGZpbGw9IiMwMDAwMDAiIGZvbnQtZmFtaWx5PSJzYW5zLXNlcmlmIiBmb250LXNpemU9IjEzIiBmb250LXdlaWdodD0iYm9sZCIgbGVuZ3RoQWRqdXN0PSJzcGFjaW5nIiB0ZXh0TGVuZ3RoPSI1NSIgeD0iNTUiIHk9IjYyOS4zODI4Ij5TMyBldmVudDwvdGV4dD48cG9seWdvbiBmaWxsPSIjMDAwMDAwIiBwb2ludHM9IjEzMTYuNSw2NTkuNjk1MywxMzI2LjUsNjYzLjY5NTMsMTMxNi41LDY2Ny42OTUzLDEzMjAuNSw2NjMuNjk1MyIgc3R5bGU9InN0cm9rZTojMDAwMDAwO3N0cm9rZS13aWR0aDoxLjA7Ii8+PGxpbmUgc3R5bGU9InN0cm9rZTojMDAwMDAwO3N0cm9rZS13aWR0aDoyLjA7IiB4MT0iMTM3LjUiIHgyPSIxMzIyLjUiIHkxPSI2NjMuNjk1MyIgeTI9IjY2My42OTUzIi8+PHRleHQgZmlsbD0iIzAwMDAwMCIgZm9udC1mYW1pbHk9IkltcGFjdCIgZm9udC1zaXplPSIxMiIgbGVuZ3RoQWRqdXN0PSJzcGFjaW5nIiB0ZXh0TGVuZ3RoPSI0NyIgeD0iNjYwLjUiIHk9IjY0Ny4zNTE2Ij5UcmlnZ2VyPC90ZXh0Pjx0ZXh0IGZpbGw9IiMwMDAwMDAiIGZvbnQtZmFtaWx5PSJJbXBhY3QiIGZvbnQtc2l6ZT0iMTIiIGxlbmd0aEFkanVzdD0ic3BhY2luZyIgdGV4dExlbmd0aD0iNiIgeD0iNzA3LjUiIHk9IjY0Ny4zNTE2Ij4mIzE2MDs8L3RleHQ+PHRleHQgZmlsbD0iIzAwMDAwMCIgZm9udC1mYW1pbHk9IkltcGFjdCIgZm9udC1zaXplPSIxMiIgbGVuZ3RoQWRqdXN0PSJzcGFjaW5nIiB0ZXh0TGVuZ3RoPSIyNiIgeD0iNzEzLjUiIHk9IjY0Ny4zNTE2Ij5Qb2xsPC90ZXh0Pjx0ZXh0IGZpbGw9IiMwMDAwMDAiIGZvbnQtZmFtaWx5PSJJbXBhY3QiIGZvbnQtc2l6ZT0iMTIiIGxlbmd0aEFkanVzdD0ic3BhY2luZyIgdGV4dExlbmd0aD0iNiIgeD0iNzM5LjUiIHk9IjY0Ny4zNTE2Ij4mIzE2MDs8L3RleHQ+PHRleHQgZmlsbD0iIzAwMDAwMCIgZm9udC1mYW1pbHk9IkltcGFjdCIgZm9udC1zaXplPSIxMiIgbGVuZ3RoQWRqdXN0PSJzcGFjaW5nIiB0ZXh0TGVuZ3RoPSI0MCIgeD0iNzQ1LjUiIHk9IjY0Ny4zNTE2Ij5MYW1iZGE8L3RleHQ+PHRleHQgZmlsbD0iIzAwMDAwMCIgZm9udC1mYW1pbHk9IkltcGFjdCIgZm9udC1zaXplPSIxMiIgbGVuZ3RoQWRqdXN0PSJzcGFjaW5nIiB0ZXh0TGVuZ3RoPSI2IiB4PSI3ODUuNSIgeT0iNjQ3LjM1MTYiPiYjMTYwOzwvdGV4dD48dGV4dCBmaWxsPSIjMDAwMDAwIiBmb250LWZhbWlseT0iSW1wYWN0IiBmb250LXNpemU9IjEyIiBsZW5ndGhBZGp1c3Q9InNwYWNpbmciIHRleHRMZW5ndGg9IjE0IiB4PSI3OTEuNSIgeT0iNjQ3LjM1MTYiPmJ5PC90ZXh0Pjx0ZXh0IGZpbGw9IiMwMDAwMDAiIGZvbnQtZmFtaWx5PSJJbXBhY3QiIGZvbnQtc2l6ZT0iMTIiIGxlbmd0aEFkanVzdD0ic3BhY2luZyIgdGV4dExlbmd0aD0iMTMiIHg9IjcwNi41IiB5PSI2NjAuMTk1MyI+UzM8L3RleHQ+PHRleHQgZmlsbD0iIzAwMDAwMCIgZm9udC1mYW1pbHk9IkltcGFjdCIgZm9udC1zaXplPSIxMiIgbGVuZ3RoQWRqdXN0PSJzcGFjaW5nIiB0ZXh0TGVuZ3RoPSI2IiB4PSI3MTkuNSIgeT0iNjYwLjE5NTMiPiYjMTYwOzwvdGV4dD48dGV4dCBmaWxsPSIjMDAwMDAwIiBmb250LWZhbWlseT0iSW1wYWN0IiBmb250LXNpemU9IjEyIiBsZW5ndGhBZGp1c3Q9InNwYWNpbmciIHRleHRMZW5ndGg9IjM0IiB4PSI3MjUuNSIgeT0iNjYwLjE5NTMiPmV2ZW50PC90ZXh0PjxwYXRoIGQ9Ik01ODMsNjkyLjY5NTMgTDY4Miw2OTIuNjk1MyBMNjgyLDY5OC42MDk0IEw2NzIsNzA4LjYwOTQgTDU4Myw3MDguNjA5NCBMNTgzLDY5Mi42OTUzICIgZmlsbD0iI0ZGRDcwMCIgc3R5bGU9InN0cm9rZTojMDAwMDAwO3N0cm9rZS13aWR0aDoxLjU7Ii8+PHJlY3QgZmlsbD0ibm9uZSIgaGVpZ2h0PSIxNjAuNjY0MSIgc3R5bGU9InN0cm9rZTojN0Q4OTk4O3N0cm9rZS13aWR0aDoxLjU7IiB3aWR0aD0iMTExMSIgeD0iNTgzIiB5PSI2OTIuNjk1MyIvPjx0ZXh0IGZpbGw9IiMwMDAwMDAiIGZvbnQtZmFtaWx5PSJzYW5zLXNlcmlmIiBmb250LXNpemU9IjEzIiBmb250LXdlaWdodD0iYm9sZCIgbGVuZ3RoQWRqdXN0PSJzcGFjaW5nIiB0ZXh0TGVuZ3RoPSI1NCIgeD0iNTk4IiB5PSI3MDUuOTg0NCI+UG9sbCBTUVM8L3RleHQ+PHBvbHlnb24gZmlsbD0iIzAwMDAwMCIgcG9pbnRzPSI2ODQuNSw3MzYuMjk2OSw2NzQuNSw3NDAuMjk2OSw2ODQuNSw3NDQuMjk2OSw2ODAuNSw3NDAuMjk2OSIgc3R5bGU9InN0cm9rZTojMDAwMDAwO3N0cm9rZS13aWR0aDoxLjA7Ii8+PGxpbmUgc3R5bGU9InN0cm9rZTojMDAwMDAwO3N0cm9rZS13aWR0aDoyLjA7IiB4MT0iNjc4LjUiIHgyPSIxMzI3LjUiIHkxPSI3NDAuMjk2OSIgeTI9Ijc0MC4yOTY5Ii8+PHRleHQgZmlsbD0iIzAwMDAwMCIgZm9udC1mYW1pbHk9IkltcGFjdCIgZm9udC1zaXplPSIxMiIgbGVuZ3RoQWRqdXN0PSJzcGFjaW5nIiB0ZXh0TGVuZ3RoPSIyNiIgeD0iOTI3LjUiIHk9IjcyMy45NTMxIj5Qb2xsPC90ZXh0Pjx0ZXh0IGZpbGw9IiMwMDAwMDAiIGZvbnQtZmFtaWx5PSJJbXBhY3QiIGZvbnQtc2l6ZT0iMTIiIGxlbmd0aEFkanVzdD0ic3BhY2luZyIgdGV4dExlbmd0aD0iNiIgeD0iOTUzLjUiIHk9IjcyMy45NTMxIj4mIzE2MDs8L3RleHQ+PHRleHQgZmlsbD0iIzAwMDAwMCIgZm9udC1mYW1pbHk9IkltcGFjdCIgZm9udC1zaXplPSIxMiIgbGVuZ3RoQWRqdXN0PSJzcGFjaW5nIiB0ZXh0TGVuZ3RoPSIyMSIgeD0iOTU5LjUiIHk9IjcyMy45NTMxIj5TUVM8L3RleHQ+PHRleHQgZmlsbD0iIzAwMDAwMCIgZm9udC1mYW1pbHk9IkltcGFjdCIgZm9udC1zaXplPSIxMiIgbGVuZ3RoQWRqdXN0PSJzcGFjaW5nIiB0ZXh0TGVuZ3RoPSI2IiB4PSI5ODAuNSIgeT0iNzIzLjk1MzEiPiYjMTYwOzwvdGV4dD48dGV4dCBmaWxsPSIjMDAwMDAwIiBmb250LWZhbWlseT0iSW1wYWN0IiBmb250LXNpemU9IjEyIiBsZW5ndGhBZGp1c3Q9InNwYWNpbmciIHRleHRMZW5ndGg9IjM1IiB4PSI5ODYuNSIgeT0iNzIzLjk1MzEiPlF1ZXVlPC90ZXh0Pjx0ZXh0IGZpbGw9IiMwMDAwMDAiIGZvbnQtZmFtaWx5PSJJbXBhY3QiIGZvbnQtc2l6ZT0iMTIiIGxlbmd0aEFkanVzdD0ic3BhY2luZyIgdGV4dExlbmd0aD0iNiIgeD0iMTAyMS41IiB5PSI3MjMuOTUzMSI+JiMxNjA7PC90ZXh0Pjx0ZXh0IGZpbGw9IiMwMDAwMDAiIGZvbnQtZmFtaWx5PSJJbXBhY3QiIGZvbnQtc2l6ZT0iMTIiIGxlbmd0aEFkanVzdD0ic3BhY2luZyIgdGV4dExlbmd0aD0iNDciIHg9IjEwMjcuNSIgeT0iNzIzLjk1MzEiPihTTlMvUzM8L3RleHQ+PHRleHQgZmlsbD0iIzAwMDAwMCIgZm9udC1mYW1pbHk9IkltcGFjdCIgZm9udC1zaXplPSIxMiIgbGVuZ3RoQWRqdXN0PSJzcGFjaW5nIiB0ZXh0TGVuZ3RoPSI0NyIgeD0iOTc3LjUiIHk9IjczNi43OTY5Ij5ldmVudFMpPC90ZXh0Pjxwb2x5Z29uIGZpbGw9IiMwMDAwMDAiIHBvaW50cz0iMTQ4My41LDc4OC44MjgxLDE0OTMuNSw3OTIuODI4MSwxNDgzLjUsNzk2LjgyODEsMTQ4Ny41LDc5Mi44MjgxIiBzdHlsZT0ic3Ryb2tlOiMwMDAwMDA7c3Ryb2tlLXdpZHRoOjEuMDsiLz48bGluZSBzdHlsZT0ic3Ryb2tlOiMwMDAwMDA7c3Ryb2tlLXdpZHRoOjIuMDsiIHgxPSIxMzI4LjUiIHgyPSIxNDg5LjUiIHkxPSI3OTIuODI4MSIgeTI9Ijc5Mi44MjgxIi8+PHRleHQgZmlsbD0iIzAwMDAwMCIgZm9udC1mYW1pbHk9IkltcGFjdCIgZm9udC1zaXplPSIxMiIgbGVuZ3RoQWRqdXN0PSJzcGFjaW5nIiB0ZXh0TGVuZ3RoPSIyNyIgeD0iMTM1NiIgeT0iNzYzLjY0MDYiPlNodXQ8L3RleHQ+PHRleHQgZmlsbD0iIzAwMDAwMCIgZm9udC1mYW1pbHk9IkltcGFjdCIgZm9udC1zaXplPSIxMiIgbGVuZ3RoQWRqdXN0PSJzcGFjaW5nIiB0ZXh0TGVuZ3RoPSI2IiB4PSIxMzgzIiB5PSI3NjMuNjQwNiI+JiMxNjA7PC90ZXh0Pjx0ZXh0IGZpbGw9IiMwMDAwMDAiIGZvbnQtZmFtaWx5PSJJbXBhY3QiIGZvbnQtc2l6ZT0iMTIiIGxlbmd0aEFkanVzdD0ic3BhY2luZyIgdGV4dExlbmd0aD0iMjciIHg9IjEzODkiIHk9Ijc2My42NDA2Ij5Eb3duPC90ZXh0Pjx0ZXh0IGZpbGw9IiMwMDAwMDAiIGZvbnQtZmFtaWx5PSJJbXBhY3QiIGZvbnQtc2l6ZT0iMTIiIGxlbmd0aEFkanVzdD0ic3BhY2luZyIgdGV4dExlbmd0aD0iNiIgeD0iMTQxNiIgeT0iNzYzLjY0MDYiPiYjMTYwOzwvdGV4dD48dGV4dCBmaWxsPSIjMDAwMDAwIiBmb250LWZhbWlseT0iSW1wYWN0IiBmb250LXNpemU9IjEyIiBsZW5ndGhBZGp1c3Q9InNwYWNpbmciIHRleHRMZW5ndGg9IjE5IiB4PSIxNDIyIiB5PSI3NjMuNjQwNiI+RUMyPC90ZXh0Pjx0ZXh0IGZpbGw9IiMwMDAwMDAiIGZvbnQtZmFtaWx5PSJJbXBhY3QiIGZvbnQtc2l6ZT0iMTIiIGxlbmd0aEFkanVzdD0ic3BhY2luZyIgdGV4dExlbmd0aD0iNiIgeD0iMTQ0MSIgeT0iNzYzLjY0MDYiPiYjMTYwOzwvdGV4dD48dGV4dCBmaWxsPSIjMDAwMDAwIiBmb250LWZhbWlseT0iSW1wYWN0IiBmb250LXNpemU9IjEyIiBsZW5ndGhBZGp1c3Q9InNwYWNpbmciIHRleHRMZW5ndGg9IjIxIiB4PSIxNDQ3IiB5PSI3NjMuNjQwNiI+QXBwPC90ZXh0Pjx0ZXh0IGZpbGw9IiMwMDAwMDAiIGZvbnQtZmFtaWx5PSJJbXBhY3QiIGZvbnQtc2l6ZT0iMTIiIGxlbmd0aEFkanVzdD0ic3BhY2luZyIgdGV4dExlbmd0aD0iNjIiIHg9IjEzNDAuNSIgeT0iNzc2LjQ4NDQiPnNlcnZlcihObzwvdGV4dD48dGV4dCBmaWxsPSIjMDAwMDAwIiBmb250LWZhbWlseT0iSW1wYWN0IiBmb250LXNpemU9IjEyIiBsZW5ndGhBZGp1c3Q9InNwYWNpbmciIHRleHRMZW5ndGg9IjYiIHg9IjE0MDIuNSIgeT0iNzc2LjQ4NDQiPiYjMTYwOzwvdGV4dD48dGV4dCBmaWxsPSIjMDAwMDAwIiBmb250LWZhbWlseT0iSW1wYWN0IiBmb250LXNpemU9IjEyIiBsZW5ndGhBZGp1c3Q9InNwYWNpbmciIHRleHRMZW5ndGg9IjU2IiB4PSIxNDA4LjUiIHk9Ijc3Ni40ODQ0Ij5NZXNzYWdlczwvdGV4dD48dGV4dCBmaWxsPSIjMDAwMDAwIiBmb250LWZhbWlseT0iSW1wYWN0IiBmb250LXNpemU9IjEyIiBsZW5ndGhBZGp1c3Q9InNwYWNpbmciIHRleHRMZW5ndGg9IjYiIHg9IjE0NjQuNSIgeT0iNzc2LjQ4NDQiPiYjMTYwOzwvdGV4dD48dGV4dCBmaWxsPSIjMDAwMDAwIiBmb250LWZhbWlseT0iSW1wYWN0IiBmb250LXNpemU9IjEyIiBsZW5ndGhBZGp1c3Q9InNwYWNpbmciIHRleHRMZW5ndGg9IjEzIiB4PSIxNDcwLjUiIHk9Ijc3Ni40ODQ0Ij5pbjwvdGV4dD48dGV4dCBmaWxsPSIjMDAwMDAwIiBmb250LWZhbWlseT0iSW1wYWN0IiBmb250LXNpemU9IjEyIiBsZW5ndGhBZGp1c3Q9InNwYWNpbmciIHRleHRMZW5ndGg9IjQxIiB4PSIxMzkxLjUiIHk9Ijc4OS4zMjgxIj5RdWV1ZSk8L3RleHQ+PHBvbHlnb24gZmlsbD0iIzAwMDAwMCIgcG9pbnRzPSIxNjIyLjUsODQxLjM1OTQsMTYzMi41LDg0NS4zNTk0LDE2MjIuNSw4NDkuMzU5NCwxNjI2LjUsODQ1LjM1OTQiIHN0eWxlPSJzdHJva2U6IzAwMDAwMDtzdHJva2Utd2lkdGg6MS4wOyIvPjxsaW5lIHN0eWxlPSJzdHJva2U6IzAwMDAwMDtzdHJva2Utd2lkdGg6Mi4wOyIgeDE9IjEzMjguNSIgeDI9IjE2MjguNSIgeTE9Ijg0NS4zNTk0IiB5Mj0iODQ1LjM1OTQiLz48dGV4dCBmaWxsPSIjMDAwMDAwIiBmb250LWZhbWlseT0iSW1wYWN0IiBmb250LXNpemU9IjEyIiBsZW5ndGhBZGp1c3Q9InNwYWNpbmciIHRleHRMZW5ndGg9IjI2IiB4PSIxNDE1IiB5PSI4MTYuMTcxOSI+VGFrZTwvdGV4dD48dGV4dCBmaWxsPSIjMDAwMDAwIiBmb250LWZhbWlseT0iSW1wYWN0IiBmb250LXNpemU9IjEyIiBsZW5ndGhBZGp1c3Q9InNwYWNpbmciIHRleHRMZW5ndGg9IjYiIHg9IjE0NDEiIHk9IjgxNi4xNzE5Ij4mIzE2MDs8L3RleHQ+PHRleHQgZmlsbD0iIzAwMDAwMCIgZm9udC1mYW1pbHk9IkltcGFjdCIgZm9udC1zaXplPSIxMiIgbGVuZ3RoQWRqdXN0PSJzcGFjaW5nIiB0ZXh0TGVuZ3RoPSI1NSIgeD0iMTQ0NyIgeT0iODE2LjE3MTkiPlNuYXBzaG90PC90ZXh0Pjx0ZXh0IGZpbGw9IiMwMDAwMDAiIGZvbnQtZmFtaWx5PSJJbXBhY3QiIGZvbnQtc2l6ZT0iMTIiIGxlbmd0aEFkanVzdD0ic3BhY2luZyIgdGV4dExlbmd0aD0iNiIgeD0iMTUwMiIgeT0iODE2LjE3MTkiPiYjMTYwOzwvdGV4dD48dGV4dCBmaWxsPSIjMDAwMDAwIiBmb250LWZhbWlseT0iSW1wYWN0IiBmb250LXNpemU9IjEyIiBsZW5ndGhBZGp1c3Q9InNwYWNpbmciIHRleHRMZW5ndGg9IjEzIiB4PSIxNTA4IiB5PSI4MTYuMTcxOSI+b2Y8L3RleHQ+PHRleHQgZmlsbD0iIzAwMDAwMCIgZm9udC1mYW1pbHk9IkltcGFjdCIgZm9udC1zaXplPSIxMiIgbGVuZ3RoQWRqdXN0PSJzcGFjaW5nIiB0ZXh0TGVuZ3RoPSI2IiB4PSIxNTIxIiB5PSI4MTYuMTcxOSI+JiMxNjA7PC90ZXh0Pjx0ZXh0IGZpbGw9IiMwMDAwMDAiIGZvbnQtZmFtaWx5PSJJbXBhY3QiIGZvbnQtc2l6ZT0iMTIiIGxlbmd0aEFkanVzdD0ic3BhY2luZyIgdGV4dExlbmd0aD0iMjEiIHg9IjE1MjciIHk9IjgxNi4xNzE5Ij5QUkQ8L3RleHQ+PHRleHQgZmlsbD0iIzAwMDAwMCIgZm9udC1mYW1pbHk9IkltcGFjdCIgZm9udC1zaXplPSIxMiIgbGVuZ3RoQWRqdXN0PSJzcGFjaW5nIiB0ZXh0TGVuZ3RoPSI1NSIgeD0iMTQxMCIgeT0iODI5LjAxNTYiPkRhdGFiYXNlPC90ZXh0Pjx0ZXh0IGZpbGw9IiMwMDAwMDAiIGZvbnQtZmFtaWx5PSJJbXBhY3QiIGZvbnQtc2l6ZT0iMTIiIGxlbmd0aEFkanVzdD0ic3BhY2luZyIgdGV4dExlbmd0aD0iNiIgeD0iMTQ2NSIgeT0iODI5LjAxNTYiPiYjMTYwOzwvdGV4dD48dGV4dCBmaWxsPSIjMDAwMDAwIiBmb250LWZhbWlseT0iSW1wYWN0IiBmb250LXNpemU9IjEyIiBsZW5ndGhBZGp1c3Q9InNwYWNpbmciIHRleHRMZW5ndGg9IjIwIiB4PSIxNDcxIiB5PSI4MjkuMDE1NiI+KE5vPC90ZXh0Pjx0ZXh0IGZpbGw9IiMwMDAwMDAiIGZvbnQtZmFtaWx5PSJJbXBhY3QiIGZvbnQtc2l6ZT0iMTIiIGxlbmd0aEFkanVzdD0ic3BhY2luZyIgdGV4dExlbmd0aD0iNiIgeD0iMTQ5MSIgeT0iODI5LjAxNTYiPiYjMTYwOzwvdGV4dD48dGV4dCBmaWxsPSIjMDAwMDAwIiBmb250LWZhbWlseT0iSW1wYWN0IiBmb250LXNpemU9IjEyIiBsZW5ndGhBZGp1c3Q9InNwYWNpbmciIHRleHRMZW5ndGg9IjU2IiB4PSIxNDk3IiB5PSI4MjkuMDE1NiI+TWVzc2FnZXM8L3RleHQ+PHRleHQgZmlsbD0iIzAwMDAwMCIgZm9udC1mYW1pbHk9IkltcGFjdCIgZm9udC1zaXplPSIxMiIgbGVuZ3RoQWRqdXN0PSJzcGFjaW5nIiB0ZXh0TGVuZ3RoPSIxMyIgeD0iMTQ1MS41IiB5PSI4NDEuODU5NCI+aW48L3RleHQ+PHRleHQgZmlsbD0iIzAwMDAwMCIgZm9udC1mYW1pbHk9IkltcGFjdCIgZm9udC1zaXplPSIxMiIgbGVuZ3RoQWRqdXN0PSJzcGFjaW5nIiB0ZXh0TGVuZ3RoPSI2IiB4PSIxNDY0LjUiIHk9Ijg0MS44NTk0Ij4mIzE2MDs8L3RleHQ+PHRleHQgZmlsbD0iIzAwMDAwMCIgZm9udC1mYW1pbHk9IkltcGFjdCIgZm9udC1zaXplPSIxMiIgbGVuZ3RoQWRqdXN0PSJzcGFjaW5nIiB0ZXh0TGVuZ3RoPSI0MSIgeD0iMTQ3MC41IiB5PSI4NDEuODU5NCI+UXVldWUpPC90ZXh0PjxwYXRoIGQ9Ik0xMjc0LjUsODY3LjM1OTQgTDE1NzEuNSw4NjcuMzU5NCBMMTU3MS41LDg3My4yNzM0IEwxNTYxLjUsODgzLjI3MzQgTDEyNzQuNSw4ODMuMjczNCBMMTI3NC41LDg2Ny4zNTk0ICIgZmlsbD0iI0ZGRkYwMCIgc3R5bGU9InN0cm9rZTojMDAwMDAwO3N0cm9rZS13aWR0aDoxLjU7Ii8+PHJlY3QgZmlsbD0ibm9uZSIgaGVpZ2h0PSI1NS42MDE2IiBzdHlsZT0ic3Ryb2tlOiM3RDg5OTg7c3Ryb2tlLXdpZHRoOjEuNTsiIHdpZHRoPSIzMDIiIHg9IjEyNzQuNSIgeT0iODY3LjM1OTQiLz48dGV4dCBmaWxsPSIjMDAwMDAwIiBmb250LWZhbWlseT0ic2Fucy1zZXJpZiIgZm9udC1zaXplPSIxMyIgZm9udC13ZWlnaHQ9ImJvbGQiIGxlbmd0aEFkanVzdD0ic3BhY2luZyIgdGV4dExlbmd0aD0iMjUyIiB4PSIxMjg5LjUiIHk9Ijg4MC42NDg0Ij4zLUludm9rZSBTY3JpcHRzKEJ5IFNRUyBtZXNzYWdlIFR5cGUpPC90ZXh0Pjxwb2x5Z29uIGZpbGw9IiMwMDAwMDAiIHBvaW50cz0iMTQ4My41LDkxMC45NjA5LDE0OTMuNSw5MTQuOTYwOSwxNDgzLjUsOTE4Ljk2MDksMTQ4Ny41LDkxNC45NjA5IiBzdHlsZT0ic3Ryb2tlOiMwMDAwMDA7c3Ryb2tlLXdpZHRoOjEuMDsiLz48bGluZSBzdHlsZT0ic3Ryb2tlOiMwMDAwMDA7c3Ryb2tlLXdpZHRoOjIuMDsiIHgxPSIxMzI4LjUiIHgyPSIxNDg5LjUiIHkxPSI5MTQuOTYwOSIgeTI9IjkxNC45NjA5Ii8+PHRleHQgZmlsbD0iIzAwMDAwMCIgZm9udC1mYW1pbHk9IkltcGFjdCIgZm9udC1zaXplPSIxMiIgbGVuZ3RoQWRqdXN0PSJzcGFjaW5nIiB0ZXh0TGVuZ3RoPSI0NyIgeD0iMTM1MiIgeT0iODk4LjYxNzIiPlRyaWdnZXI8L3RleHQ+PHRleHQgZmlsbD0iIzAwMDAwMCIgZm9udC1mYW1pbHk9IkltcGFjdCIgZm9udC1zaXplPSIxMiIgbGVuZ3RoQWRqdXN0PSJzcGFjaW5nIiB0ZXh0TGVuZ3RoPSI2IiB4PSIxMzk5IiB5PSI4OTguNjE3MiI+JiMxNjA7PC90ZXh0Pjx0ZXh0IGZpbGw9IiMwMDAwMDAiIGZvbnQtZmFtaWx5PSJJbXBhY3QiIGZvbnQtc2l6ZT0iMTIiIGxlbmd0aEFkanVzdD0ic3BhY2luZyIgdGV4dExlbmd0aD0iMjEiIHg9IjE0MDUiIHk9Ijg5OC42MTcyIj5SJmFtcDtDPC90ZXh0Pjx0ZXh0IGZpbGw9IiMwMDAwMDAiIGZvbnQtZmFtaWx5PSJJbXBhY3QiIGZvbnQtc2l6ZT0iMTIiIGxlbmd0aEFkanVzdD0ic3BhY2luZyIgdGV4dExlbmd0aD0iNiIgeD0iMTQyNiIgeT0iODk4LjYxNzIiPiYjMTYwOzwvdGV4dD48dGV4dCBmaWxsPSIjMDAwMDAwIiBmb250LWZhbWlseT0iSW1wYWN0IiBmb250LXNpemU9IjEyIiBsZW5ndGhBZGp1c3Q9InNwYWNpbmciIHRleHRMZW5ndGg9IjE0IiB4PSIxNDMyIiB5PSI4OTguNjE3MiI+b3I8L3RleHQ+PHRleHQgZmlsbD0iIzAwMDAwMCIgZm9udC1mYW1pbHk9IkltcGFjdCIgZm9udC1zaXplPSIxMiIgbGVuZ3RoQWRqdXN0PSJzcGFjaW5nIiB0ZXh0TGVuZ3RoPSI2IiB4PSIxNDQ2IiB5PSI4OTguNjE3MiI+JiMxNjA7PC90ZXh0Pjx0ZXh0IGZpbGw9IiMwMDAwMDAiIGZvbnQtZmFtaWx5PSJJbXBhY3QiIGZvbnQtc2l6ZT0iMTIiIGxlbmd0aEFkanVzdD0ic3BhY2luZyIgdGV4dExlbmd0aD0iMjAiIHg9IjE0NTIiIHk9Ijg5OC42MTcyIj5CT0w8L3RleHQ+PHRleHQgZmlsbD0iIzAwMDAwMCIgZm9udC1mYW1pbHk9IkltcGFjdCIgZm9udC1zaXplPSIxMiIgbGVuZ3RoQWRqdXN0PSJzcGFjaW5nIiB0ZXh0TGVuZ3RoPSI0NiIgeD0iMTM4OSIgeT0iOTExLjQ2MDkiPnNjcmlwdHM8L3RleHQ+PHBhdGggZD0iTTMwLDk0My45NjA5IEwxOTAsOTQzLjk2MDkgTDE5MCw5NDkuODc1IEwxODAsOTU5Ljg3NSBMMzAsOTU5Ljg3NSBMMzAsOTQzLjk2MDkgIiBmaWxsPSIjRkZGRjAwIiBzdHlsZT0ic3Ryb2tlOiMwMDAwMDA7c3Ryb2tlLXdpZHRoOjEuNTsiLz48cmVjdCBmaWxsPSJub25lIiBoZWlnaHQ9IjU0OC44MjgxIiBzdHlsZT0ic3Ryb2tlOiM3RDg5OTg7c3Ryb2tlLXdpZHRoOjEuNTsiIHdpZHRoPSIxOTA0IiB4PSIzMCIgeT0iOTQzLjk2MDkiLz48dGV4dCBmaWxsPSIjMDAwMDAwIiBmb250LWZhbWlseT0ic2Fucy1zZXJpZiIgZm9udC1zaXplPSIxMyIgZm9udC13ZWlnaHQ9ImJvbGQiIGxlbmd0aEFkanVzdD0ic3BhY2luZyIgdGV4dExlbmd0aD0iMTE1IiB4PSI0NSIgeT0iOTU3LjI1Ij40LUFwcGxpY2F0aW9uIHJ1bjwvdGV4dD48cGF0aCBkPSJNMTQyNiw5NjYuODc1IEwxNjA0LDk2Ni44NzUgTDE2MDQsOTcyLjc4OTEgTDE1OTQsOTgyLjc4OTEgTDE0MjYsOTgyLjc4OTEgTDE0MjYsOTY2Ljg3NSAiIGZpbGw9IiNGRkQ3MDAiIHN0eWxlPSJzdHJva2U6IzAwMDAwMDtzdHJva2Utd2lkdGg6MS41OyIvPjxyZWN0IGZpbGw9Im5vbmUiIGhlaWdodD0iMTY1LjA0NjkiIHN0eWxlPSJzdHJva2U6IzdEODk5ODtzdHJva2Utd2lkdGg6MS41OyIgd2lkdGg9IjQ5OCIgeD0iMTQyNiIgeT0iOTY2Ljg3NSIvPjx0ZXh0IGZpbGw9IiMwMDAwMDAiIGZvbnQtZmFtaWx5PSJzYW5zLXNlcmlmIiBmb250LXNpemU9IjEzIiBmb250LXdlaWdodD0iYm9sZCIgbGVuZ3RoQWRqdXN0PSJzcGFjaW5nIiB0ZXh0TGVuZ3RoPSIxMzMiIHg9IjE0NDEiIHk9Ijk4MC4xNjQxIj4oMS4xKVJlY2VpcHQmYW1wO0NvbnRyb2w8L3RleHQ+PGxpbmUgc3R5bGU9InN0cm9rZTojMDAwMDAwO3N0cm9rZS13aWR0aDoyLjA7c3Ryb2tlLWRhc2hhcnJheToyLjAsMi4wOyIgeDE9IjE0OTUuNSIgeDI9IjE1MzcuNSIgeTE9IjEwMTQuNDc2NiIgeTI9IjEwMTQuNDc2NiIvPjxsaW5lIHN0eWxlPSJzdHJva2U6IzAwMDAwMDtzdHJva2Utd2lkdGg6Mi4wO3N0cm9rZS1kYXNoYXJyYXk6Mi4wLDIuMDsiIHgxPSIxNTM3LjUiIHgyPSIxNTM3LjUiIHkxPSIxMDE0LjQ3NjYiIHkyPSIxMDI3LjQ3NjYiLz48bGluZSBzdHlsZT0ic3Ryb2tlOiMwMDAwMDA7c3Ryb2tlLXdpZHRoOjIuMDtzdHJva2UtZGFzaGFycmF5OjIuMCwyLjA7IiB4MT0iMTQ5Ni41IiB4Mj0iMTUzNy41IiB5MT0iMTAyNy40NzY2IiB5Mj0iMTAyNy40NzY2Ii8+PHBvbHlnb24gZmlsbD0iIzAwMDAwMCIgcG9pbnRzPSIxNTA2LjUsMTAyMy40NzY2LDE0OTYuNSwxMDI3LjQ3NjYsMTUwNi41LDEwMzEuNDc2NiwxNTAyLjUsMTAyNy40NzY2IiBzdHlsZT0ic3Ryb2tlOiMwMDAwMDA7c3Ryb2tlLXdpZHRoOjEuMDsiLz48dGV4dCBmaWxsPSIjMDAwMDAwIiBmb250LWZhbWlseT0iSW1wYWN0IiBmb250LXNpemU9IjEyIiBsZW5ndGhBZGp1c3Q9InNwYWNpbmciIHRleHRMZW5ndGg9IjMzIiB4PSIxNTAyLjUiIHk9Ijk5OC4xMzI4Ij5TdGFydDwvdGV4dD48dGV4dCBmaWxsPSIjMDAwMDAwIiBmb250LWZhbWlseT0iSW1wYWN0IiBmb250LXNpemU9IjEyIiBsZW5ndGhBZGp1c3Q9InNwYWNpbmciIHRleHRMZW5ndGg9IjYiIHg9IjE1MzUuNSIgeT0iOTk4LjEzMjgiPiYjMTYwOzwvdGV4dD48dGV4dCBmaWxsPSIjMDAwMDAwIiBmb250LWZhbWlseT0iSW1wYWN0IiBmb250LXNpemU9IjEyIiBsZW5ndGhBZGp1c3Q9InNwYWNpbmciIHRleHRMZW5ndGg9IjIxIiB4PSIxNTQxLjUiIHk9Ijk5OC4xMzI4Ij5SJmFtcDtDPC90ZXh0Pjx0ZXh0IGZpbGw9IiMwMDAwMDAiIGZvbnQtZmFtaWx5PSJJbXBhY3QiIGZvbnQtc2l6ZT0iMTIiIGxlbmd0aEFkanVzdD0ic3BhY2luZyIgdGV4dExlbmd0aD0iNiIgeD0iMTU2Mi41IiB5PSI5OTguMTMyOCI+JiMxNjA7PC90ZXh0Pjx0ZXh0IGZpbGw9IiMwMDAwMDAiIGZvbnQtZmFtaWx5PSJJbXBhY3QiIGZvbnQtc2l6ZT0iMTIiIGxlbmd0aEFkanVzdD0ic3BhY2luZyIgdGV4dExlbmd0aD0iMzkiIHg9IjE1NjguNSIgeT0iOTk4LjEzMjgiPnNjcmlwdDwvdGV4dD48dGV4dCBmaWxsPSIjMDAwMDAwIiBmb250LWZhbWlseT0iSW1wYWN0IiBmb250LXNpemU9IjEyIiBsZW5ndGhBZGp1c3Q9InNwYWNpbmciIHRleHRMZW5ndGg9IjYwIiB4PSIxNTI1IiB5PSIxMDEwLjk3NjYiPihQREVDT1BZKTwvdGV4dD48cG9seWdvbiBmaWxsPSIjMDAwMDAwIiBwb2ludHM9IjE3MzAsMTA1MC4zMjAzLDE3NDAsMTA1NC4zMjAzLDE3MzAsMTA1OC4zMjAzLDE3MzQsMTA1NC4zMjAzIiBzdHlsZT0ic3Ryb2tlOiMwMDAwMDA7c3Ryb2tlLXdpZHRoOjEuMDsiLz48bGluZSBzdHlsZT0ic3Ryb2tlOiMwMDAwMDA7c3Ryb2tlLXdpZHRoOjIuMDtzdHJva2UtZGFzaGFycmF5OjIuMCwyLjA7IiB4MT0iMTQ5NS41IiB4Mj0iMTczNiIgeTE9IjEwNTQuMzIwMyIgeTI9IjEwNTQuMzIwMyIvPjx0ZXh0IGZpbGw9IiMwMDAwMDAiIGZvbnQtZmFtaWx5PSJJbXBhY3QiIGZvbnQtc2l6ZT0iMTIiIGxlbmd0aEFkanVzdD0ic3BhY2luZyIgdGV4dExlbmd0aD0iMjAiIHg9IjE1NDYuNzUiIHk9IjEwNTAuODIwMyI+UERFPC90ZXh0Pjx0ZXh0IGZpbGw9IiMwMDAwMDAiIGZvbnQtZmFtaWx5PSJJbXBhY3QiIGZvbnQtc2l6ZT0iMTIiIGxlbmd0aEFkanVzdD0ic3BhY2luZyIgdGV4dExlbmd0aD0iNiIgeD0iMTU2Ni43NSIgeT0iMTA1MC44MjAzIj4mIzE2MDs8L3RleHQ+PHRleHQgZmlsbD0iIzAwMDAwMCIgZm9udC1mYW1pbHk9IkltcGFjdCIgZm9udC1zaXplPSIxMiIgbGVuZ3RoQWRqdXN0PSJzcGFjaW5nIiB0ZXh0TGVuZ3RoPSI1NiIgeD0iMTU3Mi43NSIgeT0iMTA1MC44MjAzIj5SZXNwb25zZTwvdGV4dD48dGV4dCBmaWxsPSIjMDAwMDAwIiBmb250LWZhbWlseT0iSW1wYWN0IiBmb250LXNpemU9IjEyIiBsZW5ndGhBZGp1c3Q9InNwYWNpbmciIHRleHRMZW5ndGg9IjYiIHg9IjE2MjguNzUiIHk9IjEwNTAuODIwMyI+JiMxNjA7PC90ZXh0Pjx0ZXh0IGZpbGw9IiMwMDAwMDAiIGZvbnQtZmFtaWx5PSJJbXBhY3QiIGZvbnQtc2l6ZT0iMTIiIGxlbmd0aEFkanVzdD0ic3BhY2luZyIgdGV4dExlbmd0aD0iMzIiIHg9IjE2MzQuNzUiIHk9IjEwNTAuODIwMyI+ZmlsZXM8L3RleHQ+PHRleHQgZmlsbD0iIzAwMDAwMCIgZm9udC1mYW1pbHk9IkltcGFjdCIgZm9udC1zaXplPSIxMiIgbGVuZ3RoQWRqdXN0PSJzcGFjaW5nIiB0ZXh0TGVuZ3RoPSI2IiB4PSIxNjY2Ljc1IiB5PSIxMDUwLjgyMDMiPiYjMTYwOzwvdGV4dD48dGV4dCBmaWxsPSIjMDAwMDAwIiBmb250LWZhbWlseT0iSW1wYWN0IiBmb250LXNpemU9IjEyIiBsZW5ndGhBZGp1c3Q9InNwYWNpbmciIHRleHRMZW5ndGg9IjE4IiB4PSIxNjcyLjc1IiB5PSIxMDUwLjgyMDMiPkVGVDwvdGV4dD48cGF0aCBkPSJNMTQzNiwxMDY5LjMyMDMgTDE2NjEsMTA2OS4zMjAzIEwxNjYxLDEwNzUuMjM0NCBMMTY1MSwxMDg1LjIzNDQgTDE0MzYsMTA4NS4yMzQ0IEwxNDM2LDEwNjkuMzIwMyAiIGZpbGw9IiNGRkQ3MDAiIHN0eWxlPSJzdHJva2U6IzAwMDAwMDtzdHJva2Utd2lkdGg6MS41OyIvPjxyZWN0IGZpbGw9Im5vbmUiIGhlaWdodD0iNTUuNjAxNiIgc3R5bGU9InN0cm9rZTojN0Q4OTk4O3N0cm9rZS13aWR0aDoxLjU7IiB3aWR0aD0iNDc4IiB4PSIxNDM2IiB5PSIxMDY5LjMyMDMiLz48dGV4dCBmaWxsPSIjMDAwMDAwIiBmb250LWZhbWlseT0ic2Fucy1zZXJpZiIgZm9udC1zaXplPSIxMyIgZm9udC13ZWlnaHQ9ImJvbGQiIGxlbmd0aEFkanVzdD0ic3BhY2luZyIgdGV4dExlbmd0aD0iMTgwIiB4PSIxNDUxIiB5PSIxMDgyLjYwOTQiPigxLjIpRGF0YWJyaWNrcyAoUERFIEVESVRTKTwvdGV4dD48cG9seWdvbiBmaWxsPSIjMDAwMDAwIiBwb2ludHM9IjE4NDAsMTExMi45MjE5LDE4NTAsMTExNi45MjE5LDE4NDAsMTEyMC45MjE5LDE4NDQsMTExNi45MjE5IiBzdHlsZT0ic3Ryb2tlOiMwMDAwMDA7c3Ryb2tlLXdpZHRoOjEuMDsiLz48bGluZSBzdHlsZT0ic3Ryb2tlOiMwMDAwMDA7c3Ryb2tlLXdpZHRoOjIuMDsiIHgxPSIxNDk1LjUiIHgyPSIxODQ2IiB5MT0iMTExNi45MjE5IiB5Mj0iMTExNi45MjE5Ii8+PHRleHQgZmlsbD0iIzAwMDAwMCIgZm9udC1mYW1pbHk9IkltcGFjdCIgZm9udC1zaXplPSIxMiIgbGVuZ3RoQWRqdXN0PSJzcGFjaW5nIiB0ZXh0TGVuZ3RoPSIyMSIgeD0iMTYwOS43NSIgeT0iMTEwMC41NzgxIj5SJmFtcDtDPC90ZXh0Pjx0ZXh0IGZpbGw9IiMwMDAwMDAiIGZvbnQtZmFtaWx5PSJJbXBhY3QiIGZvbnQtc2l6ZT0iMTIiIGxlbmd0aEFkanVzdD0ic3BhY2luZyIgdGV4dExlbmd0aD0iNiIgeD0iMTYzMC43NSIgeT0iMTEwMC41NzgxIj4mIzE2MDs8L3RleHQ+PHRleHQgZmlsbD0iIzAwMDAwMCIgZm9udC1mYW1pbHk9IkltcGFjdCIgZm9udC1zaXplPSIxMiIgbGVuZ3RoQWRqdXN0PSJzcGFjaW5nIiB0ZXh0TGVuZ3RoPSI0OCIgeD0iMTYzNi43NSIgeT0iMTEwMC41NzgxIj5wcm9jZXNzPC90ZXh0Pjx0ZXh0IGZpbGw9IiMwMDAwMDAiIGZvbnQtZmFtaWx5PSJJbXBhY3QiIGZvbnQtc2l6ZT0iMTIiIGxlbmd0aEFkanVzdD0ic3BhY2luZyIgdGV4dExlbmd0aD0iNiIgeD0iMTY4NC43NSIgeT0iMTEwMC41NzgxIj4mIzE2MDs8L3RleHQ+PHRleHQgZmlsbD0iIzAwMDAwMCIgZm9udC1mYW1pbHk9IkltcGFjdCIgZm9udC1zaXplPSIxMiIgbGVuZ3RoQWRqdXN0PSJzcGFjaW5nIiB0ZXh0TGVuZ3RoPSI0NyIgeD0iMTY5MC43NSIgeT0iMTEwMC41NzgxIj5UcmlnZ2VyPC90ZXh0Pjx0ZXh0IGZpbGw9IiMwMDAwMDAiIGZvbnQtZmFtaWx5PSJJbXBhY3QiIGZvbnQtc2l6ZT0iMTIiIGxlbmd0aEFkanVzdD0ic3BhY2luZyIgdGV4dExlbmd0aD0iMjAiIHg9IjE2MTUuNzUiIHk9IjExMTMuNDIxOSI+UERFPC90ZXh0Pjx0ZXh0IGZpbGw9IiMwMDAwMDAiIGZvbnQtZmFtaWx5PSJJbXBhY3QiIGZvbnQtc2l6ZT0iMTIiIGxlbmd0aEFkanVzdD0ic3BhY2luZyIgdGV4dExlbmd0aD0iNiIgeD0iMTYzNS43NSIgeT0iMTExMy40MjE5Ij4mIzE2MDs8L3RleHQ+PHRleHQgZmlsbD0iIzAwMDAwMCIgZm9udC1mYW1pbHk9IkltcGFjdCIgZm9udC1zaXplPSIxMiIgbGVuZ3RoQWRqdXN0PSJzcGFjaW5nIiB0ZXh0TGVuZ3RoPSIzMiIgeD0iMTY0MS43NSIgeT0iMTExMy40MjE5Ij5FRElUUzwvdGV4dD48dGV4dCBmaWxsPSIjMDAwMDAwIiBmb250LWZhbWlseT0iSW1wYWN0IiBmb250LXNpemU9IjEyIiBsZW5ndGhBZGp1c3Q9InNwYWNpbmciIHRleHRMZW5ndGg9IjYiIHg9IjE2NzMuNzUiIHk9IjExMTMuNDIxOSI+JiMxNjA7PC90ZXh0Pjx0ZXh0IGZpbGw9IiMwMDAwMDAiIGZvbnQtZmFtaWx5PSJJbXBhY3QiIGZvbnQtc2l6ZT0iMTIiIGxlbmd0aEFkanVzdD0ic3BhY2luZyIgdGV4dExlbmd0aD0iNTIiIHg9IjE2NzkuNzUiIHk9IjExMTMuNDIxOSI+V29ya2Zsb3c8L3RleHQ+PHBhdGggZD0iTTQwLDExNDUuOTIxOSBMMjg1LDExNDUuOTIxOSBMMjg1LDExNTEuODM1OSBMMjc1LDExNjEuODM1OSBMNDAsMTE2MS44MzU5IEw0MCwxMTQ1LjkyMTkgIiBmaWxsPSIjQUREOEU2IiBzdHlsZT0ic3Ryb2tlOiMwMDAwMDA7c3Ryb2tlLXdpZHRoOjEuNTsiLz48cmVjdCBmaWxsPSJub25lIiBoZWlnaHQ9IjE0Ny44MjAzIiBzdHlsZT0ic3Ryb2tlOiM3RDg5OTg7c3Ryb2tlLXdpZHRoOjEuNTsiIHdpZHRoPSIxODc0IiB4PSI0MCIgeT0iMTE0NS45MjE5Ii8+PHRleHQgZmlsbD0iIzAwMDAwMCIgZm9udC1mYW1pbHk9InNhbnMtc2VyaWYiIGZvbnQtc2l6ZT0iMTMiIGZvbnQtd2VpZ2h0PSJib2xkIiBsZW5ndGhBZGp1c3Q9InNwYWNpbmciIHRleHRMZW5ndGg9IjIwMCIgeD0iNTUiIHk9IjExNTkuMjEwOSI+KHMzIGV2ZW50LSgxLjMpIERCWC5kb25lIGZpbGUpPC90ZXh0Pjxwb2x5Z29uIGZpbGw9IiMwMDAwMDAiIHBvaW50cz0iMTQ4LjUsMTIwMi4zNjcyLDEzOC41LDEyMDYuMzY3MiwxNDguNSwxMjEwLjM2NzIsMTQ0LjUsMTIwNi4zNjcyIiBzdHlsZT0ic3Ryb2tlOiMwMDAwMDA7c3Ryb2tlLXdpZHRoOjEuMDsiLz48bGluZSBzdHlsZT0ic3Ryb2tlOiMwMDAwMDA7c3Ryb2tlLXdpZHRoOjIuMDsiIHgxPSIxNDIuNSIgeDI9IjE4NTEiIHkxPSIxMjA2LjM2NzIiIHkyPSIxMjA2LjM2NzIiLz48dGV4dCBmaWxsPSIjMDAwMDAwIiBmb250LWZhbWlseT0iSW1wYWN0IiBmb250LXNpemU9IjEyIiBsZW5ndGhBZGp1c3Q9InNwYWNpbmciIHRleHRMZW5ndGg9IjIwIiB4PSI5ODQuNzUiIHk9IjExNzcuMTc5NyI+UHV0PC90ZXh0Pjx0ZXh0IGZpbGw9IiMwMDAwMDAiIGZvbnQtZmFtaWx5PSJJbXBhY3QiIGZvbnQtc2l6ZT0iMTIiIGxlbmd0aEFkanVzdD0ic3BhY2luZyIgdGV4dExlbmd0aD0iMTM1IiB4PSI5MjcuMjUiIHk9IjExOTAuMDIzNCI+REJYLmRvbmUvQ05UTC9QREVQTFM8L3RleHQ+PHRleHQgZmlsbD0iIzAwMDAwMCIgZm9udC1mYW1pbHk9IkltcGFjdCIgZm9udC1zaXplPSIxMiIgbGVuZ3RoQWRqdXN0PSJzcGFjaW5nIiB0ZXh0TGVuZ3RoPSIzMiIgeD0iOTc4Ljc1IiB5PSIxMjAyLjg2NzIiPmZpbGVzPC90ZXh0Pjxwb2x5Z29uIGZpbGw9IiMwMDAwMDAiIHBvaW50cz0iMjg4LjUsMTI0Mi4wNTQ3LDI5OC41LDEyNDYuMDU0NywyODguNSwxMjUwLjA1NDcsMjkyLjUsMTI0Ni4wNTQ3IiBzdHlsZT0ic3Ryb2tlOiMwMDAwMDA7c3Ryb2tlLXdpZHRoOjEuMDsiLz48bGluZSBzdHlsZT0ic3Ryb2tlOiMwMDAwMDA7c3Ryb2tlLXdpZHRoOjIuMDtzdHJva2UtZGFzaGFycmF5OjIuMCwyLjA7IiB4MT0iMTM3LjUiIHgyPSIyOTQuNSIgeTE9IjEyNDYuMDU0NyIgeTI9IjEyNDYuMDU0NyIvPjx0ZXh0IGZpbGw9IiMwMDAwMDAiIGZvbnQtZmFtaWx5PSJJbXBhY3QiIGZvbnQtc2l6ZT0iMTIiIGxlbmd0aEFkanVzdD0ic3BhY2luZyIgdGV4dExlbmd0aD0iNDciIHg9IjE0OS41IiB5PSIxMjI5LjcxMDkiPlRyaWdnZXI8L3RleHQ+PHRleHQgZmlsbD0iIzAwMDAwMCIgZm9udC1mYW1pbHk9IkltcGFjdCIgZm9udC1zaXplPSIxMiIgbGVuZ3RoQWRqdXN0PSJzcGFjaW5nIiB0ZXh0TGVuZ3RoPSI2IiB4PSIxOTYuNSIgeT0iMTIyOS43MTA5Ij4mIzE2MDs8L3RleHQ+PHRleHQgZmlsbD0iIzAwMDAwMCIgZm9udC1mYW1pbHk9IkltcGFjdCIgZm9udC1zaXplPSIxMiIgbGVuZ3RoQWRqdXN0PSJzcGFjaW5nIiB0ZXh0TGVuZ3RoPSI0MCIgeD0iMjAyLjUiIHk9IjEyMjkuNzEwOSI+TGFtYmRhPC90ZXh0Pjx0ZXh0IGZpbGw9IiMwMDAwMDAiIGZvbnQtZmFtaWx5PSJJbXBhY3QiIGZvbnQtc2l6ZT0iMTIiIGxlbmd0aEFkanVzdD0ic3BhY2luZyIgdGV4dExlbmd0aD0iNiIgeD0iMjQyLjUiIHk9IjEyMjkuNzEwOSI+JiMxNjA7PC90ZXh0Pjx0ZXh0IGZpbGw9IiMwMDAwMDAiIGZvbnQtZmFtaWx5PSJJbXBhY3QiIGZvbnQtc2l6ZT0iMTIiIGxlbmd0aEFkanVzdD0ic3BhY2luZyIgdGV4dExlbmd0aD0iMTMiIHg9IjI0OC41IiB5PSIxMjI5LjcxMDkiPnRvPC90ZXh0Pjx0ZXh0IGZpbGw9IiMwMDAwMDAiIGZvbnQtZmFtaWx5PSJJbXBhY3QiIGZvbnQtc2l6ZT0iMTIiIGxlbmd0aEFkanVzdD0ic3BhY2luZyIgdGV4dExlbmd0aD0iNiIgeD0iMjYxLjUiIHk9IjEyMjkuNzEwOSI+JiMxNjA7PC90ZXh0Pjx0ZXh0IGZpbGw9IiMwMDAwMDAiIGZvbnQtZmFtaWx5PSJJbXBhY3QiIGZvbnQtc2l6ZT0iMTIiIGxlbmd0aEFkanVzdD0ic3BhY2luZyIgdGV4dExlbmd0aD0iMjEiIHg9IjI2Ny41IiB5PSIxMjI5LjcxMDkiPmFkZDwvdGV4dD48dGV4dCBmaWxsPSIjMDAwMDAwIiBmb250LWZhbWlseT0iSW1wYWN0IiBmb250LXNpemU9IjEyIiBsZW5ndGhBZGp1c3Q9InNwYWNpbmciIHRleHRMZW5ndGg9IjQ5IiB4PSIxOTQuNSIgeT0iMTI0Mi41NTQ3Ij5NZXNzYWdlPC90ZXh0Pjxwb2x5Z29uIGZpbGw9IiMwMDAwMDAiIHBvaW50cz0iNjYxLjUsMTI4MS43NDIyLDY3MS41LDEyODUuNzQyMiw2NjEuNSwxMjg5Ljc0MjIsNjY1LjUsMTI4NS43NDIyIiBzdHlsZT0ic3Ryb2tlOiMwMDAwMDA7c3Ryb2tlLXdpZHRoOjEuMDsiLz48bGluZSBzdHlsZT0ic3Ryb2tlOiMwMDAwMDA7c3Ryb2tlLXdpZHRoOjIuMDtzdHJva2UtZGFzaGFycmF5OjIuMCwyLjA7IiB4MT0iMzAwLjUiIHgyPSI2NjcuNSIgeTE9IjEyODUuNzQyMiIgeTI9IjEyODUuNzQyMiIvPjx0ZXh0IGZpbGw9IiMwMDAwMDAiIGZvbnQtZmFtaWx5PSJJbXBhY3QiIGZvbnQtc2l6ZT0iMTIiIGxlbmd0aEFkanVzdD0ic3BhY2luZyIgdGV4dExlbmd0aD0iMjEiIHg9IjQxNy41IiB5PSIxMjY5LjM5ODQiPkFkZDwvdGV4dD48dGV4dCBmaWxsPSIjMDAwMDAwIiBmb250LWZhbWlseT0iSW1wYWN0IiBmb250LXNpemU9IjEyIiBsZW5ndGhBZGp1c3Q9InNwYWNpbmciIHRleHRMZW5ndGg9IjYiIHg9IjQzOC41IiB5PSIxMjY5LjM5ODQiPiYjMTYwOzwvdGV4dD48dGV4dCBmaWxsPSIjMDAwMDAwIiBmb250LWZhbWlseT0iSW1wYWN0IiBmb250LXNpemU9IjEyIiBsZW5ndGhBZGp1c3Q9InNwYWNpbmciIHRleHRMZW5ndGg9IjQ4IiB4PSI0NDQuNSIgeT0iMTI2OS4zOTg0Ij5tZXNzYWdlPC90ZXh0Pjx0ZXh0IGZpbGw9IiMwMDAwMDAiIGZvbnQtZmFtaWx5PSJJbXBhY3QiIGZvbnQtc2l6ZT0iMTIiIGxlbmd0aEFkanVzdD0ic3BhY2luZyIgdGV4dExlbmd0aD0iNiIgeD0iNDkyLjUiIHk9IjEyNjkuMzk4NCI+JiMxNjA7PC90ZXh0Pjx0ZXh0IGZpbGw9IiMwMDAwMDAiIGZvbnQtZmFtaWx5PSJJbXBhY3QiIGZvbnQtc2l6ZT0iMTIiIGxlbmd0aEFkanVzdD0ic3BhY2luZyIgdGV4dExlbmd0aD0iNDUiIHg9IjQ5OC41IiB5PSIxMjY5LjM5ODQiPihDeWNsZTE8L3RleHQ+PHRleHQgZmlsbD0iIzAwMDAwMCIgZm9udC1mYW1pbHk9IkltcGFjdCIgZm9udC1zaXplPSIxMiIgbGVuZ3RoQWRqdXN0PSJzcGFjaW5nIiB0ZXh0TGVuZ3RoPSI2IiB4PSI1NDMuNSIgeT0iMTI2OS4zOTg0Ij4mIzE2MDs8L3RleHQ+PHRleHQgZmlsbD0iIzAwMDAwMCIgZm9udC1mYW1pbHk9IkltcGFjdCIgZm9udC1zaXplPSIxMiIgbGVuZ3RoQWRqdXN0PSJzcGFjaW5nIiB0ZXh0TGVuZ3RoPSI3IiB4PSI1NDkuNSIgeT0iMTI2OS4zOTg0Ij4mYW1wOzwvdGV4dD48dGV4dCBmaWxsPSIjMDAwMDAwIiBmb250LWZhbWlseT0iSW1wYWN0IiBmb250LXNpemU9IjEyIiBsZW5ndGhBZGp1c3Q9InNwYWNpbmciIHRleHRMZW5ndGg9IjI4NiIgeD0iMzQ0IiB5PSIxMjgyLjI0MjIiPkN5Y2xlMykoUERFUExTLiopRmlsZXMoL3ByZDovbGFuZGluZy9DTlRMLiopPC90ZXh0PjxwYXRoIGQ9Ik0xNDI2LDEzMDcuNzQyMiBMMTY5OSwxMzA3Ljc0MjIgTDE2OTksMTMxMy42NTYzIEwxNjg5LDEzMjMuNjU2MyBMMTQyNiwxMzIzLjY1NjMgTDE0MjYsMTMwNy43NDIyICIgZmlsbD0iI0ZGRDcwMCIgc3R5bGU9InN0cm9rZTojMDAwMDAwO3N0cm9rZS13aWR0aDoxLjU7Ii8+PHJlY3QgZmlsbD0ibm9uZSIgaGVpZ2h0PSIxNzguMDQ2OSIgc3R5bGU9InN0cm9rZTojN0Q4OTk4O3N0cm9rZS13aWR0aDoxLjU7IiB3aWR0aD0iMzg0IiB4PSIxNDI2IiB5PSIxMzA3Ljc0MjIiLz48dGV4dCBmaWxsPSIjMDAwMDAwIiBmb250LWZhbWlseT0ic2Fucy1zZXJpZiIgZm9udC1zaXplPSIxMyIgZm9udC13ZWlnaHQ9ImJvbGQiIGxlbmd0aEFkanVzdD0ic3BhY2luZyIgdGV4dExlbmd0aD0iMjI4IiB4PSIxNDQxIiB5PSIxMzIxLjAzMTMiPigxLjQpIFBERVBMUyBmaWxlcyBmcm9tIERhdGFicmlja3M8L3RleHQ+PHBhdGggZD0iTTE0MzYsMTMzMC42NTYzIEwxNTU1LDEzMzAuNjU2MyBMMTU1NSwxMzM2LjU3MDMgTDE1NDUsMTM0Ni41NzAzIEwxNDM2LDEzNDYuNTcwMyBMMTQzNiwxMzMwLjY1NjMgIiBmaWxsPSIjRkZENzAwIiBzdHlsZT0ic3Ryb2tlOiMwMDAwMDA7c3Ryb2tlLXdpZHRoOjEuNTsiLz48cmVjdCBmaWxsPSJub25lIiBoZWlnaHQ9IjE0OC4xMzI4IiBzdHlsZT0ic3Ryb2tlOiM3RDg5OTg7c3Ryb2tlLXdpZHRoOjEuNTsiIHdpZHRoPSIzNjQiIHg9IjE0MzYiIHk9IjEzMzAuNjU2MyIvPjx0ZXh0IGZpbGw9IiMwMDAwMDAiIGZvbnQtZmFtaWx5PSJzYW5zLXNlcmlmIiBmb250LXNpemU9IjEzIiBmb250LXdlaWdodD0iYm9sZCIgbGVuZ3RoQWRqdXN0PSJzcGFjaW5nIiB0ZXh0TGVuZ3RoPSI3NCIgeD0iMTQ1MSIgeT0iMTM0My45NDUzIj4oMS41KSBCIE8gTDwvdGV4dD48bGluZSBzdHlsZT0ic3Ryb2tlOiMwMDAwMDA7c3Ryb2tlLXdpZHRoOjIuMDtzdHJva2UtZGFzaGFycmF5OjIuMCwyLjA7IiB4MT0iMTQ5NS41IiB4Mj0iMTUzNy41IiB5MT0iMTM3OC4yNTc4IiB5Mj0iMTM3OC4yNTc4Ii8+PGxpbmUgc3R5bGU9InN0cm9rZTojMDAwMDAwO3N0cm9rZS13aWR0aDoyLjA7c3Ryb2tlLWRhc2hhcnJheToyLjAsMi4wOyIgeDE9IjE1MzcuNSIgeDI9IjE1MzcuNSIgeTE9IjEzNzguMjU3OCIgeTI9IjEzOTEuMjU3OCIvPjxsaW5lIHN0eWxlPSJzdHJva2U6IzAwMDAwMDtzdHJva2Utd2lkdGg6Mi4wO3N0cm9rZS1kYXNoYXJyYXk6Mi4wLDIuMDsiIHgxPSIxNDk2LjUiIHgyPSIxNTM3LjUiIHkxPSIxMzkxLjI1NzgiIHkyPSIxMzkxLjI1NzgiLz48cG9seWdvbiBmaWxsPSIjMDAwMDAwIiBwb2ludHM9IjE1MDYuNSwxMzg3LjI1NzgsMTQ5Ni41LDEzOTEuMjU3OCwxNTA2LjUsMTM5NS4yNTc4LDE1MDIuNSwxMzkxLjI1NzgiIHN0eWxlPSJzdHJva2U6IzAwMDAwMDtzdHJva2Utd2lkdGg6MS4wOyIvPjx0ZXh0IGZpbGw9IiMwMDAwMDAiIGZvbnQtZmFtaWx5PSJJbXBhY3QiIGZvbnQtc2l6ZT0iMTIiIGxlbmd0aEFkanVzdD0ic3BhY2luZyIgdGV4dExlbmd0aD0iMzMiIHg9IjE1MDIuNSIgeT0iMTM2MS45MTQxIj5TdGFydDwvdGV4dD48dGV4dCBmaWxsPSIjMDAwMDAwIiBmb250LWZhbWlseT0iSW1wYWN0IiBmb250LXNpemU9IjEyIiBsZW5ndGhBZGp1c3Q9InNwYWNpbmciIHRleHRMZW5ndGg9IjYiIHg9IjE1MzUuNSIgeT0iMTM2MS45MTQxIj4mIzE2MDs8L3RleHQ+PHRleHQgZmlsbD0iIzAwMDAwMCIgZm9udC1mYW1pbHk9IkltcGFjdCIgZm9udC1zaXplPSIxMiIgbGVuZ3RoQWRqdXN0PSJzcGFjaW5nIiB0ZXh0TGVuZ3RoPSIyMCIgeD0iMTU0MS41IiB5PSIxMzYxLjkxNDEiPkJPTDwvdGV4dD48dGV4dCBmaWxsPSIjMDAwMDAwIiBmb250LWZhbWlseT0iSW1wYWN0IiBmb250LXNpemU9IjEyIiBsZW5ndGhBZGp1c3Q9InNwYWNpbmciIHRleHRMZW5ndGg9IjYiIHg9IjE1NjEuNSIgeT0iMTM2MS45MTQxIj4mIzE2MDs8L3RleHQ+PHRleHQgZmlsbD0iIzAwMDAwMCIgZm9udC1mYW1pbHk9IkltcGFjdCIgZm9udC1zaXplPSIxMiIgbGVuZ3RoQWRqdXN0PSJzcGFjaW5nIiB0ZXh0TGVuZ3RoPSIzOSIgeD0iMTU2Ny41IiB5PSIxMzYxLjkxNDEiPnNjcmlwdDwvdGV4dD48dGV4dCBmaWxsPSIjMDAwMDAwIiBmb250LWZhbWlseT0iSW1wYWN0IiBmb250LXNpemU9IjEyIiBsZW5ndGhBZGp1c3Q9InNwYWNpbmciIHRleHRMZW5ndGg9IjUyIiB4PSIxNTI4LjUiIHk9IjEzNzQuNzU3OCI+KFBERVBMUyk8L3RleHQ+PGxpbmUgc3R5bGU9InN0cm9rZTojMDAwMDAwO3N0cm9rZS13aWR0aDoyLjA7c3Ryb2tlLWRhc2hhcnJheToyLjAsMi4wOyIgeDE9IjE0OTUuNSIgeDI9IjE1MzcuNSIgeTE9IjE0MzAuOTQ1MyIgeTI9IjE0MzAuOTQ1MyIvPjxsaW5lIHN0eWxlPSJzdHJva2U6IzAwMDAwMDtzdHJva2Utd2lkdGg6Mi4wO3N0cm9rZS1kYXNoYXJyYXk6Mi4wLDIuMDsiIHgxPSIxNTM3LjUiIHgyPSIxNTM3LjUiIHkxPSIxNDMwLjk0NTMiIHkyPSIxNDQzLjk0NTMiLz48bGluZSBzdHlsZT0ic3Ryb2tlOiMwMDAwMDA7c3Ryb2tlLXdpZHRoOjIuMDtzdHJva2UtZGFzaGFycmF5OjIuMCwyLjA7IiB4MT0iMTQ5Ni41IiB4Mj0iMTUzNy41IiB5MT0iMTQ0My45NDUzIiB5Mj0iMTQ0My45NDUzIi8+PHBvbHlnb24gZmlsbD0iIzAwMDAwMCIgcG9pbnRzPSIxNTA2LjUsMTQzOS45NDUzLDE0OTYuNSwxNDQzLjk0NTMsMTUwNi41LDE0NDcuOTQ1MywxNTAyLjUsMTQ0My45NDUzIiBzdHlsZT0ic3Ryb2tlOiMwMDAwMDA7c3Ryb2tlLXdpZHRoOjEuMDsiLz48dGV4dCBmaWxsPSIjMDAwMDAwIiBmb250LWZhbWlseT0iSW1wYWN0IiBmb250LXNpemU9IjEyIiBsZW5ndGhBZGp1c3Q9InNwYWNpbmciIHRleHRMZW5ndGg9IjI4IiB4PSIxNTA3IiB5PSIxNDE0LjYwMTYiPkJlbmU8L3RleHQ+PHRleHQgZmlsbD0iIzAwMDAwMCIgZm9udC1mYW1pbHk9IkltcGFjdCIgZm9udC1zaXplPSIxMiIgbGVuZ3RoQWRqdXN0PSJzcGFjaW5nIiB0ZXh0TGVuZ3RoPSI2IiB4PSIxNTM1IiB5PSIxNDE0LjYwMTYiPiYjMTYwOzwvdGV4dD48dGV4dCBmaWxsPSIjMDAwMDAwIiBmb250LWZhbWlseT0iSW1wYWN0IiBmb250LXNpemU9IjEyIiBsZW5ndGhBZGp1c3Q9InNwYWNpbmciIHRleHRMZW5ndGg9IjI1IiB4PSIxNTQxIiB5PSIxNDE0LjYwMTYiPkxpbms8L3RleHQ+PHRleHQgZmlsbD0iIzAwMDAwMCIgZm9udC1mYW1pbHk9IkltcGFjdCIgZm9udC1zaXplPSIxMiIgbGVuZ3RoQWRqdXN0PSJzcGFjaW5nIiB0ZXh0TGVuZ3RoPSI2IiB4PSIxNTY2IiB5PSIxNDE0LjYwMTYiPiYjMTYwOzwvdGV4dD48dGV4dCBmaWxsPSIjMDAwMDAwIiBmb250LWZhbWlseT0iSW1wYWN0IiBmb250LXNpemU9IjEyIiBsZW5ndGhBZGp1c3Q9InNwYWNpbmciIHRleHRMZW5ndGg9IjIwIiB4PSIxNTcyIiB5PSIxNDE0LjYwMTYiPmtleTwvdGV4dD48dGV4dCBmaWxsPSIjMDAwMDAwIiBmb250LWZhbWlseT0iSW1wYWN0IiBmb250LXNpemU9IjEyIiBsZW5ndGhBZGp1c3Q9InNwYWNpbmciIHRleHRMZW5ndGg9IjYiIHg9IjE1OTIiIHk9IjE0MTQuNjAxNiI+JiMxNjA7PC90ZXh0Pjx0ZXh0IGZpbGw9IiMwMDAwMDAiIGZvbnQtZmFtaWx5PSJJbXBhY3QiIGZvbnQtc2l6ZT0iMTIiIGxlbmd0aEFkanVzdD0ic3BhY2luZyIgdGV4dExlbmd0aD0iMjUiIHg9IjE1OTgiIHk9IjE0MTQuNjAxNiI+ZmlsZTwvdGV4dD48dGV4dCBmaWxsPSIjMDAwMDAwIiBmb250LWZhbWlseT0iSW1wYWN0IiBmb250LXNpemU9IjEyIiBsZW5ndGhBZGp1c3Q9InNwYWNpbmciIHRleHRMZW5ndGg9IjEyNSIgeD0iMTUwMi41IiB5PSIxNDI3LjQ0NTMiPnByb2Nlc3NpbmcpKEN5Y2xlMyk8L3RleHQ+PHBvbHlnb24gZmlsbD0iIzAwMDAwMCIgcG9pbnRzPSIxNzMwLDE0NjYuNzg5MSwxNzQwLDE0NzAuNzg5MSwxNzMwLDE0NzQuNzg5MSwxNzM0LDE0NzAuNzg5MSIgc3R5bGU9InN0cm9rZTojMDAwMDAwO3N0cm9rZS13aWR0aDoxLjA7Ii8+PGxpbmUgc3R5bGU9InN0cm9rZTojMDAwMDAwO3N0cm9rZS13aWR0aDoyLjA7c3Ryb2tlLWRhc2hhcnJheToyLjAsMi4wOyIgeDE9IjE0OTUuNSIgeDI9IjE3MzYiIHkxPSIxNDcwLjc4OTEiIHkyPSIxNDcwLjc4OTEiLz48dGV4dCBmaWxsPSIjMDAwMDAwIiBmb250LWZhbWlseT0iSW1wYWN0IiBmb250LXNpemU9IjEyIiBsZW5ndGhBZGp1c3Q9InNwYWNpbmciIHRleHRMZW5ndGg9IjIwIiB4PSIxNTU3LjI1IiB5PSIxNDY3LjI4OTEiPk91dDwvdGV4dD48dGV4dCBmaWxsPSIjMDAwMDAwIiBmb250LWZhbWlseT0iSW1wYWN0IiBmb250LXNpemU9IjEyIiBsZW5ndGhBZGp1c3Q9InNwYWNpbmciIHRleHRMZW5ndGg9IjYiIHg9IjE1NzcuMjUiIHk9IjE0NjcuMjg5MSI+JiMxNjA7PC90ZXh0Pjx0ZXh0IGZpbGw9IiMwMDAwMDAiIGZvbnQtZmFtaWx5PSJJbXBhY3QiIGZvbnQtc2l6ZT0iMTIiIGxlbmd0aEFkanVzdD0ic3BhY2luZyIgdGV4dExlbmd0aD0iMzUiIHg9IjE1ODMuMjUiIHk9IjE0NjcuMjg5MSI+Ym91bmQ8L3RleHQ+PHRleHQgZmlsbD0iIzAwMDAwMCIgZm9udC1mYW1pbHk9IkltcGFjdCIgZm9udC1zaXplPSIxMiIgbGVuZ3RoQWRqdXN0PSJzcGFjaW5nIiB0ZXh0TGVuZ3RoPSI2IiB4PSIxNjE4LjI1IiB5PSIxNDY3LjI4OTEiPiYjMTYwOzwvdGV4dD48dGV4dCBmaWxsPSIjMDAwMDAwIiBmb250LWZhbWlseT0iSW1wYWN0IiBmb250LXNpemU9IjEyIiBsZW5ndGhBZGp1c3Q9InNwYWNpbmciIHRleHRMZW5ndGg9IjMyIiB4PSIxNjI0LjI1IiB5PSIxNDY3LjI4OTEiPmZpbGVzPC90ZXh0Pjx0ZXh0IGZpbGw9IiMwMDAwMDAiIGZvbnQtZmFtaWx5PSJJbXBhY3QiIGZvbnQtc2l6ZT0iMTIiIGxlbmd0aEFkanVzdD0ic3BhY2luZyIgdGV4dExlbmd0aD0iNiIgeD0iMTY1Ni4yNSIgeT0iMTQ2Ny4yODkxIj4mIzE2MDs8L3RleHQ+PHRleHQgZmlsbD0iIzAwMDAwMCIgZm9udC1mYW1pbHk9IkltcGFjdCIgZm9udC1zaXplPSIxMiIgbGVuZ3RoQWRqdXN0PSJzcGFjaW5nIiB0ZXh0TGVuZ3RoPSIxOCIgeD0iMTY2Mi4yNSIgeT0iMTQ2Ny4yODkxIj5FRlQ8L3RleHQ+PHBhdGggZD0iTTQwLDE1MDYuNzg5MSBMMjkxLDE1MDYuNzg5MSBMMjkxLDE1MTIuNzAzMSBMMjgxLDE1MjIuNzAzMSBMNDAsMTUyMi43MDMxIEw0MCwxNTA2Ljc4OTEgIiBmaWxsPSIjQUREOEU2IiBzdHlsZT0ic3Ryb2tlOiMwMDAwMDA7c3Ryb2tlLXdpZHRoOjEuNTsiLz48cmVjdCBmaWxsPSJub25lIiBoZWlnaHQ9IjQyLjc1NzgiIHN0eWxlPSJzdHJva2U6IzdEODk5ODtzdHJva2Utd2lkdGg6MS41OyIgd2lkdGg9IjE1MTUiIHg9IjQwIiB5PSIxNTA2Ljc4OTEiLz48dGV4dCBmaWxsPSIjMDAwMDAwIiBmb250LWZhbWlseT0ic2Fucy1zZXJpZiIgZm9udC1zaXplPSIxMyIgZm9udC13ZWlnaHQ9ImJvbGQiIGxlbmd0aEFkanVzdD0ic3BhY2luZyIgdGV4dExlbmd0aD0iMjA2IiB4PSI1NSIgeT0iMTUyMC4wNzgxIj4oczMgZXZlbnQgLSgxLjYpIEVGVC5kb25lIGZpbGUpPC90ZXh0Pjxwb2x5Z29uIGZpbGw9IiMwMDAwMDAiIHBvaW50cz0iMTQ4LjUsMTUzNy41NDY5LDEzOC41LDE1NDEuNTQ2OSwxNDguNSwxNTQ1LjU0NjksMTQ0LjUsMTU0MS41NDY5IiBzdHlsZT0ic3Ryb2tlOiMwMDAwMDA7c3Ryb2tlLXdpZHRoOjEuMDsiLz48bGluZSBzdHlsZT0ic3Ryb2tlOiMwMDAwMDA7c3Ryb2tlLXdpZHRoOjIuMDsiIHgxPSIxNDIuNSIgeDI9IjE0OTQuNSIgeTE9IjE1NDEuNTQ2OSIgeTI9IjE1NDEuNTQ2OSIvPjx0ZXh0IGZpbGw9IiMwMDAwMDAiIGZvbnQtZmFtaWx5PSJJbXBhY3QiIGZvbnQtc2l6ZT0iMTIiIGxlbmd0aEFkanVzdD0ic3BhY2luZyIgdGV4dExlbmd0aD0iMjAiIHg9Ijc0MyIgeT0iMTUzOC4wNDY5Ij5QdXQ8L3RleHQ+PHRleHQgZmlsbD0iIzAwMDAwMCIgZm9udC1mYW1pbHk9IkltcGFjdCIgZm9udC1zaXplPSIxMiIgbGVuZ3RoQWRqdXN0PSJzcGFjaW5nIiB0ZXh0TGVuZ3RoPSI2IiB4PSI3NjMiIHk9IjE1MzguMDQ2OSI+JiMxNjA7PC90ZXh0Pjx0ZXh0IGZpbGw9IiMwMDAwMDAiIGZvbnQtZmFtaWx5PSJJbXBhY3QiIGZvbnQtc2l6ZT0iMTIiIGxlbmd0aEFkanVzdD0ic3BhY2luZyIgdGV4dExlbmd0aD0iMTgiIHg9Ijc2OSIgeT0iMTUzOC4wNDY5Ij5FRlQ8L3RleHQ+PHRleHQgZmlsbD0iIzAwMDAwMCIgZm9udC1mYW1pbHk9IkltcGFjdCIgZm9udC1zaXplPSIxMiIgbGVuZ3RoQWRqdXN0PSJzcGFjaW5nIiB0ZXh0TGVuZ3RoPSI2IiB4PSI3ODciIHk9IjE1MzguMDQ2OSI+JiMxNjA7PC90ZXh0Pjx0ZXh0IGZpbGw9IiMwMDAwMDAiIGZvbnQtZmFtaWx5PSJJbXBhY3QiIGZvbnQtc2l6ZT0iMTIiIGxlbmd0aEFkanVzdD0ic3BhY2luZyIgdGV4dExlbmd0aD0iMjgiIHg9Ijc5MyIgeT0iMTUzOC4wNDY5Ij5kb25lPC90ZXh0Pjx0ZXh0IGZpbGw9IiMwMDAwMDAiIGZvbnQtZmFtaWx5PSJJbXBhY3QiIGZvbnQtc2l6ZT0iMTIiIGxlbmd0aEFkanVzdD0ic3BhY2luZyIgdGV4dExlbmd0aD0iNiIgeD0iODIxIiB5PSIxNTM4LjA0NjkiPiYjMTYwOzwvdGV4dD48dGV4dCBmaWxsPSIjMDAwMDAwIiBmb250LWZhbWlseT0iSW1wYWN0IiBmb250LXNpemU9IjEyIiBsZW5ndGhBZGp1c3Q9InNwYWNpbmciIHRleHRMZW5ndGg9IjI1IiB4PSI4MjciIHk9IjE1MzguMDQ2OSI+ZmlsZTwvdGV4dD48dGV4dCBmaWxsPSIjMDAwMDAwIiBmb250LWZhbWlseT0iSW1wYWN0IiBmb250LXNpemU9IjEyIiBsZW5ndGhBZGp1c3Q9InNwYWNpbmciIHRleHRMZW5ndGg9IjYiIHg9Ijg1MiIgeT0iMTUzOC4wNDY5Ij4mIzE2MDs8L3RleHQ+PHRleHQgZmlsbD0iIzAwMDAwMCIgZm9udC1mYW1pbHk9IkltcGFjdCIgZm9udC1zaXplPSIxMiIgbGVuZ3RoQWRqdXN0PSJzcGFjaW5nIiB0ZXh0TGVuZ3RoPSIxMyIgeD0iODU4IiB5PSIxNTM4LjA0NjkiPnRvPC90ZXh0Pjx0ZXh0IGZpbGw9IiMwMDAwMDAiIGZvbnQtZmFtaWx5PSJJbXBhY3QiIGZvbnQtc2l6ZT0iMTIiIGxlbmd0aEFkanVzdD0ic3BhY2luZyIgdGV4dExlbmd0aD0iNiIgeD0iODcxIiB5PSIxNTM4LjA0NjkiPiYjMTYwOzwvdGV4dD48dGV4dCBmaWxsPSIjMDAwMDAwIiBmb250LWZhbWlseT0iSW1wYWN0IiBmb250LXNpemU9IjEyIiBsZW5ndGhBZGp1c3Q9InNwYWNpbmciIHRleHRMZW5ndGg9IjEzIiB4PSI4NzciIHk9IjE1MzguMDQ2OSI+czM8L3RleHQ+PCEtLVNSQz1bakxUalJ6aXM0RnV5X09maENqSnM0NWJEcWxRM2lHTW1QSmk4Y1hWTklqNEw2MzNHNGNxOWJhTURmMTl1bV94eHhZWkFha0F1cEdoS0c2QUJsN2xreFJhWnJKZC1TSC1kMHlEMm5xQTIycFU1ckY0TVNnNVpiYWtzT1g1cEVoRUtQSGUtdExvMzJjTUlRejAyTFpwWmFjYUVvckd5R2ZJbWJNR1JmX0NadE5IcWViQ0VhbVVFdGVvT3VYN0NuWEZtbF9aTjR1ZjBSRDBWTjlDWXY0ZWJzU2hmZzdNSXZHbXpXcTFsS0xUZmNPSXdzQUhFbFJEV3VOZWJIUDU1bGFXbjJTVUpvTUdxemZsQUNTa1lIdmJlcEpGR2lrMUVHcHQ5RDlUQjVkQnVudTR6aUJiR3N2NEtabmRqMkhibk1RdUJvUjhMVF92ajhlTFlhdWtDV1lFYWdTWHFhRnBEdVZHVEZldFFrQl8tRWluUDZGRUIyeFhFTGg3czRJeWJpT085RTl4SXZ1dDVrY0tSM2h1ZVBDQmI0eWI1WWtaeEhjMGJxV1lOWG44M3M0NVNSVDJvaGZQam9qeFdQcGZqb2pnRE1JN3ByQ0pQV0t5UEhoWVgtN0pDOEtxbzNXakV4NWNZdjU3NHYxZXM4azk3TUFMalFpaHR3a1ZYdi0zRnlOMy0wTnVoNF95Z3VhakluRktQYlg1WWhOQ3J5M3A5N2xraEhDVjVlYjFTWGtXMHNrY1pGT3l6Z2ZHajU3c3gyTXVlNXlzdkVMNFEwUm83cV9WekRyd0tBRXN5SWg4bUJROFRrOFZWRmRlaWlkdkViRGRWcHJZd3JLY2VsMF9lYXFoS2M2YU1RQ2RQSFhySW9WQ3EyUGJFSDdRNUZjQkpxNHlsSTNRT2ZleTVCdFowdktDSXlrX0hsbkt3TVRoVHh1OG5oSk1JSVJKWXRtbnZTWkZ0cXE4WC1SeWZFa1VIWWZFYkZZMXVtcEFzdWFJQ0lfNzBQU1FvYTdqLUFlaGVDekRYTjZmckFoTDJmWmpEaDR2VVFFdlRpeXFZT1dWV192VkduM3poSXBKRDdTWlFTN1ByWVBGZGFNcUZXOHlBSFZuRzNOdGFPdmVVNDB5cVRsRUFzd0JRZnRPelJIVWVscklVaE5QREszUTBPSnQtTkNKQ2lEd0dkZmhaM25KbHBzdWxkVVUwUHFuWWhQOFNzdzhSZDgtQVNDdHIyUHBxZDM5anBVclhrTkhvRDhtWUVXZUNST3pFWmdQNTViOWlIcHJkZHl5al84LTFXUXZodDg5RmNUb1M4M2Z6OHJRM2I0c25uaDgxRXpXMkJTa3RuWjh5NHJLTHI0b2F3SkNYV0dDRWFnRmJXTno2UmtPdmEyS2txVFVBd0tzblFXcmJJeGFLZ0sxbkZLNlJ0Z0M0X2dfSHdYUGgyZXY3bHdDV1pQZTU3Y1BoV2dBWGRIelZ1aFdrSnlIalk2VVRGR1ZqdlhVVXFnV3pEaVY1QTJ0bU43NTlUZmdXRXgyS09XQ3BiY3d1bmVBd3hlTlpMMkcwem05aW5HVG1CdkZMWWFpZWR3ZHUzM2JtV3NRR0lVMU9FTEIxNlctMDJCQW5jcnRackljeUJqcXh4dE5IbDd5dC16Ql9mTVVTdzdndlowT1Uza084WHgtTkhwbUstVFJwUi0gLWxLUUpicHM1dEMyTk80NEtFYzVxN3BvRWV6WjBjTVhpNDZiQzlUVDZRejM5MlhkUmVFalJ6V1V1dHZYYVVPcHB3S0h5T1FZZ1oyT2EyYVQ0blBiRGlwZGEwdjFYYTNIZXdGdktHMTR2eDB4WWl4YXZGSE02blhSZWZoNmFtT0szcnBSRjhtSnp5VkFRbWJ2QVpkc1VrSkttUGt2aUpmUjRXeGJOczhEUXltUDcwdEVUS2FxMUZhYmVRdEdrR0t6T2duc1oxdFBLNXdoZ09OaEFoNkRlSkhPZTQ2bDByREk0dVZzQlhBeUxfUWlJZ3hsOWM0LVAwZ3FyaUlhWWdITGYwenRVUlBXbTBKR3NsV1dyd0JHc1kxNmU0U1E1WEpEY1hYVTZFOHpyUktOTTdtZmpZMkxaRExEQWxYV0UxdDNFaUpQMm5OQ0wyV3JaMlIzdTZxLVR1cnVLM0s0STVEWEZFZ3BCUnVkUDdNbkRDck9adHN4cGIwZGRpa2IyZnJ1Y1RsX1JuZFdnWmstaFVobW1CZ3Rvc1pCdnI2dVNSbzJBM0xoZ3hmX3RKdGZvNzc1NVUtdFd4YW85clRmbWtGSVp4NHllNjlUbHNQUUVRNHhzc3hGSC1POFd5dm1mbHBQWVdmUGJha0V2MG1fQm5CQ2RNUEYtaUx1ekNXbWNKeVRMenE0MnowMW9qMjN1V3V0YXZGTWtNTEdobU1TV3JsVkppNGo1ZmNaQ2FEWlI5dzdibGtDSm5STzF0ZER2WlVyVlBCVFVlYTdHX21aUzE0bjh3UURvd2dCaTAwb1V3TUlhcDhKdHFSdE9UczJHcVhrTUJmdFN6bDV5eWxUN1dXVTVqWHRSOTVkMHdMUWl4cGJ3a0I4NG15aFN6UTRMWDNnTDZxR25QbGdCX2hXU1prOERoYWNqRzJZZkVyS0c2d3RybEp0QTRlbmJWZ1IxeVF4dXJWYkhDbUIxd05Ia3lxLThYZ2pyWEZIUnF1akhhT0p0WkVpdHZqUF9SYndKb0Fzb3A2UTBLbEV6MUlKWUF6R000MHhUS0dkeVJaQWlRcXRQNVdxbWJ5b1pjZEpKSDJFNmdvVDJuVmx1N10tLT48L2c+PC9zdmc+;" parent="1" vertex="1">
            <mxGeometry x="-1590" y="-320" width="1950" height="1699" as="geometry" />
          </mxCell>
        </UserObject>
      </root>
    </mxGraphModel>
  </diagram>
  <diagram id="fdCdjCCSj_t-zE95WRFo" name="Page-2">
    <mxGraphModel dx="2284" dy="1858" grid="1" gridSize="10" guides="1" tooltips="1" connect="1" arrows="1" fold="1" page="1" pageScale="1" pageWidth="850" pageHeight="1100" math="0" shadow="0">
      <root>
        <mxCell id="0" />
        <mxCell id="1" parent="0" />
        <UserObject label="" plantUmlData="{&#xa;  &quot;data&quot;: &quot;@startuml\n\n\n!includeurl &lt;aws/common.puml&gt;\n!includeurl &lt;aws/ApplicationServices/AmazonAPIGateway/AmazonAPIGateway.puml&gt;\n!includeurl &lt;aws/Compute/AWSLambda/AWSLambda.puml&gt;\n!includeurl &lt;aws/Compute/AWSLambda/LambdaFunction/LambdaFunction.puml&gt;\n!includeurl &lt;aws/Database/AmazonDynamoDB/AmazonDynamoDB.puml&gt;\n!includeurl &lt;aws/Database/AmazonDynamoDB/table/table.puml&gt;\n!includeurl &lt;aws/General/AWScloud/AWScloud.puml&gt;\n!includeurl &lt;aws/General/client/client.puml&gt;\n!includeurl &lt;aws/General/user/user.puml&gt;\n!includeurl &lt;aws/SDKs/JavaScript/JavaScript.puml&gt;\n!includeurl &lt;aws/Storage/AmazonS3/AmazonS3.puml&gt;\n!includeurl &lt;aws/Storage/AmazonS3/bucket/bucket.puml&gt;\n\nskinparam componentArrowColor Black\nskinparam componentBackgroundColor White\nskinparam nodeBackgroundColor White\nskinparam agentBackgroundColor White\nskinparam artifactBackgroundColor White\n\n\nUSER(user)\nCLIENT(browser)\nJAVASCRIPT(js,SDK)\n\nAWSCLOUD(aws) {\n\n    AMAZONS3(s3) {\n        BUCKET(site,www.insecurity.co)\n        BUCKET(logs,logs.insecurity.co)\n    }\n\n    AMAZONAPIGATEWAY(api)\n\n    AWSLAMBDA(lambda) {\n        LAMBDAFUNCTION(addComments,addComments)\n    }\n\n    AMAZONDYNAMODB(dynamo) {\n        TABLE(comments,Comments)\n    }\n}\n\nuser - browser\n\nbrowser -d-&gt; site :**1a**) get\\nstatic\\ncontent\nsite ~&gt; logs :1a\nsite .u.&gt; browser :**1b**\nbrowser - js\njs -r-&gt; comments :**2a**) get\\ncomments\ncomments ..&gt; js :**2b**\n\njs -r-&gt; api :**3**) add\\ncomment\n\napi -d-&gt; addComments :**4**\n\naddComments -&gt; comments :**5**\n\ncomments ..&gt; js :**6**) new\\ncomments\n@enduml&quot;,&#xa;  &quot;format&quot;: &quot;svg&quot;&#xa;}" id="1w1qgUeIe_BewW9f32Vm-1">
          <mxCell style="shape=image;noLabel=1;verticalAlign=top;aspect=fixed;imageAspect=0;image=data:image/svg+xml,PD94bWwgdmVyc2lvbj0iMS4wIiBlbmNvZGluZz0idXMtYXNjaWkiIHN0YW5kYWxvbmU9Im5vIj8+PHN2ZyB4bWxucz0iaHR0cDovL3d3dy53My5vcmcvMjAwMC9zdmciIHhtbG5zOnhsaW5rPSJodHRwOi8vd3d3LnczLm9yZy8xOTk5L3hsaW5rIiBjb250ZW50U3R5bGVUeXBlPSJ0ZXh0L2NzcyIgaGVpZ2h0PSI5NDVweCIgcHJlc2VydmVBc3BlY3RSYXRpbz0ibm9uZSIgc3R5bGU9IndpZHRoOjc5N3B4O2hlaWdodDo5NDVweDtiYWNrZ3JvdW5kOiNGRkZGRkY7IiB2ZXJzaW9uPSIxLjEiIHZpZXdCb3g9IjAgMCA3OTcgOTQ1IiB3aWR0aD0iNzk3cHgiIHpvb21BbmRQYW49Im1hZ25pZnkiPjxkZWZzLz48Zz48IS0tY2x1c3RlciBhd3MtLT48ZyBpZD0iY2x1c3Rlcl9hd3MiPjxwYXRoIGQ9Ik01Ni4wMjUsMTk4LjQ3MDEgQzcxLjM5MiwxNzUuNTc5NSA4OS43MzMsMTczLjY0MzUgMTA0Ljk3MzEsMTk4LjU5OTggQzExOS4wNDgxLDE3Ni4wNTk0IDEzNC45MTk4LDE3Mi4xOTQ1IDE1MS40MywxOTYuMTY3NiBDMTY1LjQyODgsMTcwLjc5NzYgMTg4LjUwMTQsMTY5LjM0MDEgMjA3LjI0MzcsMTkwLjQ3NDUgQzIyMS4xNTAzLDE2NS4wMjggMjQyLjQ4NzYsMTY2LjY4NiAyNTUuNzk4NywxOTEuMDU0OSBDMjY4Ljg4NTksMTY1LjYwNDggMjg5Ljc2ODcsMTY0LjcyMTQgMzA1LjQzNTUsMTg4LjQ1MTMgQzMxOS4wMjg3LDE2MS41MDA3IDM0Mi4xNTIzLDE2NS45MDgyIDM1Ni43NjgyLDE4Ny4zNjY5IEMzNzUuODk2MiwxNjEuNzE1NyAzOTguMDcxMiwxNjYuODgyNyA0MDguMDA3LDE5NS45NzEzIEM0MTkuMTIwNiwxNzEuNjkyNCA0NDEuMzE4MywxNjUuMjEyMyA0NTguNzQ5MywxODkuMzUwNSBDNDc4LjI0MTcsMTY1LjIyODQgNDk3LjEyNDIsMTY2Ljc0NzYgNTEyLjA5OTUsMTk0LjAzNzkgQzUyOC43NjUzLDE3Mi4zNTMgNTUwLjM0MjcsMTc0LjU0MDIgNTYwLjY3NiwyMDAuNDk1IEM1NzEuODI5NCwxNzYuNDU3NCA1OTEuMDQsMTc2LjQ4OTggNjA2LjQyNDEsMTk2LjA1NjQgQzYyNS4zMDc5LDE3NC4yNzc5IDY0OC4wMzE5LDE3My4yNDg5IDY2MS40NTg3LDIwMiBDNjY4LjA1LDE5OS40MTEzIDY3MC42OTU1LDIwMy4wODE3IDY3MC4zNDQ2LDIwOS4xMzY3IEM2OTQuNjA3OCwyMjQuMTEyOSA2ODguNjM2OSwyNDUuMTM2NCA2NjcuODE1NiwyNTcuNzY4IEM2ODcuNDEwNiwyNzIuNTQ2NSA2ODcuNDAwNywyOTEuODY2OSA2NjUuMjI0MywzMDQuMzIwMiBDNjg4LjQxOTgsMzE4LjEyOTIgNjk0Ljk2NDYsMzM5LjU0MTcgNjY3Ljc4NTYsMzU1Ljg1NDQgQzY5MC4xMDM1LDM2Ni4wNjkgNjkxLjkxMjEsMzg4LjIwNjMgNjcwLjY3Miw0MDEuMTkzOSBDNjkzLjcwNiw0MTguNjc0NiA2OTIuNTM4LDQzNC4wMDI3IDY2OC40ODIsNDQ5LjM0MTQgQzY5MC4wNDQ3LDQ2Mi4yNTQ3IDY5Mi41NDc3LDQ4MS4yMDUxIDY3Mi4wNDc2LDQ5Ny4yNDkgQzY5Mi43NzA3LDUxNC40MjQzIDY5Ny45NTIzLDUyOS43MTAyIDY3Mi4xMjMsNTQ2Ljk1NjEgQzcwMC43MDc1LDU2MS40MDk1IDY5NS4yNDg3LDU4MC41MjkgNjc0Ljk0MTksNTk3LjY5ODUgQzY5NS4wMTgsNjE0Ljg4NDUgNjk0LjI4MjcsNjM5LjgwMTYgNjY3LjE2OTIsNjQ5Ljk3MDYgQzY4OC45MzE2LDY2NS45NjQ3IDY5NC43MjI1LDY4Mi44ODUzIDY2OS43ODk1LDcwMS4yNjQ3IEM2OTEuNjg3NCw3MTUuNjY2NCA2OTEuNTQzNCw3MzIuMDEyMyA2NjguOTU4NCw3NDUuNTc5NyBDNjk3LjI1Niw3NjMuOTM5NiA2OTcuMDU4Myw3ODAuMTI1OCA2NjkuNzA0NCw3OTkuMjU5IEM2OTIuMjE0NSw4MTQuODE4NSA2ODYuNzc4Nyw4MzIuOTU5MyA2NjUuNTM4Myw4NDQuNDg4OSBDNjg3Ljg1MzUsODY3LjIyNiA2ODQuNDk3OCw4ODUuNzA1MyA2NTQuNDU4Nyw4OTcuNSBDNjU2LjIzODcsODk3LjA2NTEgNjU2LjkwNTgsODk4LjE0NSA2NTYuNTA1Nyw4OTkuNzIwMyBDNjM5LjU5MTgsOTIzLjk2OTggNjI0LjE5NzIsOTI1LjE1NDQgNjA1LjU3MDMsOTAxLjU0MzQgQzU5NC44NTA2LDkyNC4xODY1IDU3Mi4zNzk5LDkyNi45MjA2IDU1Ni42NTQ5LDkwNy4zNDIzIEM1NDEuODk3Nyw5MjkuOTA5NyA1MjcuNDg1LDkzNS40NTY0IDUwNy42NjQ5LDkxMi44MzA1IEM0OTEuMzM0Miw5MzMuNDY3MyA0NzIuNDAxNCw5MzMuMTE2MyA0NjAuMTEyLDkwOC41NzY2IEM0NDguMDc0Myw5MzYuMTkzMiA0MTkuNTA1Nyw5MzYuODM0OSA0MDIuNjIyMiw5MTQuMTEwNCBDMzg1LjQwNTUsOTMzLjcyODEgMzcwLjIwNDMsOTM1LjM5MzEgMzU0LjQwMDMsOTEyLjUwNzYgQzM0MC45ODc3LDkzMi4yMTg4IDMyMi4xMjExLDkzMS43NzE0IDMwOC4zNjE0LDkxMi45MjIxIEMyOTEuMTEwMiw5MzguMDUyMyAyNjUuOTM4LDkzMS43MiAyNTMuMDEyNyw5MDguMDE4OSBDMjQxLjg1MjEsOTI5LjkyNDYgMjIxLjM2Miw5MjcuNDU3IDIwOC45Mzc2LDkwOS40MTMzIEMxODkuNzExNCw5MzMuMzc3NyAxNjcuMjg4OCw5MzUuMTQyOSAxNTMuNDkyNCw5MDMuOTU0NiBDMTM3LjY0NzksOTI1LjU1NTkgMTE5LjcyNDcsOTI4Ljg2MzUgMTA1LjM3MzcsOTAyLjQ1NzYgQzgxLjQ4NSw5MjkuMjUzMiA1NC41NjI5LDkyNS43MDg5IDQyLjQ1ODcsODkwLjUgQzQ2LjU3OTYsODkwLjI5IDQ3Ljg2NzMsODkyLjY4ODMgNDYuNDY4OCw4OTYuMjk2NiBDMjAuNTc1NCw4ODEuMTI1MSAyMC44NjYzLDg2MS40MTkzIDQ3Ljc2NjEsODQ3LjY1NTggQzIzLjgyODgsODM4LjQ3MTIgMjAuNTgzNSw4MTYuODA2MSA0MC44OTcsODAxLjA5MzQgQzEyLjE0ODYsNzgyLjU3NzcgMTYuMDM4Myw3NTUuOTIzMyA0Ni41OTUxLDc0My4yNDk3IEMyMi40MTYyLDczMS45MTYzIDIxLjA1MDQsNzE2LjY3NjUgNDEuMTA4NCw2OTkuNzYyIEMxMi45ODY0LDY4Ni43MTg1IDE3Ljg1MDgsNjYxLjM4OTUgMzkuMzU5LDY0Ni43MDk1IEMxNC4wMzM0LDYzNC4zMzc2IDkuODQ3LDYxNy44MjY4IDMzLjY0NDcsNTk5LjUwNzkgQzYsNTg0LjQyNjcgOC4wNTg0LDU2NC4xMTY5IDMyLjM0MjgsNTQ3LjcyOTkgQzYuMDIwNSw1MzAuNTM2NCAxMi4xNDM5LDUxNC41MDM3IDMzLjgxMzksNDk4Ljc1MTcgQzEyLjcwODYsNDg1LjQ0MzcgMTYuMjUyLDQ2My41ODI3IDM4LjI3NDksNDU0LjYzNTkgQzE4LjY1OTUsNDM2LjU5MzggMTUuMzA2LDQxNy44MTA3IDQzLjIyNzksNDA0LjQ2MTMgQzE5LjkzNjMsMzg5Ljk1MiAyMC45NjIzLDM2NS44NzUxIDQ0LjI4MTMsMzUyLjMwNzIgQzE3Ljc1NTksMzM0LjE5NDIgMjMuNzM2MywzMTcuODc0IDQ2LjI2NjMsMzAxLjY4NDYgQzIwLjIyODMsMjg4LjY0NjcgMjMuNDY0NCwyNjUuMjgyMiA0Ni4yNjQsMjUyLjI0MjEgQzIzLjI1MDIsMjM2LjUzMjkgMjQuMjI2NCwyMDguMDE2NiA0OS40NTg3LDE5NSBDNTIuOTg0OSwxOTIuOTQ3OSA1NS45NzUzLDE5My45NDM2IDU2LjAyNSwxOTguNDcwMSAiIGZpbGw9Im5vbmUiIHN0eWxlPSJzdHJva2U6I0Y1ODUzNjtzdHJva2Utd2lkdGg6MS4wOyIvPjx0ZXh0IGZpbGw9IiMwMDAwMDAiIGZvbnQtZmFtaWx5PSJzYW5zLXNlcmlmIiBmb250LXNpemU9IjE0IiBmb250LXN0eWxlPSJpdGFsaWMiIGxlbmd0aEFkanVzdD0ic3BhY2luZyIgdGV4dExlbmd0aD0iNzIiIHg9IjMxNS45NTg3IiB5PSIyMTMuMjM0NCI+JiMxNzE7QVdTY2xvdWQmIzE4Nzs8L3RleHQ+PGltYWdlIGhlaWdodD0iNzAiIHdpZHRoPSI3MCIgeD0iMzE2Ljk1ODciIHhsaW5rOmhyZWY9ImRhdGE6aW1hZ2UvcG5nO2Jhc2U2NCxpVkJPUncwS0dnb0FBQUFOU1VoRVVnQUFBRVlBQUFCR0NBWUFBQUJ4THVLRUFBQURLVWxFUVZSNFh1MlpTMjdjTUJCRTUxUTVRUzZRRStRQ3VVYTJXWHJwWlc2WU9Mdkp0RHdsbEdxNkpKS1NCb25SQmg0Z2liL21ZNU1jd0pkZjN6OWRpMGN1K3FGNHA4UVlTb3loeEJoS2pLSEVHRXFNb2NRWVNveWh4QmhLaktIRUdFcU1vY1FZU295aHhCaEtqS0hFR0VxTW9jUVlkb241L2VQejllMzE2L1hQejI4ejhmNzI4aVd0QzdTc3BYeXRqc2FCR0xSZUQwTmlZc0RiMzJXTkNCQ0JhWDN0TCtEeVRHeDg0Nzd4UFo1MTdLMitXa2lEM0NKV2hBZkhTbWxRUEFIK3JpdXA0cmdkNFA0eFdSMlRNM2V0cnhiR3hOd0NtMUkyV1ExZTJRQVNXR1k4TDlxSTZFRDcxVEtWcWJJUlN4WmpDdzhCSE1GQ3dqMHd0eFVDWFhtZEtFdEEyK3pia1p3dmhyS0RKODcxdWU3OFRDdk5Vdkc5SldQMnNGdk1kQ05FeXQ0bUZjL1R1eEhEbVpFZHpQeTgxUzdBTitDMjl3akRZckp6SVlNbnVGajUrM2YrcHYyaUhkNTF5MmpXTUZGM1R4WU5pY21rNkcwQVdFeDJMcUFOM2xXVXl5THVNNHRuYmpPWVFkMWlkSld5Z2QxV0NsaGV2R3U5aFlqN0ZzWDdWZ1k0U1Z2dE1yckZyTjB1YzUwVk1Zc3k2aXM3TzZLdWlteUYyMldMdDBYWFlNSGFwTUVpS0ttakdaZE5tcmVYNjJlTGxqalg2QmREcTZ3VG1zb2xsYk9zNHZLc2pvNFI2S3J6VGFqOXEveXN6aFlQRTJ0QmczWUhyd3RNNWVtSzZzUUNqVUg3UUF3YWgwcHY1V0hBRnJJVjVVQmlZaHpnZ3hocHI5a1FMTXFUclpESlUwYWxCRU5pQXR3QVdLVjQxZ25xdTdZSFd0WlNEckNsT0dPeVdIb1pGdlBSS1RHR0R5a0cyNXpaMnBKS3M1aHBzSjM3OWt3Z1F3OWdwaWYrWmpGOGsvUU04Q3o0OE1VQnJGZDNkcnM1bXNVRWVrWCtpNEl5UnVMdEVnT3lsZWpkdzJjUmswZDh1TzRSWjArTVEyS0NiRDlQS2Z5eTc5OFdJMlRuQzM3YzhSR2c3ZGJvcXF4RVFKbzlESDVvSFMwS0Y0RWJtODhTMU9rNVg0SmRZZ0N2eWhyenIxSVM1cVNoREw5c3M4TlVpWEx0RDJYYS94YmREZFpZVzhVenlZUWduaWp2T1hUQm9XSkF0dWVQcHVVOG03SnRRRXB3aWhnR2tvN0lwQllaUjNHNkdHVStPM0RXM0tVeGVnNXBIOC9nNldMK0YwcU1vY1FZU295aHhCaEtqS0hFR0VxTW9jUVlTb3loeEJoS2pLSEVHRXFNb2NRWVNveWh4QmhLaktIRUdQNENGNVFXZitkUlJRb0FBQUFBU1VWT1JLNUNZSUk9IiB5PSIyMTQuOTg0NCIvPjwvZz48IS0tY2x1c3RlciBzMy0tPjxnIGlkPSJjbHVzdGVyX3MzIj48cmVjdCBmaWxsPSIjRkZGRkZGIiBoZWlnaHQ9IjI1NiIgcng9IjM1IiByeT0iMzUiIHN0eWxlPSJzdHJva2U6IzE4MTgxODtzdHJva2Utd2lkdGg6MS4wOyIgd2lkdGg9IjQwNSIgeD0iMjQwLjQ1ODciIHk9IjI5OCIvPjx0ZXh0IGZpbGw9IiMwMDAwMDAiIGZvbnQtZmFtaWx5PSJzYW5zLXNlcmlmIiBmb250LXNpemU9IjE0IiBmb250LXN0eWxlPSJpdGFsaWMiIGxlbmd0aEFkanVzdD0ic3BhY2luZyIgdGV4dExlbmd0aD0iNzMiIHg9IjQwNi40NTg3IiB5PSIzMTYuMjM0NCI+JiMxNzE7QW1hem9uUzMmIzE4Nzs8L3RleHQ+PGltYWdlIGhlaWdodD0iODMiIHdpZHRoPSI2OCIgeD0iNDA4Ljk1ODciIHhsaW5rOmhyZWY9ImRhdGE6aW1hZ2UvcG5nO2Jhc2U2NCxpVkJPUncwS0dnb0FBQUFOU1VoRVVnQUFBRVFBQUFCVENBWUFBQUFtd0tHUkFBQURWa2xFUVZSNFh1M2JzWXBVUVJDRjRYMDRYMENNeFh3ZllITXhGbE1EUTRQTmpJeDhHVUZFUkVURUJ4anBnY2IycjY3YjU5NnA3cG1nZ2crMHVOMTF6MkVjTjltNzArbDBsLzR4ZzVXK3ZIaDZxcjYvZkRqak02dVp3UXB0RVN6azJzV1l3VXdzWWF1UWF4VmpCak13ZkErTElONDVpeGxFWTNBUEMvRHcvbWhtRUlXQlJ4aDhoUHVpbUVFRWhsVXdzSUo3STVoQkJJWlZNS3lDZXlPWVFRU0dWVENzZ25zam1FRUVobFV3cklKN0k1aEJCSVpWTUt5Q2V5T1lRUVNHVlRDc2duc2ptRUVFaGxVd3JJSjdJNWhCQklaVk1LeUNleVA4OTVmNmN0OGU3aTlhekxBS2hsVnc3NGkzcjMzR1BGaXdFT0lpNG4wSzdsQndMM0ZIcTVleG5Pa2U2ajI4WmMrTGVIaW40cEtkWHNidVJkN0RxcS8zejgyZEk3eER3VHYyOERKT0thU2M1NTBqdkdQa3lJNldsekVMZ1N3RXJsckk1MmRQalBMOW8reFhkM2k4SFVzTFlYaUZWNUMzUTlXN3M1aGFDTU5GcUFVZCtaOU15VGlsa0lvdnpuQkg4RjJQOGpKT0xhU24zTjBXeGNEUndUMWV4dVdGOUZ6NmZYQ0VsekVMZ1N3RXNoQzRlaUh0bDJ6Rjk1bkJ5emk5a0JxNERjMTlaY1p6M3RuZStTTzhqRk1LMmZ0UHdDdGt5OTRkNUdYTVFpQUxnU3dFc2hESVFpQUxnU3dFc2hESVFpQUxnU3dFc2hESVFpQUxnU3dFc2hESVFtQktJYTF5VjFXQ0Y5em5GZEtlM1RwL2hKZHhlaUZiWmdZZThUSmV0WkNxN09NN3pPWmx6RUlnQzRHYktLUlk5ZDFSZVJtWEYvTGo5YXZUejdkdnpuNS9lRHo3OCtualdmbnpyL2Z2enMrVVoyZCtjcnlNVXd1cDRVdklOdmhlNVh5NXA5eFozaTNpMCtSbG5GSklQVjhLS1dFWThLajZDU3JsWFBycDhUSk9LNlM5ci83Z3RiZWd0b0RSanIyOGpFc0tJYStnclFKb3RHUEV5M2lWUXNqNzBYM0wzaDNrWmJ5SlFncmVNWEprUjh2TG1JWEFsRUo0bjRKM0tIakhIbDdHa0VKdTRSZUk5dTcxTW5Zdjh4NzJYb1M0WE1FZEN1NGw3bWd4WXozVHZjUjdXTVhsQ29aVmNPOUl1NjltNURQbVVBU0dWVENzZ25zam1FRUVobFV3cklKN0k1aEJCSVpWTUt5Q2V5T1lRUVNHVlRDc2duc2ptRUVFaGxVd3JJSjdJNWhCQklaVk1LeUNleU9ZUVFTR1ZUQ3NnbnNqbUVFRWhsVXdySUo3STVoQkJJWlZNS3lDZXlPWVFTU0czc0t3Vzdnbmtobk13UEE5RE4zRGUyY3dnNWxZZ2xvSTc1bkpERlpnR2IxQ2VHWVZNMWlwVndpZldlMHZicnV4OXo5a0Z0MEFBQUFBU1VWT1JLNUNZSUk9IiB5PSIzMTkuOTg0NCIvPjwvZz48IS0tY2x1c3RlciBsYW1iZGEtLT48ZyBpZD0iY2x1c3Rlcl9sYW1iZGEiPjxwb2x5Z29uIGZpbGw9IiNGRkZGRkYiIHBvaW50cz0iMTYzLjQ1ODcsNjI3LjUsMTczLjQ1ODcsNjE3LjUsMzUxLjQ1ODcsNjE3LjUsMzUxLjQ1ODcsODY5LjUsMzQxLjQ1ODcsODc5LjUsMTYzLjQ1ODcsODc5LjUsMTYzLjQ1ODcsNjI3LjUiIHN0eWxlPSJzdHJva2U6IzE4MTgxODtzdHJva2Utd2lkdGg6MS4wOyIvPjxsaW5lIHN0eWxlPSJzdHJva2U6IzE4MTgxODtzdHJva2Utd2lkdGg6MS4wOyIgeDE9IjM0MS40NTg3IiB4Mj0iMzUxLjQ1ODciIHkxPSI2MjcuNSIgeTI9IjYxNy41Ii8+PGxpbmUgc3R5bGU9InN0cm9rZTojMTgxODE4O3N0cm9rZS13aWR0aDoxLjA7IiB4MT0iMTYzLjQ1ODciIHgyPSIzNDEuNDU4NyIgeTE9IjYyNy41IiB5Mj0iNjI3LjUiLz48bGluZSBzdHlsZT0ic3Ryb2tlOiMxODE4MTg7c3Ryb2tlLXdpZHRoOjEuMDsiIHgxPSIzNDEuNDU4NyIgeDI9IjM0MS40NTg3IiB5MT0iNjI3LjUiIHkyPSI4NzkuNSIvPjx0ZXh0IGZpbGw9IiMwMDAwMDAiIGZvbnQtZmFtaWx5PSJzYW5zLXNlcmlmIiBmb250LXNpemU9IjE0IiBmb250LXN0eWxlPSJpdGFsaWMiIGxlbmd0aEFkanVzdD0ic3BhY2luZyIgdGV4dExlbmd0aD0iODAiIHg9IjIxMy40NTg3IiB5PSI2NDMuNzM0NCI+JiMxNzE7QVdTTGFtYmRhJiMxODc7PC90ZXh0PjxpbWFnZSBoZWlnaHQ9Ijg0IiB3aWR0aD0iNzAiIHg9IjIxOC40NTg3IiB4bGluazpocmVmPSJkYXRhOmltYWdlL3BuZztiYXNlNjQsaVZCT1J3MEtHZ29BQUFBTlNVaEVVZ0FBQUVZQUFBQlVDQVlBQUFBL01FRVVBQUFER1VsRVFWUjRYdTJaUFk0VU1SU0U5MVNjZ0F0d0FpN0FCVGdBSWlOQ0V4SVFFRzVJdU9tZWlKK0ZvTUd0OGF4VjVWby9kOXZkN2JhRFQwakZlN2JyRXlQTkxuZlROTjBkZ2QvZjNrMVA5KzhuelBlQ2dxMzVkWGt6elh4NU80dng0TnpXVUxBVk55RkN6TjZDS0tnTkNVbUkyVXNRQmJVZ0VVaEN6TmFDS0NnTkNWQVl4V3dsaUlMU2tBQkZwcGphZ2lnb0RRbFFMQlJUU3hBRnBTRUJpcFZpUEhqL1VpaklKZlhGakFRb0Nvbng0RHR5b2NES1M0V2ljeWtpNTVRQTMyMkZnaFM1aFdoZWtUaG5MZGdqQlFVS0ttSXM1RDVxdEJNamNVNHBzSmVDQWdVVk1SWTZtaGdQOWtNb1VGQVJZNkdqaXZGZ1R3OEY3cEd4SlNwaUxIUjBNUjcwRUMyT1N3NHFZaXpVaWhqUFRRdzk4Q0xFL0g4NHpsa0t0U2JHTThRSWhoaEJrMkw4anlFMWFWTE16MCt2cHg4ZlhzMS91cjBhb3BvV2c3aHpTa2xxVW95YlJ5bEk3cGxJazJJYzdyc0d5bEFzK2NnMUxRWkJJUXAzWDByU3FjUWdLQVJ4LzVLVW9GT0xRZWFQRk54N2VqSHVESGNYNWppRG5FcU1lb3N2aVVLR21LQWtTaGxpcmpNb1pZZ0o1b2FZSzdHU1E4eEZseHhpUkVuSEVCT1p2KzFsN0F3eFlxY3JNYkczcUoydXhNUjIxVTUzWXVaOXcwNlhZdVl6RWp0RGpOanBVa3k0cjNhNkU0TzdhcWNyTWJHM3FKMnV4T0Q4U3p0RGpOanBSc3o0SVRJeVAzN3RFQ2s1ZmxGMTRaS2hsQ0VtbUJ0aXJvUWxVY29RY3grWDBvVVlSNnkwdXd0em5FRk9MOFpDckVPWFl2NCtmcDBVZng0K1QwL2ZQOUs1bmxPSndmS0tsQlJIODJLd3RNSWlJNlJKTWE0a0ZrZHVJakpraERRcEJpV1FqTWhPTHMyTEtTa2pwRWt4YXo0aVZ0b1Vzd0ZEakdDSUVUeC9YUTRlaVVNT0ttSXMxSm9ZNzRPK1BZWmlNSStTS05TS0dQUkFZaFJVeEZqbzZHS3dwNGNDQlJVeEZqcXFHT3lIVUtDZ0lzWkNSeE9EdlJRVXBNZ3RSUE9LeERscndSNHBLTENpQ3NtNUZKWEU0SHVzVUpDTEs0VVovcjJKd21Md0hibFFVQm9Tb0Nna0J1OWZDZ1dsSVFHS2xXTHczclZRVUJvU29GZ29CdThyQlFXbElRR0tUREY0VDJrb3FBV0pRSXhpOE54YVVGQWJFbUlVZytmVWhvS3RzSXJCdmEyZ1lHdVVHSnpiR2dyMnd2OVhLZVo3OFEvOVlTcU1qVkZjbmdBQUFBQkpSVTVFcmtKZ2dnPT0iIHk9IjY0NS40ODQ0Ii8+PC9nPjwhLS1jbHVzdGVyIGR5bmFtby0tPjxnIGlkPSJjbHVzdGVyX2R5bmFtbyI+PHBhdGggZD0iTTQ4MS40NTg3LDYyNS41IEM0ODEuNDU4Nyw2MTUuNSA1NDcuNDU4Nyw2MTUuNSA1NDcuNDU4Nyw2MTUuNSBDNTQ3LjQ1ODcsNjE1LjUgNjEzLjQ1ODcsNjE1LjUgNjEzLjQ1ODcsNjI1LjUgTDYxMy40NTg3LDg3MS41IEM2MTMuNDU4Nyw4ODEuNSA1NDcuNDU4Nyw4ODEuNSA1NDcuNDU4Nyw4ODEuNSBDNTQ3LjQ1ODcsODgxLjUgNDgxLjQ1ODcsODgxLjUgNDgxLjQ1ODcsODcxLjUgTDQ4MS40NTg3LDYyNS41ICIgZmlsbD0iI0ZGRkZGRiIgc3R5bGU9InN0cm9rZTojMTgxODE4O3N0cm9rZS13aWR0aDoxLjA7Ii8+PHBhdGggZD0iTTQ4MS40NTg3LDYyNS41IEM0ODEuNDU4Nyw2MzUuNSA1NDcuNDU4Nyw2MzUuNSA1NDcuNDU4Nyw2MzUuNSBDNTQ3LjQ1ODcsNjM1LjUgNjEzLjQ1ODcsNjM1LjUgNjEzLjQ1ODcsNjI1LjUgIiBmaWxsPSJub25lIiBzdHlsZT0ic3Ryb2tlOiMxODE4MTg7c3Ryb2tlLXdpZHRoOjEuMDsiLz48dGV4dCBmaWxsPSIjMDAwMDAwIiBmb250LWZhbWlseT0ic2Fucy1zZXJpZiIgZm9udC1zaXplPSIxNCIgZm9udC1zdHlsZT0iaXRhbGljIiBsZW5ndGhBZGp1c3Q9InNwYWNpbmciIHRleHRMZW5ndGg9IjExNiIgeD0iNDg5LjQ1ODciIHk9IjY1MC43MzQ0Ij4mIzE3MTtBbWF6b25EeW5hbW9EQiYjMTg3OzwvdGV4dD48aW1hZ2UgaGVpZ2h0PSI3NCIgd2lkdGg9IjY1IiB4PSI1MTQuOTU4NyIgeGxpbms6aHJlZj0iZGF0YTppbWFnZS9wbmc7YmFzZTY0LGlWQk9SdzBLR2dvQUFBQU5TVWhFVWdBQUFFRUFBQUJLQ0FZQUFBRGtNRG1HQUFBQy9rbEVRVlI0WHUyWFBaTFVRQXhHOTBhY2dCUHNDVGdCRjRCMFU5S0pTYmtFQ2NrbUJDVGN5SlNtU2xQaTlaKzYxVFBqYWp0NHdXcHRTOS96dU4xKzJiYnRaVGF2Mzk2M1Q1ZmZVL244L2MvR1ByTklDaEVrdk1JUVVVVEMxeDkvcjdCdmxLUXdnZzMvQ0FtelpTU0ZIaGo4MFJKbXlVZ0tIaGc0QjBORXFVbUl5a2dLTlJpMEJrTkU4VWdZbFpFVWNqQ2dCNGFJMGlPaFYwWlNzSHg4KzVXRTg4SVFVVVlrZUdVa0JlWERsNS9iQ2hMa1BEbWYrWm9TUk1CcUVnVG1QS1FFZ1ZtekVsVEFxaElFWmk0S09LUUVDbGhaZ3BCSVlQaFJDWEs4d210RmtXdU95Q2hKc0NMQ0V1NFp2SVRPNVJGU2s2QWlpZ0pzTS9LTTRDVmFRbG9TQkxlRVBRVXZvZk5Lc0trUzloNjhoQlhTb2lwaEZVUUlnOTlWZ3Y1eXVJN01ndjI4MUg0WllRbjJrYkhEc2xFVXUvRHBjeTU5ZWgvVjNHeGRFbXhnaGlac0ZLVzArbzlJNGVOUmxkQVRtakJFbEpvRTRwRmlINCttQkliendoQlJlaVJRU0V2R29iNGRySXk3ZlR2c1hZS2k4OTBrTVBnUkpKQlR3dVdVY09XVWNEa2xYRGtsWEU0SlY1b1M5Z1JGZTJXM2pxOUtXQjBWVTkwMnIweXliVDY4QlA3elNPZzZVNVhBaGNuQ1k1OE5GODdjb2ppME1QTENKU2pJZTE0dk1yQzg4aFMrRG5OTWVVVnlFQzlzRk1VYm1wd1NUZ21uaEZQQ0tXRkVRbTIzdUtvRU8xOXoyN3lhQkpsTE4zcnViZk1xRW14NEl2V3FCRDFvWkNmSUVGRjZKT2pkYjRYWE9ac1NpRmNLUTBRcFNiQ0JCYzZiUSthMjErNldrQ01uaGlHaXFBVFBYUzVSbW0yS0JFSXBzMkNmSHVSOGhyK3JoRDBoNFhOMzN5MWgxbDE0QnEzZ1hSSjB3ZG03RUh2SGN3dG5EYmNFc2djcHBlRGRFa3E3UmR1a3hTT0Y2RXlsVnlacFNiaHRtOW1JRFh0UUdheEhrWUc5d2IwU2J0dm1JMzA3V1A3N2RyQi9IRVdDelp4SW9JakRTckFpVnBUQXJJZVR3SnhWQ1NwaUpRbk01NUlnTUZnUERCRmxWSUxBWENRcDVHQkFEd3dSWlVRQ2M1UklDalVZdEFaRFJPbVJ3TGxiSkFVUERKeURJYUo0SkhCT0wwbWhCd1ovbGdUTzFVdFNHSUVDSGlXQmM0eVNGQ0k4U2dMN1Jra0tNN2lYQlBhWnhUK0hrOEJzaWdjbDlRQUFBQUJKUlU1RXJrSmdnZz09IiB5PSI2NTIuNDg0NCIvPjwvZz48IS0tZW50aXR5IGFwaS0tPjxnIGlkPSJlbGVtX2FwaSI+PHBvbHlnb24gZmlsbD0iI0ZGRkZGRiIgcG9pbnRzPSI1MC40NTg3LDQyMS41LDYwLjQ1ODcsNDExLjUsMjIwLjQ1ODcsNDExLjUsMjIwLjQ1ODcsNTMwLjQ4NDQsMjEwLjQ1ODcsNTQwLjQ4NDQsNTAuNDU4Nyw1NDAuNDg0NCw1MC40NTg3LDQyMS41IiBzdHlsZT0ic3Ryb2tlOiMxODE4MTg7c3Ryb2tlLXdpZHRoOjAuNTsiLz48bGluZSBzdHlsZT0ic3Ryb2tlOiMxODE4MTg7c3Ryb2tlLXdpZHRoOjAuNTsiIHgxPSIyMTAuNDU4NyIgeDI9IjIyMC40NTg3IiB5MT0iNDIxLjUiIHkyPSI0MTEuNSIvPjxsaW5lIHN0eWxlPSJzdHJva2U6IzE4MTgxODtzdHJva2Utd2lkdGg6MC41OyIgeDE9IjUwLjQ1ODciIHgyPSIyMTAuNDU4NyIgeTE9IjQyMS41IiB5Mj0iNDIxLjUiLz48bGluZSBzdHlsZT0ic3Ryb2tlOiMxODE4MTg7c3Ryb2tlLXdpZHRoOjAuNTsiIHgxPSIyMTAuNDU4NyIgeDI9IjIxMC40NTg3IiB5MT0iNDIxLjUiIHkyPSI1NDAuNDg0NCIvPjx0ZXh0IGZpbGw9IiMwMDAwMDAiIGZvbnQtZmFtaWx5PSJzYW5zLXNlcmlmIiBmb250LXNpemU9IjE0IiBmb250LXN0eWxlPSJpdGFsaWMiIGxlbmd0aEFkanVzdD0ic3BhY2luZyIgdGV4dExlbmd0aD0iMTMwIiB4PSI2NS40NTg3IiB5PSI0NDQuNzM0NCI+JiMxNzE7QW1hem9uQVBJR2F0ZXdheSYjMTg3OzwvdGV4dD48aW1hZ2UgaGVpZ2h0PSI4NCIgd2lkdGg9IjcwIiB4PSI5NS40NTg3IiB4bGluazpocmVmPSJkYXRhOmltYWdlL3BuZztiYXNlNjQsaVZCT1J3MEtHZ29BQUFBTlNVaEVVZ0FBQUVZQUFBQlVDQVlBQUFBL01FRVVBQUFEL1VsRVFWUjRYdTNhc1kxVFFSREc4YXVOQm1pQUFtaUFBbWlBQmlnQUlxS0xpRWlJTGlKQ1NDQ0VoSkFRRXFJRG55WVlhL25QenVkOXovUGVjN0RCTDJEc25kbjV6bWNmQjNlbjArbnVGbnkvZjNiNi9mRHF4UHBSUW1GdkZvaXpZQnlmdDdkUTJFc2JTQytZb3dNS2hhMHhqRXZCSEJWUUtHeUZJZlF3akI3MjNVb29WT1B5Q2tOUU9LZGFLRlRqOGdxWFZ6aW5XaWhVNC9JS2wxYzRwMW9vVk9QeUNwZFhPS2RhS0ZUajhncVhWemluV2loVTQvSUtsMWM0cDFvb1ZPUHlDcGRYT0tkYUtGVGo4Z3FYVnppbldpaVFYL3JYeDVlckxzYmxGUzZ2Y0U2bTdmL2ovZlBoODZIUWEyZ1lEUEY4MWtkaFQ0VnpSdWExd1Z6cUV3cHM1aTRGUTVmNjliQ0hzcVovTHhqMkM4R3dDUzBOeHYzODhDTDB5dkJzWmtuUGxnckduWVBoNGN6YVlPd2NlMlY0Tm1NTDh1eUlrV0RjcHNIWW1TVkw4SHhtYVY5M2FEQnJMMjNZYTRUTkcvM1cyajJZYThKb3NlOVNsMExhTFpnbDd4OGoyUDhhdlMvVURPWmhCcE9hd1NSbU1Ja1pUR0lHazVqQkpHNDJtSy92bnA3eHNRejdaM3hwKzJHdWQ2LzJPYTFkZzJrRCtQTDJTYkJGTVBiY2JJNHRiNEVkR295eng0d05iaSswMVN1bTdiM2tsYmw3TUlyNmRpT2V6ZlJlRFNObU1Ja1pUR0lHa3lnTnBuMWo4emRYNXgrWExRNDRLaGkrTWJ2ZTNkbmZuSU94US93SXJERHlhZUY0dVl3dHhqa1YybGRVK09lVGFseGVZUUFLNTFRTGhXcGNYdUh5Q3VkVUM0VnFYRjdoOGdyblZBdUZhbHhlNGZJSzUxUUxoV3BjWHVIeUN1ZFVDNFZxWEY3aDhncm5WQXVGYWx4ZTRmSUs1MVFMaFdwY1h1SHlDdWRVQzRWLzMrNVBsYmI0eWZmUHA5ZGh6cldZdy9rcmFqOGk4emRpZGdIejkvT2IvNXJZbnhVL1o2d1BBOGd3Z0l6ZmxmZmx2VWZ2ei91YTRaZDY3d0lqdG5qRmpQeGRxYWYwTDVGdUJwT1l3U1JtTUluUllObzNQR00xOXNxdzF3aC9FeDRKYTlkZ2V1LzZMWHVjdlRMc25WSHovRk9tRjlSdXdiVGZKdTF2eGV3eHU5eld3ZkRqdG4zT3pRU1Q2VjB3dy83WDZNMjlxV0NXWVA5cnpHQVNNNWpFRENZeGcwbk1ZQkl6bU1TaHdSaXI5eTZ4Qm51dllmZkovdHY4cnNHMHJnMkovVWFwTUZxSEJkTWF2V3lMUFpRMVg0U2JDTVl0ZVIvaTJjelNRTnlpWVB5WHYyeEN0eFRNMGxlaUd3a20vVmNDTm5OcmdsSDllbmhlV2RyYnFHQ1lRd2dtR3pnU0RQdGt2VExzcDNET3lLeGVNT3poUWlFYmxBWERNOFRMS2V5dGNBNnh0Mm1ENGZNcEZIcXNxUWZEeHk3aDVSUXVyM0RPSlI0TTY1bFFxTWJsRlM2dmNFNjFVS2pHNVJVdXIzQk90VkNveHVVVkxxOXdUclZRcU1ibEZTNnZjRTYxVUtqRzVSVXVyM0JPdFZDb3h1VVZMcTl3VHJWUXFNYmxGUzZ2Y0U2MVVOZ0tRK2poOGozc3U1VlEyQnJER0EyR2ZiWVdDbnRoS0Zrd1BMZVhVTmhiRmd5ZnQ3ZFFPSW9Idy9wUkhnRnFNVkFsWG9STmZBQUFBQUJKUlU1RXJrSmdnZz09IiB5PSI0NDYuNDg0NCIvPjwvZz48IS0tZW50aXR5IHNpdGUtLT48ZyBpZD0iZWxlbV9zaXRlIj48cGF0aCBkPSJNMjU4LjQ1ODcsNDE0IEwyOTkuNDU4Nyw0MTQgQTMuNzUsMy43NSAwIDAgMSAzMDEuOTU4Nyw0MTYuNSBMMzA4Ljk1ODcsNDM1IEw0MTIuNDU4Nyw0MzUgQTIuNSwyLjUgMCAwIDEgNDE0Ljk1ODcsNDM3LjUgTDQxNC45NTg3LDUzNS40Njg4IEEyLjUsMi41IDAgMCAxIDQxMi40NTg3LDUzNy45Njg4IEwyNTguNDU4Nyw1MzcuOTY4OCBBMi41LDIuNSAwIDAgMSAyNTUuOTU4Nyw1MzUuNDY4OCBMMjU1Ljk1ODcsNDE2LjUgQTIuNSwyLjUgMCAwIDEgMjU4LjQ1ODcsNDE0ICIgZmlsbD0iI0Y5REZEQyIgc3R5bGU9InN0cm9rZTojMTgxODE4O3N0cm9rZS13aWR0aDowLjU7Ii8+PGxpbmUgc3R5bGU9InN0cm9rZTojMTgxODE4O3N0cm9rZS13aWR0aDowLjU7IiB4MT0iMjU1Ljk1ODciIHgyPSIzMDguOTU4NyIgeTE9IjQzNSIgeTI9IjQzNSIvPjx0ZXh0IGZpbGw9IiMwMDAwMDAiIGZvbnQtZmFtaWx5PSJzYW5zLXNlcmlmIiBmb250LXNpemU9IjE0IiBmb250LXN0eWxlPSJpdGFsaWMiIGxlbmd0aEFkanVzdD0ic3BhY2luZyIgdGV4dExlbmd0aD0iNTgiIHg9IjMwMS40NTg3IiB5PSI0NTUuMjM0NCI+JiMxNzE7YnVja2V0JiMxODc7PC90ZXh0PjxpbWFnZSBoZWlnaHQ9IjU2IiB3aWR0aD0iNTQiIHg9IjMwMy40NTg3IiB4bGluazpocmVmPSJkYXRhOmltYWdlL3BuZztiYXNlNjQsaVZCT1J3MEtHZ29BQUFBTlNVaEVVZ0FBQURZQUFBQTRDQVlBQUFDMlR3dXRBQUFCM1VsRVFWUjRYdTJXUVU3RU1BeEZlemoyTEZpeFlJWEVsZ3NqZ1JBY2doWG9SM0xrL3JoMU9sVm43SWJGazBhWnhQR2I1TGN6L2J5L1RaZnkvZnI4ZXlTODN4YWFBUXZlOE5ad2Z4Yk5RRVFSRCs1L0pzYVRzeklUNHkrelU4UjQ4Q3ljVit6cjViRVp6QTZjcG8rSHUvS0J2OHdLWE9CVXhNRG4wMzFxUWZRT0IvR3BZbG93aTZUSWFLRXFoZ2s4eUtJb0VFRlUrckJFTkpoYkh4NTQ5dk9FSmVSWDB0SWFic2lEMSt1VDhDUTA4azdHK2drTDlTYnk1dVpGVWJIK09jR3BDUEF2eUpLUlJIVlAzSytBZVpzZjk3cndFZUpjMTVOZzRJSTZaUkZmeDcxd1V4NjhmZzl3UWMxRHhHN0pUQXhIeHhPeUl0ZTVpbTNKV1ZRa1gxWHNMTmRScnVFWVltZkltWDVkek1ReTUwem5hd3d4a0Rsbk9sK05XT2FjOGQreFJpempkZVJyT0k0WXlKZ3p6cGNwbGpGbmZGcmppV1hLbVpVdlV3eGt5cG1Wci9IRU11WE11b2FyWWhseXRwU3ZSVEdRNFRvdVhjTXh4VExrYk9rYXVtS1JjN2FXcnpIRlFPU2NyZVhMRll1Y3M3WFRHbHNzWXM2OGZMbGlJR0xPdkh4MWlVVzhqdDVwL1l0RnlsbFB2cnJFQUFwRnlCcDY2SkVDellBRmlna29EcTV4aXRoRDl0TTljSDhXellDRkxzckl4aUxMY0xPNmFVYlg0bjBPRVJONGcydkQvYXpSRFBUQ214NEY3OXRMTTdBWGJxd1hyck9YUDI2MXIyYkNncU1QQUFBQUFFbEZUa1N1UW1DQyIgeT0iNDU2Ljk4NDQiLz48dGV4dCBmaWxsPSIjMDAwMDAwIiBmb250LWZhbWlseT0ic2Fucy1zZXJpZiIgZm9udC1zaXplPSIxNCIgbGVuZ3RoQWRqdXN0PSJzcGFjaW5nIiB0ZXh0TGVuZ3RoPSIxMjIiIHg9IjI3Mi45NTg3IiB5PSI1MjYuMjE4OCI+d3d3Lmluc2VjdXJpdHkuY288L3RleHQ+PC9nPjwhLS1lbnRpdHkgbG9ncy0tPjxnIGlkPSJlbGVtX2xvZ3MiPjxwYXRoIGQ9Ik00NjguNDU4Nyw0MTQgTDUwOS40NTg3LDQxNCBBMy43NSwzLjc1IDAgMCAxIDUxMS45NTg3LDQxNi41IEw1MTguOTU4Nyw0MzUgTDYyNi40NTg3LDQzNSBBMi41LDIuNSAwIDAgMSA2MjguOTU4Nyw0MzcuNSBMNjI4Ljk1ODcsNTM1LjQ2ODggQTIuNSwyLjUgMCAwIDEgNjI2LjQ1ODcsNTM3Ljk2ODggTDQ2OC40NTg3LDUzNy45Njg4IEEyLjUsMi41IDAgMCAxIDQ2NS45NTg3LDUzNS40Njg4IEw0NjUuOTU4Nyw0MTYuNSBBMi41LDIuNSAwIDAgMSA0NjguNDU4Nyw0MTQgIiBmaWxsPSIjRjlERkRDIiBzdHlsZT0ic3Ryb2tlOiMxODE4MTg7c3Ryb2tlLXdpZHRoOjAuNTsiLz48bGluZSBzdHlsZT0ic3Ryb2tlOiMxODE4MTg7c3Ryb2tlLXdpZHRoOjAuNTsiIHgxPSI0NjUuOTU4NyIgeDI9IjUxOC45NTg3IiB5MT0iNDM1IiB5Mj0iNDM1Ii8+PHRleHQgZmlsbD0iIzAwMDAwMCIgZm9udC1mYW1pbHk9InNhbnMtc2VyaWYiIGZvbnQtc2l6ZT0iMTQiIGZvbnQtc3R5bGU9Iml0YWxpYyIgbGVuZ3RoQWRqdXN0PSJzcGFjaW5nIiB0ZXh0TGVuZ3RoPSI1OCIgeD0iNTEzLjQ1ODciIHk9IjQ1NS4yMzQ0Ij4mIzE3MTtidWNrZXQmIzE4Nzs8L3RleHQ+PGltYWdlIGhlaWdodD0iNTYiIHdpZHRoPSI1NCIgeD0iNTE1LjQ1ODciIHhsaW5rOmhyZWY9ImRhdGE6aW1hZ2UvcG5nO2Jhc2U2NCxpVkJPUncwS0dnb0FBQUFOU1VoRVVnQUFBRFlBQUFBNENBWUFBQUMyVHd1dEFBQUIzVWxFUVZSNFh1MldRVTdFTUF4RmV6ajJMRml4WUlYRWxnc2pnUkFjZ2hYb1IzTGsvcmgxT2xWbjdJYkZrMGFaeFBHYjVMY3ovYnkvVFpmeS9mcjhleVM4M3hhYUFRdmU4Tlp3ZnhiTlFFUVJEKzUvSnNhVHN6SVQ0eSt6VThSNDhDeWNWK3pyNWJFWnpBNmNwbytIdS9LQnY4d0tYT0JVeE1EbjAzMXFRZlFPQi9HcFlsb3dpNlRJYUtFcWhnazh5S0lvRUVGVStyQkVOSmhiSHg1NDl2T0VKZVJYMHRJYWJzaUQxK3VUOENRMDhrN0crZ2tMOVNieTV1WkZVYkgrT2NHcENQQXZ5SktSUkhWUDNLK0FlWnNmOTdyd0VlSmMxNU5nNElJNlpSRmZ4NzF3VXg2OGZnOXdRYzFEeEc3SlRBeEh4eE95SXRlNWltM0pXVlFrWDFYc0xOZFJydUVZWW1mSW1YNWR6TVF5NTB6bmF3d3hrRGxuT2wrTldPYWM4ZCt4Uml6amRlUnJPSTRZeUpnenpwY3BsakZuZkZyamlXWEttWlV2VXd4a3lwbVZyL0hFTXVYTXVvYXJZaGx5dHBTdlJUR1E0VG91WGNNeHhUTGtiT2thdW1LUmM3YVdyekhGUU9TY3JlWExGWXVjczdYVEdsc3NZczY4ZkxsaUlHTE92SHgxaVVXOGp0NXAvWXRGeWxsUHZyckVBQXBGeUJwNjZKRUN6WUFGaWdrb0RxNXhpdGhEOXRNOWNIOFd6WUNGTHNySXhpTExjTE82YVViWDRuME9FUk40ZzJ2RC9helJEUFRDbXg0Rjc5dExNN0FYYnF3WHJyT1hQMjYxcjJiQ2dxTVBBQUFBQUVsRlRrU3VRbUNDIiB5PSI0NTYuOTg0NCIvPjx0ZXh0IGZpbGw9IiMwMDAwMDAiIGZvbnQtZmFtaWx5PSJzYW5zLXNlcmlmIiBmb250LXNpemU9IjE0IiBsZW5ndGhBZGp1c3Q9InNwYWNpbmciIHRleHRMZW5ndGg9IjEyNiIgeD0iNDgyLjk1ODciIHk9IjUyNi4yMTg4Ij5sb2dzLmluc2VjdXJpdHkuY288L3RleHQ+PC9nPjwhLS1lbnRpdHkgYWRkQ29tbWVudHMtLT48ZyBpZD0iZWxlbV9hZGRDb21tZW50cyI+PHJlY3QgZmlsbD0iI0ZFRURFMiIgaGVpZ2h0PSIxMjMuOTY4OCIgcng9IjIuNSIgcnk9IjIuNSIgc3R5bGU9InN0cm9rZTojMDAwMDAwO3N0cm9rZS13aWR0aDowLjU7IiB3aWR0aD0iMTU1IiB4PSIxNzkuOTU4NyIgeT0iNzM5LjUiLz48cmVjdCBmaWxsPSIjRkVFREUyIiBoZWlnaHQ9IjEwIiBzdHlsZT0ic3Ryb2tlOiMwMDAwMDA7c3Ryb2tlLXdpZHRoOjAuNTsiIHdpZHRoPSIxNSIgeD0iMzE0Ljk1ODciIHk9Ijc0NC41Ii8+PHJlY3QgZmlsbD0iI0ZFRURFMiIgaGVpZ2h0PSIyIiBzdHlsZT0ic3Ryb2tlOiMwMDAwMDA7c3Ryb2tlLXdpZHRoOjAuNTsiIHdpZHRoPSI0IiB4PSIzMTIuOTU4NyIgeT0iNzQ2LjUiLz48cmVjdCBmaWxsPSIjRkVFREUyIiBoZWlnaHQ9IjIiIHN0eWxlPSJzdHJva2U6IzAwMDAwMDtzdHJva2Utd2lkdGg6MC41OyIgd2lkdGg9IjQiIHg9IjMxMi45NTg3IiB5PSI3NTAuNSIvPjx0ZXh0IGZpbGw9IiMwMDAwMDAiIGZvbnQtZmFtaWx5PSJzYW5zLXNlcmlmIiBmb250LXNpemU9IjE0IiBmb250LXN0eWxlPSJpdGFsaWMiIGxlbmd0aEFkanVzdD0ic3BhY2luZyIgdGV4dExlbmd0aD0iMTE1IiB4PSIxOTQuOTU4NyIgeT0iNzcyLjczNDQiPiYjMTcxO0xhbWJkYUZ1bmN0aW9uJiMxODc7PC90ZXh0PjxpbWFnZSBoZWlnaHQ9IjY0IiB3aWR0aD0iNjIiIHg9IjIyMS40NTg3IiB4bGluazpocmVmPSJkYXRhOmltYWdlL3BuZztiYXNlNjQsaVZCT1J3MEtHZ29BQUFBTlNVaEVVZ0FBQUQ0QUFBQkFDQVlBQUFCQzZjVDFBQUFEZUVsRVFWUjRYdFdaTVhaVU1ReEZaMVVzZ0Q0TG9HY0I5TlE1TkZUUTBkR2xvNk5qTS9TVWtKQ0NNTytmY2VKNXNpM0p0dnhuaWx1TXZpM3BXYko4VG5MNDkrdm5JWkw3TDIrZWVtQS9zeEdHVVZqQUxEak9LTUxRQ3ljYUJjZnRSUmk4Y0dLcjREeThDSU1WVG1Rdk9DOHJ3bUNCZys4TjUyZEJHRnB3d0V1RDgyMGhERFU0eUtYQ2VkY1FoaExzL05MaC9Fc0lBOE5PTlI2K3ZuMzYrKzI5Q2F6bC9iTmdIWXd3aklnR0QzZnYxS0FKaU9mOU0rRjRPY0tRWUNkV1BNSkg0bGpoZUFsaEdFM0lLeHpyMmNkTU9GNUNHQUJ2OXVBVi92ajlnL0F4RzQ0SmhJRTNlZkVLQjVGRExzRXhSUks4d1V1UDhPZ2hCemptMlE5ZTNBT3FCL0hNNDQ5UEluZ0MzOWhQQktIQ2EyaWRFRDNrUUZFNEw0cUF4ZWFzR0hKZ0YrRzR5eXc0aDlkSHNJdHczSDhXbTdPeTNaZUpCcHJ3bFVOdXFYRGNZeGJMckhyVGx3blhwbnBpMVp1K1RIanJIV2Q0NzJ3MjRXeU13RnJ0eElvaHQwUTRDOU5ZOGFhSEM5ZmU3aHJSUXk1VXVQWjh0WWdlY3FIQ0xjOVhqZWczUFV5NHBkcmEwSXRzOXpEaDJ2T1ZKamZiY3lLSFhJaHdyWko1RzJ2WGdYM1BJc1N4V3Uyc2hiVXJFZldtSCs0LzN3ampDTnJ6VldyZjFrR0ZETG1qNXFuQ3RlcUIwc0RTRHF1MFp3Z0kvMzM3U243b1JCTlFlNXUxQTZ2dDZ3V2Fwd25Ya2dldHlxMGNjaS9DSjdTN2xyaFdOZTBsbURia2psbzM0WEQ2NStOcnVjQ0JsclIxUVBHK014ODBGTkU5NmIrdTdLY0Z0TUxmNW5TMDNWdFRHVmlycGMwSXJObitSay9kMWJwQ0RMUml6NHZ3em5hZlZlM05sMkZPbERCWC9kVG0yTE50eEkvZXFuTVNqS2NhUU91ZUV0YkRUVHF4NTNselQ5VzExalJYSWtQcm9CcnFBV2ZWQnM4YllmUU1PVXRicXNsVVlEOFdlUGd4MEZZVjdxazZEeGltcDlwVzN5V2E3WDZxZGxFNHNONTFTN1Y1andlTC93UU9TWHMxV0RRNGMyS3R1amFBdEVRc3RHTGdHenJLZEpVSzFRYkNxVloxYmZnMFc4NUJhWEJhcXN1VVJBT1JPR2lKeHlramVCVkxGUXlrZGsvVjVlOFdhcUpWNFo0cEg4SElJYVlwN2hKK1NlSjcwRVEzaFYrcmVJdG9zL0JyRVorTEhoSitUZUk5b2szQ1FlNFFhTy84VXJKMzJpb2FDRU1OZG40SjFlY3FXMFVEWWREZ1FMdFV2N1BLT2NKZ2dZTXVPNENDNEI3UlFCaXNjUERFZGdWbUhzTFJWNm1sUjBRRFlmRENpUlFQd1hNUXAvVXRzU09DRThMUUN5ZldBcUp5K0hzTGp0dUxNTXlBa3gyRi9jOUFHR2JESXF5d245bjhCMTdDZ1hMbkNRWjlBQUFBQUVsRlRrU3VRbUNDIiB5PSI3NzQuNDg0NCIvPjx0ZXh0IGZpbGw9IiMwMDAwMDAiIGZvbnQtZmFtaWx5PSJzYW5zLXNlcmlmIiBmb250LXNpemU9IjE0IiBsZW5ndGhBZGp1c3Q9InNwYWNpbmciIHRleHRMZW5ndGg9Ijc5IiB4PSIyMTYuNDU4NyIgeT0iODUxLjcxODgiPmFkZENvbW1lbnRzPC90ZXh0PjwvZz48IS0tZW50aXR5IGNvbW1lbnRzLS0+PGcgaWQ9ImVsZW1fY29tbWVudHMiPjxwYXRoIGQ9Ik01MDIuNDU4Nyw3MzcuNSBMNTQzLjQ1ODcsNzM3LjUgQTMuNzUsMy43NSAwIDAgMSA1NDUuOTU4Nyw3NDAgTDU1Mi45NTg3LDc1OC41IEw1OTIuNDU4Nyw3NTguNSBBMi41LDIuNSAwIDAgMSA1OTQuOTU4Nyw3NjEgTDU5NC45NTg3LDg2Mi45Njg4IEEyLjUsMi41IDAgMCAxIDU5Mi40NTg3LDg2NS40Njg4IEw1MDIuNDU4Nyw4NjUuNDY4OCBBMi41LDIuNSAwIDAgMSA0OTkuOTU4Nyw4NjIuOTY4OCBMNDk5Ljk1ODcsNzQwIEEyLjUsMi41IDAgMCAxIDUwMi40NTg3LDczNy41ICIgZmlsbD0iI0FFQ0NFQSIgc3R5bGU9InN0cm9rZTojMTgxODE4O3N0cm9rZS13aWR0aDowLjU7Ii8+PGxpbmUgc3R5bGU9InN0cm9rZTojMTgxODE4O3N0cm9rZS13aWR0aDowLjU7IiB4MT0iNDk5Ljk1ODciIHgyPSI1NTIuOTU4NyIgeTE9Ijc1OC41IiB5Mj0iNzU4LjUiLz48dGV4dCBmaWxsPSIjMDAwMDAwIiBmb250LWZhbWlseT0ic2Fucy1zZXJpZiIgZm9udC1zaXplPSIxNCIgZm9udC1zdHlsZT0iaXRhbGljIiBsZW5ndGhBZGp1c3Q9InNwYWNpbmciIHRleHRMZW5ndGg9IjUxIiB4PSI1MTYuOTU4NyIgeT0iNzc4LjczNDQiPiYjMTcxO3RhYmxlJiMxODc7PC90ZXh0PjxpbWFnZSBoZWlnaHQ9IjYwIiB3aWR0aD0iNjEiIHg9IjUxMS45NTg3IiB4bGluazpocmVmPSJkYXRhOmltYWdlL3BuZztiYXNlNjQsaVZCT1J3MEtHZ29BQUFBTlNVaEVVZ0FBQUQwQUFBQThDQVlBQUFEVlBySk1BQUFBL2tsRVFWUjRYdTNac1FrQ1FSU0VZVHV5QlZQN3NRQWp5ekUyRTR5dHhDWk9YQkFlczIrWmw4NjlDYjVraHdYL3hPTzR3L24yMmlydTc4L2hEemNsdjk5ZkRuQjBzcXR3Tk9Qb1pGZmhhTWJSeWE2aWIvVHArdHdxWWpSdVNrYjA4ZkxZS21JMGJrcjZSc2VZTHFhRERxYUREc3FQbjNnSk55V09aaHlkN0NvY3pUZzYyVlU0bW5GMHNxc1kwZmdXc2hLamNWUGlhR1pYMFRHbWkrbWdnL0kvY2J5RW14SkhNNDVPZGhXT1poeWQ3Q29jelRnNjJWV01hUHlVdVJLamNWTXlvdkV0WkNWRzQ2YWtiM1NNNldJNjZHQTY2S0Q4K0ltWGNGUGlhTWJSeWE3QzBZeWprMTJGb3hsSEo3dUtFWTF2SVNzeEdqY2xqbWIyRlAwRjJ6T3M3dmdETGM4QUFBQUFTVVZPUks1Q1lJST0iIHk9Ijc4MC40ODQ0Ii8+PHRleHQgZmlsbD0iIzAwMDAwMCIgZm9udC1mYW1pbHk9InNhbnMtc2VyaWYiIGZvbnQtc2l6ZT0iMTQiIGxlbmd0aEFkanVzdD0ic3BhY2luZyIgdGV4dExlbmd0aD0iNTgiIHg9IjUxNi45NTg3IiB5PSI4NTMuNzE4OCI+Q29tbWVudHM8L3RleHQ+PC9nPjwhLS1lbnRpdHkgdXNlci0tPjxnIGlkPSJlbGVtX3VzZXIiPjxyZWN0IGZpbGw9IiNGRkZGRkYiIGhlaWdodD0iOTAuOTg0NCIgcng9IjIuNSIgcnk9IjIuNSIgc3R5bGU9InN0cm9rZTpub25lO3N0cm9rZS13aWR0aDowLjU7IiB3aWR0aD0iNjQiIHg9IjI4Ni40NTg3IiB5PSI3Ii8+PHRleHQgZmlsbD0iIzAwMDAwMCIgZm9udC1mYW1pbHk9InNhbnMtc2VyaWYiIGZvbnQtc2l6ZT0iMTQiIGZvbnQtc3R5bGU9Iml0YWxpYyIgbGVuZ3RoQWRqdXN0PSJzcGFjaW5nIiB0ZXh0TGVuZ3RoPSI0NCIgeD0iMjk2LjQ1ODciIHk9IjMwLjIzNDQiPiYjMTcxO3VzZXImIzE4Nzs8L3RleHQ+PGltYWdlIGhlaWdodD0iNTYiIHdpZHRoPSI0MiIgeD0iMjk3LjQ1ODciIHhsaW5rOmhyZWY9ImRhdGE6aW1hZ2UvcG5nO2Jhc2U2NCxpVkJPUncwS0dnb0FBQUFOU1VoRVVnQUFBQ29BQUFBNENBWUFBQUNMM1dyTEFBQUJwRWxFUVZSNFh1M1lVWXFEUUJDRVllOS93SUFRQ0FIQlk3ajBnaUIvOVdpUHR1NHN6TVAzVWh1N0s4WmswV0ZabHVHS2VaNlhDQjVYUzRJb0ZvbmluQ2dKSXJpOEZ1ZEZTSENFUzgvaTNDTVM3T0d5cXpoL2p3UWxYSktGZTBva0tPR0NMTnhUSW9HSHc3TnhuMGNDRHdkbjR6NlBCQjRPenNaOUhnazhISnlOK3p3U2VEZzRHL2Q1SlBCd2NEYnU4MGpnbWFaSmhtZmlQbzhFbnUvM0s4T3oyR3p1ODBqZ2ViL2ZzaUNMemVZK2p3U2VjUnlYT3o1K20vbDZ2UmJ1ODBqZ3NXR2Z6MGNXWFdWbk03Mm95VHlyZG0ydWM3blBJMEdKRGN5NkJHeUd6WXFXTkJLVXJPLythdGx0eVZ1S21tM1pNejlaZHAyZktXa2tPTEl1TWZabGlCUzIxNnhmbkRNbGpRUVIyNFhyR2JZaWRzYTJXTzVzU1NOQkZKZEhjVTZVQkxWWXBJVEgxWkpnRDYrOXF6aC9qd1JiSEh3MzdqOHN5Z0ZQWXBkaVVSNzRWOWlyeVpJcnR5aGYxSXIvV1pSL2JFMHZtdTIzS01OVzlhTFpldEZzdldpMlVORTduejNadlZYazlqdFUxRzRsbUdXSjNzazJVVFR0akxid2J6WlVvQmV0RUNyUWkxWUlGZWhGS3d4OEF1ZXhvc3llRm5ySVpVV1pQUzFVb0lXaVAza3FGcmpWK1o1K0FBQUFBRWxGVGtTdVFtQ0MiIHk9IjMxLjk4NDQiLz48L2c+PCEtLWVudGl0eSBicm93c2VyLS0+PGcgaWQ9ImVsZW1fYnJvd3NlciI+PHJlY3QgZmlsbD0iI0ZGRkZGRiIgaGVpZ2h0PSI5MC45ODQ0IiByeD0iMi41IiByeT0iMi41IiBzdHlsZT0ic3Ryb2tlOiMxODE4MTg7c3Ryb2tlLXdpZHRoOjAuNTsiIHdpZHRoPSI3OCIgeD0iMzg1LjQ1ODciIHk9IjciLz48dGV4dCBmaWxsPSIjMDAwMDAwIiBmb250LWZhbWlseT0ic2Fucy1zZXJpZiIgZm9udC1zaXplPSIxNCIgZm9udC1zdHlsZT0iaXRhbGljIiBsZW5ndGhBZGp1c3Q9InNwYWNpbmciIHRleHRMZW5ndGg9IjU4IiB4PSIzOTUuNDU4NyIgeT0iMzAuMjM0NCI+JiMxNzE7Y2xpZW50JiMxODc7PC90ZXh0PjxpbWFnZSBoZWlnaHQ9IjU2IiB3aWR0aD0iNTYiIHg9IjM5Ni40NTg3IiB4bGluazpocmVmPSJkYXRhOmltYWdlL3BuZztiYXNlNjQsaVZCT1J3MEtHZ29BQUFBTlNVaEVVZ0FBQURnQUFBQTRDQVlBQUFDb2hqc2VBQUFCTEVsRVFWUjRYdTNZc1E2Q01CU0ZZVjRjUnh4eHd4RkhSbnpCbXR2a0VqaTFtbUNDbnVNZC9rUmJKZjFDUUV1VFVtcTgrenduaGRZbU9aeTNBZUtrU2htSWcycjlMM0I5b1RLRTYzOEp4Qyt6aEk0QXNvV09BTEtGamdDeWhZNEFzb1dPQUxLRmpnQ3loWTRBc29XT0FMS0ZqZ0N5aFk0QXNvV09BTEtGamdDeWhZNE12STFqTWNpSXhQVXZ3T3N3RklNcTJjbHJ6bDFYVENnMFRWTXlXM05xMjZSNEZpOTluOHlXZ1dwSXgyV2dYYUQreGs2cFFXczNubC9PMW14ck40Tjd6TFlCcXJVQUZaSHVLbjVQOElOc29hY0Fxclc4d0l1V3ZRMFFKMVhLUUJ4VUs0RHNmUjJJZDcyOTRYRzk2c1FSNFNJL0RZOXZQUjA4TWx6azN2QzRYblZDcGVvakM0WHlqdDcyVGppaGt0bnluMnRGWkxHajk4MnVRdXROTC8zMjZGMzVGb3VES3BudEFVaWJjYW93MkJTZ0FBQUFBRWxGVGtTdVFtQ0MiIHk9IjMxLjk4NDQiLz48L2c+PCEtLWVudGl0eSBqcy0tPjxnIGlkPSJlbGVtX2pzIj48cmVjdCBmaWxsPSIjRkZGRkZGIiBoZWlnaHQ9IjEyNS45Njg4IiByeD0iMi41IiByeT0iMi41IiBzdHlsZT0ic3Ryb2tlOiMwMDAwMDA7c3Ryb2tlLXdpZHRoOjAuNTsiIHdpZHRoPSIxMDciIHg9IjY4NC45NTg3IiB5PSI3MzguNSIvPjx0ZXh0IGZpbGw9IiMwMDAwMDAiIGZvbnQtZmFtaWx5PSJzYW5zLXNlcmlmIiBmb250LXNpemU9IjE0IiBmb250LXN0eWxlPSJpdGFsaWMiIGxlbmd0aEFkanVzdD0ic3BhY2luZyIgdGV4dExlbmd0aD0iODciIHg9IjY5NC45NTg3IiB5PSI3NjEuNzM0NCI+JiMxNzE7SmF2YVNjcmlwdCYjMTg3OzwvdGV4dD48aW1hZ2UgaGVpZ2h0PSI3NiIgd2lkdGg9IjY2IiB4PSI3MDUuNDU4NyIgeGxpbms6aHJlZj0iZGF0YTppbWFnZS9wbmc7YmFzZTY0LGlWQk9SdzBLR2dvQUFBQU5TVWhFVWdBQUFFSUFBQUJNQ0FZQUFBRFpYbUdZQUFBRUswbEVRVlI0WHUyYlBZNFVNUkNGOXp6Y2dCUHNCU0JISWlVaEpDTWhSU0tIQyt3QkVERUhRdndMU0l6ZXFHdGxYcFgveWovZGd6cjRkbWRmMis2cU4rMnl1MmYySm9Sd3N5ZWZiaDhFd1BwcWxMQVNNZUVJWmloaEJXd0F3KzFYb0lTWmNNTGc2N1BIRjFoZmJZZ1Nac0FKaWdHLzM5OEZhWVBYZXhxaWhKRndRdUR6bzRmaDU3dlhnZHNLT0lZMjNHKzJJVW9ZQlNjQmZyeDVHYmhkQ3JUbC9qUE5VRUl2SERqNDl1SnArUFB4UStDMkpkQUhmWG04R1lZb3dRc0hDcmdPZUZsUlA1VFFDZ2NHTU1kLzNiME4zTFlYakRtcmZpaWhCUTRHdE5RQkx6UHFoeEpxNEFBQTVqSzNtODNJK3FHRUhIeENNS29PZUJsVlA1Umd3U2NBbUt0N0dzQWdscDc2b1FTR0J3VXI2b0FYYi8xUWdzQURnZSt2bmhjSFBBcUlsZVBQR2FJRTdnZ3dCejBib3IxQnpMWDE0LzRGTndSZm50d2VxZzU0UVE3SWhmT0xEYm44NElNZ2QyTjByU0FuemxQTVVDWWN1UkNPd2lxb3V4b1JCN1RYZVpOR0NET25SdXFlWWRZOWlwQ2FHdjhZZ2VXR3Q2eWppMlZ1RnhnemVyZHFGVXZrR2kreDkwYklwV2t0T1NPV1R6YTVodDc3bDFJdThSUlJSZ2pXbHRXem9iTG1ZeXNjV3cyOG9iSnVDYXFNc0JxWDJzYmtuajE2S0QzckZGcmliVEpDcUhFWW9Oang1VGdTakcwVlZNOFY3RElDeEhNT3YvbVlwdzU0c1o2RHhySHhNUXUzRVFMYzUzY2x0elROZ3FjS1lyS3UwaFRkUnVTdzV1aG9ac1RhYlFUZUFlNXJMVnNqc0M1NW5MdmxLdUMrTW5hM0ViZ2MwZC9hRmVKdjNzaDR3QmpXMkZJYytWZ3RVNHdRckYyaGR5bTFsa3hyZDNwSUl3U3JxcmZVRDQ0bnR5b2Qyb2pVdUxtRWdNZkFxekFDV0pjNCtzV1h1TFZScXAxUzNLK1c1VVlJcVdSTEpwWGdNV3ZaelFqQnV2eEJhZHFrdUZvanJIT1c2a0NPcXpjQ3lEaXN0M0Fhc1hFYXNYRWFzWEVhc1hFYXNYRWFzWEVhc1hFSUkzakFWbVFNMW1zWkZmY1FJNEIzZXl6OVdTK1IycWEzTU1VSUFaZHB5dzJUOUdNOWhYWGo1bVdxRVFLQ3JibUZsdmFzTTlhandGNldHQ0dVNm9lMFl6MW1SV3pUalJCUzlVT09zdzU2UHdRdXNZc1J3SHJ3S3NkaXpYb0FQSVBkakJEaStpRWFYcytvQXpsTUkvRFpRZTl5MUVwcy9zbzNBaURYK0RNWE5UZExueUQvRC9Bbit4Y2pjSUJGc1BvZFdrRnFCY094KzBaOEVLUytBekVTakwvaUhLazlqYlJSbmJnaG1GbkZPYUNSV0t0VTZueXFzOEFkd1l4MVBSVllMNlY5QzZNRWhnY0NJK3RIS2NCV2NuVWdoeElzZUZBd2FzMnZEYlJFN3Q2RzIxb29JUWVmQVBUV2o1WmdMVnJxUUE0bDFNQW5CTjc2NFFsYWFLMERPWlRRQWdjQVd1dUhKM2h2SGNpaGhGWTRHR0I5RFNCRlN4SzVyd2x3MjFhVTRJVURBelgxb3lhUlVYVWdoeEo2NFVCQjd2bGlMcUhjYzFCdTI0c1NSc0dCQTZ0K3BCS2JVUWR5S0dFMG5BalhEMDR3VlFkNDNORW9ZUWFjRkpCL2lwRy84VHIxblV3ZWJ3WkttQWtuV0lMN3owUUpLK0NFR1c2L0FpV3M1QWdHQ0VwWXpSRk1BSDhCMEpsNTRFL1E5UUVBQUFBQVNVVk9SSzVDWUlJPSIgeT0iNzYzLjQ4NDQiLz48dGV4dCBmaWxsPSIjMDAwMDAwIiBmb250LWZhbWlseT0ic2Fucy1zZXJpZiIgZm9udC1zaXplPSIxNCIgbGVuZ3RoQWRqdXN0PSJzcGFjaW5nIiB0ZXh0TGVuZ3RoPSIyMSIgeD0iNzMxLjQ1ODciIHk9Ijg1Mi43MTg4Ij5TREs8L3RleHQ+PC9nPjwhLS1saW5rIHVzZXIgdG8gYnJvd3Nlci0tPjxnIGlkPSJsaW5rX3VzZXJfYnJvd3NlciI+PHBhdGggZD0iTTM1MC43NTg3LDUyLjUgQzM2Mi4yNjg3LDUyLjUgMzczLjc4ODcsNTIuNSAzODUuMzA4Nyw1Mi41ICIgZmlsbD0ibm9uZSIgaWQ9InVzZXItYnJvd3NlciIgc3R5bGU9InN0cm9rZTojMDAwMDAwO3N0cm9rZS13aWR0aDoxLjA7Ii8+PC9nPjwhLS1saW5rIGJyb3dzZXIgdG8gc2l0ZS0tPjxnIGlkPSJsaW5rX2Jyb3dzZXJfc2l0ZSI+PHBhdGggZD0iTTM4NS4zODg3LDg0LjUzIEMzNjAuNjc4NywxMDQuMjUgMzMzLjIyODcsMTI2LjM4IDMzMi40NTg3LDEyOCBDMjg5LjY0ODcsMjE3Ljc0IDMwMy4yODg3LDM0My40MzIgMzE4LjM3ODcsNDE2LjE0MiAiIGZpbGw9Im5vbmUiIGlkPSJicm93c2VyLXRvLXNpdGUiIHN0eWxlPSJzdHJva2U6IzAwMDAwMDtzdHJva2Utd2lkdGg6MS4wOyIvPjxwb2x5Z29uIGZpbGw9IiMwMDAwMDAiIHBvaW50cz0iMzE5LjQ2ODcsNDIxLjI5MiwzMjEuNTM0NCw0MTEuNjYyMiwzMTguNDQxNSw0MTYuMzk4NywzMTMuNzA1MSw0MTMuMzA1NywzMTkuNDY4Nyw0MjEuMjkyIiBzdHlsZT0ic3Ryb2tlOiMwMDAwMDA7c3Ryb2tlLXdpZHRoOjEuMDsiLz48dGV4dCBmaWxsPSIjMDAwMDAwIiBmb250LWZhbWlseT0ic2Fucy1zZXJpZiIgZm9udC1zaXplPSIxMyIgZm9udC13ZWlnaHQ9ImJvbGQiIGxlbmd0aEFkanVzdD0ic3BhY2luZyIgdGV4dExlbmd0aD0iMTQiIHg9IjMzMy40NTg3IiB5PSIxNDEuMjg5MSI+MWE8L3RleHQ+PHRleHQgZmlsbD0iIzAwMDAwMCIgZm9udC1mYW1pbHk9InNhbnMtc2VyaWYiIGZvbnQtc2l6ZT0iMTMiIGxlbmd0aEFkanVzdD0ic3BhY2luZyIgdGV4dExlbmd0aD0iMzMiIHg9IjM0Ny40NTg3IiB5PSIxNDEuMjg5MSI+KSBnZXQ8L3RleHQ+PHRleHQgZmlsbD0iIzAwMDAwMCIgZm9udC1mYW1pbHk9InNhbnMtc2VyaWYiIGZvbnQtc2l6ZT0iMTMiIGxlbmd0aEFkanVzdD0ic3BhY2luZyIgdGV4dExlbmd0aD0iMzkiIHg9IjMzNy40NTg3IiB5PSIxNTUuMjAzMSI+c3RhdGljPC90ZXh0Pjx0ZXh0IGZpbGw9IiMwMDAwMDAiIGZvbnQtZmFtaWx5PSJzYW5zLXNlcmlmIiBmb250LXNpemU9IjEzIiBsZW5ndGhBZGp1c3Q9InNwYWNpbmciIHRleHRMZW5ndGg9IjQ3IiB4PSIzMzMuNDU4NyIgeT0iMTY5LjExNzIiPmNvbnRlbnQ8L3RleHQ+PC9nPjwhLS1yZXZlcnNlIGxpbmsgYnJvd3NlciB0byBzaXRlLS0+PGcgaWQ9ImxpbmtfYnJvd3Nlcl9zaXRlIj48cGF0aCBkPSJNNDEzLjk1ODcsMTAzLjIgQzM5Ny42MDg3LDE4MC42NCAzNjYuMDk4NywzNTAuOSAzNDguMzc4Nyw0MzQuODMgIiBmaWxsPSJub25lIiBpZD0iYnJvd3Nlci1iYWNrdG8tc2l0ZSIgc3R5bGU9InN0cm9rZTojMDAwMDAwO3N0cm9rZS13aWR0aDoxLjA7c3Ryb2tlLWRhc2hhcnJheTo3LjAsNy4wOyIvPjxwb2x5Z29uIGZpbGw9IiMwMDAwMDAiIHBvaW50cz0iNDE1LjAxODcsOTguMjEsNDA5LjI1NTEsMTA2LjE5NjMsNDEzLjk5MTUsMTAzLjEwMzQsNDE3LjA4NDQsMTA3LjgzOTgsNDE1LjAxODcsOTguMjEiIHN0eWxlPSJzdHJva2U6IzAwMDAwMDtzdHJva2Utd2lkdGg6MS4wOyIvPjx0ZXh0IGZpbGw9IiMwMDAwMDAiIGZvbnQtZmFtaWx5PSJzYW5zLXNlcmlmIiBmb250LXNpemU9IjEzIiBmb250LXdlaWdodD0iYm9sZCIgbGVuZ3RoQWRqdXN0PSJzcGFjaW5nIiB0ZXh0TGVuZ3RoPSIxNCIgeD0iNDA3LjQ1ODciIHk9IjE1NS4yODkxIj4xYjwvdGV4dD48L2c+PCEtLWxpbmsgc2l0ZSB0byBsb2dzLS0+PGcgaWQ9Imxpbmtfc2l0ZV9sb2dzIj48cGF0aCBkPSJNNDE0Ljk5ODcsNDc2IEM0MjkuODg4Nyw0NzYgNDQ1LjUxODcsNDc2IDQ2MC42MDg3LDQ3NiAiIGZpbGw9Im5vbmUiIGlkPSJzaXRlLXRvLWxvZ3MiIHN0eWxlPSJzdHJva2U6IzAwMDAwMDtzdHJva2Utd2lkdGg6MS4wO3N0cm9rZS1kYXNoYXJyYXk6MS4wLDMuMDsiLz48cG9seWdvbiBmaWxsPSIjMDAwMDAwIiBwb2ludHM9IjQ2NS42OTg3LDQ3Niw0NTYuNjk4Nyw0NzIsNDYwLjY5ODcsNDc2LDQ1Ni42OTg3LDQ4MCw0NjUuNjk4Nyw0NzYiIHN0eWxlPSJzdHJva2U6IzAwMDAwMDtzdHJva2Utd2lkdGg6MS4wOyIvPjx0ZXh0IGZpbGw9IiMwMDAwMDAiIGZvbnQtZmFtaWx5PSJzYW5zLXNlcmlmIiBmb250LXNpemU9IjEzIiBsZW5ndGhBZGp1c3Q9InNwYWNpbmciIHRleHRMZW5ndGg9IjE0IiB4PSI0MzMuNDU4NyIgeT0iNDcxLjI4OTEiPjFhPC90ZXh0PjwvZz48IS0tbGluayBicm93c2VyIHRvIGpzLS0+PGcgaWQ9ImxpbmtfYnJvd3Nlcl9qcyI+PHBhdGggZD0iTTQ2My43MDg3LDY0LjEyIEM1MTQuNTM4Nyw4MC4wNyA2MDEuNzY4NywxMTUuMzMgNjQ1LjQ1ODcsMTc5IEM3NjQuNzU4NywzNTIuODQgNzU2LjkzODcsNjE4LjM4IDc0NS45Mzg3LDczOC4xMiAiIGZpbGw9Im5vbmUiIGlkPSJicm93c2VyLWpzIiBzdHlsZT0ic3Ryb2tlOiMwMDAwMDA7c3Ryb2tlLXdpZHRoOjEuMDsiLz48L2c+PCEtLWxpbmsganMgdG8gY29tbWVudHMtLT48ZyBpZD0ibGlua19qc19jb21tZW50cyI+PHBhdGggZD0iTTY4NC42Mjg3LDgwMS41IEM2NTguMjQ4Nyw4MDEuNSA2MjYuNTg4Nyw4MDEuNSA2MDAuMzM4Nyw4MDEuNSAiIGZpbGw9Im5vbmUiIGlkPSJqcy10by1jb21tZW50cyIgc3R5bGU9InN0cm9rZTojMDAwMDAwO3N0cm9rZS13aWR0aDoxLjA7Ii8+PHBvbHlnb24gZmlsbD0iIzAwMDAwMCIgcG9pbnRzPSI1OTUuMTU4Nyw4MDEuNSw2MDQuMTU4Nyw4MDUuNSw2MDAuMTU4Nyw4MDEuNSw2MDQuMTU4Nyw3OTcuNSw1OTUuMTU4Nyw4MDEuNSIgc3R5bGU9InN0cm9rZTojMDAwMDAwO3N0cm9rZS13aWR0aDoxLjA7Ii8+PHRleHQgZmlsbD0iIzAwMDAwMCIgZm9udC1mYW1pbHk9InNhbnMtc2VyaWYiIGZvbnQtc2l6ZT0iMTMiIGZvbnQtd2VpZ2h0PSJib2xkIiBsZW5ndGhBZGp1c3Q9InNwYWNpbmciIHRleHRMZW5ndGg9IjE0IiB4PSI2MTYuNDU4NyIgeT0iNzgyLjc4OTEiPjJhPC90ZXh0Pjx0ZXh0IGZpbGw9IiMwMDAwMDAiIGZvbnQtZmFtaWx5PSJzYW5zLXNlcmlmIiBmb250LXNpemU9IjEzIiBsZW5ndGhBZGp1c3Q9InNwYWNpbmciIHRleHRMZW5ndGg9IjMzIiB4PSI2MzAuNDU4NyIgeT0iNzgyLjc4OTEiPikgZ2V0PC90ZXh0Pjx0ZXh0IGZpbGw9IiMwMDAwMDAiIGZvbnQtZmFtaWx5PSJzYW5zLXNlcmlmIiBmb250LXNpemU9IjEzIiBsZW5ndGhBZGp1c3Q9InNwYWNpbmciIHRleHRMZW5ndGg9IjUzIiB4PSI2MTMuNDU4NyIgeT0iNzk2LjcwMzEiPmNvbW1lbnRzPC90ZXh0PjwvZz48IS0tbGluayBjb21tZW50cyB0byBqcy0tPjxnIGlkPSJsaW5rX2NvbW1lbnRzX2pzIj48cGF0aCBkPSJNNTk0Ljk5ODcsODEzLjQ1IEM2MDYuOTc4Nyw4MTUuOTYgNjE5Ljg3ODcsODE4LjIzIDYzMS45NTg3LDgxOS41IEM2NDcuNDU4Nyw4MjEuMTMgNjY0LjExODcsODE5LjgxIDY3OS41NDg3LDgxNy4yNyAiIGZpbGw9Im5vbmUiIGlkPSJjb21tZW50cy10by1qcyIgc3R5bGU9InN0cm9rZTojMDAwMDAwO3N0cm9rZS13aWR0aDoxLjA7c3Ryb2tlLWRhc2hhcnJheTo3LjAsNy4wOyIvPjxwb2x5Z29uIGZpbGw9IiMwMDAwMDAiIHBvaW50cz0iNjg0LjcyODcsODE2LjM3LDY3NS4xNzUyLDgxMy45NzU5LDY3OS44MDMsODE3LjIyOTEsNjc2LjU0OTgsODIxLjg1NjksNjg0LjcyODcsODE2LjM3IiBzdHlsZT0ic3Ryb2tlOiMwMDAwMDA7c3Ryb2tlLXdpZHRoOjEuMDsiLz48dGV4dCBmaWxsPSIjMDAwMDAwIiBmb250LWZhbWlseT0ic2Fucy1zZXJpZiIgZm9udC1zaXplPSIxMyIgZm9udC13ZWlnaHQ9ImJvbGQiIGxlbmd0aEFkanVzdD0ic3BhY2luZyIgdGV4dExlbmd0aD0iMTQiIHg9IjYzMi45NTg3IiB5PSI4MTcuNzg5MSI+MmI8L3RleHQ+PC9nPjwhLS1saW5rIGNvbW1lbnRzIHRvIGpzLS0+PGcgaWQ9ImxpbmtfY29tbWVudHNfanMiPjxwYXRoIGQ9Ik01OTUuMTU4Nyw4MDEuNSBDNjIwLjc0ODcsODAxLjUgNjUyLjUwODcsODAxLjUgNjc5LjYxODcsODAxLjUgIiBmaWxsPSJub25lIiBpZD0iY29tbWVudHMtdG8tanMtMSIgc3R5bGU9InN0cm9rZTojMDAwMDAwO3N0cm9rZS13aWR0aDoxLjA7c3Ryb2tlLWRhc2hhcnJheTo3LjAsNy4wOyIvPjxwb2x5Z29uIGZpbGw9IiMwMDAwMDAiIHBvaW50cz0iNjg0LjYyODcsODAxLjUsNjc1LjYyODcsNzk3LjUsNjc5LjYyODcsODAxLjUsNjc1LjYyODcsODA1LjUsNjg0LjYyODcsODAxLjUiIHN0eWxlPSJzdHJva2U6IzAwMDAwMDtzdHJva2Utd2lkdGg6MS4wOyIvPjx0ZXh0IGZpbGw9IiMwMDAwMDAiIGZvbnQtZmFtaWx5PSJzYW5zLXNlcmlmIiBmb250LXNpemU9IjEzIiBmb250LXdlaWdodD0iYm9sZCIgbGVuZ3RoQWRqdXN0PSJzcGFjaW5nIiB0ZXh0TGVuZ3RoPSI3IiB4PSI2MTkuOTU4NyIgeT0iNzgyLjc4OTEiPjY8L3RleHQ+PHRleHQgZmlsbD0iIzAwMDAwMCIgZm9udC1mYW1pbHk9InNhbnMtc2VyaWYiIGZvbnQtc2l6ZT0iMTMiIGxlbmd0aEFkanVzdD0ic3BhY2luZyIgdGV4dExlbmd0aD0iMzMiIHg9IjYyNi45NTg3IiB5PSI3ODIuNzg5MSI+KSBuZXc8L3RleHQ+PHRleHQgZmlsbD0iIzAwMDAwMCIgZm9udC1mYW1pbHk9InNhbnMtc2VyaWYiIGZvbnQtc2l6ZT0iMTMiIGxlbmd0aEFkanVzdD0ic3BhY2luZyIgdGV4dExlbmd0aD0iNTMiIHg9IjYxMy40NTg3IiB5PSI3OTYuNzAzMSI+Y29tbWVudHM8L3RleHQ+PC9nPjwhLS1saW5rIGpzIHRvIGFwaS0tPjxnIGlkPSJsaW5rX2pzX2FwaSI+PHBhdGggZD0iTTcxNC4zMzg3LDczOC4xIEM2OTMuODY4Nyw2OTQuMDMgNjYwLjAyODcsNjM3LjY0IDYxMS40NTg3LDYwNy41IEM0NzAuMzA4Nyw1MTkuOSAzOTMuMzg4Nyw2MjYuODkgMjQwLjQ1ODcsNTYyIEMyMjkuMDE4Nyw1NTcuMTUgMjE3LjgxODcsNTUwLjY2IDIwNy4yNDg3LDU0My40MyAiIGZpbGw9Im5vbmUiIGlkPSJqcy10by1hcGkiIHN0eWxlPSJzdHJva2U6IzAwMDAwMDtzdHJva2Utd2lkdGg6MS4wOyIvPjxwb2x5Z29uIGZpbGw9IiMwMDAwMDAiIHBvaW50cz0iMjAzLjA3ODcsNTQwLjUyLDIwOC4xNzU3LDU0OC45NDc0LDIwNy4xODA5LDU0My4zNzg3LDIxMi43NDk1LDU0Mi4zODM5LDIwMy4wNzg3LDU0MC41MiIgc3R5bGU9InN0cm9rZTojMDAwMDAwO3N0cm9rZS13aWR0aDoxLjA7Ii8+PHRleHQgZmlsbD0iIzAwMDAwMCIgZm9udC1mYW1pbHk9InNhbnMtc2VyaWYiIGZvbnQtc2l6ZT0iMTMiIGZvbnQtd2VpZ2h0PSJib2xkIiBsZW5ndGhBZGp1c3Q9InNwYWNpbmciIHRleHRMZW5ndGg9IjciIHg9IjU5Ny45NTg3IiB5PSI1ODMuNzg5MSI+MzwvdGV4dD48dGV4dCBmaWxsPSIjMDAwMDAwIiBmb250LWZhbWlseT0ic2Fucy1zZXJpZiIgZm9udC1zaXplPSIxMyIgbGVuZ3RoQWRqdXN0PSJzcGFjaW5nIiB0ZXh0TGVuZ3RoPSIzNCIgeD0iNjA0Ljk1ODciIHk9IjU4My43ODkxIj4pIGFkZDwvdGV4dD48dGV4dCBmaWxsPSIjMDAwMDAwIiBmb250LWZhbWlseT0ic2Fucy1zZXJpZiIgZm9udC1zaXplPSIxMyIgbGVuZ3RoQWRqdXN0PSJzcGFjaW5nIiB0ZXh0TGVuZ3RoPSI0NiIgeD0iNTk1LjQ1ODciIHk9IjU5Ny43MDMxIj5jb21tZW50PC90ZXh0PjwvZz48IS0tbGluayBhcGkgdG8gYWRkQ29tbWVudHMtLT48ZyBpZD0ibGlua19hcGlfYWRkQ29tbWVudHMiPjxwYXRoIGQ9Ik0xNTkuNDE4Nyw1NDAuNTMgQzE4MC41Mzg3LDU5Ni41NSAyMTEuMjA4Nyw2NzcuODYgMjMyLjU5ODcsNzM0LjU5ICIgZmlsbD0ibm9uZSIgaWQ9ImFwaS10by1hZGRDb21tZW50cyIgc3R5bGU9InN0cm9rZTojMDAwMDAwO3N0cm9rZS13aWR0aDoxLjA7Ii8+PHBvbHlnb24gZmlsbD0iIzAwMDAwMCIgcG9pbnRzPSIyMzQuMzc4Nyw3MzkuMzEsMjM0Ljk2MzksNzI5LjQ3ODUsMjMyLjYyMyw3MzQuNjI4NCwyMjcuNDczMiw3MzIuMjg3NSwyMzQuMzc4Nyw3MzkuMzEiIHN0eWxlPSJzdHJva2U6IzAwMDAwMDtzdHJva2Utd2lkdGg6MS4wOyIvPjx0ZXh0IGZpbGw9IiMwMDAwMDAiIGZvbnQtZmFtaWx5PSJzYW5zLXNlcmlmIiBmb250LXNpemU9IjEzIiBmb250LXdlaWdodD0iYm9sZCIgbGVuZ3RoQWRqdXN0PSJzcGFjaW5nIiB0ZXh0TGVuZ3RoPSI3IiB4PSIxNzkuNDU4NyIgeT0iNTkwLjc4OTEiPjQ8L3RleHQ+PC9nPjwhLS1saW5rIGFkZENvbW1lbnRzIHRvIGNvbW1lbnRzLS0+PGcgaWQ9ImxpbmtfYWRkQ29tbWVudHNfY29tbWVudHMiPjxwYXRoIGQ9Ik0zMzUuMTY4Nyw4MDEuNSBDMzg1LjU3ODcsODAxLjUgNDQ5LjkxODcsODAxLjUgNDk0LjQ4ODcsODAxLjUgIiBmaWxsPSJub25lIiBpZD0iYWRkQ29tbWVudHMtdG8tY29tbWVudHMiIHN0eWxlPSJzdHJva2U6IzAwMDAwMDtzdHJva2Utd2lkdGg6MS4wOyIvPjxwb2x5Z29uIGZpbGw9IiMwMDAwMDAiIHBvaW50cz0iNDk5LjU0ODcsODAxLjUsNDkwLjU0ODcsNzk3LjUsNDk0LjU0ODcsODAxLjUsNDkwLjU0ODcsODA1LjUsNDk5LjU0ODcsODAxLjUiIHN0eWxlPSJzdHJva2U6IzAwMDAwMDtzdHJva2Utd2lkdGg6MS4wOyIvPjx0ZXh0IGZpbGw9IiMwMDAwMDAiIGZvbnQtZmFtaWx5PSJzYW5zLXNlcmlmIiBmb250LXNpemU9IjEzIiBmb250LXdlaWdodD0iYm9sZCIgbGVuZ3RoQWRqdXN0PSJzcGFjaW5nIiB0ZXh0TGVuZ3RoPSI3IiB4PSI0MTMuOTU4NyIgeT0iNzk2Ljc4OTEiPjU8L3RleHQ+PC9nPjwhLS1TUkM9W2JMSFRSdmltNTd0dGh0M1YwRUwzTlJPekw1Q2Ewc2NMRGFzZ0dYUHJ3ZWpabDhtNFI2SVJlY3BRVmxqaTgwYllHVWJ1Q0RWdGRkRmt6R2RFTFNuOGFhU3E1bWR5V1dpdjkzbkRFSGphVVBnQ21MTXhZaDhpWUdiTUNNUzE1TXluZUpnTnVmLVNlUVZmN0xRcW1Gal80YnJZN2EtcE5ENFhNV0twZEF1WlY4aFVKd2JVanBhWlBnWk1qYWw2bm1nbGlRSnJnRndVdVBKeFJjbHhsc29USk1ZclRiN2xBQUMyOXNQLWFsMHlFV1FOMjJJOUFMRnJ3bjh1YnJJS0luU215MV9heTF3X3VPMjhFNUVEaTlFWGtDMlJtdjYzcUo1dURzNlRhbnJMelFqYzBSY0JNT081Smc3LXhaQkV6RTZHNEJwbVVDODVUMURDVGtTbWhpdmwxQ3pQTDA1TkZzOTU2cTM2OHRlOWV1VXhCOEk1WWh6WnFlNDNPMWJDZFl0Wmowc3lzTkdvM3dzcmRoeFN0d0VsQUYyVWZxLVhqUEt6eFJXRFdGd3JsVGJZd0xsUThIbC0wVzNnMXBzWVJ1anZDQkJhb0VIV19SWEJ4czRJTWI4dHdYTDVDT1lQZjJHTmlUZUYyQlZSaThIbFBDeWl2dDJfY3V0Q2xLSlhQOExVQjlwNVRidEl6bWF6a1p3b2FsODJER1VmMmhWQmtIVEU1dENCSHpnM0RETmNvTHVaRmpGOVZ2Y1pudU5sTWI1dkd2Z1E4TjlkNHVpU1REZVlNaVFPMmxrbWpYRTBFZTN6ZzMtNm5YSHV1cFpOczc1aWtBN2diS2NiX3ZOOEFvRVNBSXE1SWlZVkNKSVVtOWpoTjJLNi1NMXlxMm01cmV2cGFlUFIyUk9JemVMa1NQWkRlM3dTc1hwSXU1V1ZRQ0xqMUpEWUhtNWpoYWNFMzVOeFRBRzJPMmhiQ0hoczZVWDdHc19jTWNEeUNsS3BWSi1SNWVtTWYtZC0wVzAwXS0tPjwvZz48L3N2Zz4=;" parent="1" vertex="1">
            <mxGeometry x="-470" y="-80" width="800" height="948.55" as="geometry" />
          </mxCell>
        </UserObject>
      </root>
    </mxGraphModel>
  </diagram>
</mxfile>
